<?xml version="1.0" encoding="UTF-8" standalone="no"?>
<!DOCTYPE svg PUBLIC "-//W3C//DTD SVG 1.1//EN" "http://www.w3.org/Graphics/SVG/1.1/DTD/svg11.dtd">

<!-- Created with Vectornator (http://vectornator.io/) -->
<svg height="100%" stroke-miterlimit="10" style="fill-rule:nonzero;clip-rule:evenodd;stroke-linecap:round;stroke-linejoin:round;" version="1.1" viewBox="0 0 1194 834" width="100%" xmlSpace="preserve" xmlns="http://www.w3.org/2000/svg" xmlnsVectornator="http://vectornator.io" xmlns:xlink="http://www.w3.org/1999/xlink">
<metadata>
<vectornatorSetting key="IsTimeLapseWatermarkDisabled" value="false"/>
<vectornatorSetting key="UndoHistoryDisabled" value="true"/>
<vectornatorSetting key="VNDimensionsVisible" value="true"/>
<vectornatorSetting key="VNSnapToGuides" value="true"/>
<vectornatorSetting key="WDCMYKEnabledKey" value="false"/>
<vectornatorSetting key="WDDisplayWhiteBackground" value="false"/>
<vectornatorSetting key="WDDynamicGuides" value="false"/>
<vectornatorSetting key="WDGuidesVisible" value="true"/>
<vectornatorSetting key="WDIsolateActiveLayer" value="false"/>
<vectornatorSetting key="WDOutlineMode" value="false"/>
<vectornatorSetting key="WDRulersVisible" value="true"/>
<vectornatorSetting key="WDSnapToEdges" value="false"/>
<vectornatorSetting key="WDSnapToGrid" value="false"/>
<vectornatorSetting key="WDSnapToPoints" value="false"/>
<vectornatorSetting key="WDUnits" value="Points"/>
</metadata>
<defs/>
<clipPath id="ArtboardFrame">
<rect height="834" width="1194" x="0" y="0"/>
</clipPath>
<g clip-path="url(#ArtboardFrame)" id="Layer-1" vectornatorLayerName="Layer 1">
<g opacity="1">
<path d="M267.5 470.219C265.134 470.028 262.738 470.268 260.344 471.062C258.919 471.536 257.559 472.213 256.281 473C254.297 474.222 252.53 475.776 250.969 477.5C247.92 480.867 245.758 484.896 243.875 489C243.206 490.458 242.518 491.923 241.906 493.406C241.002 495.6 240.251 497.845 239.5 500.094C237.717 505.433 236.075 510.803 235.031 516.344C234.654 518.349 234.47 520.354 234.219 522.375C234.062 523.636 233.818 524.907 233.594 526.156C233.481 526.572 233.739 526.98 234.156 527.094C234.574 527.207 234.981 526.978 235.094 526.562C236.113 523.821 237.368 521.272 238.594 518.625C239.535 516.593 240.386 514.522 241.281 512.469C242.475 509.729 243.557 506.964 244.812 504.25C246.003 501.678 247.406 499.208 248.812 496.75C249.978 494.712 251.195 492.74 252.625 490.875C253.337 489.946 254.086 489.052 254.875 488.188C257.09 485.761 260.549 482.263 264.156 482.438C268.445 482.645 271.796 487.778 273.844 490.969C279.39 499.61 284.045 508.897 287.75 518.469C291.513 528.191 295.313 537.89 298.531 547.812C301.289 556.315 303.612 564.921 306.219 573.469C309.254 583.421 312.582 593.268 315.312 603.312C316.145 606.377 316.816 609.508 317.562 612.594C318.151 615.024 318.83 617.435 319.375 619.875C319.776 621.672 320.04 623.489 320.469 625.281C321.561 629.848 322.752 634.394 323.812 638.969C324.436 641.662 324.848 644.399 325.469 647.094C327.091 654.141 329.007 661.177 331.406 668C332.197 670.25 332.983 672.483 333.812 674.719C334.064 675.396 334.204 676.142 334.594 676.75C335.005 677.393 335.652 677.862 336.188 678.406C336.444 678.667 336.655 678.955 336.938 679.188C337.6 679.733 338.428 680.043 339.219 680.375C340.389 680.867 341.565 681.359 342.75 681.812C344.463 686.553 349.71 689.001 354.469 687.281C359.228 685.561 361.682 680.334 359.969 675.594C360.824 674.239 361.873 672.957 362.656 671.562C363.175 670.639 363.297 669.613 363.5 668.594C363.569 668.249 363.694 667.914 363.688 667.562C363.676 666.905 363.377 666.294 363.219 665.656C362.96 664.614 362.695 663.573 362.438 662.531C361.638 659.298 360.893 656.053 360 652.844C358.668 648.057 357.222 643.299 355.625 638.594C354.735 635.971 353.668 633.403 352.781 630.781C350.873 625.138 349.204 619.403 347.062 613.844C345.93 610.904 344.995 607.885 343.969 604.906C342.915 601.847 341.758 598.825 340.75 595.75C337.441 585.658 334.507 575.433 331 565.406C329.023 559.754 326.784 554.19 324.5 548.656C322.036 542.688 319.649 536.699 317.062 530.781C315.818 527.934 314.611 525.073 313.312 522.25C311.575 518.473 309.818 514.677 307.875 511C307.075 509.486 306.196 508.033 305.375 506.531C302.344 500.989 299.154 495.537 295.5 490.375C294.131 488.441 292.645 486.568 291.125 484.75C289.697 483.042 288.172 481.442 286.531 479.938C281.383 475.218 274.598 470.79 267.5 470.219Z" fill="#000000" stroke="none"/>
</g>
<g opacity="1">
<path d="M644.406 372.75C643.885 372.784 643.429 373.102 642.938 373.281C642.441 373.462 641.933 373.627 641.438 373.812C640.42 374.193 639.407 374.578 638.406 375C633.539 377.051 628.986 379.842 624.531 382.656C617.67 386.99 610.857 391.464 604.438 396.438C595.162 403.623 586.399 411.397 577.5 419.031C574.942 421.226 572.28 423.315 569.688 425.469C564.302 429.941 558.974 434.453 553.625 438.969C542.674 448.214 531.911 457.728 521.312 467.375C505.601 481.677 490.751 496.876 475.906 512.062C461.275 527.03 446.932 542.254 433.281 558.125C427.967 564.303 422.67 570.542 417.656 576.969C415.244 580.061 412.926 583.222 410.594 586.375C407.088 591.114 403.61 595.856 400.188 600.656C394.535 608.586 389.31 616.831 384.312 625.188C379.911 632.547 375.854 640.107 372.344 647.938C370.38 652.319 368.531 656.77 367.062 661.344C365.441 666.394 364.182 671.519 363.719 676.812C363.595 678.227 363.438 679.704 363.531 681.125C363.622 682.5 363.904 683.903 364.188 685.25C364.28 685.689 364.364 686.135 364.5 686.562C365.275 688.989 366.783 691.334 368.312 693.344C368.636 694.74 370.035 695.607 371.438 695.281C372.84 694.956 373.73 693.553 373.406 692.156C373.741 690.824 374.168 689.559 374.75 688.312C375.042 687.688 375.421 687.104 375.688 686.469C375.942 685.862 376.103 685.206 376.344 684.594C376.598 683.947 376.911 683.338 377.156 682.688C377.668 681.331 377.994 679.893 378.5 678.531C379.691 675.323 381.03 672.137 382.531 669.062C386.588 660.756 391.543 652.947 396.875 645.406C400.626 640.102 404.415 634.854 408.438 629.75C410.738 626.831 413.193 624.019 415.562 621.156C418.046 618.155 420.47 615.119 423 612.156C427.822 606.51 432.828 601.04 437.906 595.625C443.268 589.907 448.495 584.047 453.875 578.344C466.535 564.925 479.415 551.722 492.625 538.844C503.799 527.95 515.421 517.548 527.031 507.125C543.621 492.232 560.378 477.517 577.562 463.312C584.313 457.732 591.131 452.202 598.156 446.969C601.295 444.631 604.555 442.478 607.812 440.312C610.933 438.238 614.054 436.118 617.188 434.062C624.18 429.476 631.1 424.819 638.062 420.188C643.436 416.613 649.048 413.373 654.406 409.781C655.872 408.799 657.27 407.768 658.688 406.719C659.015 406.476 659.358 406.24 659.688 406C660.002 405.771 660.405 405.634 660.625 405.312C660.919 404.883 660.995 404.339 661.156 403.844C661.325 403.326 661.47 402.803 661.625 402.281C661.926 401.267 662.262 400.275 662.625 399.281C669.433 396.251 672.479 388.24 669.438 381.406C666.396 374.572 658.402 371.501 651.594 374.531C649.833 373.983 648.056 373.443 646.25 373.062C645.64 372.934 645.028 372.71 644.406 372.75Z" fill="#000000" stroke="none"/>
</g>
<g opacity="1">
<path d="M679.156 443.031C678.902 442.953 678.597 442.991 678.344 443.125C675.72 444.493 673.105 445.875 670.469 447.219C667.796 448.582 665.042 449.782 662.375 451.156C657.503 453.667 652.733 456.342 647.906 458.938C644.087 460.991 640.219 462.964 636.406 465.031C617.931 475.048 599.807 485.755 581.844 496.656C560.208 509.786 538.859 523.468 518.375 538.344C503.881 548.869 489.834 559.994 476.344 571.781C461.027 585.164 446.417 599.433 433.094 614.812C423.475 625.916 414.489 637.653 407 650.312C404.668 654.255 402.572 658.292 400.562 662.406C400.348 662.779 400.47 663.253 400.844 663.469C401.218 663.684 401.692 663.56 401.906 663.188C408.331 653.74 414.868 644.365 421.844 635.312C429.79 625 438.243 615.086 447.188 605.625C471.35 580.066 498.744 557.865 527.125 537.188C545.413 523.864 564.25 511.219 583.531 499.375C601.411 488.392 619.652 478.096 637.938 467.812C641.177 465.991 644.382 464.128 647.625 462.312C652.938 459.338 658.389 456.568 663.719 453.625C666.342 452.176 668.873 450.569 671.5 449.125C674.091 447.7 676.701 446.355 679.312 444.969C679.819 444.7 680.019 444.071 679.75 443.562C679.615 443.308 679.41 443.11 679.156 443.031Z" fill="#ed4d5e" stroke="none"/>
</g>
<g opacity="1">
<path d="M632.594 347.125C629.821 348.378 626.963 349.53 624.281 350.969C619.502 353.532 615.028 356.554 610.406 359.375C608.1 360.783 605.648 361.954 603.312 363.312C600.108 365.176 596.987 367.205 593.875 369.219C577.185 380.022 561.18 391.854 545.719 404.344C530.816 416.383 516.491 429.148 502.812 442.562C497.298 447.971 491.974 453.555 486.594 459.094C470.05 476.127 454.112 493.807 439.188 512.281C434.168 518.495 429.391 524.912 424.531 531.25C411.292 548.514 398.597 566.197 386.5 584.281C379.283 595.07 372.425 606.129 365.531 617.125C365.456 617.246 365.504 617.393 365.625 617.469C365.746 617.544 365.893 617.527 365.969 617.406C369.059 612.478 372.114 607.515 375.312 602.656C378.891 597.221 382.6 591.856 386.25 586.469C398.44 568.478 411.092 550.812 424.438 533.656C430.149 526.314 436.138 519.231 442.062 512.062C452.262 499.723 462.755 487.63 473.625 475.875C478.387 470.725 483.171 465.561 488.125 460.594C494.503 454.198 501.061 447.983 507.656 441.812C520.365 429.922 533.427 418.412 546.938 407.438C563.07 394.333 579.892 382.084 597.188 370.562C599.702 368.887 602.227 367.241 604.719 365.531C606.934 364.012 609.083 362.373 611.375 360.969C615.966 358.156 620.805 355.739 625.406 352.938C628 351.358 630.496 349.548 633.031 347.875C633.238 347.76 633.303 347.52 633.188 347.312C633.072 347.105 632.801 347.01 632.594 347.125Z" fill="#ed4d5e" stroke="none"/>
</g>
<g opacity="1">
<path d="M1343.66 161.969C1295.56 161.969 1256.59 200.811 1256.59 248.719C1256.59 296.627 1295.56 335.469 1343.66 335.469C1343.66 336.137 1343.66 336.125 1343.66 336.125C1344.46 335.963 1345.33 335.942 1346.09 335.625C1347.97 334.845 1349.11 332.982 1350.91 332.062C1351.64 331.685 1352.52 331.583 1353.34 331.5C1398.88 331.5 1435.78 294.733 1435.78 249.375C1435.78 204.017 1398.88 167.25 1353.34 167.25C1353.34 166.617 1353.34 166.625 1353.34 166.625C1352.52 166.542 1351.64 166.44 1350.91 166.062C1349.11 165.143 1347.97 163.28 1346.09 162.5C1345.33 162.183 1344.46 162.131 1343.66 161.969Z" fill="#000000" stroke="none"/>
</g>
<g opacity="1">
<path d="M763.812 205.938C759.836 205.929 755.856 206.171 751.906 206.75C746.129 207.597 740.347 209.073 734.938 211.281C723.369 216.003 713.288 224.11 706.219 234.406C704.293 237.212 702.762 240.342 701.5 243.5C700.717 245.458 700.184 247.492 699.469 249.469C698.256 252.82 696.57 256.039 695.75 259.531C695.426 260.911 695.661 262.8 695.719 264.219C695.743 264.806 695.808 265.383 695.844 265.969C695.823 266.031 695.802 266.093 695.781 266.156C691.805 278.47 690.424 291.239 689.75 304.094C689.425 310.303 689.243 316.502 689.5 322.719C689.973 334.15 691.688 345.538 694.062 356.719C695.048 361.361 696.129 366 697.438 370.562C700.547 381.401 705.162 392.069 710.969 401.719C715.179 408.715 720.157 415.146 725.844 421C730.5 425.794 735.607 430.139 741.344 433.594C747.186 437.112 753.561 439.677 760.156 441.375C766.157 442.92 772.186 443.595 778.375 443.688C781.062 443.728 783.719 443.784 786.406 443.656C796.538 443.174 806.736 440.128 816.062 436.25C823.413 433.194 830.307 429.187 837.156 425.156C839.976 423.497 842.718 421.677 845.562 420.062C851.397 416.749 857.434 413.71 862.938 409.844C866.123 407.606 869.115 405.077 872 402.469C876.043 398.814 879.869 394.9 883.438 390.781C884.848 389.153 886.182 387.466 887.562 385.812C893.479 378.727 898.851 371.077 902.5 362.562C910.176 344.654 910.678 324.199 905.188 305.625C902.022 294.917 896.914 284.87 890.688 275.625C880.507 260.508 867.186 247.624 852.406 237.031C849.768 235.14 847.18 233.209 844.438 231.469C837.753 227.225 830.774 223.556 823.656 220.094C821.096 218.848 818.531 217.547 815.906 216.438C811.371 214.52 806.689 212.953 801.969 211.562C793.414 209.042 784.641 207.283 775.75 206.531C771.783 206.196 767.789 205.946 763.812 205.938ZM768.781 232.312C771.375 232.351 773.992 232.643 776.562 232.969C781.491 233.594 786.385 234.578 791.188 235.844C796.285 237.187 801.246 238.927 806.188 240.75C808.45 241.585 810.746 242.339 812.969 243.281C819.477 246.04 825.606 249.644 831.594 253.375C833.429 254.519 835.278 255.62 837.062 256.844C848.421 264.633 858.735 274.328 867 285.344C877.04 298.726 884.192 315.047 883.844 332.031C883.663 340.839 881.324 349.245 877.906 357.312C875.557 362.857 872.931 368.26 869.281 373.094C863.606 380.61 856.397 386.734 849.469 393.031C848.132 394.247 846.87 395.505 845.531 396.719C842.351 399.602 839.138 402.556 835.719 405.156C833.735 406.665 831.535 407.96 829.406 409.25C824.336 412.322 819.028 414.871 813.562 417.156C808.537 419.257 803.493 421.281 798.25 422.781C795.275 423.633 792.251 424.245 789.219 424.844C785.847 425.509 782.53 426.279 779.094 426.562C777.358 426.706 775.612 426.642 773.875 426.562C770.597 426.412 767.27 426.052 764.062 425.344C753.942 423.108 744.02 417.424 736.531 410.312C729.317 403.462 723.755 394.778 719.312 385.938C716.269 379.879 713.709 373.637 711.531 367.219C709.462 361.121 707.642 354.994 706.312 348.688C704.534 340.25 703.547 331.629 702.969 323.031C702.533 316.56 702.102 310.019 702.344 303.531C702.661 294.997 703.728 286.584 705.062 278.156C705.1 277.918 705.149 277.676 705.188 277.438C706.58 276.599 707.671 275.218 708 273.5C709.015 271.664 710.08 269.898 711.25 268.156C711.792 267.348 712.393 266.555 712.938 265.75C713.102 265.507 713.293 265.27 713.406 265C713.635 264.45 713.775 263.876 713.969 263.312C714.511 261.733 715.102 260.152 715.781 258.625C716 258.135 716.193 257.648 716.469 257.188C717.009 256.284 717.712 255.474 718.375 254.656C719.911 252.762 721.565 251.038 723.25 249.281C724.479 248 725.644 246.688 726.969 245.5C730.352 242.466 734.27 239.941 738.406 238.062C745.646 234.774 753.499 233.328 761.375 232.688C763.842 232.487 766.303 232.276 768.781 232.312Z" fill="#000000" stroke="none"/>
</g>
<g opacity="1">
<path d="M854.719 298.75C853.358 298.934 852.006 299.381 850.75 300.125C845.725 303.1 844.056 309.568 847.031 314.594C848.937 317.886 850.021 321.352 851.125 324.969C851.402 325.877 851.764 326.745 852.031 327.656C852.587 329.548 852.958 331.572 853.156 333.531C853.984 341.69 852.09 349.957 849.344 357.594C845.072 369.471 838.404 380.385 830.844 390.438C834.672 387.314 838.384 384.06 841.906 380.594C853.658 369.027 864.135 355.249 869.031 339.312C870.335 335.068 871.188 330.712 871.469 326.281C871.565 324.755 871.681 323.212 871.562 321.688C871.066 315.324 868.476 309.254 865.219 303.844C862.988 300.075 858.802 298.198 854.719 298.75Z" fill="#000000" fill-opacity="0.573788" stroke="none"/>
</g>
<g opacity="1">
<path d="M347.812 676.625C347.84 676.567 347.706 676.72 347.688 676.781C347.687 676.784 347.717 676.778 347.719 676.781C347.756 676.733 347.787 676.679 347.812 676.625ZM347.719 676.781C347.613 676.919 347.483 677.054 347.438 677.219C347.337 677.58 347.509 677.877 347.25 678.219C347.085 678.437 346.798 678.537 346.594 678.719C346.468 678.83 346.09 679.044 346.25 679.094C346.807 679.266 346.248 679.105 346.031 679.219C346.525 678.528 346.381 677.558 345.688 677.062C344.995 676.567 344.025 676.716 343.531 677.406C345.626 680.645 346.229 681.943 345.625 680.656C345.08 679.496 344.183 678.5 343.219 677.656C343.046 677.505 342.955 678.008 342.812 678.188C342.605 678.449 342.321 678.663 342.188 678.969C342.069 679.24 342.076 679.548 342.094 679.844C342.124 680.361 342.43 680.835 342.531 681.344C342.575 681.566 342.423 681.832 342.531 682.031C342.604 682.165 342.835 682.084 342.969 682.156C343.088 682.22 343.178 682.351 343.281 682.438C343.334 682.482 343.895 682.94 343.969 682.938C344.227 682.929 344.429 682.67 344.688 682.656C344.84 682.648 344.984 682.768 345.094 682.875C345.226 683.004 345.28 683.209 345.406 683.344C345.529 683.475 345.712 683.507 345.812 683.656C345.956 683.869 345.95 684.162 346.094 684.375C346.213 684.552 346.621 685.025 346.594 684.812C346.416 683.403 346.589 684.789 347.719 683.875C349.034 684.494 350.598 683.945 351.219 682.625C351.84 681.305 351.284 679.712 349.969 679.094C348.004 679.143 347.454 679.36 348 679.156C348.777 678.866 349.417 678.278 350 677.688C350.116 677.569 349.695 677.597 349.531 677.625C349.311 677.663 349.128 677.842 348.906 677.875C348.776 677.894 348.662 677.792 348.531 677.781C348.393 677.77 348.231 677.837 348.094 677.812C347.593 677.722 347.996 677.289 348 677C348.001 676.952 347.747 676.829 347.719 676.781Z" fill="#000000" stroke="none"/>
</g>
<g opacity="1">
<path d="M341.344 671.438C340.147 671.367 339.4 672.336 339.312 673.469C339.256 674.203 339.601 675.004 339.719 675.719C339.772 676.039 339.76 676.374 339.844 676.688C339.931 677.015 340.079 677.316 340.219 677.625C340.815 678.942 341.624 680.134 342.406 681.344C343.026 682.301 343.547 683.364 344.312 684.219C345.234 685.247 346.326 686.092 347.531 686.75C348.144 687.084 348.706 687.561 349.375 687.781C350.906 688.286 352.551 687.915 353.938 687.188C354.799 686.735 355.476 686.151 356.125 685.438C357.966 683.293 357.715 680.067 355.562 678.219C353.865 676.761 351.517 676.638 349.688 677.688C349.221 677.49 348.74 677.309 348.312 677.094C346.633 676.249 345.515 674.595 344.031 673.5C343.521 673.123 343.382 672.572 342.719 672.438C342.492 672.391 342.375 672.39 342.156 672.281C342.125 672.266 342.109 672.253 342.062 672.219C341.934 672.065 341.796 671.903 341.75 671.812C341.853 671.699 341.832 671.541 341.719 671.438C341.605 671.334 341.447 671.324 341.344 671.438ZM345.031 675.281C346.157 676.417 347.159 677.687 348.406 678.688C348.386 678.71 348.364 678.727 348.344 678.75C345.045 675.278 343.981 674.221 345.031 675.281ZM350.25 677.625C350.618 677.52 350.998 677.504 351.25 677.719C351.326 677.784 351.361 678.242 351.25 678.219C350.93 678.151 350.615 678.091 350.312 677.969C350.18 677.915 350.044 677.839 349.906 677.781C350.032 677.728 350.116 677.663 350.25 677.625Z" fill="#000000" stroke="none"/>
</g>
<g opacity="1">
<path d="M353.469 663.625C352.278 664.092 351.691 665.439 352.156 666.625C351.732 667.342 351.062 668.166 350.875 669C350.835 669.177 350.891 669.381 350.875 669.562C350.841 669.943 350.724 670.125 350.781 670.5C350.99 671.86 351.289 672.891 351.188 674.281C351.162 674.633 351.455 674.913 351.281 675.219C351.123 675.497 350.84 675.449 350.594 675.594C349.87 676.019 349.205 676.113 348.344 676.125C346.946 676.145 346.129 675.88 344.875 675.312C344.497 675.141 344.086 674.968 343.75 674.719C343.255 674.352 343.019 673.725 342.562 673.344C341.937 672.822 341.727 672.97 341.5 672.094C341.509 672.033 341.467 671.978 341.406 671.969C341.345 671.959 341.291 672.002 341.281 672.062C340.961 672.601 340.332 673.137 340.125 673.719C339.806 674.617 340.512 676.036 340.906 676.812C342.029 679.023 343.79 680.494 345.906 681.75C347.346 682.605 348.709 682.923 350.312 683.281C350.587 683.343 350.845 683.443 351.125 683.469C351.953 683.544 352.889 683.314 353.688 683.125C357.15 682.304 359.789 679.808 360.656 676.312C360.887 675.381 360.996 674.439 361 673.469C361.004 672.499 360.895 671.504 360.75 670.562C360.522 669.079 360.304 668.069 359.469 666.844C359.177 666.416 358.852 665.981 358.406 665.719C357.754 665.335 357.182 665.182 356.469 664.938C356.004 663.752 354.659 663.158 353.469 663.625Z" fill="#000000" stroke="none"/>
</g>
<g opacity="1">
<path d="M358.562 671.906C357.419 671.542 356.208 672.169 355.844 673.312C355.956 676.751 355.946 677.309 355.938 676.75C355.938 676.76 355.937 676.771 355.938 676.781C355.222 677.152 354.49 677.523 353.781 677.906C355.864 676.821 355.825 676.815 355.938 676.75C355.91 675.742 355.871 674.746 355.719 673.75C355.693 673.581 355.578 674.067 355.5 674.219C355.394 674.425 355.271 674.612 355.156 674.812C354.883 675.29 354.64 675.723 354.344 676.188C353.652 677.274 352.11 678.817 352.5 680.281C352.562 680.514 352.703 680.821 352.719 680.812C352.745 680.877 353.013 681.2 353.031 681.219C353.226 681.424 353.46 681.575 353.719 681.688C354.419 681.992 354.976 681.873 355.625 681.594C355.709 681.558 355.836 681.529 355.844 681.438C355.958 680.058 355.845 681.431 356.094 681.25C356.581 680.894 356.847 680.369 356.906 679.812C357.045 679.62 357.172 679.441 357.312 679.25C358.03 678.273 358.777 677.294 359.344 676.219C359.491 675.94 360.064 675.365 359.75 675.375C358.731 675.406 359.761 675.376 360 674.656C360.364 673.513 359.706 672.271 358.562 671.906Z" fill="#000000" stroke="none"/>
</g>
<g opacity="1">
<path d="M357.688 670.812C356.487 670.818 355.526 671.8 355.531 673C354.861 675.879 354.649 676.818 354.844 675.875C354.999 675.122 355.207 674.384 355.531 673.688C355.635 673.464 355.533 674.159 355.531 674.406C355.529 674.67 355.537 674.955 355.531 675.219C355.51 676.115 355.442 677.049 355.156 677.906C355.071 678.162 354.977 678.432 354.781 678.625C354.755 678.651 354.466 678.775 354.469 678.75C354.557 677.791 354.488 678.736 354.188 678.75C353.053 678.816 352.184 679.803 352.25 680.938C352.316 682.072 353.272 682.941 354.406 682.875C355.071 682.832 355.694 682.737 356.312 682.469C359.872 680.927 359.872 676.248 359.875 673C359.87 671.8 358.888 670.808 357.688 670.812Z" fill="#000000" stroke="none"/>
</g>
<g opacity="1">
<path d="M343.688 697.094C342.447 697.015 341.246 697.008 340.031 697.312C336.362 698.232 333.925 701.317 333.031 704.875C332.945 705.218 332.877 705.558 332.812 705.906C332.746 706.263 332.59 706.639 332.625 707C332.767 708.484 334.107 709.655 335 710.719C334.953 711.162 335.275 711.578 335.719 711.625C336.162 711.672 336.547 711.35 336.594 710.906C337.021 710.599 337.436 710.259 337.875 709.969C338.469 709.575 339.373 709.204 339.844 708.594C339.987 708.408 340.001 708.153 340.094 707.938C340.312 707.433 341.029 705.967 341.656 705.812C341.813 705.774 342.226 706.165 342.312 706.25C342.895 706.82 343.443 707.454 343.906 708.125C344.958 709.647 345.921 711.222 346.812 712.844C347.151 713.459 347.534 714.541 348 715.031C348.497 715.555 349.114 715.908 349.594 716.469C350.391 719.469 353.468 721.235 356.469 720.438C359.469 719.64 361.266 716.563 360.469 713.562C360.532 712.347 360.586 710.977 360.312 709.781C360.18 709.203 359.803 708.55 359.531 708.031C358.944 706.91 358.291 705.856 357.531 704.844C354.285 700.521 349.126 697.437 343.688 697.094Z" fill="#ed4d5e" stroke="none"/>
</g>
<g opacity="1">
<path d="M380 695.281C378.529 695.334 377.063 695.661 375.719 696.219C368.964 699.02 365.584 706.323 364.875 713.219C364.684 715.081 364.694 716.972 365.062 718.812C365.184 719.421 365.23 720.083 365.531 720.625C366.152 721.742 367.818 722.466 368.938 722.938C369.212 723.492 369.883 723.712 370.438 723.438C370.992 723.163 371.212 722.492 370.938 721.938C371.137 721.397 371.354 720.865 371.656 720.375C371.81 720.126 372.34 719.425 372.438 719.094C372.533 718.77 372.444 718.4 372.469 718.062C372.537 717.13 372.694 716.215 372.938 715.312C373.597 712.862 374.87 710.89 376.438 708.938C377.252 707.923 378.121 706.887 379.281 706.25C379.529 706.114 379.864 705.947 380.156 705.938C380.316 705.932 380.883 706.172 380.938 706.156C381.214 706.078 381.455 705.894 381.719 705.781C382.436 705.476 383.227 705.351 384 705.25C384.887 706.248 386.408 706.325 387.406 705.438C387.905 704.994 388.182 704.399 388.219 703.781C388.255 703.164 388.037 702.53 387.594 702.031C387.69 701.077 387.817 700.102 387.656 699.156C387.579 698.704 387.529 698.198 387.281 697.812C387.073 697.488 386.663 697.341 386.344 697.125C385.698 696.689 385.031 696.334 384.312 696.031C382.954 695.459 381.471 695.228 380 695.281Z" fill="#ed4d5e" stroke="none"/>
</g>
<g opacity="1">
<path d="M397.969 672.469C397.425 672.387 396.848 672.417 396.281 672.562C395.359 672.474 394.357 672.391 393.438 672.562C392.812 672.679 392.21 672.967 391.625 673.219C390.187 673.838 388.886 674.625 387.656 675.594C383.291 679.034 380.326 684.104 381 689.812C381.403 693.224 384.031 696.854 387.719 697.094C389.878 697.234 391.988 696.114 393.719 694.969C394.398 694.844 394.843 694.21 394.719 693.531C394.594 692.852 393.96 692.376 393.281 692.5C391.939 692.146 390.361 691.739 389.531 690.531C389.468 690.439 389.396 690.335 389.375 690.219C389.322 689.919 390.084 690.035 390.25 689.875C390.724 689.419 391.043 688.742 391.438 688.219C392.483 686.831 393.597 685.298 394.844 684.094C395.399 683.557 396.017 683.038 396.625 682.562C396.857 682.381 397.11 682.276 397.312 682.062C397.708 681.644 397.969 681.182 398.406 680.781C400.672 680.198 402.021 677.891 401.438 675.625C401 673.926 399.601 672.713 397.969 672.469Z" fill="#ed4d5e" stroke="none"/>
</g>
<g opacity="1">
<path d="M321.281 670.406C319.269 670.611 317.382 671.359 316.062 672.906C315.08 673.571 314.835 674.924 315.5 675.906C316.165 676.889 317.486 677.134 318.469 676.469C318.863 676.41 319.42 676.341 319.625 676.812C319.85 677.33 319.496 678.032 319.75 678.5C319.843 678.671 320.053 678.765 320.188 678.906C320.5 679.234 320.782 679.583 321.062 679.938C321.71 680.756 322.278 681.631 322.75 682.562C323.911 684.853 324.559 687.322 324.75 689.875C324.846 691.152 324.862 692.518 324.25 693.688C323.854 694.443 323.253 695.119 322.562 695.625C322.328 695.797 321.907 695.951 321.719 696.156C321.454 696.445 321.301 696.815 321.062 697.125C320.639 697.676 320.164 698.153 319.656 698.625C319.216 698.632 318.868 698.997 318.875 699.438C318.882 699.878 319.247 700.226 319.688 700.219C320.488 700.859 321.329 701.448 322.25 701.906C322.476 702.019 322.69 702.166 322.938 702.219C323.344 702.305 323.776 702.183 324.188 702.125C324.797 702.039 325.38 701.898 325.969 701.719C329.395 700.675 331.785 697.618 332.875 694.312C333.418 692.665 333.671 690.889 333.688 689.094C333.738 683.708 331.599 677.993 328.375 674.031C327.421 672.859 325.896 671.369 324.5 670.75C323.514 670.313 322.333 670.3 321.281 670.406Z" fill="#ed4d5e" stroke="none"/>
</g>
<g opacity="1">
<path d="M331.375 652.125C330.791 652.205 330.26 652.494 329.875 653C329.413 653.219 328.953 653.464 328.469 653.625C328.253 653.697 328.007 653.695 327.812 653.812C327.648 653.912 327.236 654.507 327.125 654.656C326.836 655.045 326.525 655.533 326.094 655.781C325.569 656.084 324.864 656.184 324.281 656.312C323.524 656.479 322.75 656.621 322 656.812C321.478 656.946 320.879 657.067 320.375 657.25C319.411 657.6 318.53 658.033 317.531 658.312C316.952 658.174 316.358 658.515 316.219 659.094C316.08 659.673 316.452 660.267 317.031 660.406C317.884 661.144 318.838 662.027 319.875 662.5C321.723 663.344 324.429 663.127 326.281 662.406C327.318 662.003 328.191 661.394 329.125 660.812C330.088 660.214 331.165 659.802 332.062 659.094C332.292 658.912 332.557 658.744 332.719 658.5C333.194 657.786 333.34 656.633 333.531 655.812C334.3 654.8 334.107 653.332 333.094 652.562C332.587 652.178 331.959 652.045 331.375 652.125Z" fill="#ed4d5e" stroke="none"/>
</g>
<g opacity="1">
<path d="M356.281 653.656C356.145 653.623 356.002 653.707 355.969 653.844C355.935 653.98 356.02 654.123 356.156 654.156C357.48 654.391 358.64 654.741 359.781 655.469C359.987 655.6 360.307 655.683 360.406 655.906C360.561 656.255 360.479 656.65 360.5 657.031C360.556 658.023 360.324 659.201 360.875 660.094C361.164 660.562 361.61 660.928 362.031 661.281C362.465 661.645 362.902 662.002 363.375 662.312C364.805 663.251 366.427 663.987 368.156 664.094C368.546 664.118 368.931 664.116 369.312 664.031C370.126 663.85 370.903 663.308 371.656 662.969C372.417 662.627 373.184 662.4 373.938 662.031C375 661.805 375.695 660.75 375.469 659.688C375.242 658.625 374.188 657.961 373.125 658.188C372.525 658.148 371.753 658.142 371.188 657.906C370.681 657.695 370.258 657.162 369.812 656.875C368.991 656.345 367.95 656.23 367.062 655.844C366.416 655.562 365.525 654.989 364.812 654.812C363.798 654.561 362.686 655.025 361.719 655.281C361.342 655.381 360.983 655.636 360.594 655.625C360.345 655.618 360.155 655.37 359.938 655.25C359.717 655.128 359.506 654.988 359.281 654.875C358.311 654.389 357.317 653.978 356.281 653.656Z" fill="#ed4d5e" stroke="none"/>
</g>
<g opacity="1">
<path d="M375.719 652.594C374.766 652.769 373.906 653.296 373.312 654.156C372.031 655.485 371.342 657.111 370.656 658.812C370.456 659.311 370.12 660.134 370 660.656C369.769 661.661 369.683 662.761 369.531 663.781C369.32 665.209 369.096 666.649 369.031 668.094C368.965 669.587 369.474 670.677 370.406 671.812C370.806 672.3 371.258 672.628 371.906 672.438C372.284 672.444 372.619 672.159 372.625 671.781C372.631 671.404 372.315 671.1 371.938 671.094C371.816 670.863 372.303 671.047 372.406 671.031C372.634 670.996 372.945 670.754 373.125 670.625C373.716 670.201 373.983 669.582 374.281 668.938C374.884 667.631 375.566 666.368 376.344 665.156C376.686 664.623 377.115 664.107 377.438 663.562C377.873 662.827 378.152 661.998 378.5 661.219C378.915 660.291 379.442 659.478 379.531 658.469C380.718 656.748 380.283 654.374 378.562 653.188C377.702 652.594 376.671 652.419 375.719 652.594Z" fill="#000000" stroke="none"/>
</g>
<g opacity="1">
<path d="M371.969 662.25C371.724 662.275 371.48 662.388 371.312 662.594C370.94 665.159 370.812 666.012 370.969 665.156C371.133 664.261 370.792 663.31 370.531 662.438C370.488 662.291 370.396 662.767 370.25 662.812C369.951 662.906 369.599 662.717 369.312 662.844C369.145 662.918 369.164 663.174 369.094 663.344C369.02 663.522 368.925 663.688 368.875 663.875C368.676 664.615 368.613 665.557 368.875 666.281C368.948 666.484 369.036 666.696 369.156 666.875C369.29 667.074 369.451 667.572 369.625 667.406C370.254 666.806 369.647 667.406 370.594 667.719C370.705 668.11 371.109 668.33 371.5 668.219C371.891 668.108 372.111 667.703 372 667.312C372.411 665.557 372.507 665.124 372.406 665.562C372.321 665.935 372.454 666.385 372.688 666.688C372.786 666.815 372.871 666.44 372.969 666.312C373.035 666.226 373.093 666.12 373.156 666.031C373.234 665.922 373.284 665.808 373.344 665.688C373.366 665.642 373.733 665.278 373.688 665.219C373.521 665.003 373.243 664.884 373.094 664.656C373.055 664.596 373.23 664.411 373.188 664.469C372.921 664.831 373.177 664.464 372.812 663.812C373.148 663.4 373.1 662.773 372.688 662.438C372.481 662.27 372.214 662.225 371.969 662.25Z" fill="#000000" stroke="none"/>
</g>
<g opacity="1">
<path d="M375.156 653.531C374.766 653.597 374.404 653.84 374.156 654.188C373.9 654.205 373.099 654.235 372.875 654.344C372.727 654.415 372.234 655.078 372.156 655.188C371.627 655.93 371.147 656.731 370.719 657.531C369.622 659.581 368.918 661.871 368.625 664.188C368.421 665.803 368.631 667.759 370.438 668.281C370.584 668.479 370.865 668.521 371.062 668.375C371.26 668.229 371.302 667.947 371.156 667.75C371.279 667.158 371.755 666.92 372 666.406C372.353 665.665 372.619 664.856 373 664.125C373.307 663.537 373.704 663.051 374.062 662.5C374.562 661.732 374.985 660.922 375.438 660.125C375.915 659.285 376.487 658.454 376.875 657.562C376.937 657.419 377.034 657.282 377.031 657.125C377.025 656.723 376.815 656.35 376.688 655.969C377.182 655.274 377.008 654.307 376.312 653.812C375.965 653.565 375.546 653.466 375.156 653.531Z" fill="#000000" stroke="none"/>
</g>
</g>
</svg>
