<?xml version="1.0" encoding="UTF-8" standalone="no"?>
<!DOCTYPE svg PUBLIC "-//W3C//DTD SVG 1.1//EN" "http://www.w3.org/Graphics/SVG/1.1/DTD/svg11.dtd">

<!-- Created with Vectornator (http://vectornator.io/) -->
<svg height="100%" stroke-miterlimit="10" style="fill-rule:nonzero;clip-rule:evenodd;stroke-linecap:round;stroke-linejoin:round;" version="1.1" viewBox="0 0 1194 834" width="100%" xmlSpace="preserve" xmlns="http://www.w3.org/2000/svg" xmlnsVectornator="http://vectornator.io" xmlns:xlink="http://www.w3.org/1999/xlink">
<metadata>
<vectornatorSetting key="IsTimeLapseWatermarkDisabled" value="false"/>
<vectornatorSetting key="UndoHistoryDisabled" value="true"/>
<vectornatorSetting key="VNDimensionsVisible" value="true"/>
<vectornatorSetting key="VNSnapToGuides" value="true"/>
<vectornatorSetting key="WDCMYKEnabledKey" value="false"/>
<vectornatorSetting key="WDDisplayWhiteBackground" value="false"/>
<vectornatorSetting key="WDDynamicGuides" value="false"/>
<vectornatorSetting key="WDGuidesVisible" value="false"/>
<vectornatorSetting key="WDIsolateActiveLayer" value="false"/>
<vectornatorSetting key="WDOutlineMode" value="false"/>
<vectornatorSetting key="WDRulersVisible" value="true"/>
<vectornatorSetting key="WDSnapToEdges" value="false"/>
<vectornatorSetting key="WDSnapToGrid" value="false"/>
<vectornatorSetting key="WDSnapToPoints" value="false"/>
<vectornatorSetting key="WDUnits" value="Points"/>
</metadata>
<defs/>
<clipPath id="ArtboardFrame">
<rect height="834" width="1194" x="0" y="0"/>
</clipPath>
<g clip-path="url(#ArtboardFrame)" id="Layer-1" vectornatorLayerName="Layer 1">
<g opacity="1">
<path d="M433.625 331.344C432.322 331.41 430.99 331.597 429.656 331.875C414.771 334.978 405.563 349.355 399.312 362.031C398.022 364.649 396.858 367.331 395.75 370.031C394.32 373.517 392.95 377.022 391.75 380.594C389.028 388.695 387.055 397.013 385.062 405.312C382.939 414.158 380.929 423.028 379.094 431.938C377.879 437.834 376.671 443.732 375.594 449.656C374.416 456.132 373.411 462.63 372.344 469.125C371.858 472.08 371.285 475.011 370.812 477.969C370.155 482.08 369.567 486.228 368.938 490.344C367.938 496.879 366.844 503.383 365.969 509.938C365.431 513.963 364.923 517.992 364.5 522.031C364.059 526.245 363.885 530.504 363.469 534.719C363.286 536.566 363.051 538.406 362.844 540.25C362.776 540.676 363.073 541.057 363.5 541.125C363.927 541.193 364.308 540.926 364.375 540.5C364.752 538.684 365.122 536.841 365.531 535.031C366.464 530.908 367.661 526.867 368.625 522.75C369.549 518.804 370.382 514.834 371.25 510.875C372.66 504.442 373.918 497.954 375.375 491.531C377.892 480.438 380.59 469.378 383.594 458.406C388.104 441.935 392.687 425.431 398.719 409.438C399.752 406.698 400.907 404.015 402.031 401.312C404.618 395.093 407.314 388.92 410.156 382.812C412.678 377.393 415.432 372.046 418.594 366.969C421.262 362.683 424.337 358.336 428.312 355.156C429.746 354.01 431.433 352.756 433.312 352.531C435.488 352.271 437.646 353.544 439.344 354.781C442.745 357.26 445.412 360.637 447.844 364.031C452.707 370.818 456.514 378.215 460 385.781C463.957 394.37 467.43 403.194 470.531 412.125C473.759 421.42 476.746 430.799 479.688 440.188C485.645 459.201 491.378 478.282 496.188 497.625C497.783 504.04 499.217 510.493 500.688 516.938C501.659 521.196 502.697 525.444 503.594 529.719C504.149 532.368 504.607 535.037 505.156 537.688C507.277 547.921 509.735 558.093 511.781 568.344C512.27 570.793 512.659 573.265 513.125 575.719C514.022 580.437 515.007 585.145 516 589.844C518.353 600.983 520.881 612.076 523.75 623.094C524.715 626.801 525.684 630.522 526.688 634.219C527.164 635.973 527.489 637.891 528.219 639.562C528.693 640.649 529.389 641.654 529.969 642.688C530.512 643.657 530.972 644.68 531.688 645.531C532.425 646.409 533.356 647.116 534.188 647.906C535.286 648.951 536.377 649.982 537.5 651C538.916 655.838 544.018 658.609 548.875 657.188C553.732 655.766 556.51 650.682 555.094 645.844C555.654 643.998 556.263 642.173 556.875 640.344C557.05 639.822 557.289 639.318 557.406 638.781C557.629 637.764 557.565 636.697 557.594 635.656C557.624 634.533 557.764 633.402 557.688 632.281C557.608 631.114 557.274 629.988 557.031 628.844C556.771 627.617 556.539 626.384 556.281 625.156C555.412 621.018 554.53 616.894 553.688 612.75C550.291 596.039 546.245 579.411 541.625 563C540.509 559.036 539.535 555.048 538.5 551.062C536.892 544.869 535.323 538.655 533.688 532.469C532.849 529.296 531.838 526.186 530.938 523.031C529.417 517.706 528.031 512.332 526.531 507C524.865 501.077 523.068 495.184 521.438 489.25C518.482 478.491 515.407 467.764 512.25 457.062C509.792 448.73 507.273 440.421 504.5 432.188C499.698 417.932 494.143 403.913 488.062 390.156C483.586 380.028 478.638 370.094 472.781 360.688C468.484 353.786 463.782 347.136 457.781 341.594C451.041 335.368 442.744 330.877 433.625 331.344Z" fill="#000000" stroke="none"/>
</g>
<g opacity="1">
<path d="M163.531 159.094C162.268 159.041 161.009 159.064 159.75 159.188C145.555 160.581 136.877 173.307 131.688 185.344C130.812 187.374 129.999 189.451 129.25 191.531C128.264 194.269 127.381 197.02 126.562 199.812C125.498 203.446 124.54 207.124 123.688 210.812C122.586 215.578 121.737 220.394 120.938 225.219C119.913 231.403 118.919 237.652 118.156 243.875C117.686 247.711 117.309 251.531 116.906 255.375C115.77 266.229 114.725 277.087 114.344 288C114.191 292.389 114.35 296.768 114.281 301.156C114.249 303.181 114.153 305.226 114.094 307.25C114.062 307.68 114.381 308.031 114.812 308.062C115.244 308.094 115.625 307.774 115.656 307.344C115.896 305.336 116.09 303.314 116.375 301.312C116.992 296.984 117.909 292.699 118.562 288.375C120.582 275.007 122.292 261.614 124.906 248.344C125.802 243.797 126.627 239.2 127.688 234.688C129.242 228.076 131.086 221.55 133.094 215.062C135.225 208.175 137.604 201.356 140.719 194.844C142.52 191.077 144.543 187.361 147.031 184C150.751 178.976 156.13 173.941 162.875 175.75C164.78 176.261 166.532 177.149 168.219 178.156C170.172 179.322 171.997 180.672 173.719 182.156C183.13 190.269 190.192 200.831 196.875 211.188C199.129 214.681 201.182 218.301 203.25 221.906C205.995 226.691 208.715 231.492 211.281 236.375C220.59 254.091 229.182 272.155 236.969 290.594C241.838 302.124 246.431 313.798 251.188 325.375C258.72 343.709 266.058 362.097 272.938 380.688C275.118 386.582 277.114 392.558 279.156 398.5C280.959 403.744 282.82 408.975 284.531 414.25C285.464 417.126 286.304 420.034 287.25 422.906C291.018 434.339 295.122 445.651 298.469 457.219C300.9 465.624 303.663 473.942 306.406 482.25C308.914 489.845 311.418 497.442 314.125 504.969C315.522 508.854 316.924 512.736 318.312 516.625C318.976 518.485 319.597 520.379 320.312 522.219C320.535 522.792 320.743 523.394 321.031 523.938C321.318 524.478 321.698 524.956 322.031 525.469C322.656 526.43 323.205 527.413 323.875 528.344C324.885 529.748 326.197 530.73 327.5 531.844C328.61 532.793 329.701 533.74 330.812 534.688C332.37 539.482 337.531 542.095 342.344 540.531C347.157 538.967 349.808 533.826 348.25 529.031C348.716 527.091 349.189 525.158 349.656 523.219C349.919 522.127 350.131 520.998 350.125 519.875C350.118 518.728 350 517.583 349.938 516.438C349.904 515.826 349.931 515.2 349.844 514.594C349.664 513.351 349.231 512.173 348.875 510.969C348.292 508.998 347.716 507 347.125 505.031C345.532 499.727 343.991 494.424 342.281 489.156C338.709 478.148 334.967 467.206 330.969 456.344C329.275 451.741 327.336 447.207 325.594 442.625C322.716 435.059 319.883 427.482 317.031 419.906C316.185 417.659 315.374 415.393 314.5 413.156C313.388 410.31 312.175 407.52 311.031 404.688C308.697 398.908 306.518 393.063 304.188 387.281C302.042 381.959 299.848 376.654 297.75 371.312C290.406 352.613 283.132 333.87 275.281 315.375C270.047 303.045 264.247 290.986 258.469 278.906C252.739 266.928 246.75 255.09 240.5 243.375C235.073 233.202 229.47 223.099 223.312 213.344C220.136 208.312 216.747 203.411 213.344 198.531C207.692 190.427 201.391 182.684 194.375 175.719C189.565 170.943 184.238 166.565 178.25 163.344C174.841 161.51 171.135 160.155 167.312 159.5C166.066 159.286 164.794 159.147 163.531 159.094Z" fill="#000000" stroke="none"/>
</g>
<g opacity="1">
<path d="M850.062 365.25C849.541 365.284 849.085 365.602 848.594 365.781C848.097 365.962 847.589 366.127 847.094 366.312C846.076 366.693 845.064 367.078 844.062 367.5C839.195 369.551 834.642 372.342 830.188 375.156C823.327 379.49 816.513 383.964 810.094 388.938C800.819 396.123 792.055 403.865 783.156 411.5C780.598 413.695 777.968 415.815 775.375 417.969C769.99 422.441 764.63 426.953 759.281 431.469C748.33 440.714 737.598 450.228 727 459.875C711.288 474.177 696.407 489.345 681.562 504.531C666.932 519.499 652.589 534.754 638.938 550.625C633.623 556.803 628.326 563.011 623.312 569.438C620.9 572.53 618.582 575.722 616.25 578.875C612.744 583.614 609.266 588.356 605.844 593.156C600.191 601.086 594.967 609.331 589.969 617.688C585.567 625.047 581.51 632.576 578 640.406C576.036 644.788 574.187 649.27 572.719 653.844C571.097 658.894 569.838 663.987 569.375 669.281C569.251 670.696 569.094 672.173 569.188 673.594C569.278 674.969 569.561 676.403 569.844 677.75C569.936 678.189 570.02 678.635 570.156 679.062C570.931 681.489 572.439 683.803 573.969 685.812C574.293 687.209 575.692 688.075 577.094 687.75C578.496 687.425 579.387 686.053 579.062 684.656C579.397 683.324 579.824 682.028 580.406 680.781C580.698 680.157 581.077 679.573 581.344 678.938C581.598 678.33 581.759 677.706 582 677.094C582.255 676.447 582.567 675.807 582.812 675.156C583.324 673.8 583.682 672.393 584.188 671.031C585.379 667.823 586.717 664.637 588.219 661.562C592.276 653.256 597.199 645.447 602.531 637.906C606.282 632.602 610.103 627.354 614.125 622.25C616.426 619.331 618.849 616.519 621.219 613.656C623.702 610.655 626.157 607.619 628.688 604.656C633.509 599.01 638.484 593.54 643.562 588.125C648.925 582.407 654.151 576.515 659.531 570.812C672.191 557.394 685.071 544.222 698.281 531.344C709.455 520.45 721.077 510.016 732.688 499.594C749.277 484.701 766.034 469.986 783.219 455.781C789.97 450.201 796.819 444.702 803.844 439.469C806.983 437.131 810.242 434.947 813.5 432.781C816.621 430.706 819.71 428.587 822.844 426.531C829.836 421.945 836.788 417.319 843.75 412.688C849.123 409.113 854.704 405.873 860.062 402.281C861.528 401.299 862.926 400.268 864.344 399.219C864.671 398.976 865.015 398.74 865.344 398.5C865.658 398.271 866.061 398.134 866.281 397.812C866.575 397.383 866.651 396.839 866.812 396.344C866.981 395.826 867.126 395.303 867.281 394.781C867.582 393.767 867.918 392.744 868.281 391.75C873.387 389.477 876.387 384.43 876.281 379.156C876.246 377.398 875.854 375.615 875.094 373.906C872.052 367.072 864.058 363.97 857.25 367C855.49 366.452 853.712 365.943 851.906 365.562C851.296 365.434 850.684 365.21 850.062 365.25Z" fill="#000000" stroke="none"/>
</g>
<g opacity="1">
<path d="M884.812 435.531C884.558 435.453 884.253 435.46 884 435.594C881.376 436.962 878.792 438.375 876.156 439.719C873.483 441.082 870.73 442.282 868.062 443.656C863.191 446.167 858.389 448.842 853.562 451.438C849.743 453.491 845.875 455.464 842.062 457.531C823.588 467.548 805.494 478.255 787.531 489.156C765.896 502.286 744.516 515.968 724.031 530.844C709.537 541.369 695.49 552.494 682 564.281C666.684 577.664 652.073 591.933 638.75 607.312C629.131 618.416 620.145 630.122 612.656 642.781C610.324 646.724 608.228 650.792 606.219 654.906C606.004 655.279 606.126 655.753 606.5 655.969C606.874 656.184 607.348 656.06 607.562 655.688C613.987 646.24 620.525 636.865 627.5 627.812C635.447 617.5 643.9 607.555 652.844 598.094C677.006 572.534 704.4 550.365 732.781 529.688C751.069 516.364 769.907 503.719 789.188 491.875C807.067 480.892 825.34 470.596 843.625 460.312C846.864 458.491 850.038 456.596 853.281 454.781C858.594 451.807 864.045 449.037 869.375 446.094C871.999 444.645 874.53 443.069 877.156 441.625C879.747 440.2 882.388 438.824 885 437.438C885.506 437.169 885.676 436.54 885.406 436.031C885.271 435.777 885.067 435.61 884.812 435.531Z" fill="#ed4d5e" stroke="none"/>
</g>
<g opacity="1">
<path d="M838.25 339.625C835.478 340.878 832.62 342.03 829.938 343.469C825.158 346.032 820.684 349.054 816.062 351.875C813.757 353.283 811.305 354.454 808.969 355.812C805.764 357.676 802.643 359.673 799.531 361.688C782.841 372.49 766.837 384.322 751.375 396.812C736.472 408.851 722.147 421.648 708.469 435.062C702.954 440.471 697.63 446.055 692.25 451.594C675.706 468.627 659.8 486.307 644.875 504.781C639.855 510.995 635.048 517.381 630.188 523.719C616.949 540.983 604.253 558.697 592.156 576.781C584.94 587.57 578.082 598.629 571.188 609.625C571.112 609.746 571.16 609.893 571.281 609.969C571.403 610.044 571.55 609.996 571.625 609.875C574.715 604.947 577.801 600.015 581 595.156C584.579 589.721 588.256 584.356 591.906 578.969C604.096 560.978 616.749 543.312 630.094 526.156C635.805 518.814 641.794 511.699 647.719 504.531C657.918 492.191 668.412 480.099 679.281 468.344C684.043 463.194 688.828 458.061 693.781 453.094C700.159 446.698 706.717 440.452 713.312 434.281C726.022 422.39 739.083 410.881 752.594 399.906C768.727 386.802 785.548 374.584 802.844 363.062C805.359 361.387 807.915 359.741 810.406 358.031C812.621 356.512 814.74 354.873 817.031 353.469C821.622 350.656 826.461 348.208 831.062 345.406C833.656 343.827 836.153 342.048 838.688 340.375C838.895 340.26 838.959 339.989 838.844 339.781C838.728 339.573 838.457 339.51 838.25 339.625Z" fill="#ed4d5e" stroke="none"/>
</g>
<g opacity="1">
<path d="M1343.66 161.969C1295.56 161.969 1256.59 200.811 1256.59 248.719C1256.59 296.627 1295.56 335.469 1343.66 335.469C1343.66 336.137 1343.66 336.125 1343.66 336.125C1344.46 335.963 1345.33 335.942 1346.09 335.625C1347.97 334.845 1349.11 332.982 1350.91 332.062C1351.64 331.685 1352.52 331.583 1353.34 331.5C1398.88 331.5 1435.78 294.733 1435.78 249.375C1435.78 204.017 1398.88 167.25 1353.34 167.25C1353.34 166.617 1353.34 166.625 1353.34 166.625C1352.52 166.542 1351.64 166.44 1350.91 166.062C1349.11 165.143 1347.97 163.28 1346.09 162.5C1345.33 162.183 1344.46 162.131 1343.66 161.969Z" fill="#000000" stroke="none"/>
</g>
<g opacity="1">
<path d="M964.156 211.812C960.459 211.885 956.736 212.271 953.094 212.906C948.046 213.786 943.042 215.125 938.281 217.031C926.61 221.705 916.318 229.871 909.219 240.25C907.053 243.416 905.427 246.924 904.062 250.5C903.491 251.999 903.078 253.546 902.562 255.062C902.178 256.192 901.664 257.269 901.219 258.375C900.613 259.88 900.048 261.4 899.531 262.938C899.267 263.725 898.953 264.499 898.781 265.312C898.428 266.987 898.644 268.836 898.719 270.531C898.738 270.962 898.818 271.382 898.844 271.812C898.819 271.888 898.774 271.956 898.75 272.031C894.773 284.345 893.392 297.145 892.719 310C892.393 316.21 892.243 322.408 892.5 328.625C892.973 340.056 894.657 351.413 897.031 362.594C898.017 367.236 899.129 371.875 900.438 376.438C903.547 387.276 908.13 397.944 913.938 407.594C918.148 414.59 923.157 421.021 928.844 426.875C933.5 431.669 938.575 436.014 944.312 439.469C950.154 442.987 956.562 445.552 963.156 447.25C969.157 448.795 975.155 449.47 981.344 449.562C984.031 449.603 986.719 449.69 989.406 449.562C999.538 449.08 1009.71 446.003 1019.03 442.125C1026.38 439.069 1033.31 435.062 1040.16 431.031C1042.98 429.372 1045.69 427.584 1048.53 425.969C1054.15 422.776 1059.91 419.78 1065.28 416.156C1068.8 413.779 1072.08 411.01 1075.22 408.156C1078.75 404.943 1082.11 401.504 1085.28 397.938C1087.04 395.962 1088.68 393.905 1090.38 391.875C1096.45 384.596 1101.95 376.793 1105.66 368.031C1113.51 349.478 1113.61 328.289 1107.47 309.25C1104.1 298.815 1098.9 288.991 1092.66 280C1083.98 267.509 1073.15 256.6 1061.19 247.25C1057.03 244.005 1052.78 240.865 1048.38 237.969C1041.96 233.749 1035.13 230.08 1028.22 226.75C1024.97 225.184 1021.75 223.494 1018.41 222.125C1004.78 216.543 990.067 212.931 975.344 212.156C971.617 211.96 967.89 211.739 964.156 211.812ZM972.094 238.188C979.051 238.352 986.081 239.69 992.812 241.375C998.572 242.817 1004.11 244.788 1009.69 246.812C1011.92 247.624 1014.19 248.423 1016.38 249.375C1022.73 252.148 1028.72 255.589 1034.59 259.25C1036.37 260.355 1038.15 261.448 1039.88 262.625C1043.59 265.158 1047.17 267.934 1050.59 270.844C1058.3 277.386 1065.34 284.753 1071.25 292.969C1081.07 306.629 1087.77 323.23 1086.75 340.281C1086.28 348.202 1084 355.782 1080.94 363.062C1078.58 368.665 1075.95 374.168 1072.25 379.031C1065.71 387.617 1057.29 394.508 1049.41 401.781C1047.1 403.905 1044.73 405.975 1042.34 408C1041.14 409.019 1039.94 410.108 1038.69 411.062C1036.7 412.571 1034.5 413.835 1032.38 415.125C1027.3 418.197 1022.03 420.777 1016.56 423.062C1011.54 425.164 1006.46 427.156 1001.22 428.656C998.244 429.508 995.251 430.121 992.219 430.719C988.847 431.384 985.499 432.154 982.062 432.438C980.327 432.581 978.58 432.548 976.844 432.469C973.565 432.319 970.239 431.927 967.031 431.219C956.911 428.983 947.02 423.299 939.531 416.188C932.317 409.337 926.754 400.685 922.312 391.844C919.269 385.785 916.678 379.512 914.5 373.094C912.431 366.996 910.642 360.869 909.312 354.562C907.534 346.125 906.516 337.535 905.938 328.938C905.502 322.466 905.102 315.926 905.344 309.438C905.661 300.903 906.696 292.459 908.031 284.031C908.069 283.793 908.118 283.551 908.156 283.312C909.562 282.477 910.635 281.134 910.969 279.406C912.109 277.349 913.356 275.345 914.688 273.406C915.28 272.543 916.01 271.715 916.438 270.75C916.701 270.155 916.847 269.52 917.062 268.906C917.744 266.961 918.477 264.611 919.594 262.875C920.216 261.907 920.985 261.008 921.719 260.125C923.133 258.423 924.628 256.847 926.156 255.25C927.537 253.807 928.869 252.35 930.375 251.031C933.527 248.273 937.088 245.972 940.875 244.188C946.564 241.507 952.791 239.971 959 239.125C963.258 238.545 967.796 238.086 972.094 238.188Z" fill="#000000" stroke="none"/>
</g>
<g opacity="1">
<path d="M1049.66 312.656C1048.3 312.84 1046.94 313.288 1045.69 314.031C1040.66 317.006 1038.99 323.506 1041.97 328.531C1043.87 331.823 1044.96 335.289 1046.06 338.906C1046.34 339.815 1046.73 340.682 1047 341.594C1047.56 343.486 1047.93 345.509 1048.12 347.469C1048.95 355.627 1047.03 363.895 1044.28 371.531C1040.01 383.408 1033.37 394.291 1025.81 404.344C1029.64 401.221 1033.32 397.967 1036.84 394.5C1048.6 382.933 1059.07 369.155 1063.97 353.219C1065.27 348.974 1066.16 344.618 1066.44 340.188C1066.53 338.661 1066.62 337.149 1066.5 335.625C1066 329.261 1063.45 323.161 1060.19 317.75C1057.96 313.981 1053.74 312.104 1049.66 312.656Z" fill="#000000" fill-opacity="0.573788" stroke="none"/>
</g>
<g opacity="1">
<path d="M550.188 669.281C549.799 669.345 549.434 669.561 549.188 669.906C551.282 673.145 551.885 674.411 551.281 673.125C550.737 671.965 549.84 670.969 548.875 670.125C548.702 669.974 548.612 670.508 548.469 670.688C548.261 670.949 547.977 671.163 547.844 671.469C547.725 671.74 547.733 672.048 547.75 672.344C547.78 672.861 548.086 673.335 548.188 673.844C548.232 674.066 548.079 674.332 548.188 674.531C548.26 674.665 548.491 674.584 548.625 674.656C548.744 674.72 548.834 674.819 548.938 674.906C548.991 674.951 549.551 675.44 549.625 675.438C549.883 675.429 550.086 675.17 550.344 675.156C550.497 675.148 550.64 675.268 550.75 675.375C550.882 675.504 550.936 675.709 551.062 675.844C551.185 675.975 551.369 676.007 551.469 676.156C551.612 676.369 551.606 676.662 551.75 676.875C551.87 677.052 552.277 677.494 552.25 677.281C552.072 675.872 552.245 677.289 553.375 676.375C554.69 676.994 556.254 676.414 556.875 675.094C557.496 673.774 556.94 672.212 555.625 671.594C553.661 671.643 553.11 671.86 553.656 671.656C554.434 671.366 555.105 670.778 555.688 670.188C555.804 670.069 555.351 670.065 555.188 670.094C554.967 670.132 554.784 670.342 554.562 670.375C554.432 670.394 554.319 670.261 554.188 670.25C554.049 670.238 553.918 670.337 553.781 670.312C553.281 670.222 553.683 669.758 553.688 669.469C553.688 669.417 553.363 669.323 553.375 669.281C553.27 669.417 553.139 669.525 553.094 669.688C552.993 670.049 553.165 670.377 552.906 670.719C552.741 670.937 552.455 671.037 552.25 671.219C552.124 671.33 551.746 671.544 551.906 671.594C552.463 671.766 551.904 671.573 551.688 671.688C552.181 670.997 552.037 670.058 551.344 669.562C550.997 669.315 550.576 669.217 550.188 669.281Z" fill="#000000" stroke="none"/>
</g>
<g opacity="1">
<path d="M547.375 663.906C547.261 663.803 547.103 663.824 547 663.938C545.803 663.867 545.088 664.836 545 665.969C544.943 666.703 545.257 667.504 545.375 668.219C545.428 668.539 545.416 668.874 545.5 669.188C545.587 669.515 545.735 669.816 545.875 670.125C546.472 671.442 547.28 672.634 548.062 673.844C548.682 674.801 549.203 675.833 549.969 676.688C550.891 677.716 551.982 678.561 553.188 679.219C553.8 679.553 554.362 680.061 555.031 680.281C556.563 680.786 558.208 680.415 559.594 679.688C560.455 679.235 561.132 678.652 561.781 677.938C563.622 675.793 563.371 672.567 561.219 670.719C559.521 669.261 557.174 669.138 555.344 670.188C554.876 669.989 554.397 669.778 553.969 669.562C552.289 668.718 551.203 667.095 549.719 666C549.208 665.623 549.038 665.072 548.375 664.938C548.148 664.891 548.031 664.89 547.812 664.781C547.766 664.758 547.75 664.735 547.688 664.688C547.57 664.546 547.448 664.395 547.406 664.312C547.509 664.199 547.489 664.01 547.375 663.906ZM550.688 667.781C551.813 668.917 552.846 670.187 554.094 671.188C554.068 671.217 554.026 671.22 554 671.25C550.701 667.778 549.637 666.721 550.688 667.781ZM555.938 670.125C556.306 670.02 556.654 670.004 556.906 670.219C556.982 670.284 557.017 670.742 556.906 670.719C556.586 670.651 556.272 670.591 555.969 670.469C555.837 670.415 555.7 670.338 555.562 670.281C555.695 670.224 555.795 670.166 555.938 670.125ZM554.75 670.656C554.557 670.809 554.361 670.941 554.188 671.125C554.299 671.087 554.38 670.898 554.5 670.812C554.58 670.755 554.665 670.706 554.75 670.656Z" fill="#000000" stroke="none"/>
</g>
<g opacity="1">
<path d="M559.125 656.125C557.935 656.592 557.347 657.939 557.812 659.125C557.388 659.842 556.718 660.666 556.531 661.5C556.492 661.677 556.548 661.85 556.531 662.031C556.497 662.412 556.38 662.625 556.438 663C556.646 664.36 556.945 665.36 556.844 666.75C556.818 667.102 557.112 667.414 556.938 667.719C556.779 667.997 556.496 667.949 556.25 668.094C555.526 668.519 554.861 668.613 554 668.625C552.602 668.645 551.785 668.38 550.531 667.812C550.153 667.641 549.743 667.468 549.406 667.219C548.911 666.852 548.675 666.225 548.219 665.844C547.593 665.322 547.383 665.47 547.156 664.594C547.166 664.533 547.123 664.478 547.062 664.469C547.002 664.459 546.947 664.502 546.938 664.562C546.618 665.101 545.988 665.637 545.781 666.219C545.462 667.117 546.168 668.536 546.562 669.312C547.686 671.523 549.447 672.994 551.562 674.25C553.003 675.105 554.365 675.423 555.969 675.781C556.243 675.843 556.532 675.943 556.812 675.969C557.64 676.044 558.546 675.814 559.344 675.625C562.806 674.804 565.445 672.308 566.312 668.812C566.544 667.881 566.652 666.907 566.656 665.938C566.66 664.968 566.551 664.004 566.406 663.062C566.178 661.579 565.961 660.569 565.125 659.344C564.833 658.916 564.509 658.481 564.062 658.219C563.41 657.835 562.838 657.682 562.125 657.438C561.66 656.252 560.315 655.658 559.125 656.125Z" fill="#000000" stroke="none"/>
</g>
<g opacity="1">
<path d="M564.25 664.406C563.106 664.042 561.864 664.669 561.5 665.812C561.612 669.251 561.603 669.809 561.594 669.25C561.566 668.241 561.527 667.216 561.375 666.219C561.349 666.05 561.234 666.536 561.156 666.688C561.05 666.893 560.959 667.112 560.844 667.312C560.57 667.79 560.296 668.223 560 668.688C559.308 669.774 557.797 671.317 558.188 672.781C558.25 673.014 558.359 673.321 558.375 673.312C558.387 673.306 558.394 673.288 558.406 673.281C558.431 673.344 558.67 673.7 558.688 673.719C558.882 673.924 559.116 674.075 559.375 674.188C559.725 674.34 560.035 674.375 560.344 674.344C560.653 674.313 560.956 674.202 561.281 674.062C561.365 674.026 561.524 674.029 561.531 673.938C561.645 672.558 561.532 673.931 561.781 673.75C562.269 673.394 562.503 672.869 562.562 672.312C562.703 672.118 562.858 671.943 563 671.75C563.717 670.773 564.433 669.762 565 668.688C565.147 668.409 565.721 667.834 565.406 667.844C564.387 667.875 565.417 667.845 565.656 667.125C566.021 665.981 565.394 664.771 564.25 664.406ZM559.875 670.25C559.899 670.241 559.942 670.287 559.969 670.281C559.801 670.334 559.623 670.308 559.469 670.406C559.604 670.356 559.739 670.3 559.875 670.25Z" fill="#000000" stroke="none"/>
</g>
<g opacity="1">
<path d="M563.344 663.312C562.143 663.318 561.182 664.3 561.188 665.5C560.517 668.379 560.305 669.318 560.5 668.375C560.655 667.622 560.864 666.853 561.188 666.156C561.292 665.932 561.189 666.659 561.188 666.906C561.186 667.17 561.194 667.424 561.188 667.688C561.166 668.584 561.098 669.549 560.812 670.406C560.727 670.662 560.633 670.901 560.438 671.094C560.411 671.12 560.154 671.275 560.156 671.25C560.245 670.291 560.144 671.236 559.844 671.25C558.709 671.316 557.84 672.303 557.906 673.438C557.972 674.572 558.959 675.41 560.094 675.344C560.759 675.301 561.35 675.237 561.969 674.969C565.528 673.427 565.528 668.717 565.531 665.469C565.526 664.268 564.544 663.307 563.344 663.312Z" fill="#000000" stroke="none"/>
</g>
<g opacity="1">
<path d="M549.375 689.594C548.134 689.515 546.903 689.508 545.688 689.812C542.018 690.732 539.581 693.817 538.688 697.375C538.601 697.718 538.534 698.058 538.469 698.406C538.402 698.763 538.247 699.108 538.281 699.469C538.423 700.953 539.764 702.156 540.656 703.219C540.609 703.662 540.932 704.047 541.375 704.094C541.818 704.141 542.203 703.818 542.25 703.375C542.677 703.068 543.092 702.759 543.531 702.469C544.125 702.075 545.03 701.673 545.5 701.062C545.643 700.877 545.688 700.621 545.781 700.406C545.999 699.902 546.685 698.467 547.312 698.312C547.469 698.274 547.913 698.665 548 698.75C548.582 699.32 549.099 699.923 549.562 700.594C550.614 702.116 551.577 703.722 552.469 705.344C552.807 705.959 553.191 707.041 553.656 707.531C554.153 708.055 554.77 708.377 555.25 708.938C556.047 711.938 559.124 713.735 562.125 712.938C565.126 712.14 566.922 709.063 566.125 706.062C566.188 704.847 566.242 703.477 565.969 702.281C565.837 701.703 565.49 701.05 565.219 700.531C564.632 699.41 563.948 698.356 563.188 697.344C559.941 693.021 554.814 689.937 549.375 689.594Z" fill="#ed4d5e" stroke="none"/>
</g>
<g opacity="1">
<path d="M585.656 687.781C584.186 687.834 582.719 688.161 581.375 688.719C574.62 691.52 571.271 698.823 570.562 705.719C570.371 707.581 570.35 709.472 570.719 711.312C570.84 711.921 570.886 712.552 571.188 713.094C571.808 714.21 573.474 714.966 574.594 715.438C574.868 715.992 575.539 716.212 576.094 715.938C576.649 715.663 576.868 714.992 576.594 714.438C576.793 713.897 577.01 713.334 577.312 712.844C577.466 712.595 577.996 711.925 578.094 711.594C578.189 711.27 578.1 710.9 578.125 710.562C578.193 709.63 578.351 708.684 578.594 707.781C579.253 705.331 580.558 703.39 582.125 701.438C582.939 700.423 583.809 699.356 584.969 698.719C585.216 698.583 585.52 698.416 585.812 698.406C585.973 698.401 586.571 698.672 586.625 698.656C586.901 698.578 587.111 698.394 587.375 698.281C588.092 697.976 588.883 697.82 589.656 697.719C590.543 698.717 592.064 698.825 593.062 697.938C593.562 697.494 593.839 696.899 593.875 696.281C593.911 695.663 593.725 695.03 593.281 694.531C593.378 693.577 593.473 692.602 593.312 691.656C593.236 691.204 593.185 690.698 592.938 690.312C592.729 689.988 592.319 689.84 592 689.625C591.354 689.189 590.687 688.803 589.969 688.5C588.611 687.928 587.127 687.728 585.656 687.781Z" fill="#ed4d5e" stroke="none"/>
</g>
<g opacity="1">
<path d="M603.625 664.969C603.081 664.887 602.504 664.917 601.938 665.062C601.016 664.974 600.013 664.86 599.094 665.031C598.468 665.148 597.866 665.436 597.281 665.688C595.843 666.306 594.542 667.125 593.312 668.094C588.947 671.534 586.014 676.573 586.688 682.281C587.09 685.692 589.687 689.354 593.375 689.594C595.534 689.734 597.644 688.614 599.375 687.469C600.054 687.344 600.499 686.679 600.375 686C600.251 685.321 599.616 684.876 598.938 685C597.595 684.646 596.049 684.239 595.219 683.031C595.155 682.939 595.052 682.835 595.031 682.719C594.978 682.419 595.741 682.535 595.906 682.375C596.38 681.919 596.7 681.242 597.094 680.719C598.14 679.331 599.253 677.798 600.5 676.594C601.055 676.057 601.673 675.538 602.281 675.062C602.513 674.881 602.798 674.745 603 674.531C603.396 674.113 603.625 673.651 604.062 673.25C606.328 672.667 607.677 670.359 607.094 668.094C606.656 666.395 605.258 665.213 603.625 664.969Z" fill="#ed4d5e" stroke="none"/>
</g>
<g opacity="1">
<path d="M526.938 662.906C524.925 663.111 523.038 663.859 521.719 665.406C520.736 666.071 520.491 667.393 521.156 668.375C521.821 669.357 523.174 669.634 524.156 668.969C524.551 668.91 525.076 668.841 525.281 669.312C525.506 669.83 525.183 670.533 525.438 671C525.53 671.171 525.709 671.265 525.844 671.406C526.156 671.734 526.438 672.083 526.719 672.438C527.367 673.256 527.934 674.131 528.406 675.062C529.567 677.353 530.215 679.821 530.406 682.375C530.502 683.652 530.519 685.018 529.906 686.188C529.51 686.943 528.94 687.619 528.25 688.125C528.016 688.297 527.563 688.451 527.375 688.656C527.111 688.945 526.989 689.314 526.75 689.625C526.326 690.176 525.852 690.653 525.344 691.125C524.904 691.132 524.524 691.497 524.531 691.938C524.539 692.378 524.904 692.726 525.344 692.719C526.145 693.359 526.985 693.948 527.906 694.406C528.132 694.519 528.347 694.667 528.594 694.719C529.001 694.805 529.432 694.652 529.844 694.594C530.453 694.507 531.036 694.398 531.625 694.219C535.051 693.175 537.441 690.087 538.531 686.781C539.074 685.134 539.327 683.389 539.344 681.594C539.394 676.208 537.255 670.493 534.031 666.531C533.078 665.359 531.552 663.838 530.156 663.219C529.17 662.781 527.989 662.799 526.938 662.906Z" fill="#ed4d5e" stroke="none"/>
</g>
<g opacity="1">
<path d="M531.562 646.531C530.979 646.611 530.447 646.931 530.062 647.438C529.601 647.656 529.141 647.87 528.656 648.031C528.44 648.103 528.195 648.101 528 648.219C527.835 648.318 527.423 648.914 527.312 649.062C527.023 649.452 526.712 649.939 526.281 650.188C525.756 650.49 525.051 650.59 524.469 650.719C523.712 650.886 522.938 651.027 522.188 651.219C521.666 651.352 521.066 651.474 520.562 651.656C519.598 652.006 518.717 652.439 517.719 652.719C517.14 652.58 516.545 652.921 516.406 653.5C516.267 654.079 516.64 654.674 517.219 654.812C518.072 655.55 519.025 656.433 520.062 656.906C520.987 657.328 522.107 657.503 523.25 657.469C524.393 657.435 525.542 657.204 526.469 656.844C527.505 656.441 528.378 655.8 529.312 655.219C530.276 654.62 531.352 654.208 532.25 653.5C532.48 653.319 532.744 653.15 532.906 652.906C533.382 652.192 533.527 651.04 533.719 650.219C534.488 649.206 534.294 647.738 533.281 646.969C532.775 646.584 532.146 646.451 531.562 646.531Z" fill="#ed4d5e" stroke="none"/>
</g>
<g opacity="1">
<path d="M556.25 647.719C556.114 647.685 555.971 647.77 555.938 647.906C555.904 648.043 555.989 648.154 556.125 648.188C557.448 648.423 558.608 648.803 559.75 649.531C559.956 649.663 560.245 649.714 560.344 649.938C560.498 650.286 560.416 650.682 560.438 651.062C560.493 652.055 560.262 653.263 560.812 654.156C561.101 654.624 561.547 654.959 561.969 655.312C562.402 655.676 562.84 656.064 563.312 656.375C564.742 657.314 566.365 658.018 568.094 658.125C568.484 658.149 568.9 658.179 569.281 658.094C570.095 657.913 570.841 657.37 571.594 657.031C572.354 656.689 573.152 656.431 573.906 656.062C574.969 655.836 575.633 654.782 575.406 653.719C575.18 652.656 574.157 651.992 573.094 652.219C572.494 652.179 571.722 652.174 571.156 651.938C570.65 651.726 570.227 651.194 569.781 650.906C568.96 650.376 567.887 650.262 567 649.875C566.354 649.594 565.494 649.02 564.781 648.844C563.767 648.593 562.624 649.087 561.656 649.344C561.28 649.444 560.92 649.668 560.531 649.656C560.283 649.649 560.092 649.402 559.875 649.281C559.655 649.159 559.444 649.05 559.219 648.938C558.248 648.452 557.286 648.041 556.25 647.719Z" fill="#ed4d5e" stroke="none"/>
</g>
<g opacity="1">
<path d="M581.406 645.094C580.454 645.269 579.562 645.796 578.969 646.656C577.687 647.985 576.998 649.58 576.312 651.281C576.112 651.78 575.777 652.634 575.656 653.156C575.425 654.161 575.37 655.23 575.219 656.25C575.007 657.678 574.752 659.149 574.688 660.594C574.621 662.087 575.13 663.146 576.062 664.281C576.462 664.768 576.945 665.128 577.594 664.938C577.971 664.944 578.275 664.628 578.281 664.25C578.287 663.872 577.971 663.569 577.594 663.562C577.472 663.332 577.959 663.516 578.062 663.5C578.291 663.465 578.601 663.254 578.781 663.125C579.373 662.701 579.671 662.082 579.969 661.438C580.572 660.131 581.254 658.837 582.031 657.625C582.373 657.092 582.771 656.607 583.094 656.062C583.529 655.327 583.839 654.498 584.188 653.719C584.602 652.791 585.098 651.947 585.188 650.938C586.374 649.217 585.94 646.874 584.219 645.688C583.358 645.094 582.359 644.919 581.406 645.094Z" fill="#000000" stroke="none"/>
</g>
<g opacity="1">
<path d="M577.625 654.719C577.38 654.744 577.168 654.856 577 655.062C576.628 657.627 576.469 658.512 576.625 657.656C576.789 656.761 576.479 655.81 576.219 654.938C576.175 654.791 576.052 655.267 575.906 655.312C575.607 655.406 575.256 655.186 574.969 655.312C574.801 655.387 574.82 655.643 574.75 655.812C574.676 655.991 574.581 656.188 574.531 656.375C574.333 657.115 574.269 658.057 574.531 658.781C574.605 658.984 574.692 659.196 574.812 659.375C574.946 659.574 575.139 660.072 575.312 659.906C575.942 659.306 575.303 659.906 576.25 660.219C576.361 660.61 576.765 660.83 577.156 660.719C577.547 660.608 577.767 660.204 577.656 659.812C578.067 658.057 578.163 657.624 578.062 658.062C577.977 658.435 578.11 658.854 578.344 659.156C578.442 659.284 578.558 658.909 578.656 658.781C578.722 658.695 578.749 658.62 578.812 658.531C578.891 658.422 578.941 658.277 579 658.156C579.022 658.111 579.389 657.747 579.344 657.688C579.178 657.472 578.899 657.353 578.75 657.125C578.711 657.065 578.886 656.88 578.844 656.938C578.577 657.3 578.833 656.933 578.469 656.281C578.805 655.869 578.756 655.273 578.344 654.938C578.138 654.77 577.87 654.694 577.625 654.719Z" fill="#000000" stroke="none"/>
</g>
<g opacity="1">
<path d="M580.812 646.031C580.423 646.097 580.06 646.309 579.812 646.656C579.557 646.674 578.755 646.704 578.531 646.812C578.383 646.884 577.891 647.547 577.812 647.656C577.283 648.399 576.804 649.231 576.375 650.031C575.278 652.081 574.574 654.371 574.281 656.688C574.077 658.303 574.288 660.259 576.094 660.781C576.24 660.979 576.521 661.021 576.719 660.875C576.916 660.729 576.959 660.447 576.812 660.25C576.936 659.658 577.443 659.389 577.688 658.875C578.041 658.133 578.275 657.356 578.656 656.625C578.963 656.037 579.361 655.551 579.719 655C580.218 654.232 580.641 653.422 581.094 652.625C581.571 651.785 582.143 650.923 582.531 650.031C582.594 649.888 582.721 649.75 582.719 649.594C582.713 649.192 582.472 648.819 582.344 648.438C582.838 647.742 582.664 646.807 581.969 646.312C581.621 646.065 581.202 645.966 580.812 646.031Z" fill="#000000" stroke="none"/>
</g>
<g opacity="1">
<path d="M348.625 546.219C348.364 546.751 348.887 547.345 348.625 547.906C348.506 548.161 348.263 548.338 348.094 548.562C347.988 548.703 347.638 549.021 347.812 549C348.221 548.951 347.796 548.99 347.594 549.156C347.964 548.392 347.642 547.466 346.875 547.094C346.108 546.722 345.183 547.049 344.812 547.812C346.809 550.317 347.457 551.414 346.812 550.312C346.278 549.399 345.481 548.67 344.594 548.094C344.409 547.974 344.391 548.465 344.281 548.656C344.12 548.938 343.836 549.187 343.75 549.5C343.676 549.772 343.755 550.068 343.812 550.344C343.939 550.948 344.422 551.88 344.875 552.312C345.042 552.472 345.238 552.65 345.469 552.656C345.771 552.665 346.045 552.387 346.344 552.344C346.475 552.325 346.613 552.419 346.719 552.5C346.84 552.593 346.887 552.742 347 552.844C347.103 552.936 347.261 552.952 347.344 553.062C347.479 553.243 347.459 553.507 347.594 553.688C347.693 553.821 348.069 554.131 348.031 553.969C347.741 552.725 348.011 553.947 348.812 552.812C350.213 553.199 351.675 552.375 352.062 550.969C352.45 549.563 351.619 548.136 350.219 547.75C348.909 548.465 348.63 548.743 348.906 548.438C349.451 547.835 349.852 547.115 350.188 546.375C350.237 546.266 349.947 546.377 349.844 546.438C349.673 546.537 349.579 546.747 349.406 546.844C349.327 546.888 349.213 546.79 349.125 546.812C349.018 546.84 348.952 546.947 348.844 546.969C348.589 547.021 348.712 546.478 348.688 546.219C348.686 546.2 348.633 546.202 348.625 546.219Z" fill="#000000" stroke="none"/>
</g>
<g opacity="1">
<path d="M343.219 543.875C343.089 543.792 342.926 543.809 342.844 543.938C341.775 543.943 341.154 544.889 341.188 545.906C341.207 546.498 341.574 547.092 341.719 547.656C341.783 547.907 341.785 548.164 341.875 548.406C342.336 549.646 343.485 550.724 344.312 551.719C344.885 552.407 345.347 553.192 346.031 553.781C347.051 554.658 348.197 555.186 349.438 555.656C349.855 555.814 350.25 556.038 350.688 556.125C351.089 556.204 351.5 556.176 351.906 556.125C352.935 555.996 353.909 555.496 354.719 554.875C355.429 554.33 355.957 553.684 356.438 552.938C357.892 550.512 357.091 547.366 354.656 545.906C352.804 544.796 350.557 544.997 348.938 546.219C348.837 546.193 348.718 546.22 348.625 546.188C347.744 545.877 347.042 545.218 346.188 544.875C345.877 544.75 345.572 544.753 345.281 544.594C344.748 544.302 344.716 544.518 344.156 544.562C344.045 544.571 343.923 544.577 343.812 544.562C343.709 544.548 343.452 544.401 343.531 544.469C344.15 544.999 343.535 544.47 343.312 544.25C343.395 544.121 343.348 543.958 343.219 543.875ZM350.781 545.875C350.926 545.968 351.027 546.14 351.125 546.281C351.279 546.505 350.711 546.503 350.656 546.5C350.189 546.476 349.685 546.381 349.188 546.281C349.72 545.951 350.366 545.609 350.781 545.875ZM345.469 545.938C346.213 546.476 346.868 547.155 347.719 547.5C347.912 547.578 347.979 547.179 348.125 547.031C348.233 546.922 348.349 546.815 348.469 546.719C348.171 547.013 347.85 547.28 347.625 547.656C345.461 545.95 344.808 545.46 345.469 545.938Z" fill="#000000" stroke="none"/>
</g>
<g opacity="1">
<path d="M352.094 536.094C351.521 535.948 350.894 536.018 350.344 536.344C349.244 536.994 348.883 538.404 349.531 539.5C346.335 541.967 345.194 542.752 346.312 541.969C346.996 541.49 347.822 541.05 348.656 541.062C348.981 541.067 348.491 541.68 348.438 542C348.397 542.239 348.345 542.478 348.375 542.719C348.425 543.119 348.729 543.598 348.844 544C348.884 544.142 348.91 544.627 349 544.75C349.01 544.764 349.046 544.753 349.062 544.75C349.228 544.718 349.823 544.18 349.938 544.594C349.963 544.685 349.796 544.709 349.781 544.781C349.767 544.854 349.863 544.946 349.812 545C349.571 545.262 349.203 545.393 348.875 545.531C347.71 546.021 346.84 545.935 345.625 545.75C345.096 545.669 344.825 545.246 344.344 545.094C344.169 545.039 343.955 545.057 343.781 545C343.619 544.947 343.235 544.912 343.344 544.781C344.218 543.732 343.337 544.777 343.125 544.438C343.124 544.376 343.061 544.343 343 544.344C342.938 544.345 342.905 544.376 342.906 544.438C342.661 544.907 342.114 545.372 341.969 545.875C341.761 546.595 342.563 547.697 342.938 548.25C343.247 548.708 343.54 549.141 343.938 549.531C345.017 550.592 347.04 551.614 348.469 552.031C349.463 552.322 350.643 552.524 351.688 552.469C352.374 552.432 353.093 552.1 353.719 551.844C356.209 550.825 357.974 548.781 358.531 546.125C358.692 545.361 358.748 544.563 358.688 543.781C358.627 543 358.449 542.216 358.25 541.469C357.908 540.185 357.544 538.745 356.438 537.906C356.102 537.652 355.782 537.354 355.375 537.25C354.774 537.096 354.12 537.195 353.5 537.156C353.176 536.608 352.667 536.24 352.094 536.094Z" fill="#000000" stroke="none"/>
</g>
<g opacity="1">
<path d="M355.406 541.625C354.217 541.459 353.135 542.28 352.969 543.469C353.945 546.258 354.141 546.865 353.938 546.25C353.928 546.248 353.916 546.251 353.906 546.25C353.615 545.4 353.324 544.561 352.938 543.75C352.892 543.655 352.875 543.962 352.844 544.062C352.797 544.213 352.74 544.352 352.688 544.5C352.556 544.87 352.429 545.198 352.281 545.562C351.892 546.522 351.283 547.504 351.344 548.5C351.364 548.832 351.451 549.162 351.656 549.5C351.688 549.552 351.738 549.625 351.781 549.625C351.697 549.692 351.921 549.802 352 549.875C352.159 550.022 352.335 550.127 352.531 550.219C352.973 550.425 353.701 550.544 354.156 550.281C354.442 550.117 354.952 549.852 354.938 549.781C354.704 548.683 354.952 549.77 355.125 549.594C355.521 549.186 355.695 548.683 355.688 548.156C355.738 548.057 355.793 547.974 355.844 547.875C356.257 547.068 356.685 546.24 356.969 545.375C357.046 545.139 357.436 544.653 357.188 544.656C356.33 544.667 357.19 544.651 357.281 544.062C357.447 542.874 356.595 541.791 355.406 541.625ZM352.75 546.438C352.774 546.425 352.818 546.448 352.844 546.438C352.704 546.499 352.563 546.531 352.438 546.625C352.543 546.566 352.645 546.497 352.75 546.438Z" fill="#000000" stroke="none"/>
</g>
<g opacity="1">
<path d="M354.469 540.938C353.287 541.145 352.48 542.287 352.688 543.469C352.788 545.295 352.837 545.882 352.781 545.281C352.74 544.835 352.737 544.383 352.781 543.938C352.799 543.761 352.846 544.294 352.875 544.469C352.905 544.648 352.943 544.821 352.969 545C353.043 545.508 353.093 546.018 353.094 546.531C353.094 546.675 353.058 546.802 353.031 546.938C353.014 546.893 353.034 547.098 352.906 547.125C351.799 547.382 351.087 548.487 351.344 549.594C351.6 550.701 352.706 551.382 353.812 551.125C355.388 546.919 355.862 545.63 355.406 546.906C354.929 548.242 354.491 549.629 354.281 551.031C354.252 551.226 354.634 550.895 354.812 550.812C354.986 550.732 355.152 550.636 355.312 550.531C355.923 550.133 356.391 549.586 356.719 548.938C357.299 547.789 357.392 546.449 357.312 545.188C357.281 544.688 357.231 544.273 357.156 543.781C357.127 543.585 357.159 543.046 357.062 543.219C356.399 544.401 357.052 543.213 356.969 542.719C356.761 541.537 355.651 540.73 354.469 540.938Z" fill="#000000" stroke="none"/>
</g>
<g opacity="1">
<path d="M350.656 560.781C349.686 560.714 348.719 560.751 347.75 560.875C346.13 561.082 344.619 561.45 343.281 562.438C341.232 563.949 340.137 566.339 340 568.844C339.985 569.123 339.998 569.408 340 569.688C340.002 569.97 339.935 570.266 340.031 570.531C340.445 571.668 342.02 572.382 342.969 572.969C342.997 573.414 343.368 573.779 343.812 573.75C344.257 573.722 344.591 573.32 344.562 572.875C348.792 574.45 349.846 575.046 348.781 574.469C347.631 573.845 346.408 573.155 345.688 572.062C345.455 571.71 346.433 571.645 346.781 571.406C347.005 571.253 347.24 571.089 347.406 570.875C347.501 570.753 347.483 570.585 347.531 570.438C347.548 570.386 347.705 570.192 347.812 569.969C347.804 570.108 347.886 570.316 347.938 570.406C348.558 571.484 349.276 572.459 350 573.469C350.369 573.984 350.725 574.539 351.125 575.031C351.246 575.18 351.362 575.348 351.531 575.438C351.749 575.553 352.481 575.678 352.25 575.594C351.112 575.178 352.248 575.607 353.031 576.031C354.382 578.827 357.736 580.007 360.531 578.656C363.327 577.305 364.507 573.92 363.156 571.125C363.105 570.215 363.088 569.044 362.75 568.188C362.565 567.718 362.234 567.314 361.938 566.906C361.062 565.702 359.975 564.666 358.781 563.781C356.424 562.035 353.566 560.982 350.656 560.781ZM348.188 569.312C348.22 569.317 348.197 569.374 348.188 569.406C348.162 569.492 348.09 569.535 348.031 569.594C348.097 569.502 348.143 569.306 348.188 569.312Z" fill="#ed4d5e" stroke="none"/>
</g>
<g opacity="1">
<path d="M331.188 544.406C330.288 544.203 329.259 544.434 328.406 544.719C326.804 545.254 325.305 546.189 324.531 547.719C324.103 548.129 323.886 548.7 323.875 549.25C323.864 549.8 324.058 550.353 324.469 550.781C325.29 551.637 326.644 551.665 327.5 550.844C328.428 550.738 328.178 551.681 328 552.281C327.954 552.436 327.722 552.793 327.875 552.938C328.363 553.398 328.898 553.809 329.344 554.312C330.661 555.8 331.49 557.585 332.062 559.469C332.295 560.232 332.485 560.946 332.375 561.75C332.298 562.313 331.961 562.706 331.719 563.188C331.481 563.66 331.368 564.421 331.188 564.875C331.037 565.254 330.805 565.603 330.625 565.969C330.194 566.058 329.911 566.475 330 566.906C330.089 567.337 330.538 567.62 330.969 567.531C331.953 568.244 332.942 569.107 334.25 569.031C334.913 568.993 335.554 568.686 336.156 568.406C338.517 567.309 340 564.903 340.594 562.438C341.954 556.788 339.026 550.227 334.75 546.5C333.849 545.714 332.365 544.672 331.188 544.406Z" fill="#ed4d5e" stroke="none"/>
</g>
<g opacity="1">
<path d="M329.5 532.812C328.938 532.99 328.45 533.373 328.156 533.938C326.24 535.271 326.86 534.854 326.25 535.281C326.188 535.499 326.078 535.681 326 535.812C325.74 536.253 325.136 536.348 324.688 536.5C323.909 536.764 322.979 537.198 322.344 537.719C322.05 537.96 321.822 538.255 321.531 538.5C321.376 538.631 320.895 538.99 321.062 538.875C322.162 538.124 321.043 538.883 320.5 539.25C319.906 539.211 319.414 539.656 319.375 540.25C319.336 540.844 319.781 541.367 320.375 541.406C321.074 541.968 321.896 542.658 322.75 542.969C324.234 543.509 326.389 542.994 327.688 542.188C328.435 541.723 329.009 541.079 329.656 540.5C330.321 539.906 331.131 539.497 331.75 538.844C331.907 538.678 332.105 538.525 332.188 538.312C332.427 537.691 332.257 536.711 332.219 536.062C332.806 534.934 332.378 533.524 331.25 532.938C330.686 532.644 330.062 532.635 329.5 532.812ZM326.25 535.281C326.26 535.245 326.27 535.224 326.281 535.188C325.636 535.657 324.993 536.129 324.344 536.594C323.804 536.98 325.644 535.705 326.25 535.281ZM326.281 535.188C326.721 534.867 327.17 534.56 327.594 534.219C327.738 534.103 327.239 534.321 327.062 534.375C326.896 534.426 326.707 534.435 326.562 534.531C326.406 534.635 326.36 534.923 326.281 535.188Z" fill="#ed4d5e" stroke="none"/>
</g>
<g opacity="1">
<path d="M354.188 530.156C352.95 530.43 352.041 531.534 350.875 532.031C350.707 532.103 350.548 531.902 350.375 531.844C350.201 531.785 350.02 531.74 349.844 531.688C349.084 531.462 348.315 531.247 347.531 531.125C347.391 531.115 347.291 531.235 347.281 531.375C347.272 531.515 347.36 531.615 347.5 531.625C348.483 531.608 349.371 531.698 350.281 532.094C350.443 532.164 350.702 532.174 350.75 532.344C350.936 533.006 350.819 533.724 350.906 534.406C350.978 534.97 350.961 535.556 351.219 536.062C351.401 536.42 351.823 536.619 352.156 536.844C352.531 537.096 352.933 537.312 353.344 537.5C354.646 538.095 356.843 538.682 358.25 538C358.879 537.695 359.345 537.078 359.875 536.656C360.373 536.26 360.913 535.934 361.406 535.531C362.422 535.144 362.95 534.015 362.562 533C362.175 531.985 361.015 531.456 360 531.844C359.712 531.839 358.907 531.887 358.594 531.75C358.039 531.509 357.731 530.774 357.125 530.656C356.469 530.529 355.784 530.436 355.125 530.312C354.812 530.254 354.498 530.087 354.188 530.156Z" fill="#ed4d5e" stroke="none"/>
</g>
<g opacity="1">
<path d="M372.094 552.719C370.999 552.897 369.94 553.275 368.969 553.781C366.006 555.326 363.673 558.397 362.75 561.594C362.076 563.928 361.939 566.552 362.156 568.969C362.288 570.43 362.561 571.891 363.125 573.25C363.314 573.704 363.415 574.202 363.75 574.562C364.481 575.351 366.119 575.537 367.125 575.625C367.307 575.875 367.56 576.049 367.844 576.094C368.127 576.138 368.437 576.057 368.688 575.875C369.188 575.511 369.302 574.813 368.938 574.312C369.113 573.841 369.317 573.357 369.594 572.938C369.829 572.581 370.168 572.308 370.312 571.906C370.384 571.707 370.281 571.462 370.281 571.25C370.282 570.899 370.318 570.568 370.344 570.219C370.43 569.044 370.704 567.827 371.25 566.781C371.712 565.897 372.254 565.027 372.844 564.219C373.035 563.957 373.236 563.695 373.469 563.469C373.562 563.378 373.671 563.287 373.781 563.219C373.679 563.321 373.374 563.386 373.281 563.312C373.281 563.312 373.199 563.239 373.219 563.219C373.624 562.818 374.062 562.265 374.562 561.938C374.884 561.727 375.251 561.578 375.594 561.406C376.637 562.24 378.166 562.074 379 561.031C379.417 560.51 379.6 559.865 379.531 559.25C379.463 558.635 379.146 558.042 378.625 557.625C378.678 556.766 378.733 555.9 378.531 555.062C378.436 554.668 378.378 554.223 378.125 553.906C377.924 553.655 377.543 553.603 377.25 553.469C376.652 553.194 376.047 552.965 375.406 552.812C374.329 552.556 373.189 552.541 372.094 552.719Z" fill="#ed4d5e" stroke="none"/>
</g>
<g opacity="1">
<path d="M382 534.5C381.45 534.512 380.877 534.636 380.344 534.875C379.596 534.862 378.754 534.866 378.031 535.094C377.757 535.18 376.925 535.661 376.688 535.812C375.631 536.484 374.69 537.263 373.844 538.188C372.906 539.212 371.968 540.409 371.344 541.656C370.021 544.297 369.829 547.607 370.719 550.406C371.501 552.869 373.529 554.961 376.125 555.438C376.526 555.511 377.186 555.56 377.594 555.5C379.332 555.246 380.77 553.938 381.844 552.656C382.492 552.419 382.831 551.679 382.594 551.031C382.357 550.383 381.648 550.044 381 550.281C382.412 546.437 382.915 545.341 382.406 546.438C381.811 547.72 381.173 549.004 380.312 550.125C380.19 550.285 379.906 550.013 379.719 549.938C379.339 549.785 378.138 549.21 378.281 548.625C378.412 548.089 379.668 548.9 380 548.781C380.663 548.543 381.521 546.897 381.781 546.375C382.168 545.6 382.709 544.948 383.156 544.219C383.362 543.883 383.46 543.821 383.531 543.406C383.553 543.281 383.638 542.912 383.594 543.031C383.176 544.165 383.596 543.016 383.812 542.594C385.413 541.876 386.348 540.307 386.312 538.656C386.301 538.106 386.177 537.534 385.938 537C385.219 535.399 383.65 534.465 382 534.5Z" fill="#ed4d5e" stroke="none"/>
</g>
</g>
</svg>
