<?xml version="1.0" encoding="UTF-8" standalone="no"?>
<!DOCTYPE svg PUBLIC "-//W3C//DTD SVG 1.1//EN" "http://www.w3.org/Graphics/SVG/1.1/DTD/svg11.dtd"
[
<!ATTLIST g
  xmlnsVectornator CDATA #FIXED "http://vectornator.io"
  vectornatorLayerName CDATA #IMPLIED >
<!ATTLIST g
  xmlnsVectornator CDATA #FIXED "http://vectornator.io"
  vectornatorMask CDATA #IMPLIED >
<!ATTLIST text
  xmlnsVectornator CDATA #FIXED "http://vectornator.io"
  vectornatorWidth CDATA #IMPLIED >
<!ATTLIST text
  xmlnsVectornator CDATA #FIXED "http://vectornator.io"
  vectornatorText CDATA #IMPLIED >

<!ATTLIST path
  xmlnsVectornator CDATA #FIXED "http://vectornator.io"
  vectornatorBlendMode CDATA #IMPLIED >
<!ATTLIST path
  xmlnsVectornator CDATA #FIXED "http://vectornator.io"
  vectornatorShadowColor CDATA #IMPLIED >
<!ATTLIST path
  xmlnsVectornator CDATA #FIXED "http://vectornator.io"
  vectornatorShadowOpacity CDATA #IMPLIED >
<!ATTLIST path
  xmlnsVectornator CDATA #FIXED "http://vectornator.io"
  vectornatorShadowRadius CDATA #IMPLIED >
<!ATTLIST path
  xmlnsVectornator CDATA #FIXED "http://vectornator.io"
  vectornatorShadowOffset CDATA #IMPLIED >
<!ATTLIST path
  xmlnsVectornator CDATA #FIXED "http://vectornator.io"
  vectornatorShadowAngle CDATA #IMPLIED >

<!ATTLIST image
  xmlnsVectornator CDATA #FIXED "http://vectornator.io"
  vectornatorBlendMode CDATA #IMPLIED >
<!ATTLIST image
  xmlnsVectornator CDATA #FIXED "http://vectornator.io"
  vectornatorShadowColor CDATA #IMPLIED >
<!ATTLIST image
  xmlnsVectornator CDATA #FIXED "http://vectornator.io"
  vectornatorShadowOpacity CDATA #IMPLIED >
<!ATTLIST image
  xmlnsVectornator CDATA #FIXED "http://vectornator.io"
  vectornatorShadowRadius CDATA #IMPLIED >
<!ATTLIST image
  xmlnsVectornator CDATA #FIXED "http://vectornator.io"
  vectornatorShadowOffset CDATA #IMPLIED >
<!ATTLIST image
  xmlnsVectornator CDATA #FIXED "http://vectornator.io"
  vectornatorShadowAngle CDATA #IMPLIED >

<!ATTLIST g
  xmlnsVectornator CDATA #FIXED "http://vectornator.io"
  vectornatorBlendMode CDATA #IMPLIED >
<!ATTLIST g
  xmlnsVectornator CDATA #FIXED "http://vectornator.io"
  vectornatorShadowColor CDATA #IMPLIED >
<!ATTLIST g
  xmlnsVectornator CDATA #FIXED "http://vectornator.io"
  vectornatorShadowOpacity CDATA #IMPLIED >
<!ATTLIST g
  xmlnsVectornator CDATA #FIXED "http://vectornator.io"
  vectornatorShadowRadius CDATA #IMPLIED >
<!ATTLIST g
  xmlnsVectornator CDATA #FIXED "http://vectornator.io"
  vectornatorShadowOffset CDATA #IMPLIED >
<!ATTLIST g
  xmlnsVectornator CDATA #FIXED "http://vectornator.io"
  vectornatorShadowAngle CDATA #IMPLIED >

<!ENTITY % SVG.filter.extra.content  "| feDropShadow" >
<!ELEMENT feDropShadow EMPTY>
<!ATTLIST feDropShadow
  xmlnsSvg CDATA #FIXED "http://www.w3.org/Graphics/SVG/1.1/DTD/svg11.dtd"
  dx CDATA #IMPLIED>
<!ATTLIST feDropShadow
  xmlnsSvg CDATA #FIXED "http://www.w3.org/Graphics/SVG/1.1/DTD/svg11.dtd"
  dy CDATA #IMPLIED>
<!ATTLIST feDropShadow
  xmlnsSvg CDATA #FIXED "http://www.w3.org/Graphics/SVG/1.1/DTD/svg11.dtd"
  stdDeviation CDATA #IMPLIED>
<!ATTLIST feDropShadow
  xmlnsSvg CDATA #FIXED "http://www.w3.org/Graphics/SVG/1.1/DTD/svg11.dtd"
  flood-opacity CDATA #IMPLIED>
<!ATTLIST feDropShadow
  xmlnsSvg CDATA #FIXED "http://www.w3.org/Graphics/SVG/1.1/DTD/svg11.dtd"
  in CDATA #IMPLIED>
<!ATTLIST feDropShadow
  xmlnsSvg CDATA #FIXED "http://www.w3.org/Graphics/SVG/1.1/DTD/svg11.dtd"
  result CDATA #IMPLIED>
<!ATTLIST feDropShadow
  xmlnsSvg CDATA #FIXED "http://www.w3.org/Graphics/SVG/1.1/DTD/svg11.dtd"
  flood-color CDATA #IMPLIED>
]
>
<!-- Created with Vectornator (http://vectornator.io/) -->
<svg height="100%" stroke-miterlimit="10" style="fill-ruleNonzero;clip-ruleEvenodd;stroke-linecapRound;stroke-linejoinRound;" version="1.1" viewBox="0 0 792 612" width="100%" xmlSpace="preserve" xmlns="http://www.w3.org/2000/svg" xmlnsVectornator="http://vectornator.io" xmlnsXlink="http://www.w3.org/1999/xlink">
<defs>
<clipPath id="TextBounds">
<rect height="56.2031" width="61.3594" x="74.4833" y="475.713"/>
</clipPath>
<clipPath id="TextBounds_2">
<rect height="56.2031" width="62.4609" x="187.403" y="474.733"/>
</clipPath>
<clipPath id="TextBounds_3">
<rect height="56.2031" width="65.1797" x="275.337" y="473.657"/>
</clipPath>
<clipPath id="TextBounds_4">
<rect height="56.2031" width="67.9688" x="387.369" y="471.821"/>
</clipPath>
<clipPath id="TextBounds_5">
<rect height="56.2031" width="56.9062" x="493.8" y="469.742"/>
</clipPath>
<clipPath id="TextBounds_6">
<rect height="56.2031" width="54.5156" x="577.403" y="470.396"/>
</clipPath>
<clipPath id="TextBounds_7">
<rect height="56.2031" width="69.9609" x="666.121" y="468.621"/>
</clipPath>
</defs>
<g id="Branches" vectornatorLayerName="Branches">
<g opacity="1">
<path d="M358.094 76.875C351.715 82.6508 345.192 88.3022 339.031 94.3125C337.492 95.814 336.042 97.4104 334.562 98.9688C331.604 102.084 328.627 105.177 325.656 108.281C321.943 112.161 318.236 116.049 314.531 119.938C312.681 121.88 310.799 123.79 309 125.781C306.478 128.573 304.207 131.622 301.781 134.5C296.93 140.256 291.975 145.917 287.031 151.594C292.451 146.37 297.871 141.136 303.375 136C306.126 133.432 309.058 131.035 311.719 128.375C313.617 126.478 315.434 124.478 317.281 122.531C320.978 118.635 324.656 114.749 328.344 110.844C331.294 107.72 334.225 104.581 337.188 101.469C338.669 99.9119 340.203 98.3942 341.625 96.7812C347.316 90.3247 352.648 83.5379 358.094 76.875Z" fill="#000000" stroke="none"/>
</g>
<g opacity="1">
<path d="M372.969 83.9688C372.519 89.561 371.85 95.1704 371.719 100.781C371.686 102.182 371.826 103.602 371.875 105C371.974 107.794 372.043 110.58 372.125 113.375C372.228 116.869 372.322 120.351 372.438 123.844C372.495 125.587 372.496 127.354 372.625 129.094C372.806 131.538 373.379 133.973 373.688 136.406C374.306 141.274 374.784 146.15 375.281 151.031C375.441 146.128 375.563 141.211 375.844 136.312C375.984 133.864 376.395 131.419 376.406 128.969C376.415 127.224 376.282 125.462 376.219 123.719C376.093 120.226 375.951 116.742 375.812 113.25C375.702 110.456 375.594 107.669 375.5 104.875C375.453 103.477 375.473 102.051 375.344 100.656C374.826 95.0677 373.803 89.5166 372.969 83.9688Z" fill="#000000" stroke="none"/>
</g>
<g opacity="1">
<path d="M385.938 74.875C392.673 81.7359 399.289 88.7416 406.25 95.375C407.989 97.0324 409.831 98.591 411.625 100.188C415.212 103.38 418.799 106.577 422.375 109.781C426.845 113.787 431.302 117.816 435.781 121.812C438.019 123.809 440.246 125.838 442.531 127.781C445.734 130.505 449.183 132.938 452.469 135.562C459.04 140.812 465.505 146.187 472 151.531C465.942 145.696 459.879 139.86 453.906 133.938C450.92 130.977 448.106 127.836 445.031 124.969C442.838 122.923 440.554 120.961 438.312 118.969C433.826 114.981 429.307 111.01 424.812 107.031C421.217 103.848 417.647 100.664 414.062 97.4688C412.27 95.8706 410.503 94.224 408.656 92.6875C401.264 86.5377 393.529 80.7742 385.938 74.875Z" fill="#ff3636" stroke="none"/>
</g>
<g opacity="1">
<path d="M267.781 180.406C262.572 186.383 257.366 192.34 252.188 198.344C249.601 201.343 246.964 204.329 244.469 207.406C242.204 210.199 240.054 213.1 237.844 215.938C233.421 221.615 228.995 227.267 224.562 232.938C221.017 237.474 217.475 242.02 213.938 246.562C212.171 248.831 210.348 251.081 208.656 253.406C205.903 257.192 203.364 261.148 200.656 264.969C194.827 273.196 188.895 281.343 182.969 289.5C189.414 281.747 195.837 273.957 202.375 266.281C205.412 262.716 208.634 259.289 211.625 255.688C213.692 253.199 215.61 250.586 217.594 248.031C221.125 243.484 224.633 238.929 228.156 234.375C232.56 228.682 236.993 222.998 241.406 217.312C243.391 214.756 245.44 212.252 247.375 209.656C249.958 206.191 252.399 202.604 254.875 199.062C259.212 192.86 263.476 186.631 267.781 180.406Z" fill="#000000" stroke="none"/>
</g>
<g opacity="1">
<path d="M275.969 183.562C274.662 192.07 273.177 200.574 272.188 209.125C271.94 211.261 271.822 213.419 271.656 215.562C271.326 219.847 271.003 224.123 270.656 228.406C270.222 233.761 269.765 239.113 269.344 244.469C269.133 247.144 268.889 249.82 268.75 252.5C268.555 256.258 268.723 260.049 268.656 263.812C268.523 271.341 268.255 278.85 268 286.375C268.91 278.901 269.782 271.427 270.812 263.969C271.328 260.24 272.113 256.524 272.5 252.781C272.776 250.112 272.92 247.426 273.125 244.75C273.536 239.394 273.914 234.045 274.312 228.688C274.631 224.402 274.946 220.128 275.281 215.844C275.449 213.701 275.695 211.555 275.781 209.406C276.125 200.805 275.946 192.17 275.969 183.562Z" fill="#000000" stroke="none"/>
</g>
<g opacity="1">
<path d="M284.625 181.969C288.085 188.387 291.534 194.79 295.031 201.188C296.568 203.998 298.059 206.835 299.688 209.594C301.312 212.346 303.093 215.036 304.781 217.75C308.349 223.484 311.912 229.197 315.469 234.938C317.896 238.855 320.315 242.775 322.75 246.688C324.15 248.937 325.498 251.233 326.969 253.438C328.078 255.1 329.33 256.693 330.5 258.312C331.905 260.256 333.289 262.218 334.656 264.188C339.666 271.404 344.55 278.69 349.469 285.969C344.9 278.002 340.296 270.065 335.844 262.031C333.908 258.538 332.163 254.92 330.156 251.469C328.824 249.177 327.372 246.935 325.969 244.688C323.189 240.237 320.414 235.789 317.625 231.344C314.174 225.842 310.722 220.352 307.281 214.844C305.789 212.455 304.36 210.009 302.812 207.656C300.78 204.566 298.601 201.583 296.469 198.562C292.549 193.01 288.577 187.498 284.625 181.969Z" fill="#000000" stroke="none"/>
</g>
<g opacity="1">
<path d="M370.906 183.062C365.385 189.164 359.834 195.246 354.344 201.375C351.601 204.437 348.809 207.452 346.156 210.594C343.748 213.446 341.479 216.415 339.125 219.312C334.414 225.11 329.69 230.898 324.969 236.688C321.192 241.319 317.425 245.955 313.656 250.594C311.774 252.91 309.839 255.187 308.031 257.562C305.088 261.429 302.366 265.473 299.469 269.375C293.23 277.777 286.866 286.108 280.531 294.438C287.377 286.522 294.189 278.586 301.125 270.75C304.347 267.11 307.761 263.614 310.938 259.938C313.133 257.397 315.167 254.734 317.281 252.125C321.044 247.482 324.808 242.806 328.562 238.156C333.255 232.344 337.954 226.555 342.656 220.75C344.771 218.139 346.966 215.588 349.031 212.938C351.788 209.399 354.379 205.742 357.031 202.125C361.676 195.791 366.293 189.42 370.906 183.062Z" fill="#000000" stroke="none"/>
</g>
<g opacity="1">
<path d="M382.812 186.594C380.361 194.927 377.705 203.237 375.562 211.656C375.027 213.759 374.643 215.91 374.188 218.031C373.277 222.272 372.364 226.513 371.438 230.75C370.28 236.046 369.114 241.326 367.969 246.625C367.396 249.272 366.753 251.901 366.25 254.562C365.546 258.294 365.234 262.12 364.656 265.875C363.501 273.385 362.181 280.884 360.906 288.375C362.824 281.023 364.746 273.665 366.781 266.344C367.799 262.684 369.045 259.066 369.938 255.375C370.574 252.742 371.089 250.055 371.656 247.406C372.791 242.105 373.908 236.804 375.031 231.5C375.929 227.257 376.836 223.021 377.75 218.781C378.207 216.661 378.717 214.544 379.094 212.406C380.603 203.851 381.62 195.198 382.812 186.594Z" fill="#000000" stroke="none"/>
</g>
<g opacity="1">
<path d="M386.969 183.188C390.052 189.721 393.128 196.235 396.25 202.75C397.622 205.612 398.94 208.497 400.406 211.312C401.869 214.121 403.503 216.883 405.031 219.656C408.26 225.516 411.47 231.353 414.688 237.219C416.884 241.222 419.077 245.251 421.281 249.25C422.549 251.549 423.785 253.867 425.125 256.125C426.136 257.828 427.27 259.462 428.344 261.125C429.633 263.121 430.874 265.136 432.125 267.156C436.707 274.557 441.2 282.042 445.688 289.5C441.587 281.376 437.449 273.246 433.469 265.062C431.738 261.504 430.21 257.833 428.406 254.312C427.209 251.975 425.865 249.704 424.594 247.406C422.077 242.857 419.558 238.325 417.031 233.781C413.905 228.157 410.772 222.536 407.656 216.906C406.305 214.465 405.034 211.972 403.625 209.562C401.775 206.399 399.766 203.318 397.812 200.219C394.222 194.522 390.592 188.863 386.969 183.188Z" fill="#000000" stroke="none"/>
</g>
<g opacity="1">
<path d="M480.656 183.75C477.051 192.238 473.246 200.703 469.938 209.312C469.111 211.464 468.437 213.634 467.688 215.812C466.19 220.168 464.67 224.525 463.156 228.875C461.264 234.312 459.349 239.746 457.469 245.188C456.529 247.906 455.559 250.634 454.688 253.375C453.466 257.218 452.599 261.182 451.5 265.062C449.302 272.825 446.971 280.522 444.656 288.25C447.592 280.736 450.482 273.219 453.531 265.75C455.056 262.016 456.846 258.374 458.25 254.594C459.251 251.897 460.128 249.158 461.062 246.438C462.932 240.993 464.767 235.543 466.625 230.094C468.111 225.735 469.623 221.354 471.125 217C471.876 214.822 472.67 212.672 473.344 210.469C476.04 201.648 478.269 192.658 480.656 183.75Z" fill="#ff3636" stroke="none"/>
</g>
<g opacity="1">
<path d="M483.031 183.969C484.531 190.285 486.021 196.6 487.562 202.906C488.24 205.677 488.877 208.474 489.656 211.219C490.432 213.954 491.371 216.63 492.219 219.344C494.012 225.08 495.813 230.822 497.594 236.562C498.809 240.48 500.026 244.398 501.25 248.312C501.954 250.563 502.592 252.838 503.375 255.062C503.966 256.741 504.683 258.38 505.344 260.031C506.137 262.014 506.905 264.001 507.656 266C510.407 273.321 513.041 280.704 515.688 288.062C513.565 280.167 511.399 272.273 509.406 264.344C508.54 260.895 507.883 257.363 506.938 253.938C506.31 251.664 505.551 249.437 504.844 247.188C503.442 242.733 502.037 238.295 500.625 233.844C498.878 228.334 497.142 222.794 495.406 217.281C494.654 214.891 493.972 212.494 493.156 210.125C492.085 207.011 490.841 203.947 489.656 200.875C487.478 195.229 485.246 189.6 483.031 183.969Z" fill="#000000" stroke="none"/>
</g>
<g opacity="1">
<path d="M487.219 182.812C493.712 189.036 500.196 195.276 506.719 201.469C509.585 204.191 512.437 206.949 515.375 209.594C518.308 212.233 521.362 214.76 524.344 217.344C530.346 222.544 536.349 227.728 542.344 232.938C546.935 236.928 551.496 240.924 556.094 244.906C558.568 247.049 561.034 249.265 563.562 251.344C565.467 252.91 567.456 254.337 569.406 255.844C571.747 257.653 574.062 259.5 576.375 261.344C584.853 268.101 593.249 274.967 601.656 281.812C593.309 274.145 584.943 266.516 576.688 258.75C573.098 255.373 569.645 251.816 566 248.5C563.579 246.297 561.07 244.202 558.594 242.062C553.991 238.086 549.36 234.094 544.75 230.125C538.378 224.639 532.019 219.152 525.656 213.656C523.023 211.381 520.458 209.037 517.781 206.812C514.272 203.895 510.648 201.135 507.062 198.312C500.475 193.128 493.831 187.966 487.219 182.812Z" fill="#000000" stroke="none"/>
</g>
<g opacity="1">
<path d="M174.938 319.469C170.98 325.874 167.015 332.259 163.094 338.688C161.371 341.512 159.601 344.34 157.969 347.219C156.34 350.09 154.876 353.03 153.312 355.938C150.01 362.081 146.689 368.238 143.375 374.375C140.952 378.862 138.539 383.351 136.125 387.844C134.99 389.956 133.789 392.041 132.719 394.188C131.798 396.035 131.009 397.965 130.156 399.844C129.132 402.099 128.096 404.327 127.031 406.562C123.129 414.754 119.096 422.888 115.094 431.031C119.873 422.837 124.637 414.626 129.531 406.5C131.66 402.966 133.974 399.543 136.031 395.969C137.397 393.596 138.645 391.132 139.938 388.719C142.496 383.941 145.045 379.158 147.594 374.375C150.748 368.455 153.897 362.539 157.062 356.625C158.435 354.06 159.904 351.533 161.219 348.938C162.945 345.53 164.509 342.054 166.125 338.594C169.095 332.235 172.003 325.844 174.938 319.469Z" fill="#000000" stroke="none"/>
</g>
<g opacity="1">
<path d="M180.125 320.469C181.682 327.211 183.214 333.955 184.812 340.688C185.515 343.645 186.196 346.63 187 349.562C187.802 352.487 188.782 355.377 189.656 358.281C191.503 364.417 193.322 370.548 195.156 376.688C196.408 380.877 197.676 385.063 198.938 389.25C199.663 391.657 200.32 394.086 201.125 396.469C201.732 398.266 202.479 400.042 203.156 401.812C203.969 403.938 204.761 406.077 205.531 408.219C208.354 416.063 211.032 423.931 213.75 431.812C211.555 423.378 209.346 414.968 207.281 406.5C206.383 402.817 205.696 399.067 204.719 395.406C204.07 392.977 203.291 390.563 202.562 388.156C201.119 383.391 199.641 378.637 198.188 373.875C196.388 367.981 194.6 362.085 192.812 356.188C192.037 353.63 191.338 351.038 190.5 348.5C189.399 345.167 188.153 341.886 186.938 338.594C184.704 332.543 182.396 326.506 180.125 320.469Z" fill="#000000" stroke="none"/>
</g>
<g opacity="1">
<path d="M187.188 320.062C193.686 327.266 200.157 334.481 206.688 341.656C209.558 344.81 212.427 347.98 215.375 351.062C218.317 354.139 221.379 357.1 224.375 360.125C230.405 366.213 236.416 372.31 242.438 378.406C247.049 383.075 251.662 387.744 256.281 392.406C258.767 394.915 261.237 397.488 263.781 399.938C265.697 401.782 267.689 403.523 269.656 405.312C272.017 407.46 274.357 409.632 276.688 411.812C285.228 419.803 293.693 427.896 302.156 435.969C293.788 427.053 285.395 418.132 277.125 409.125C273.529 405.208 270.093 401.141 266.438 397.281C264.009 394.717 261.457 392.256 258.969 389.75C254.344 385.093 249.725 380.431 245.094 375.781C238.692 369.354 232.299 362.936 225.906 356.5C223.26 353.836 220.661 351.117 217.969 348.5C214.438 345.068 210.77 341.749 207.156 338.406C200.518 332.265 193.853 326.174 187.188 320.062Z" fill="#000000" stroke="none"/>
</g>
<g opacity="1">
<path d="M267.281 321.969C264.498 328.312 261.681 334.64 258.938 341C257.732 343.794 256.483 346.572 255.375 349.406C254.27 352.233 253.348 355.146 252.312 358C250.125 364.029 247.919 370.037 245.719 376.062C244.218 380.174 242.711 384.291 241.219 388.406C240.361 390.772 239.435 393.138 238.656 395.531C238.069 397.337 237.641 399.173 237.125 401C236.506 403.192 235.85 405.383 235.188 407.562C232.76 415.547 230.189 423.486 227.656 431.438C230.939 423.354 234.186 415.251 237.594 407.219C239.076 403.726 240.782 400.335 242.188 396.812C243.12 394.475 243.927 392.055 244.781 389.688C246.473 384.999 248.162 380.317 249.844 375.625C251.925 369.818 254.001 364.022 256.094 358.219C257.001 355.702 257.998 353.194 258.844 350.656C259.954 347.323 260.881 343.931 261.875 340.562C263.702 334.37 265.492 328.172 267.281 321.969Z" fill="#000000" stroke="none"/>
</g>
<g opacity="1">
<path d="M276.875 321.156C278.199 327.876 279.509 334.601 280.875 341.312C281.475 344.261 282.047 347.199 282.75 350.125C283.451 353.043 284.32 355.944 285.094 358.844C286.728 364.971 288.347 371.088 289.969 377.219C291.076 381.403 292.196 385.6 293.312 389.781C293.954 392.185 294.528 394.619 295.25 397C295.795 398.796 296.478 400.54 297.094 402.312C297.833 404.44 298.554 406.577 299.25 408.719C301.8 416.566 304.212 424.464 306.656 432.344C304.753 423.931 302.835 415.505 301.062 407.062C300.292 403.391 299.726 399.683 298.875 396.031C298.311 393.608 297.614 391.215 296.969 388.812C295.69 384.054 294.383 379.287 293.094 374.531C291.498 368.645 289.927 362.765 288.344 356.875C287.657 354.321 287.031 351.724 286.281 349.188C285.296 345.857 284.163 342.575 283.062 339.281C281.039 333.227 278.936 327.198 276.875 321.156Z" fill="#000000" stroke="none"/>
</g>
<g opacity="1">
<path d="M348.375 316.531C345.65 323.201 342.935 329.845 340.25 336.531C339.07 339.469 337.832 342.399 336.75 345.375C335.671 348.343 334.758 351.382 333.75 354.375C331.619 360.698 329.487 367.024 327.344 373.344C325.881 377.656 324.422 381.966 322.969 386.281C322.133 388.763 321.225 391.211 320.469 393.719C319.899 395.61 319.467 397.558 318.969 399.469C318.371 401.762 317.735 404.063 317.094 406.344C314.744 414.701 312.269 423.017 309.812 431.344C313.021 422.854 316.198 414.348 319.531 405.906C320.981 402.235 322.659 398.637 324.031 394.938C324.942 392.482 325.699 389.951 326.531 387.469C328.179 382.552 329.832 377.639 331.469 372.719C333.495 366.63 335.525 360.554 337.562 354.469C338.446 351.83 339.398 349.191 340.219 346.531C341.297 343.039 342.226 339.494 343.188 335.969C344.954 329.489 346.647 323.021 348.375 316.531Z" fill="#000000" stroke="none"/>
</g>
<g opacity="1">
<path d="M357 314.906C359.781 321.807 362.556 328.709 365.375 335.594C366.783 339.033 368.138 342.483 369.656 345.875C371.035 348.954 372.557 351.982 374 355.031C376.887 361.135 379.78 367.235 382.656 373.344C384.957 378.231 387.252 383.117 389.562 388C390.716 390.438 391.824 392.916 393.062 395.312C395.079 399.215 397.338 402.998 399.406 406.875C403.86 415.221 408.184 423.63 412.531 432.031C408.779 423.348 404.986 414.668 401.344 405.938C399.652 401.882 398.182 397.75 396.438 393.719C395.232 390.934 393.833 388.21 392.531 385.469C390.214 380.589 387.889 375.718 385.562 370.844C382.654 364.75 379.773 358.661 376.875 352.562C375.572 349.82 374.329 347.027 372.969 344.312C371.153 340.687 369.182 337.126 367.25 333.562C363.865 327.319 360.419 321.131 357 314.906Z" fill="#000000" stroke="none"/>
</g>
<g opacity="1">
<path d="M434.219 312.156C427.272 318.932 420.324 325.695 413.406 332.5C409.949 335.901 406.466 339.296 403.094 342.781C400.031 345.947 397.074 349.223 394.062 352.438C388.037 358.869 382.003 365.296 375.969 371.719C371.141 376.857 366.32 381.979 361.5 387.125C359.092 389.696 356.62 392.24 354.281 394.875C350.477 399.161 346.887 403.643 343.125 407.969C335.025 417.283 326.815 426.484 318.625 435.719C327.296 426.933 335.932 418.138 344.688 409.438C348.754 405.397 353.007 401.518 357.031 397.438C359.814 394.616 362.45 391.645 365.156 388.75C369.971 383.599 374.787 378.439 379.594 373.281C385.602 366.834 391.608 360.408 397.625 353.969C400.332 351.072 403.121 348.221 405.781 345.281C409.331 341.358 412.736 337.322 416.188 333.312C422.23 326.292 428.206 319.202 434.219 312.156Z" fill="#ff3636" stroke="none"/>
</g>
<g opacity="1">
<path d="M448.438 314.094C452.153 320.675 455.874 327.283 459.625 333.844C461.499 337.121 463.304 340.408 465.281 343.625C467.076 346.545 469.02 349.399 470.875 352.281C474.587 358.05 478.299 363.819 482 369.594C484.961 374.214 487.936 378.823 490.906 383.438C492.389 385.742 493.813 388.092 495.375 390.344C497.918 394.01 500.69 397.522 503.281 401.156C508.86 408.981 514.333 416.887 519.812 424.781C514.885 416.531 509.918 408.312 505.094 400C502.853 396.139 500.821 392.142 498.531 388.312C496.949 385.667 495.203 383.121 493.531 380.531C490.555 375.921 487.548 371.323 484.562 366.719C480.831 360.963 477.096 355.2 473.375 349.438C471.701 346.846 470.102 344.181 468.375 341.625C466.07 338.212 463.631 334.931 461.219 331.594C456.993 325.747 452.695 319.918 448.438 314.094Z" fill="#000000" stroke="none"/>
</g>
<g opacity="1">
<path d="M512.875 315.469C507.907 321.837 502.934 328.169 498 334.562C495.832 337.372 493.615 340.189 491.531 343.062C489.452 345.93 487.519 348.902 485.5 351.812C481.437 357.67 477.354 363.524 473.281 369.375C470.161 373.856 467.049 378.325 463.938 382.812C462.264 385.227 460.542 387.601 458.938 390.062C457.728 391.917 456.645 393.856 455.5 395.75C454.125 398.023 452.695 400.282 451.281 402.531C446.102 410.772 440.835 418.943 435.562 427.125C441.63 418.956 447.669 410.776 453.844 402.688C456.529 399.17 459.382 395.784 462 392.219C463.739 389.851 465.36 387.385 467.031 384.969C470.137 380.477 473.247 375.966 476.344 371.469C480.626 365.25 484.926 359.055 489.219 352.844C490.993 350.276 492.842 347.73 494.562 345.125C496.821 341.706 498.907 338.203 501.062 334.719C505.023 328.317 508.949 321.892 512.875 315.469Z" fill="#000000" stroke="none"/>
</g>
<g opacity="1">
<path d="M520.906 316.531C520.761 322.906 520.603 329.281 520.5 335.656C520.455 338.457 520.378 341.261 520.438 344.062C520.497 346.853 520.74 349.649 520.875 352.438C521.16 358.333 521.416 364.229 521.688 370.125C521.873 374.149 522.055 378.164 522.25 382.188C522.362 384.5 522.429 386.849 522.625 389.156C522.773 390.898 523.059 392.611 523.281 394.344C523.548 396.424 523.779 398.509 524 400.594C524.811 408.231 525.487 415.883 526.188 423.531C526.129 415.502 526.049 407.467 526.125 399.438C526.158 395.946 526.424 392.459 526.375 388.969C526.343 386.653 526.147 384.312 526.031 382C525.801 377.42 525.553 372.861 525.312 368.281C524.997 362.281 524.709 356.282 524.406 350.281C524.299 348.155 524.258 345.998 524.094 343.875C523.844 340.651 523.433 337.431 523.062 334.219C522.382 328.315 521.626 322.431 520.906 316.531Z" fill="#000000" stroke="none"/>
</g>
<g opacity="1">
<path d="M527.438 314.844C531.9 321.814 536.345 328.803 540.844 335.75C542.821 338.803 544.748 341.88 546.812 344.875C548.873 347.864 551.097 350.742 553.219 353.688C557.489 359.616 561.74 365.564 566 371.5C569.263 376.047 572.541 380.584 575.812 385.125C577.573 387.568 579.266 390.044 581.094 392.438C582.471 394.241 583.971 395.962 585.406 397.719C587.129 399.827 588.844 401.957 590.531 404.094C596.714 411.922 602.78 419.854 608.875 427.75C603.051 419.1 597.181 410.444 591.469 401.719C588.985 397.925 586.708 393.997 584.156 390.25C582.461 387.761 580.638 385.347 578.875 382.906C575.598 378.37 572.317 373.843 569.031 369.312C564.488 363.048 559.939 356.803 555.406 350.531C553.533 347.938 551.739 345.272 549.812 342.719C547.283 339.367 544.594 336.121 541.969 332.844C537.146 326.823 532.291 320.84 527.438 314.844Z" fill="#000000" stroke="none"/>
</g>
<g opacity="1">
<path d="M596.125 307.781C592.264 314.364 588.388 320.927 584.562 327.531C582.651 330.83 580.682 334.111 578.875 337.469C577.235 340.517 575.734 343.669 574.156 346.75C570.999 352.916 567.855 359.059 564.688 365.219C562.153 370.147 559.618 375.098 557.094 380.031C555.833 382.495 554.489 384.932 553.312 387.438C551.398 391.516 549.738 395.708 547.875 399.812C543.864 408.649 539.714 417.433 535.594 426.219C540.299 417.732 545.002 409.241 549.812 400.812C552.047 396.898 554.473 393.067 556.656 389.125C558.165 386.402 559.523 383.586 560.938 380.812C563.456 375.876 565.96 370.941 568.469 366C571.604 359.823 574.728 353.64 577.875 347.469C579.29 344.693 580.798 341.96 582.156 339.156C583.97 335.413 585.618 331.579 587.312 327.781C590.281 321.128 593.193 314.45 596.125 307.781Z" fill="#000000" stroke="none"/>
</g>
<g opacity="1">
<path d="M602.062 310.031C602.304 317.212 602.529 324.383 602.812 331.562C602.937 334.717 603.02 337.883 603.25 341.031C603.479 344.172 603.884 347.303 604.188 350.438C604.829 357.06 605.465 363.688 606.094 370.312C606.523 374.833 606.936 379.355 607.375 383.875C607.627 386.474 607.821 389.098 608.156 391.688C608.409 393.641 608.798 395.559 609.125 397.5C609.517 399.83 609.902 402.163 610.25 404.5C611.523 413.063 612.649 421.641 613.812 430.219C613.268 421.185 612.692 412.166 612.281 403.125C612.103 399.193 612.136 395.238 611.875 391.312C611.702 388.707 611.412 386.099 611.156 383.5C610.649 378.355 610.112 373.207 609.594 368.062C608.952 361.695 608.317 355.337 607.688 348.969C607.415 346.207 607.245 343.442 606.906 340.688C606.462 337.07 605.815 333.475 605.25 329.875C604.212 323.259 603.139 316.641 602.062 310.031Z" fill="#000000" stroke="none"/>
</g>
<g opacity="1">
<path d="M608.5 305.969C613.416 313.666 618.329 321.388 623.281 329.062C625.458 332.436 627.611 335.841 629.875 339.156C632.135 342.465 634.522 345.671 636.844 348.938C641.516 355.511 646.181 362.075 650.844 368.656C654.415 373.697 657.983 378.747 661.562 383.781C663.489 386.49 665.381 389.246 667.375 391.906C668.877 393.91 670.502 395.824 672.062 397.781C673.935 400.13 675.787 402.499 677.625 404.875C684.36 413.584 690.98 422.379 697.625 431.156C691.228 421.588 684.816 412.018 678.531 402.375C675.798 398.182 673.238 393.865 670.438 389.719C668.577 386.964 666.586 384.301 664.656 381.594C661.071 376.563 657.469 371.524 653.875 366.5C648.907 359.555 643.957 352.609 639 345.656C636.948 342.779 634.949 339.839 632.844 337C630.083 333.277 627.201 329.68 624.344 326.031C619.095 319.328 613.78 312.647 608.5 305.969Z" fill="#000000" stroke="none"/>
</g>
<g opacity="1">
<path d="M438.438 313.312C437.363 319.837 436.282 326.375 435.25 332.906C434.796 335.776 434.287 338.615 433.938 341.5C433.589 344.375 433.43 347.304 433.156 350.188C432.577 356.282 431.967 362.375 431.375 368.469C430.971 372.627 430.582 376.778 430.188 380.938C429.961 383.329 429.675 385.727 429.531 388.125C429.423 389.934 429.44 391.751 429.406 393.562C429.366 395.737 429.304 397.921 429.219 400.094C428.906 408.054 428.454 415.983 428.031 423.938C429.146 415.685 430.221 407.422 431.469 399.188C432.011 395.607 432.789 392.059 433.25 388.469C433.556 386.086 433.715 383.673 433.938 381.281C434.379 376.545 434.82 371.8 435.25 367.062C435.783 361.199 436.33 355.363 436.875 349.5C437.111 346.959 437.423 344.391 437.594 341.844C437.818 338.497 437.866 335.165 437.969 331.812C438.158 325.652 438.288 319.474 438.438 313.312Z" fill="#000000" stroke="none"/>
</g>
</g>
<g id="Fill" vectornatorLayerName="Fill">
<g opacity="1">
<path d="M279.344 151.188C277.676 151.342 276.017 151.82 274.344 151.906C272.822 151.985 271.304 151.827 269.781 151.938C267.095 152.133 264.37 153.075 262.5 155.094C262.049 155.58 261.684 156.101 261.375 156.688C260.467 158.408 260.526 160.32 261 162.156C260.229 164.288 259.711 166.52 259.719 168.781C259.724 170.371 259.923 171.926 260.312 173.406C260.886 175.588 261.964 177.914 263.688 179.438C265.837 181.337 268.66 181.76 271.438 181.344C271.585 181.408 271.689 181.542 271.844 181.594C272.983 181.978 274.187 182.127 275.406 182.125C276.626 182.123 277.844 181.984 279 181.719C279.755 181.546 280.503 181.208 281.25 180.938C281.618 180.875 281.977 180.794 282.344 180.719C287.817 180.84 293.255 178.751 295.031 173.094C295.454 171.746 295.531 170.289 295.469 168.812C295.913 167.162 296.146 165.514 295.781 164C295.358 162.243 294.359 160.834 293.562 159.25C292.487 157.109 291.497 155.185 289.375 153.906C288.765 153.539 288.061 153.452 287.406 153.219C287.008 152.725 286.516 152.293 285.875 152.062C283.729 151.297 281.62 150.976 279.344 151.188Z" fill="#000000" stroke="none"/>
</g>
<g opacity="1">
<path d="M375.062 152.719C373.414 152.91 371.9 153.609 370.5 154.469C369.812 154.891 369.124 155.365 368.469 155.844C368.509 155.781 368.351 155.91 368.281 155.938C368.203 155.968 368.109 155.998 368.031 156.031C367.888 156.092 367.731 156.145 367.594 156.219C367.16 156.452 366.407 156.858 366.125 157.312C365.737 157.937 365.476 158.65 365.156 159.312C365.077 159.473 364.961 159.609 364.906 159.781C362.756 161.373 361.865 163.727 362 166.219C361.955 166.269 361.884 166.29 361.844 166.344C361.474 166.836 361.223 167.446 361.031 168.031C360.926 168.351 360.969 168.694 360.969 169.031C360.966 170.742 362.314 173.054 363.094 174.5C363.311 174.902 363.518 175.294 363.75 175.688C364.469 176.903 365.439 177.952 366.469 178.906C366.496 178.938 366.503 178.968 366.531 179C366.664 179.151 366.831 179.233 366.969 179.375C367.097 179.487 367.213 179.61 367.344 179.719C367.418 179.781 367.518 179.844 367.594 179.906C368.301 180.537 369.041 181.058 369.844 181.469C372.873 183.482 376.56 185.184 380.125 185.125C381.655 185.1 383.119 184.764 384.5 184C385.834 183.262 386.998 182.131 387.969 180.969C391.511 176.729 392.765 170.6 390.375 165.5C389.737 164.139 388.876 162.96 387.812 161.906C386.923 161.025 385.929 160.247 385.125 159.281C382.508 156.139 379.645 152.186 375.062 152.719Z" fill="#000000" stroke="none"/>
</g>
<g opacity="1">
<path d="M478 152.562C476.934 152.484 475.832 152.592 474.844 152.781C472.39 153.252 469.926 154.274 467.969 155.844C467.349 156.341 466.8 156.959 466.219 157.5C465.017 158.619 463.395 160.102 463.562 161.938C463.611 162.462 463.735 163.013 463.938 163.5C464.091 163.869 464.339 164.129 464.594 164.406C464.323 165.497 464.009 166.591 463.969 167.719C463.92 169.097 464.087 170.505 464.562 171.812C464.014 172.584 463.774 173.56 463.969 174.562C464.288 176.136 464.235 177.775 465.125 179.188C465.78 180.228 466.702 180.969 467.844 181.406C468.783 181.766 469.767 181.867 470.719 181.812C472.014 182.655 473.345 183.473 474.625 184.062C476.81 185.069 479.318 185.759 481.719 185.156C484.374 184.49 486.448 182.431 487.781 180.125C488.434 178.996 488.917 177.789 489.5 176.625C490.262 175.104 491.64 174.011 492.438 172.5C494.434 168.716 495.282 163.407 493.25 159.438C491.02 155.082 485.836 153.142 481.188 153.156C480.899 153.157 480.604 153.267 480.312 153.281C479.576 152.937 478.831 152.624 478 152.562Z" fill="#000000" stroke="none"/>
</g>
<g opacity="1">
<path d="M108.344 426.281C107.481 426.18 106.782 426.366 106.062 426.531C105.445 426.384 104.805 426.353 104.156 426.562C100.794 427.709 97.9595 431.138 97.7188 434.719C97.6385 435.912 97.8403 437.13 98.4062 438.281C98.398 438.323 98.3831 438.364 98.375 438.406C97.2159 444.452 97.874 452.705 103.719 456.219C104.009 456.393 104.814 456.932 105.281 457C105.644 457.053 106.007 457.026 106.375 457.031C106.386 457.041 106.395 457.053 106.406 457.062C107.605 458.075 108.933 458.446 110.312 458.531C111.692 458.616 113.113 458.41 114.531 458.281C115.792 458.167 117.058 458.183 118.281 457.812C120.491 457.144 122.268 455.426 123.594 453.594C125.52 450.932 126.854 447.474 126.812 444.094C126.799 442.967 126.63 441.856 126.281 440.781C125.727 439.073 124.708 437.631 123.375 436.438C122.499 435.654 121.454 435.065 120.531 434.344C119.319 433.397 118.319 432.166 117.188 431.125C114.738 428.871 111.759 426.68 108.344 426.281Z" fill="#000000" stroke="none"/>
</g>
<g opacity="1">
<path d="M221.469 429.406C220.167 429.334 218.832 429.409 217.562 429.719C211.526 431.193 209.365 436.55 208.094 442C207.667 443.827 207.18 445.659 207.375 447.562C207.455 448.343 207.673 449.225 208.031 449.938C208.399 450.67 209.047 451.307 209.75 451.719C209.771 451.731 209.791 451.738 209.812 451.75C211.225 455.557 214.835 458.648 218.656 459.656C220.324 460.096 221.93 459.937 223.625 459.938C225.149 459.938 226.629 460.176 228.156 460C232.097 459.545 234.275 456.838 235.25 453.188C235.841 450.975 235.812 448.71 235.562 446.438C236.057 446.022 236.472 445.504 236.688 444.844C236.841 444.373 236.914 443.901 236.875 443.438C236.757 442.046 235.817 440.804 234.406 440.344C234.285 440.304 234.154 440.258 234.031 440.219C233.146 437.911 232.054 435.677 230.406 433.844C229.266 432.575 227.936 431.53 226.438 430.719C224.908 429.891 223.196 429.503 221.469 429.406Z" fill="#000000" stroke="none"/>
</g>
<g opacity="1">
<path d="M308.125 431.25C305.247 431.446 302.465 432.594 300.75 434.719C299.878 435.799 299.365 437.101 298.938 438.406C298.618 439.382 298.344 440.372 298.125 441.375C297.564 443.948 297.204 447.292 298.469 449.719C298.385 450.214 298.219 450.699 298.312 451.219C298.757 453.684 300.679 454.433 302.75 454.844C303.806 455.762 305.113 456.284 306.5 456.281C307.095 456.28 307.722 456.188 308.312 456C308.728 455.868 309.059 455.587 309.438 455.375C311.735 455.312 314.029 455.075 316.125 454.25C318.217 453.427 320.077 451.981 320.938 449.844C321.479 448.497 321.724 447.02 321.719 445.5C321.703 440.939 319.427 436.057 316.062 433.438C313.981 431.817 311.003 431.054 308.125 431.25Z" fill="#ff3636" stroke="none"/>
</g>
<g opacity="1">
<path d="M424.312 422.25C422.153 422.531 420.048 423.386 418.219 424.781C413.36 428.487 410.995 434.685 410.656 440.625C410.572 442.141 411.448 443.499 412.75 444.094C413.119 444.745 413.601 445.299 414.125 445.781C414.288 446.06 414.388 446.355 414.594 446.625C414.974 447.124 415.395 447.532 415.875 447.938C416.061 448.094 416.301 448.169 416.5 448.312C416.834 448.894 417.23 449.435 417.594 450C417.871 450.43 419.096 450.743 419.562 450.781C419.745 450.796 419.836 450.693 420 450.688C420.199 450.869 420.342 451.079 420.562 451.25C421.418 451.913 422.393 452.432 423.406 452.812C423.472 452.837 423.558 452.82 423.625 452.844C424.077 453.643 424.604 454.402 425.375 455.031C426.931 456.301 428.93 456.653 430.906 456.594C432.086 457.27 433.383 457.742 434.781 457.75C436.142 457.758 437.508 457.434 438.719 456.812C440.127 456.09 441.414 454.951 442.281 453.625C443.194 452.23 443.629 450.534 443.594 448.875C443.54 446.305 442.297 443.942 440.531 442.031C440.184 439.429 439.248 436.823 438.219 434.625C438.193 434.571 438.151 434.523 438.125 434.469C438.021 432.455 437.135 430.462 436.094 428.594C435.969 427.904 435.776 427.217 435.406 426.562C434.862 425.601 434.015 424.902 433.094 424.312C432.928 424.165 432.839 423.933 432.656 423.812C432.395 423.639 432.107 423.483 431.812 423.375C431.5 423.26 431.172 423.18 430.844 423.125C428.716 422.252 426.472 421.969 424.312 422.25Z" fill="#000000" stroke="none"/>
</g>
<g opacity="1">
<path d="M519.062 423.938C517.223 424.343 515.576 425.352 514.156 426.562C511.129 429.142 508.546 432.94 508.312 437C508.259 438.061 508.675 439.027 509.375 439.719C509.449 440.998 509.909 442.242 510.875 443.25C512.085 444.513 513.638 444.941 515.219 444.844C517.362 445.439 519.784 444.889 521.75 443.781C522.262 443.814 522.739 443.783 523.25 443.75C523.724 443.725 524.186 443.769 524.656 443.656C524.798 443.622 524.923 443.542 525.062 443.5C525.749 443.806 526.49 443.851 527.25 443.906C529.608 444.383 532.243 443.698 534.125 442.281C536.869 440.216 538.622 436.865 538.531 433.5C538.501 432.378 538.247 431.271 537.781 430.188C536.146 426.386 532.278 425.052 528.438 425.656C526.806 424.519 524.579 424.15 522.688 423.938C521.478 423.802 520.264 423.672 519.062 423.938Z" fill="#000000" stroke="none"/>
</g>
<g opacity="1">
<path d="M607.75 430.5C602.361 430.736 598.07 437.359 597.562 442.281C597.288 444.941 598.399 447.63 600.844 448.812C601.564 449.708 602.424 450.502 603.625 451C603.665 451.017 603.71 451.015 603.75 451.031C603.93 451.316 604.115 451.6 604.281 451.875C604.452 452.157 604.859 452.201 605.156 452.344C605.536 452.525 606.085 452.539 606.594 452.562C607.917 452.609 609.219 452.676 610.531 452.875C611.366 453.663 612.344 454.273 613.5 454.562C615.4 455.038 617.127 454.631 618.469 453.656C618.838 453.596 619.2 453.585 619.562 453.469C619.86 453.373 620.015 453.128 620.281 453C620.91 452.906 621.531 452.828 622.156 452.625C625.631 451.499 627.682 448.509 627.5 445.281C627.439 444.205 627.116 443.098 626.531 442.031C625.891 440.881 624.727 440.28 623.5 440.25C623.286 439.661 623.195 439.01 622.844 438.5C622.373 437.818 621.782 437.232 621.062 436.812C621.001 436.777 620.936 436.783 620.875 436.75C620.277 434.801 618.989 433.192 616.688 432.5C616.188 432.35 615.674 432.344 615.156 432.312C614.32 431.603 613.353 431.039 612.125 430.781C611.444 430.639 610.755 430.832 610.062 430.875C609.355 430.601 608.573 430.464 607.75 430.5Z" fill="#000000" stroke="none"/>
</g>
<g opacity="1">
<path d="M697.594 431C696.869 431.032 696.2 431.211 695.562 431.438C695.368 431.391 695.198 431.289 695 431.25C693.057 430.873 691.159 432.151 690.781 434.094C690.669 434.673 690.752 435.22 690.906 435.75C689.209 438.852 688.657 442.851 689.5 445.844C689.798 446.903 690.237 447.953 690.938 448.812C692.363 450.56 694.406 451.018 696.281 450.375C696.509 450.41 696.741 450.463 696.969 450.469C697.071 450.567 697.175 450.659 697.281 450.75C697.779 451.978 698.545 453.096 699.875 453.844C700.517 454.204 701.25 454.337 701.969 454.5C703.144 455.643 704.789 456.241 706.531 455.844C710.044 455.042 711.827 451.504 711.875 447.938C711.9 446.09 711.427 444.248 710.5 442.781C710.873 442.308 711.039 441.471 711.031 440.938C711.012 439.584 710.4 438.861 709.5 438C709.406 437.91 709.117 437.744 708.969 437.656C708.219 436.927 707.398 436.235 706.625 435.531C704.13 433.262 701.183 430.841 697.594 431Z" fill="#000000" stroke="none"/>
</g>
</g>
<g id="Nodes" vectornatorLayerName="Nodes">
<g opacity="1">
<path d="M376.5 50.6875C373.177 50.4812 369.823 51.1857 367.406 52.9375C366.704 53.4466 366.117 54.0937 365.562 54.7812C365.215 54.794 364.868 54.8227 364.531 54.9062C363.149 55.2488 361.924 56.3077 360.906 57.25C357.701 60.2178 354.935 64.1633 353.594 68.3438C353.241 69.4439 352.981 70.5891 353 71.75C353.065 75.6861 355.807 79.0089 358.875 81.1562C364.382 85.0104 372.193 86.7746 378.312 83.3438C385.017 79.5845 389.049 71.1179 389.156 63.625C389.208 60.0487 388.135 56.2891 385.344 53.9062C383.105 51.9957 379.823 50.8938 376.5 50.6875ZM375.656 52.2812C378.447 52.6001 381.138 53.6281 382.938 55.2812C385.226 57.3845 385.441 60.6114 385.375 63.5625C385.234 69.8749 381.881 77.3369 376.031 80.3438C370.857 83.0032 363.533 80.7781 359.5 76.9688C358.002 75.5533 356.446 73.668 356.125 71.5625C355.919 70.2147 356.249 68.7559 356.625 67.4688C357.688 63.8286 359.653 60.1742 362.188 57.3438C363.022 56.4115 363.977 55.5101 365.219 55.1875C364.668 55.9172 364.139 56.672 363.656 57.4062C363.308 57.935 362.966 58.4669 362.625 59C362.314 59.4862 361.194 60.7086 361.719 60.4688C361.84 60.4131 361.82 60.4754 361.875 60.4688C361.867 60.4726 361.913 60.4355 361.906 60.4375C361.673 60.5106 362.521 59.5801 362.844 59.1562C363.226 58.6535 363.611 58.1541 364 57.6562C364.708 56.7502 365.463 55.8118 366.312 54.9688C366.396 54.9581 366.483 54.9477 366.562 54.9375C366.745 54.9139 367.049 54.8318 367.125 54.875C367.149 54.8378 367.196 54.8187 367.219 54.7812C367.336 54.5916 366.786 54.7834 366.562 54.7812C366.987 54.383 367.386 53.9542 367.875 53.6562C369.981 52.3718 372.866 51.9624 375.656 52.2812ZM367.125 54.875C366.361 56.0786 365.429 57.1628 364.438 58.1875C363.612 59.0407 367.875 54.75 367.875 54.75C367.875 54.75 366.453 56.0843 367.25 54.875C367.272 54.8413 367.142 54.8845 367.125 54.875ZM364.438 58.1875C363.653 59.0062 362.863 59.8307 361.906 60.4375C362.043 60.4458 361.979 60.6211 361.75 60.875C362.901 59.7164 365.221 57.3699 364.438 58.1875Z" fill="#000000" stroke="none"/>
</g>
<g opacity="1">
<path d="M283.625 150.75C281.006 150.762 273.219 152.219 273.219 152.219C273.219 152.219 275.155 152.877 276.219 152.844C278.736 152.764 281.082 151.435 283.625 151.625C286.55 151.844 287.934 153.776 289.75 155.875C290.85 157.146 291.985 158.435 292.906 159.844C293.86 161.303 294.663 162.897 295.094 164.594C296.402 169.751 293.581 174.342 289.312 177.062C283.302 180.894 274.963 181.947 268.25 179.469C266.287 178.744 264.319 177.701 262.906 176.125C261.705 174.785 261.07 173.136 260.656 171.406C259.793 167.795 260.102 163.983 261.125 160.438C262.345 156.21 273.219 152.219 273.219 152.219C273.219 152.219 271.413 151.426 270.406 151.281C264.238 150.392 260.003 156.359 258.219 161.438C255.944 167.909 255.963 175.429 261.781 180.062C263.329 181.295 265.151 182.219 267 182.906C274.984 185.872 285.329 184.582 292.281 179.625C297.013 176.251 299.918 171.282 298.281 165.406C297.774 163.586 296.9 161.872 295.844 160.312C294.131 157.784 291.844 155.699 289.625 153.625C287.832 151.949 286.171 150.739 283.625 150.75Z" fill="#000000" stroke="none"/>
</g>
<g opacity="1">
<path d="M374.406 151.125C373.246 151.171 372.079 151.416 370.969 151.844C370.424 152.053 369.827 152.321 369.312 152.594C369.021 152.748 368.115 153.024 368.438 153.094C368.522 153.112 368.497 153.134 368.531 153.156C368.285 153.105 369.083 152.875 369.375 152.75C369.901 152.525 370.543 152.286 371.094 152.125C373.001 151.567 375.018 151.525 376.906 152.188C379.982 153.267 382.197 155.863 384.156 158.344C384.993 159.404 385.857 160.436 386.688 161.5C389.4 164.975 391.939 169.44 390.125 173.938C389.259 176.085 387.766 177.985 386.375 179.812C385.575 180.863 384.766 181.897 383.844 182.844C383.304 183.398 382.759 183.901 382.031 184.188C379.082 185.349 375.553 183.774 373 182.406C371.137 181.408 369.415 180.152 367.812 178.781C364.652 176.078 362.359 173.14 362.219 168.844C362.057 163.877 364.779 159.116 368.281 155.781C369.279 154.831 370.418 154.006 371.625 153.344C372.128 153.068 372.655 152.837 373.188 152.625C373.363 152.555 373.905 152.379 373.719 152.406C372.777 152.545 374.25 152.25 374.25 152.25C374.25 152.25 373.716 152.35 373.125 152.469C372.938 152.514 372.779 152.541 372.594 152.594C372.024 152.756 371.453 152.959 370.906 153.188C368.965 154 367.161 155.194 365.594 156.594C361.651 160.114 358.707 165.333 359 170.75C359.237 175.145 361.589 178.09 364.75 180.938C367.806 183.691 371.304 186.004 375.188 187.406C377.775 188.341 380.756 188.682 383.375 187.688C385.951 186.709 387.764 184.182 389.375 182.094C391.839 178.9 394.258 175.488 394.438 171.625C394.497 170.337 394.303 168.99 393.781 167.594C393.263 166.208 392.477 164.931 391.594 163.75C390.061 161.7 388.195 159.944 386.406 158.125C383.897 155.573 381.364 152.78 377.875 151.594C376.742 151.208 375.566 151.079 374.406 151.125ZM368.531 153.156C368.825 153.346 367.563 153.656 367.562 153.656C367.562 153.656 371.848 152.802 370.906 152.938C370.116 153.051 369.324 153.249 368.531 153.156Z" fill="#000000" stroke="none"/>
</g>
<g opacity="1">
<path d="M478.938 153C478.938 153 481.382 153.764 482.656 154.031C485.177 154.56 487.864 154.924 489.781 156.812C490.532 157.552 491.134 158.461 491.594 159.406C493.292 162.897 492.943 167.114 491.594 170.656C491.109 171.93 490.445 173.096 489.781 174.281C488.072 177.332 485.878 180.249 482.562 181.656C480.059 182.719 477.119 182.56 474.531 181.875C470.265 180.746 467.041 177.529 465.656 173.375C464.995 171.39 464.83 169.269 464.812 167.188C464.794 164.965 478.938 153 478.938 153ZM478.938 153C478.938 153 467.378 153.535 464.156 158.094C462.793 160.023 461.99 162.419 461.531 164.719C461.31 165.827 461.208 166.952 461.188 168.062C461.045 175.839 465.707 183.327 473.562 185.469C477.213 186.464 481.264 186.472 484.719 184.812C488.383 183.052 491.437 179.646 493.125 175.969C494.298 173.414 494.839 170.45 494.938 167.656C495.046 164.574 494.507 161.334 492.844 158.688C492.328 157.868 491.709 157.129 491 156.469C488.672 154.3 478.938 153 478.938 153Z" fill="#000000" stroke="none"/>
</g>
<g opacity="1">
<path d="M175.812 292.094C175.812 292.094 189.048 298.048 195.406 301.906C195.163 300.459 194.718 299.026 193.781 297.656C190.003 292.131 175.812 292.094 175.812 292.094ZM175.812 292.094C175.812 292.094 168.044 291.719 165.562 294.375C163.402 296.687 162.871 300.144 162.562 303.156C162.444 304.317 162.333 305.498 162.312 306.656C162.292 307.815 162.363 308.967 162.562 310.125C163.249 314.108 165.747 317.692 169.281 319.656C175.629 323.185 183.854 321.728 190.188 318.969C193.048 317.722 196.022 316.169 197.688 313.406C199.319 310.7 199.26 307.64 198.781 304.625C198.692 304.064 197.329 303.073 195.406 301.906C195.72 303.775 195.658 305.699 195.438 307.75C195.285 309.175 195.1 310.58 194.25 311.781C193.252 313.193 191.663 314.051 190.156 314.812C188.926 315.434 187.674 315.977 186.375 316.438C180.495 318.521 171.464 319.452 167.625 313.25C165.807 310.314 165.529 306.638 165.406 303.281C165.313 300.711 165.249 297.608 166.75 295.375C167.556 294.175 175.813 292.094 175.812 292.094Z" fill="#000000" stroke="none"/>
</g>
<g opacity="1">
<path d="M265.875 286.875C264.916 286.93 263.996 287.174 263.219 287.719C262.366 288.316 262.281 290.781 262.281 290.781C262.281 290.781 262.681 290.209 262.75 289.875C262.868 289.303 262.761 288.288 263.375 287.938C264.927 287.051 266.907 287.346 268.531 287.812C271.406 288.639 274.171 290.222 276.312 292.312C279.254 295.183 281.425 298.949 282.312 302.969C282.615 304.339 282.701 305.728 282.781 307.125C283.045 311.73 281.907 315.899 278.344 319.031C277.465 319.804 276.491 320.576 275.375 320.969C272.61 321.941 269.284 321.082 266.594 320.25C261.576 318.698 257.139 315.696 254.188 311.344C252.672 309.109 251.618 306.601 251.5 303.875C251.361 300.655 252.455 295.748 255.406 293.938C256.409 293.322 262.281 290.781 262.281 290.781C262.281 290.781 260.444 291.676 259.438 291.906C257.934 292.25 256.334 292.38 254.906 293C251.752 294.37 249.945 298.282 249.188 301.438C248.822 302.962 248.678 304.561 248.781 306.125C249.408 315.634 258.588 321.898 267 324.188C268.704 324.651 270.534 325.005 272.344 325.062C274.153 325.12 275.941 324.858 277.594 324.062C279.288 323.247 280.847 321.96 282.125 320.594C283.297 319.341 284.271 317.928 285 316.375C286.38 313.435 286.931 310.008 286.531 306.781C285.929 301.912 282.966 296.762 279.625 293.25C276.702 290.178 272.898 287.961 268.719 287.125C267.843 286.95 266.834 286.82 265.875 286.875Z" fill="#000000" stroke="none"/>
</g>
<g opacity="1">
<path d="M351.875 285.5C349.855 285.371 347.375 285.458 345.812 286.938C345.408 287.32 344.979 287.856 344.938 288.438C344.871 289.366 345.219 291.625 345.219 291.625C345.219 291.625 345.475 291.362 345.531 291.188C345.83 290.256 344.978 289.287 345.25 288.344C345.371 287.924 345.763 287.54 346.094 287.281C347.636 286.075 349.936 286.208 351.75 286.5C355.735 287.142 359.76 288.87 362.031 292.344C363.262 294.225 363.706 296.322 363.875 298.531C364.199 302.762 362.779 306.908 359.969 310.094C358.607 311.637 357.03 313.007 355.281 314.094C354.776 314.408 354.167 314.803 353.562 314.906C349.875 315.537 345.256 314.568 342.406 312.156C337.974 308.406 336.326 301.9 338.094 296.406C338.821 294.147 345.219 291.625 345.219 291.625C345.219 291.625 343.746 292.442 342.906 292.625C341.628 292.903 340.232 292.969 339.031 293.531C337.997 294.015 337.235 294.836 336.719 295.844C335.508 298.206 334.908 300.956 334.938 303.688C334.967 306.419 335.621 309.105 336.969 311.406C339.824 316.28 345.453 318.544 350.875 318.688C352.382 318.727 353.945 318.766 355.375 318.219C357.258 317.498 359.028 316.091 360.531 314.781C366.847 309.278 370.362 299.916 365.312 292.406C362.18 287.748 357.307 285.847 351.875 285.5Z" fill="#000000" stroke="none"/>
</g>
<g opacity="1">
<path d="M431.375 288.625C427.114 289.327 424.937 295.118 424.469 298.969C424.179 301.352 424.345 303.87 425.312 306.094C427.008 309.992 430.806 312.66 434.719 314C437.125 314.824 439.683 315.228 442.219 315.344C444.351 315.441 446.501 315.305 448.5 314.5C452.969 312.701 456.876 308.522 456.938 303.5C456.979 300.121 455.119 296.718 452.938 294.25C450.932 291.981 448.389 290.227 445.531 289.219C444.591 288.887 443.63 288.603 442.625 288.656C440.647 288.762 435.344 289.437 435.344 289.438C435.344 289.438 436.281 289.822 436.781 289.906C438.747 290.237 440.663 289.339 442.625 289.438C443.717 289.492 444.739 289.99 445.688 290.5C447.727 291.597 449.552 293.183 450.906 295.062C453.901 299.218 454.462 305.362 450.344 309C449.397 309.837 448.263 310.548 447.094 311.031C445.24 311.797 443.145 311.713 441.188 311.562C439.395 311.424 437.612 311.141 435.906 310.562C433.91 309.885 431.995 308.821 430.531 307.281C428.051 304.673 427.094 300.891 427.312 297.375C427.531 293.848 435.344 289.438 435.344 289.438C435.344 289.438 434.026 288.787 433.312 288.656C432.617 288.529 431.984 288.525 431.375 288.625Z" fill="#000000" stroke="none"/>
</g>
<g opacity="1">
<path d="M507.25 288.312C505.576 288.327 503.842 288.545 502.562 289.719C500.283 291.81 499.833 295.239 499.594 298.156C499.496 299.352 499.454 300.527 499.625 301.719C501.031 311.546 510.917 319.996 520.969 318.5C521.997 318.347 523.041 318.132 524 317.719C526.153 316.791 527.674 314.899 529.031 313.062C529.787 312.04 530.519 310.983 531.031 309.812C532.621 306.183 532.698 301.617 531.625 297.844C531.264 296.574 529.914 295.329 528.219 294.188C529.71 296.956 530.19 300.314 529.562 303.375C529.21 305.097 528.494 306.624 527.656 308.156C526.565 310.153 524.87 312.929 522.844 314.094C522.277 314.42 521.603 314.558 520.969 314.688C513.971 316.119 507.186 311.291 504.406 305.062C503.449 302.918 503.064 300.549 502.969 298.219C502.879 296.021 502.671 293.421 503.969 291.5C504.948 290.051 516.406 288.844 516.406 288.844C516.406 288.844 510.313 288.286 507.25 288.312ZM516.406 288.844C516.406 288.844 523.707 291.151 528.219 294.188C527.375 292.622 526.289 291.188 524.719 290.219C523.802 289.653 522.797 289.254 521.75 289C519.986 288.573 516.406 288.844 516.406 288.844Z" fill="#000000" stroke="none"/>
</g>
<g opacity="1">
<path d="M602.375 281.438C600.855 281.269 599.324 281.271 597.812 281.469C596.808 281.6 595.804 281.831 594.844 282.156C594.657 282.219 594.465 282.273 594.281 282.344C594.1 282.414 593.603 282.435 593.75 282.562C593.791 282.598 593.779 282.594 593.812 282.625C593.736 282.519 594.136 282.488 594.312 282.438C594.5 282.384 594.717 282.358 594.906 282.312C595.298 282.218 595.664 282.124 596.062 282.062C597.471 281.845 598.895 281.828 600.312 281.969C604.613 282.395 608.964 284.275 612 287.406C612.808 288.239 613.503 289.169 614.062 290.188C614.859 291.637 615.518 293.506 615.344 295.188C615.207 296.51 614.309 297.793 613.5 298.781C611.636 301.059 609.139 302.85 606.625 304.344C603.979 305.916 601.398 307.018 598.312 307.156C594.139 307.343 588.81 306.105 586.938 301.906C586.187 300.225 586.13 298.273 585.969 296.469C585.814 294.735 585.688 292.834 586.281 291.156C587.42 287.936 592.157 287.493 594.969 287.312C595.425 287.283 595.856 287.267 596.312 287.25C597.405 287.209 598.501 287.189 599.594 287.156C599.796 287.15 600.017 287.133 600.219 287.125C600.412 287.117 600.936 287.241 600.781 287.125C600.713 287.074 600.736 287.071 600.688 287.031C600.651 287.06 600.379 286.987 600.219 286.969C600.019 286.946 599.825 286.931 599.625 286.906C599.181 286.851 598.788 286.778 598.344 286.719C596.75 286.507 595.17 286.298 593.562 286.219C590.192 286.052 586.102 286.447 584.125 289.594C583.652 290.347 583.329 291.176 583.094 292.031C582.608 293.796 582.492 295.646 582.5 297.469C582.52 301.876 583.896 305.543 587.688 308.125C589.099 309.086 590.699 309.745 592.344 310.188C594.659 310.81 597.082 310.981 599.469 310.781C603.127 310.475 606.412 308.93 609.5 307C611.752 305.593 613.913 303.955 615.719 302C617.001 300.612 618.235 298.963 618.688 297.094C619.177 295.07 618.484 292.966 617.594 291.156C615.476 286.853 611.33 283.867 606.844 282.406C605.399 281.936 603.895 281.606 602.375 281.438ZM600.688 287.031C600.695 287.026 600.807 287.049 600.781 287.031C600.712 286.984 600.632 286.953 600.562 286.906C600.595 286.94 600.623 286.979 600.688 287.031ZM600.562 286.906C600.23 286.561 601.344 287.062 601.344 287.062C601.344 287.062 596.083 284.179 597.281 284.938C598.358 285.619 599.5 286.204 600.562 286.906ZM597.281 284.938C596.118 284.193 594.904 283.54 593.844 282.656C594.578 283.366 593.219 282.813 593.219 282.812C593.219 282.812 598.437 285.677 597.281 284.938Z" fill="#000000" stroke="none"/>
</g>
<g opacity="1">
<path d="M102.312 423.5C101.424 423.617 100.575 423.87 99.8125 424.312C98.2755 425.205 97.2648 426.73 96.1875 428.094C97.338 426.847 98.4377 425.411 100 424.656C101.82 423.777 103.976 423.99 105.844 424.594C107.036 424.979 108.109 425.646 109.188 426.281C106.184 426.041 103.729 425.738 100.969 427.438C98.5963 428.898 97.4226 432.072 96.6875 434.594C96.0815 436.672 95.7213 438.849 95.5 441C95.1263 444.633 95.2079 448.396 96.7188 451.781C99.6415 458.331 106.235 461.037 113 461.469C115.84 461.65 118.624 461.214 121.062 459.688C122.488 458.795 123.752 457.618 124.844 456.344C128.755 451.777 131.603 444.213 128.344 438.562C127.445 437.005 126.039 435.691 124.688 434.531C121.824 432.074 118.551 430.16 115.312 428.25C112.049 426.325 108.767 424.214 104.969 423.562C104.11 423.415 103.201 423.383 102.312 423.5ZM109.281 426.344C111.032 427.386 112.713 428.543 114.344 429.719C115.505 430.556 116.684 431.4 117.812 432.281C121.279 434.989 125.765 439.015 125.938 443.781C125.997 445.428 125.662 447.086 125.094 448.625C124.582 450.012 123.867 451.312 123.031 452.531C121.977 454.07 120.677 455.525 119.094 456.531C116.88 457.939 114.285 457.991 111.75 457.656C107.86 457.142 103.864 455.89 101.406 452.625C100.111 450.905 99.4377 448.739 99 446.656C98.1452 442.588 98.1875 438.17 99 434.094C99.3883 432.146 99.998 429.664 101.625 428.344C104.012 426.407 106.41 426.493 109.281 426.344Z" fill="#000000" stroke="none"/>
</g>
<g opacity="1">
<path d="M220.688 429.75C220.688 429.75 226.898 432.232 229 434.25C231.384 436.538 234.203 439.209 235.062 442.531C235.539 444.372 235.517 446.379 235.25 448.25C235.055 449.617 234.697 450.918 234.344 452.25C233.662 454.818 232.614 457.936 229.938 459.031C227.064 460.207 223.543 459.625 220.656 458.812C219.172 458.395 217.725 457.84 216.344 457.156C214.107 456.049 211.544 454.451 210.375 452.125C209.699 450.781 209.78 449.118 209.75 447.656C209.707 445.574 209.738 443.506 210 441.438C210.348 438.688 220.687 429.75 220.688 429.75ZM220.688 429.75C220.688 429.75 214.133 429.692 211.688 432C209.555 434.013 208.353 436.989 207.5 439.719C206.191 443.907 205.217 448.949 206.875 453.188C207.879 455.755 210.206 457.745 212.469 459.188C216.446 461.722 221.299 463.314 226.031 463.375C227.639 463.396 229.284 463.236 230.812 462.719C235.192 461.238 237.582 456.511 238.156 452.156C238.437 450.026 238.326 447.811 238.031 445.688C237.827 444.217 237.506 442.726 236.875 441.375C235.485 438.398 232.877 436.182 230.375 434.156C229.311 433.294 220.687 429.75 220.688 429.75Z" fill="#000000" stroke="none"/>
</g>
<g opacity="1">
<path d="M308.438 431.281C306.659 431.307 304.843 431.492 303.188 432.188C300.564 433.291 297.824 436.107 296.719 438.656C295.721 440.957 295.361 444.221 295.281 446.75C295.164 450.463 295.8 453.605 299 455.812C301.08 457.248 303.659 457.78 306.156 457.781C311.003 457.784 316.264 455.983 319.5 452.281C321.191 450.347 322.559 447.968 322.656 445.344C322.685 444.573 321.409 442.501 319.938 440.312C320.056 440.577 320.263 440.877 320.344 441.125C320.823 442.603 321.111 444.162 320.688 445.688C319.931 448.416 317.627 449.966 315.281 451.25C311.954 453.071 308.273 454.469 304.406 453.938C303.242 453.777 302.074 453.413 301.094 452.75C298.245 450.824 298.767 447.031 299.188 444.031C299.834 439.419 301.727 434.774 306.406 433.094C307.637 432.652 314.469 432.812 314.469 432.812C314.469 432.812 310.48 431.251 308.438 431.281ZM314.469 432.812C314.469 432.813 317.548 436.76 319.938 440.312C318.477 437.063 314.469 432.812 314.469 432.812Z" fill="#ff3636" stroke="none"/>
</g>
<g opacity="1">
<path d="M425.25 421C424.962 420.988 424.542 421.364 424.125 421.75C424.853 421.74 425.612 421.836 426.281 422C429.026 422.674 431.715 424.156 433.531 426.344C434.981 428.09 436.112 430.09 437.031 432.156C437.895 434.099 438.478 436.108 439.031 438.156C440.132 442.23 441.644 447.389 439.781 451.469C438.125 455.095 434.067 455.303 430.594 454.75C425.324 453.911 420.398 451.368 416.438 447.844C415.067 446.625 413.746 445.281 412.906 443.625C411.402 440.658 412.049 436.715 413.438 433.844C413.813 433.068 420.187 427.094 420.188 427.094C420.188 427.094 416.161 429.478 414.312 430.812C411.318 432.973 409.746 437.442 409.594 440.969C409.288 448.049 416.066 453.093 421.844 455.75C423.059 456.309 423.799 456.648 425.062 457.094C426.665 457.66 428.322 458.098 430 458.375C433.218 458.906 436.874 458.863 439.719 457.062C445.246 453.565 444.899 445.874 443.531 440.312C443.253 439.182 442.91 438.08 442.469 437C442.026 435.914 441.52 434.908 440.969 433.875C440.188 432.413 439.331 430.97 438.406 429.594C437.229 427.84 435.944 426.144 434.375 424.719C432.06 422.615 428.362 421.135 425.25 421ZM420.188 427.094C420.187 427.094 422.458 423.294 424.125 421.75C423.166 421.763 422.228 421.97 421.5 422.625C420.575 423.458 420.692 424.549 420.562 425.688C420.507 426.172 420.188 427.094 420.188 427.094Z" fill="#000000" stroke="none"/>
</g>
<g opacity="1">
<path d="M523.062 425.75C519.285 425.702 516.094 426.125 516.094 426.125C516.094 426.125 523.343 426.117 529.25 426.406C527.279 425.963 525.1 425.776 523.062 425.75ZM529.25 426.406C530.934 426.785 532.479 427.345 533.562 428.219C535.251 429.58 535.744 431.456 535.938 433.531C536.262 437.009 534.879 440.6 531.844 442.469C531.17 442.883 530.075 442.93 529.344 443.031C527.693 443.26 526.009 443.366 524.344 443.406C521.432 443.476 518.357 443.447 515.5 442.812C514.732 442.642 513.999 442.445 513.281 442.125C513.179 442.079 513.166 442.104 513.156 442.094C510.001 438.688 516.094 426.125 516.094 426.125C516.094 426.125 507.781 434.215 508.562 439.844C508.8 441.554 509.431 443.478 510.688 444.719C512.327 446.338 515.234 446.549 517.375 446.781C519.266 446.987 521.181 447.094 523.094 447.094C525.007 447.093 526.92 446.995 528.812 446.812C530.405 446.659 532.321 446.488 533.75 445.656C537.611 443.408 539.977 438.766 539.781 434.375C539.664 431.74 538.641 429.193 536.469 427.312C535.896 426.816 532.743 426.578 529.25 426.406Z" fill="#000000" stroke="none"/>
</g>
<g opacity="1">
<path d="M606.719 427.344C605.886 427.346 604.43 427.564 604.281 428.625C604.183 429.324 605.625 431.656 605.625 431.656C605.625 431.656 605.44 430.82 605.25 430.438C605.014 429.96 604.481 429.281 604.625 428.688C604.867 427.691 606.737 427.908 607.375 428.031C609.534 428.449 611.476 429.469 613.281 430.688C614.796 431.71 616.238 432.838 617.594 434.062C618.712 435.072 619.762 436.145 620.75 437.281C621.992 438.709 622.943 440.3 623.875 441.938C625.576 444.928 626.639 448.001 623.875 450.75C623.349 451.273 622.69 451.892 622 452.188C621.237 452.515 620.349 452.583 619.531 452.656C618.143 452.78 616.766 452.77 615.375 452.719C614.07 452.671 612.767 452.586 611.469 452.438C606.11 451.823 597.964 449.824 598.125 443C598.193 440.126 602.221 435.475 604.125 433.375C602.723 434.285 601.204 435.019 599.844 436C596.93 438.102 595.487 441.151 595.5 444.75C595.503 445.59 595.618 446.409 595.844 447.219C597.512 453.208 604.454 455.156 609.875 455.938C611.014 456.102 612.165 456.199 613.312 456.281C614.584 456.372 615.85 456.429 617.125 456.438C619.212 456.451 621.55 456.436 623.5 455.594C624.626 455.107 625.631 454.29 626.5 453.438C627.296 452.657 628.002 451.75 628.5 450.75C630.249 447.237 629.19 443.043 627.062 439.938C625.58 437.773 623.413 435.991 621.375 434.375C620.506 433.686 619.754 433.133 618.844 432.5C617.458 431.537 616.016 430.615 614.531 429.812C612.17 428.536 609.455 427.338 606.719 427.344Z" fill="#000000" stroke="none"/>
</g>
<g opacity="1">
<path d="M693.156 430.625C693.087 430.701 693.081 430.723 693 430.812C693.26 430.568 692.581 431.396 692.375 431.688C692.168 431.981 691.973 432.259 691.781 432.562C691.712 432.673 691.661 432.795 691.594 432.906C691.25 433.139 690.843 433.256 690.531 433.531C690.132 433.972 689.717 434.413 689.344 434.875C689.165 435.096 689.752 434.465 689.969 434.281C690.177 434.104 690.403 433.941 690.625 433.781C690.841 433.626 691.115 433.574 691.344 433.438C690.785 434.417 690.237 435.412 689.844 436.469C689.141 438.358 688.709 440.383 688.688 442.406C688.666 444.43 689.065 446.453 689.938 448.312C691.699 452.068 695.23 454.061 698.969 455.438C700.99 456.182 703.104 456.74 705.25 456.969C707.856 457.247 710.744 457.013 712.781 455.188C714.579 453.576 715.297 450.887 715.406 448.562C715.563 445.244 714.413 441.65 712.406 439C710.58 436.588 707.874 434.591 705.219 433.188C701.814 431.388 697.68 430.36 693.906 431.594C693.399 431.76 693.003 432.128 692.531 432.375C692.601 432.21 692.645 432.038 692.719 431.875C692.864 431.555 693.49 430.758 693.188 430.938C692.802 431.167 692.932 430.913 693.156 430.625ZM689.344 434.875C689.849 434.318 690.011 434.076 690.469 433.562C690.26 433.749 690.036 433.953 689.844 434.156C689.645 434.366 689.079 435.018 689.281 434.812C689.94 434.143 688.75 435.531 688.75 435.531C688.75 435.531 689.085 435.16 689.344 434.875ZM695.594 432.062C697.835 431.963 700.079 432.633 702.062 433.688C705.251 435.382 707.536 437.973 709.312 441.062C710.288 442.759 711.176 444.451 711.5 446.406C711.794 448.178 711.681 451.098 710.281 452.438C708.838 453.819 705.853 453.43 704.094 453.094C699.29 452.176 694.142 449.891 692 445.188C690.533 441.965 690.685 438.157 691.625 434.812C691.803 434.179 692.073 433.583 692.312 432.969C692.674 432.807 692.994 432.551 693.375 432.438C694.109 432.218 694.847 432.096 695.594 432.062Z" fill="#000000" stroke="none"/>
</g>
</g>
<g id="Numbers" vectornatorLayerName="Numbers">
<g fill="#000000" opacity="1" stroke="none">
<path clip-path="url(#TextBounds)" d="M86.9286 503.244C87.8349 503.447 88.288 503.674 88.288 503.924L88.288 504.603C88.288 505.01 87.7177 505.299 86.5771 505.471L86.2255 505.306C85.3192 505.525 84.3505 505.635 83.3192 505.635L82.4755 505.635C81.8192 505.635 80.9052 505.58 79.7333 505.471C79.5302 505.58 79.3036 505.635 79.0536 505.635C78.6786 505.635 78.2802 505.236 77.8583 504.439C77.8583 503.986 78.1396 503.642 78.7021 503.408C78.9989 503.408 79.4599 503.471 80.0849 503.596L81.6083 503.408L83.1552 503.596C85.2177 503.361 86.4755 503.244 86.9286 503.244Z" fill-rule="evenodd"/>
<path clip-path="url(#TextBounds)" d="M99.5849 481.986C101.71 482.611 103.257 483.658 104.225 485.127C105.069 486.392 105.835 489.119 106.522 493.306C106.522 493.791 106.663 494.963 106.944 496.822C106.944 507.431 105.116 513.619 101.46 515.385C101.085 515.385 100.46 515.596 99.5849 516.017C96.3036 516.017 93.9755 514.541 92.6005 511.588C91.0849 507.197 90.3271 503.994 90.3271 501.978L90.538 500.971C90.3974 499.439 90.3271 498.056 90.3271 496.822C90.6083 492.838 91.2489 489.689 92.2489 487.377C92.4989 487.377 92.6864 486.846 92.8114 485.783C94.3896 483.252 96.6474 481.986 99.5849 481.986ZM92.8349 496.822L92.8349 497.033C92.8349 507.877 95.0067 513.299 99.3505 513.299L99.7489 513.299C101.061 512.721 102.14 511.369 102.983 509.244C103.952 504.697 104.436 501.041 104.436 498.275C104.436 492.838 103.272 488.517 100.944 485.314C100.647 485.314 100.241 485.111 99.7255 484.705L99.3505 484.705C96.5849 484.705 94.7646 486.681 93.8896 490.635L92.8349 496.822Z" fill-rule="evenodd"/>
<path clip-path="url(#TextBounds)" d="M112.124 511.377L112.546 511.377C114.015 511.689 114.749 512.346 114.749 513.346C114.499 514.939 113.765 515.736 112.546 515.736L112.124 515.736C110.968 515.736 110.311 515.01 110.155 513.556C110.311 512.103 110.968 511.377 112.124 511.377Z" fill-rule="evenodd"/>
<path clip-path="url(#TextBounds)" d="M123.374 481.892L125.108 481.892C128.577 483.142 130.311 485.025 130.311 487.541C130.468 487.541 130.546 487.611 130.546 487.752L130.546 489.275C130.546 490.494 129.968 492.228 128.811 494.478C129.39 495.01 129.968 495.877 130.546 497.08C131.905 497.08 132.843 500.119 133.358 506.197C132.718 509.291 131.561 511.752 129.89 513.58C129.53 513.58 128.882 514.158 127.944 515.314C126.319 515.752 124.725 515.971 123.163 515.971C119.257 514.814 117.304 513.588 117.304 512.291C116.944 511.994 116.725 511.049 116.647 509.455L116.647 509.244C116.647 508.885 116.936 508.666 117.515 508.588C118.296 508.635 118.944 508.994 119.46 509.666L119.249 510.111C119.249 512.283 120.913 513.369 124.241 513.369C127.022 513.369 129.124 511.049 130.546 506.408L130.546 505.33C130.546 500.721 129.53 497.9 127.499 496.869L127.288 496.869L122.296 498.603C121.561 498.416 121.194 498.197 121.194 497.947L121.194 496.658C121.929 495.799 123.452 494.783 125.765 493.611C126.952 492.205 127.819 490.9 128.366 489.697C128.225 489.416 128.155 489.205 128.155 489.064L128.366 488.174C127.975 487.502 127.686 486.564 127.499 485.361C126.108 484.502 125.093 484.072 124.452 484.072L124.03 484.072C122.015 484.072 119.913 485.08 117.725 487.096L117.515 487.096C117.296 487.096 117.007 486.806 116.647 486.228L116.647 485.15C118.71 482.978 120.952 481.892 123.374 481.892Z" fill-rule="evenodd"/>
</g>
<g fill="#000000" opacity="1" stroke="none">
<path clip-path="url(#TextBounds_2)" d="M199.848 502.265C200.755 502.468 201.208 502.694 201.208 502.944L201.208 503.624C201.208 504.03 200.637 504.319 199.497 504.491L199.145 504.327C198.239 504.546 197.27 504.655 196.239 504.655L195.395 504.655C194.739 504.655 193.825 504.601 192.653 504.491C192.45 504.601 192.223 504.655 191.973 504.655C191.598 504.655 191.2 504.257 190.778 503.46C190.778 503.007 191.059 502.663 191.622 502.429C191.919 502.429 192.38 502.491 193.005 502.616L194.528 502.429L196.075 502.616C198.137 502.382 199.395 502.265 199.848 502.265Z" fill-rule="evenodd"/>
<path clip-path="url(#TextBounds_2)" d="M210.7 481.218C214.044 481.218 216.114 482.882 216.911 486.21C217.38 487.585 217.692 489.093 217.848 490.733C217.848 492.671 216.106 498.319 212.622 507.679C211.497 509.148 210.934 510.179 210.934 510.773C211.466 510.773 211.864 510.694 212.13 510.538C214.098 510.538 216.091 510.929 218.106 511.71C220.012 511.96 220.966 512.835 220.966 514.335L220.239 514.827C217.286 514.03 215.145 513.554 213.817 513.398C209.676 514.007 207.606 514.64 207.606 515.296L206.903 515.296C206.684 515.296 206.286 514.898 205.708 514.101L205.708 513.632C205.708 513.179 207.059 510.749 209.762 506.343C209.731 506.249 210.364 504.624 211.661 501.468C213.13 497.827 214.239 494.648 214.989 491.929C214.833 491.632 214.755 491.398 214.755 491.226C214.755 491.054 214.833 490.812 214.989 490.499C214.614 486.218 213.505 484.077 211.661 484.077L211.192 484.077C210.973 484.28 209.778 484.757 207.606 485.507C207.606 485.585 206.653 486.374 204.747 487.874C203.794 487.546 203.317 486.913 203.317 485.976C203.317 484.601 205.544 483.015 209.997 481.218L210.7 481.218Z" fill-rule="evenodd"/>
<path clip-path="url(#TextBounds_2)" d="M225.536 510.398L225.958 510.398C227.426 510.71 228.161 511.366 228.161 512.366C227.911 513.96 227.176 514.757 225.958 514.757L225.536 514.757C224.38 514.757 223.723 514.03 223.567 512.577C223.723 511.124 224.38 510.398 225.536 510.398Z" fill-rule="evenodd"/>
<path clip-path="url(#TextBounds_2)" d="M242.083 480.515C243.145 480.515 243.676 481.046 243.676 482.108C243.676 482.765 242.692 483.374 240.723 483.937L240.255 483.702L238.895 484.148L237.747 483.702C235.762 483.858 234.77 484.163 234.77 484.616C235.083 485.023 235.317 486.007 235.473 487.569L235.239 488.038C235.536 490.179 235.684 491.773 235.684 492.819L237.981 492.819C238.325 492.819 238.63 492.749 238.895 492.608C242.895 492.608 245.786 495.874 247.567 502.405C247.567 502.749 247.637 503.054 247.778 503.319C247.637 503.694 247.489 504.46 247.333 505.616C247.489 505.898 247.567 506.124 247.567 506.296C247.567 510.358 245.286 513.093 240.723 514.499C239.426 514.655 238.356 514.733 237.512 514.733L235.239 514.733C233.536 514.296 231.786 512.241 229.989 508.569L230.223 508.569L229.989 508.124L229.989 506.741C229.989 506.538 230.442 506.085 231.348 505.382L232.497 505.382C232.497 505.616 232.88 506.148 233.645 506.976C233.192 507.741 232.966 508.351 232.966 508.804L232.966 509.038C233.919 511.007 234.981 511.991 236.153 511.991C240.669 511.991 243.333 510.929 244.145 508.804C244.755 507.694 245.059 506.476 245.059 505.148L245.059 504.468C245.059 500.046 243.38 496.929 240.02 495.116L234.559 496.241C233.497 496.038 232.966 495.733 232.966 495.327L232.966 493.288L233.411 492.608C233.411 492.437 233.333 492.202 233.176 491.905C233.176 491.749 233.255 491.523 233.411 491.226C232.958 488.413 232.575 485.374 232.262 482.108L232.262 481.64C233.231 481.343 233.841 481.194 234.091 481.194C234.575 481.194 236.02 481.265 238.426 481.405C238.848 481.405 240.067 481.108 242.083 480.515Z" fill-rule="evenodd"/>
</g>
<g fill="#ff3636" opacity="1" stroke="none">
<path clip-path="url(#TextBounds_3)" d="M287.923 488.227C288.501 488.227 288.931 488.586 289.212 489.305C289.212 489.742 289.142 490.25 289.001 490.828C289.142 492.188 289.212 493.485 289.212 494.719L289.212 495.164C289.259 495.446 289.399 495.586 289.634 495.586C290.321 495.586 292.204 495.367 295.282 494.93L295.493 494.93C295.681 494.93 296.04 495.289 296.571 496.008L296.571 496.875C296.571 497.594 294.259 498.102 289.634 498.399L289.212 498.399C289.212 498.727 289.142 499.016 289.001 499.266C289.142 501.032 289.353 502.039 289.634 502.289L289.423 503.367L289.634 503.367C289.243 504.961 288.884 505.758 288.556 505.758L287.688 505.758C287.188 505.758 286.829 505.039 286.61 503.602L286.821 503.157C286.54 502 286.399 500.774 286.399 499.477L286.399 498.188L285.532 498.188C285.392 498.188 285.29 498.203 285.228 498.235L284.876 498.188L283.798 498.188C283.47 498.188 283.181 498.211 282.931 498.258C282.649 498.211 282.438 498.188 282.298 498.188C282.188 498.188 281.751 498.258 280.985 498.399C280.282 498.399 279.634 497.821 279.04 496.664C279.04 496.086 279.399 495.657 280.118 495.375C281.384 495.516 282.11 495.586 282.298 495.586C282.72 495.586 283.29 495.477 284.009 495.258L285.321 495.375L285.978 495.375C286.259 495.375 286.399 495.227 286.399 494.93L286.399 491.485C286.399 491.157 286.47 490.867 286.61 490.617C286.47 490.352 286.399 490.063 286.399 489.75C286.399 489.282 286.907 488.774 287.923 488.227Z" fill-rule="evenodd"/>
<path clip-path="url(#TextBounds_3)" d="M307.493 480.047L307.915 480.047C308.884 480.047 309.368 481.157 309.368 483.375C309.368 484.61 309.438 485.438 309.579 485.86L309.157 488.157C309.298 489.094 309.368 489.852 309.368 490.43L309.368 493.336C309.368 493.477 309.438 493.547 309.579 493.547L309.368 493.969L309.368 499.992C309.368 500.305 309.438 500.578 309.579 500.813C309.438 501.063 309.368 501.344 309.368 501.657L309.368 504.563C309.368 505.907 309.649 508.539 310.212 512.461C309.853 513.289 309.368 513.703 308.759 513.703C308.29 513.703 307.665 513.078 306.884 511.828L307.095 509.766C306.954 509 306.884 508.446 306.884 508.102C307.024 507.821 307.095 507.61 307.095 507.469C306.813 506.922 306.673 506.164 306.673 505.196L306.673 497.907C306.673 497.328 306.743 496.571 306.884 495.633C306.884 495.492 306.813 495.422 306.673 495.422L306.884 494.391L306.884 492.727C306.884 491.321 306.813 489.586 306.673 487.524C306.813 486.977 306.884 486.492 306.884 486.071C306.681 485.524 306.47 485.25 306.251 485.25C304.454 486.657 302.798 487.414 301.282 487.524L300.649 487.524C299.54 487.524 298.985 487.11 298.985 486.282L298.985 485.649C302.423 484.789 304.774 483.477 306.04 481.711L307.493 480.047Z" fill-rule="evenodd"/>
<path clip-path="url(#TextBounds_3)" d="M315.978 509.321L316.399 509.321C317.868 509.633 318.603 510.289 318.603 511.289C318.353 512.883 317.618 513.68 316.399 513.68L315.978 513.68C314.821 513.68 314.165 512.953 314.009 511.5C314.165 510.047 314.821 509.321 315.978 509.321Z" fill-rule="evenodd"/>
<path clip-path="url(#TextBounds_3)" d="M327.907 480.141C331.251 480.141 333.321 481.805 334.118 485.133C334.587 486.508 334.899 488.016 335.056 489.657C335.056 491.594 333.313 497.242 329.829 506.602C328.704 508.071 328.142 509.102 328.142 509.696C328.673 509.696 329.071 509.617 329.337 509.461C331.306 509.461 333.298 509.852 335.313 510.633C337.22 510.883 338.173 511.758 338.173 513.258L337.446 513.75C334.493 512.953 332.353 512.477 331.024 512.321C326.884 512.93 324.813 513.563 324.813 514.219L324.11 514.219C323.892 514.219 323.493 513.821 322.915 513.024L322.915 512.555C322.915 512.102 324.267 509.672 326.97 505.266C326.938 505.172 327.571 503.547 328.868 500.391C330.337 496.75 331.446 493.571 332.196 490.852C332.04 490.555 331.962 490.321 331.962 490.149C331.962 489.977 332.04 489.735 332.196 489.422C331.821 485.141 330.712 483 328.868 483L328.399 483C328.181 483.203 326.985 483.68 324.813 484.43C324.813 484.508 323.86 485.297 321.954 486.797C321.001 486.469 320.524 485.836 320.524 484.899C320.524 483.524 322.751 481.938 327.204 480.141L327.907 480.141Z" fill-rule="evenodd"/>
</g>
<g fill="#000000" opacity="1" stroke="none">
<path clip-path="url(#TextBounds_4)" d="M399.955 486.391C400.533 486.391 400.963 486.75 401.244 487.469C401.244 487.907 401.174 488.414 401.033 488.993C401.174 490.352 401.244 491.649 401.244 492.883L401.244 493.329C401.291 493.61 401.431 493.75 401.666 493.75C402.353 493.75 404.236 493.532 407.314 493.094L407.525 493.094C407.713 493.094 408.072 493.454 408.603 494.172L408.603 495.039C408.603 495.758 406.291 496.266 401.666 496.563L401.244 496.563C401.244 496.891 401.174 497.18 401.033 497.43C401.174 499.196 401.385 500.204 401.666 500.454L401.455 501.532L401.666 501.532C401.275 503.125 400.916 503.922 400.588 503.922L399.721 503.922C399.221 503.922 398.861 503.204 398.642 501.766L398.853 501.321C398.572 500.164 398.431 498.938 398.431 497.641L398.431 496.352L397.564 496.352C397.424 496.352 397.322 496.368 397.26 496.399L396.908 496.352L395.83 496.352C395.502 496.352 395.213 496.375 394.963 496.422C394.681 496.375 394.471 496.352 394.33 496.352C394.221 496.352 393.783 496.422 393.017 496.563C392.314 496.563 391.666 495.985 391.072 494.829C391.072 494.25 391.431 493.821 392.15 493.539C393.416 493.68 394.142 493.75 394.33 493.75C394.752 493.75 395.322 493.641 396.041 493.422L397.353 493.539L398.01 493.539C398.291 493.539 398.431 493.391 398.431 493.094L398.431 489.649C398.431 489.321 398.502 489.032 398.642 488.782C398.502 488.516 398.431 488.227 398.431 487.914C398.431 487.446 398.939 486.938 399.955 486.391Z" fill-rule="evenodd"/>
<path clip-path="url(#TextBounds_4)" d="M420.252 478.094C422.377 478.719 423.924 479.766 424.892 481.235C425.736 482.5 426.502 485.227 427.189 489.414C427.189 489.899 427.33 491.071 427.611 492.93C427.611 503.539 425.783 509.727 422.127 511.493C421.752 511.493 421.127 511.704 420.252 512.125C416.971 512.125 414.642 510.649 413.267 507.696C411.752 503.305 410.994 500.102 410.994 498.086L411.205 497.079C411.064 495.547 410.994 494.164 410.994 492.93C411.275 488.946 411.916 485.797 412.916 483.485C413.166 483.485 413.353 482.954 413.478 481.891C415.056 479.36 417.314 478.094 420.252 478.094ZM413.502 492.93L413.502 493.141C413.502 503.985 415.674 509.407 420.017 509.407L420.416 509.407C421.728 508.829 422.806 507.477 423.65 505.352C424.619 500.805 425.103 497.149 425.103 494.383C425.103 488.946 423.939 484.625 421.611 481.422C421.314 481.422 420.908 481.219 420.392 480.813L420.017 480.813C417.252 480.813 415.431 482.789 414.556 486.743L413.502 492.93Z" fill-rule="evenodd"/>
<path clip-path="url(#TextBounds_4)" d="M432.791 507.485L433.213 507.485C434.681 507.797 435.416 508.454 435.416 509.454C435.166 511.047 434.431 511.844 433.213 511.844L432.791 511.844C431.635 511.844 430.978 511.118 430.822 509.664C430.978 508.211 431.635 507.485 432.791 507.485Z" fill-rule="evenodd"/>
<path clip-path="url(#TextBounds_4)" d="M452.572 477.321C453.478 477.539 453.931 477.789 453.931 478.071L453.931 480.321C452.119 489.43 449.939 497.844 447.392 505.563C446.049 509.875 444.885 512.032 443.9 512.032C443.072 511.704 442.658 511.219 442.658 510.579C442.658 510.016 443.861 506.485 446.267 499.985L446.713 497.946L446.713 497.477C446.713 497.102 446.447 496.914 445.916 496.914C444.603 496.914 443.549 497.063 442.752 497.36C441.939 497.188 441.533 497 441.533 496.797L441.533 495.696C441.877 495.008 442.549 494.664 443.549 494.664C443.549 494.821 443.697 494.899 443.994 494.899L443.994 494.735L444.322 494.899C447.119 494.899 448.517 494.188 448.517 492.766C449.564 488.922 450.478 485.039 451.26 481.118C450.416 481.118 447.885 481.493 443.666 482.243C439.228 481.993 437.01 480.907 437.01 478.985C437.025 478.813 437.369 478.547 438.041 478.188L438.228 478.188C439.931 478.938 441.744 479.313 443.666 479.313C449.603 478.641 452.572 477.977 452.572 477.321Z" fill-rule="evenodd"/>
</g>
<g fill="#000000" opacity="1" stroke="none">
<path clip-path="url(#TextBounds_5)" d="M506.245 497.273C507.152 497.476 507.605 497.703 507.605 497.953L507.605 498.633C507.605 499.039 507.034 499.328 505.894 499.5L505.542 499.336C504.636 499.554 503.667 499.664 502.636 499.664L501.792 499.664C501.136 499.664 500.222 499.609 499.05 499.5C498.847 499.609 498.62 499.664 498.37 499.664C497.995 499.664 497.597 499.265 497.175 498.469C497.175 498.015 497.456 497.672 498.019 497.437C498.316 497.437 498.777 497.5 499.402 497.625L500.925 497.437L502.472 497.625C504.534 497.39 505.792 497.273 506.245 497.273Z" fill-rule="evenodd"/>
<path clip-path="url(#TextBounds_5)" d="M518.902 476.015C521.027 476.64 522.574 477.687 523.542 479.156C524.386 480.422 525.152 483.148 525.839 487.336C525.839 487.82 525.98 488.992 526.261 490.851C526.261 501.461 524.433 507.648 520.777 509.414C520.402 509.414 519.777 509.625 518.902 510.047C515.62 510.047 513.292 508.57 511.917 505.617C510.402 501.226 509.644 498.023 509.644 496.008L509.855 495C509.714 493.469 509.644 492.086 509.644 490.851C509.925 486.867 510.566 483.719 511.566 481.406C511.816 481.406 512.003 480.875 512.128 479.812C513.706 477.281 515.964 476.015 518.902 476.015ZM512.152 490.851L512.152 491.062C512.152 501.906 514.324 507.328 518.667 507.328L519.066 507.328C520.378 506.75 521.456 505.398 522.3 503.273C523.269 498.726 523.753 495.07 523.753 492.304C523.753 486.867 522.589 482.547 520.261 479.344C519.964 479.344 519.558 479.14 519.042 478.734L518.667 478.734C515.902 478.734 514.081 480.711 513.206 484.664L512.152 490.851Z" fill-rule="evenodd"/>
<path clip-path="url(#TextBounds_5)" d="M531.441 505.406L531.863 505.406C533.331 505.719 534.066 506.375 534.066 507.375C533.816 508.969 533.081 509.765 531.863 509.765L531.441 509.765C530.284 509.765 529.628 509.039 529.472 507.586C529.628 506.133 530.284 505.406 531.441 505.406Z" fill-rule="evenodd"/>
<path clip-path="url(#TextBounds_5)" d="M544.449 476.133L544.87 476.133C545.839 476.133 546.324 477.242 546.324 479.461C546.324 480.695 546.394 481.523 546.534 481.945L546.113 484.242C546.253 485.179 546.324 485.937 546.324 486.515L546.324 489.422C546.324 489.562 546.394 489.633 546.534 489.633L546.324 490.054L546.324 496.078C546.324 496.39 546.394 496.664 546.534 496.898C546.394 497.148 546.324 497.429 546.324 497.742L546.324 500.648C546.324 501.992 546.605 504.625 547.167 508.547C546.808 509.375 546.324 509.789 545.714 509.789C545.245 509.789 544.62 509.164 543.839 507.914L544.05 505.851C543.909 505.086 543.839 504.531 543.839 504.187C543.98 503.906 544.05 503.695 544.05 503.554C543.769 503.008 543.628 502.25 543.628 501.281L543.628 493.992C543.628 493.414 543.699 492.656 543.839 491.719C543.839 491.578 543.769 491.508 543.628 491.508L543.839 490.476L543.839 488.812C543.839 487.406 543.769 485.672 543.628 483.609C543.769 483.062 543.839 482.578 543.839 482.156C543.636 481.609 543.425 481.336 543.206 481.336C541.409 482.742 539.753 483.5 538.238 483.609L537.605 483.609C536.495 483.609 535.941 483.195 535.941 482.367L535.941 481.734C539.378 480.875 541.73 479.562 542.995 477.797L544.449 476.133Z" fill-rule="evenodd"/>
</g>
<g fill="#000000" opacity="1" stroke="none">
<path clip-path="url(#TextBounds_6)" d="M589.848 497.928C590.754 498.131 591.207 498.357 591.207 498.607L591.207 499.287C591.207 499.693 590.637 499.982 589.496 500.154L589.145 499.99C588.238 500.209 587.27 500.318 586.238 500.318L585.395 500.318C584.738 500.318 583.824 500.263 582.653 500.154C582.449 500.263 582.223 500.318 581.973 500.318C581.598 500.318 581.199 499.92 580.778 499.123C580.778 498.67 581.059 498.326 581.621 498.092C581.918 498.092 582.379 498.154 583.004 498.279L584.528 498.092L586.074 498.279C588.137 498.045 589.395 497.928 589.848 497.928Z" fill-rule="evenodd"/>
<path clip-path="url(#TextBounds_6)" d="M601.778 476.787L602.199 476.787C603.168 476.787 603.653 477.896 603.653 480.115C603.653 481.349 603.723 482.178 603.863 482.599L603.442 484.896C603.582 485.834 603.653 486.592 603.653 487.17L603.653 490.076C603.653 490.217 603.723 490.287 603.863 490.287L603.653 490.709L603.653 496.732C603.653 497.045 603.723 497.318 603.863 497.553C603.723 497.803 603.653 498.084 603.653 498.396L603.653 501.303C603.653 502.646 603.934 505.279 604.496 509.201C604.137 510.029 603.653 510.443 603.043 510.443C602.574 510.443 601.949 509.818 601.168 508.568L601.379 506.506C601.238 505.74 601.168 505.185 601.168 504.842C601.309 504.56 601.379 504.349 601.379 504.209C601.098 503.662 600.957 502.904 600.957 501.935L600.957 494.646C600.957 494.068 601.028 493.31 601.168 492.373C601.168 492.232 601.098 492.162 600.957 492.162L601.168 491.131L601.168 489.467C601.168 488.06 601.098 486.326 600.957 484.263C601.098 483.717 601.168 483.232 601.168 482.81C600.965 482.263 600.754 481.99 600.535 481.99C598.738 483.396 597.082 484.154 595.567 484.263L594.934 484.263C593.824 484.263 593.27 483.849 593.27 483.021L593.27 482.388C596.707 481.529 599.059 480.217 600.324 478.451L601.778 476.787Z" fill-rule="evenodd"/>
<path clip-path="url(#TextBounds_6)" d="M610.262 506.06L610.684 506.06C612.153 506.373 612.887 507.029 612.887 508.029C612.637 509.623 611.903 510.42 610.684 510.42L610.262 510.42C609.106 510.42 608.449 509.693 608.293 508.24C608.449 506.787 609.106 506.06 610.262 506.06Z" fill-rule="evenodd"/>
<path clip-path="url(#TextBounds_6)" d="M622.66 476.646C626.473 477.537 628.379 479.224 628.379 481.709C628.535 482.162 628.613 483.045 628.613 484.357L628.613 493.826C628.613 494.638 628.684 495.67 628.824 496.92C628.684 497.107 628.613 497.623 628.613 498.467L628.824 498.467L628.613 498.888L628.613 499.334C628.613 501.24 628.535 502.709 628.379 503.74C628.535 504.787 628.613 506.256 628.613 508.146L628.613 508.592C628.613 509.357 628.246 510.092 627.512 510.795L627.067 510.795C626.035 510.06 625.52 509.326 625.52 508.592C625.817 507.92 625.965 507.256 625.965 506.599C625.965 506.318 625.887 506.178 625.731 506.178L625.965 504.631L625.965 500.224C625.965 498.334 626.035 496.279 626.176 494.06L625.965 492.959C626.106 492.193 626.176 491.31 626.176 490.31L626.176 490.076L625.965 490.076C624.34 491.842 622.653 492.724 620.903 492.724C617.168 492.724 615.035 490.373 614.504 485.67C614.504 481.685 616.488 478.896 620.457 477.303L622.66 476.646ZM616.707 485.459L616.707 486.349C616.707 488.178 618.028 489.42 620.668 490.076L621.113 490.076C623.692 490.076 625.379 487.732 626.176 483.045C625.848 480.545 624.824 479.295 623.106 479.295L622.66 479.506L622.426 479.506C622.285 479.506 622.215 479.435 622.215 479.295C618.543 480.873 616.707 482.928 616.707 485.459Z" fill-rule="evenodd"/>
</g>
<g fill="#000000" opacity="1" stroke="none">
<path clip-path="url(#TextBounds_7)" d="M678.707 483.192C679.285 483.192 679.715 483.551 679.996 484.27C679.996 484.707 679.926 485.215 679.785 485.793C679.926 487.153 679.996 488.45 679.996 489.684L679.996 490.129C680.043 490.41 680.184 490.551 680.418 490.551C681.106 490.551 682.988 490.332 686.067 489.895L686.278 489.895C686.465 489.895 686.824 490.254 687.356 490.973L687.356 491.84C687.356 492.559 685.043 493.067 680.418 493.364L679.996 493.364C679.996 493.692 679.926 493.981 679.785 494.231C679.926 495.996 680.137 497.004 680.418 497.254L680.207 498.332L680.418 498.332C680.028 499.926 679.668 500.723 679.34 500.723L678.473 500.723C677.973 500.723 677.613 500.004 677.395 498.567L677.606 498.121C677.324 496.965 677.184 495.739 677.184 494.442L677.184 493.153L676.317 493.153C676.176 493.153 676.074 493.168 676.012 493.2L675.66 493.153L674.582 493.153C674.254 493.153 673.965 493.176 673.715 493.223C673.434 493.176 673.223 493.153 673.082 493.153C672.973 493.153 672.535 493.223 671.77 493.364C671.067 493.364 670.418 492.785 669.824 491.629C669.824 491.051 670.184 490.621 670.903 490.34C672.168 490.481 672.895 490.551 673.082 490.551C673.504 490.551 674.074 490.442 674.793 490.223L676.106 490.34L676.762 490.34C677.043 490.34 677.184 490.192 677.184 489.895L677.184 486.45C677.184 486.121 677.254 485.832 677.395 485.582C677.254 485.317 677.184 485.028 677.184 484.715C677.184 484.246 677.692 483.739 678.707 483.192Z" fill-rule="evenodd"/>
<path clip-path="url(#TextBounds_7)" d="M699.004 474.895C701.129 475.52 702.676 476.567 703.645 478.035C704.488 479.301 705.254 482.028 705.942 486.215C705.942 486.7 706.082 487.871 706.363 489.731C706.363 500.34 704.535 506.528 700.879 508.293C700.504 508.293 699.879 508.504 699.004 508.926C695.723 508.926 693.395 507.45 692.02 504.496C690.504 500.106 689.746 496.903 689.746 494.887L689.957 493.879C689.817 492.348 689.746 490.965 689.746 489.731C690.028 485.746 690.668 482.598 691.668 480.285C691.918 480.285 692.106 479.754 692.231 478.692C693.809 476.16 696.067 474.895 699.004 474.895ZM692.254 489.731L692.254 489.942C692.254 500.785 694.426 506.207 698.77 506.207L699.168 506.207C700.481 505.629 701.559 504.278 702.403 502.153C703.371 497.606 703.856 493.95 703.856 491.184C703.856 485.746 702.692 481.426 700.363 478.223C700.067 478.223 699.66 478.02 699.145 477.614L698.77 477.614C696.004 477.614 694.184 479.59 693.309 483.543L692.254 489.731Z" fill-rule="evenodd"/>
<path clip-path="url(#TextBounds_7)" d="M711.543 504.285L711.965 504.285C713.434 504.598 714.168 505.254 714.168 506.254C713.918 507.848 713.184 508.645 711.965 508.645L711.543 508.645C710.387 508.645 709.731 507.918 709.574 506.465C709.731 505.012 710.387 504.285 711.543 504.285Z" fill-rule="evenodd"/>
<path clip-path="url(#TextBounds_7)" d="M723.473 475.106C726.817 475.106 728.887 476.77 729.684 480.098C730.153 481.473 730.465 482.981 730.621 484.621C730.621 486.559 728.879 492.207 725.395 501.567C724.27 503.035 723.707 504.067 723.707 504.66C724.238 504.66 724.637 504.582 724.903 504.426C726.871 504.426 728.863 504.817 730.879 505.598C732.785 505.848 733.738 506.723 733.738 508.223L733.012 508.715C730.059 507.918 727.918 507.442 726.59 507.285C722.449 507.895 720.379 508.528 720.379 509.184L719.676 509.184C719.457 509.184 719.059 508.785 718.481 507.989L718.481 507.52C718.481 507.067 719.832 504.637 722.535 500.231C722.504 500.137 723.137 498.512 724.434 495.356C725.903 491.715 727.012 488.535 727.762 485.817C727.606 485.52 727.528 485.285 727.528 485.114C727.528 484.942 727.606 484.7 727.762 484.387C727.387 480.106 726.278 477.965 724.434 477.965L723.965 477.965C723.746 478.168 722.551 478.645 720.379 479.395C720.379 479.473 719.426 480.262 717.52 481.762C716.567 481.434 716.09 480.801 716.09 479.864C716.09 478.489 718.317 476.903 722.77 475.106L723.473 475.106Z" fill-rule="evenodd"/>
</g>
</g>
</svg>
