<?xml version="1.0" encoding="UTF-8" standalone="no"?>
<!DOCTYPE svg PUBLIC "-//W3C//DTD SVG 1.1//EN" "http://www.w3.org/Graphics/SVG/1.1/DTD/svg11.dtd">
<!-- Created with Vectornator (http://vectornator.io/) -->
<svg height="100%" stroke-miterlimit="10" style="fill-rule:nonzero;clip-rule:evenodd;stroke-linecap:round;stroke-linejoin:round;" version="1.1" viewBox="0 0 1920 1080" width="100%" xmlSpace="preserve" xmlns="http://www.w3.org/2000/svg" xmlnsVectornator="http://vectornator.io" xmlnsXlink="http://www.w3.org/1999/xlink">
<defs/>
<g id="Layer-1" vectornatorLayerName="Layer 1">
<g opacity="1" vectornatorLayerName="Curve 1">
<path d="M949.969 26.0625C945.984 26.2107 942.053 27.1602 938.594 29.0625C936.829 30.033 933.781 32.625 933.781 32.625C933.781 32.625 951.094 29.2542 961.906 28.0938C961.812 28.0565 961.72 28.0049 961.625 27.9688C957.978 26.5788 953.953 25.9143 949.969 26.0625ZM961.906 28.0938C965.146 29.3687 968.228 31.25 970.969 33.375C974.393 36.0298 977.415 39.3035 979.438 43.1562C982.236 48.4884 982.406 54.6331 981.438 60.4688C980.966 63.3091 980.489 66.2243 979.312 68.875C978.287 71.1852 976.691 73.2055 975 75.0625C965.47 85.5287 950.588 87.1216 937.594 83.1562C933.774 81.9906 929.989 80.372 926.656 78.1562C924.757 76.8937 923.016 75.4814 921.312 73.9688C917.95 70.9822 915.109 67.2829 914.594 62.6875C913.896 56.4655 916.701 50.2214 920.062 45.1562C921.219 43.4131 933.781 32.625 933.781 32.625C933.781 32.625 926.327 36.3105 922.781 38.5312C920.495 39.963 918.563 42.0301 916.781 44.0312C912.42 48.9285 908.914 54.8964 908.25 61.5312C908.075 63.2809 908.089 65.0399 908.344 66.7812C909.139 72.2234 912.198 77.2833 916.188 81C918.821 83.4537 921.91 85.4117 925.062 87.125C942.009 96.3355 964.992 96.8302 979.625 82.9375C982.34 80.3596 984.853 77.3752 986.625 74.0625C988.321 70.8921 989.198 67.4208 989.844 63.9062C990.422 60.7625 990.972 57.5843 990.719 54.375C990.402 50.3648 988.855 46.4158 986.844 42.9688C983.001 36.3832 976.884 31.3114 970.094 27.9688C969.123 27.4909 965.911 27.664 961.906 28.0938Z" fill="#000000" stroke="none"/>
</g>
<g opacity="1" vectornatorLayerName="Curve 2">
<path d="M747.692 270.434C743.835 269.377 739.391 272.189 736.575 274.301C729.394 279.687 722.333 290.286 721.591 299.436C720.407 314.032 730.341 322.396 742.859 327.47C759.868 334.366 779.38 329.154 792.644 316.837C815.768 295.365 791.562 268.16 767.51 264.151C763.998 263.565 751.465 263.553 749.142 267.534C748.524 268.594 750.105 271.095 747.692 270.434Z" fill="#000000" fill-rule="nonzero" stroke="none"/>
<path d="M761.5 263.031C759.601 263.176 757.696 263.454 755.875 263.844C753.652 264.319 750.793 265.011 749.312 266.906C749.006 267.299 748.813 267.666 748.812 268.156C748.811 268.908 747.688 270.437 747.688 270.438C747.688 270.438 748.006 270.533 748.219 270.562C749.651 270.759 749.011 268.827 749.156 268C749.215 267.667 749.42 267.44 749.656 267.188C750.996 265.756 753.314 265.346 755.156 265.062C758.967 264.475 763.099 264.457 766.906 265.125C770.003 265.668 773.035 266.768 775.875 268.094C781.744 270.832 787.146 274.846 791.25 279.875C793.518 282.655 795.4 285.79 796.5 289.219C797.107 291.112 797.478 293.138 797.562 295.125C797.659 297.393 797.594 299.691 797.062 301.906C795.625 307.897 791.214 312.577 786.5 316.281C776.154 324.411 762.214 328.354 749.281 325.094C746.134 324.3 743.112 323.055 740.219 321.594C733.46 318.181 727.15 312.546 725.375 304.906C724.982 303.214 724.8 301.456 724.812 299.719C724.84 295.945 725.917 292.253 727.406 288.812C729.753 283.392 747.687 270.438 747.688 270.438C747.688 270.438 738.494 271.792 735.031 274.188C731.833 276.4 728.992 279.153 726.531 282.156C722.304 287.316 718.988 293.486 718.219 300.188C717.893 303.025 717.957 305.911 718.5 308.719C719.225 312.469 720.872 316.186 723.25 319.188C726.691 323.532 731.479 326.731 736.375 329.219C739.825 330.972 743.433 332.419 747.188 333.375C764.601 337.81 783.692 331.738 796.438 319.344C802.542 313.407 807.068 305.121 806.344 296.375C806.098 293.405 805.098 290.453 803.812 287.781C802.178 284.385 799.984 281.273 797.438 278.5C791.539 272.078 783.797 267.294 775.469 264.75C772.781 263.929 769.963 263.262 767.156 263.031C765.296 262.878 763.399 262.887 761.5 263.031Z" fill="#000000" stroke="none"/>
</g>
<g opacity="1" vectornatorLayerName="Curve 3">
<path d="M946.835 268.259C937.231 271.335 929.878 274.617 923.15 283.485C909.601 301.346 921.388 321.101 940.068 328.921C956.24 335.69 976.614 331.824 989.854 320.703C994.568 316.743 996.533 312.354 998.071 306.203C1002.56 288.25 979.341 277.973 967.136 271.401C964.407 269.932 961.758 268.293 958.919 267.051C956.585 266.03 954.046 263.72 951.668 264.634C948.871 265.71 948.517 267.72 946.835 268.259Z" fill="#000000" fill-rule="nonzero" stroke="none"/>
<path d="M952.875 264.094C951.393 264.138 946.844 268.25 946.844 268.25C946.844 268.25 948.495 267.127 949.281 266.406C950.105 265.65 951.174 264.927 952.312 264.781C954.308 264.525 956.431 266.395 958.062 267.312C959.149 267.923 960.267 268.463 961.344 269.094C964.762 271.097 968.125 273.224 971.531 275.25C976.755 278.357 982.013 281.592 986.531 285.688C989.158 288.068 991.612 290.794 993.188 294C994.518 296.708 994.998 299.648 994.469 302.625C994.316 303.486 994.051 304.317 993.812 305.156C993.035 307.891 992.231 310.657 990.719 313.094C989.192 315.553 987.012 317.438 984.688 319.125C981.446 321.477 977.897 323.385 974.156 324.812C962.383 329.304 948.77 329.194 937.625 323C934.766 321.411 932.089 319.447 929.75 317.156C927.579 315.03 925.843 312.55 924.312 309.938C921.177 304.588 919.902 298.439 921.562 292.375C923.029 287.021 946.844 268.25 946.844 268.25C946.844 268.25 934.577 271.568 929.25 275.125C918.785 282.113 911.62 293.952 914.219 306.781C914.725 309.279 915.547 311.719 916.688 314C919.398 319.423 924.034 324.016 928.906 327.531C942.941 337.656 961.261 338.97 977.25 333C982.104 331.188 986.714 328.729 990.844 325.594C993.515 323.566 995.943 321.269 997.812 318.469C999.759 315.554 1001.04 312.25 1001.94 308.875C1002.88 305.342 1003.01 301.748 1002.09 298.188C1000.52 292.061 996.243 287.14 991.344 283.344C984.169 277.784 975.768 274.375 967.656 270.469C965.789 269.57 963.94 268.597 962.062 267.719C960.727 267.094 959.354 266.587 958.031 265.938C956.434 265.153 954.728 264.038 952.875 264.094Z" fill="#000000" stroke="none"/>
</g>
<g opacity="1" vectornatorLayerName="Curve 4">
<path d="M1147.67 282.277C1147.14 282.499 1146.88 280.686 1146.46 281.068C1144.74 282.627 1143.47 284.717 1142.59 286.869C1140.74 291.419 1139.82 301.423 1140.66 306.203C1143.92 324.826 1154.11 329.404 1172.08 329.404C1175.66 329.404 1179.23 328.764 1182.71 327.954C1190.6 326.12 1193.89 325.014 1199.15 319.253C1203.33 314.669 1203.98 311.982 1203.98 305.719C1203.98 297.534 1200.99 288.233 1193.35 283.968C1187.17 280.526 1180.59 277.848 1174.01 275.268C1170.31 273.818 1161.93 274.135 1159.03 274.301C1156.59 274.44 1153.45 273.493 1151.78 275.268C1150.12 277.032 1151.69 280.575 1147.67 282.277Z" fill="#000000" fill-rule="nonzero" stroke="none"/>
<path d="M1165.88 272.875C1163.56 272.974 1161.27 273.224 1159 273.438C1157.27 273.601 1155.46 273.317 1153.75 273.688C1153.34 273.777 1152.88 273.927 1152.5 274.125C1150.04 275.419 1147.66 282.281 1147.66 282.281C1147.66 282.281 1150.05 280.933 1150.62 279.531C1151.25 277.998 1151.11 275.768 1152.94 275.062C1154.22 274.566 1155.74 274.881 1157.06 275.031C1158.35 275.178 1159.64 275.164 1160.94 275.188C1164.46 275.251 1168.1 275.394 1171.53 276.281C1173.86 276.882 1176.01 278.146 1178.16 279.188C1182.82 281.451 1187.46 283.855 1191.69 286.875C1194.69 289.018 1196.53 292.601 1197.81 295.969C1199.18 299.542 1199.61 303.319 1199.53 307.125C1199.49 308.876 1199.43 310.713 1198.72 312.344C1197.63 314.843 1195.24 317.252 1193.22 319C1191.79 320.235 1190.2 321.194 1188.44 321.875C1185.76 322.913 1182.9 323.555 1180.09 324.156C1175.73 325.092 1171.45 325.282 1167 325C1164.45 324.838 1161.85 324.536 1159.38 323.875C1154.7 322.624 1150.4 319.908 1147.62 315.906C1143.52 309.982 1142.26 302.786 1142.38 295.719C1142.43 292.129 1142.66 288.39 1144.12 285.062C1144.77 283.601 1145.65 282.448 1146.59 281.188C1146.61 281.165 1147.66 282.281 1147.66 282.281C1147.66 282.281 1147.05 280.598 1146.44 280.906C1145.51 281.374 1144.41 282.643 1143.78 283.469C1142.07 285.719 1140.99 288.213 1140.19 290.906C1138.84 295.438 1137.88 300.426 1137.97 305.156C1138.05 309.58 1139.09 314.455 1140.81 318.531C1141.58 320.356 1142.53 322.099 1143.72 323.688C1145.23 325.713 1147.1 327.564 1149.25 328.906C1154.01 331.881 1159.86 332.985 1165.38 333.438C1168.6 333.702 1171.86 333.82 1175.09 333.562C1178.33 333.305 1181.5 332.641 1184.66 331.906C1187.79 331.177 1190.95 330.397 1193.84 328.969C1197.15 327.34 1199.9 324.909 1202.38 322.219C1203.62 320.869 1204.8 319.417 1205.75 317.844C1207.99 314.135 1208.43 309.939 1208.41 305.688C1208.36 297.538 1206.11 288.915 1199.41 283.719C1197.04 281.888 1194.34 280.716 1191.59 279.594C1189.36 278.68 1187.09 277.838 1184.81 277.031C1182 276.037 1179.18 275.104 1176.34 274.188C1175.15 273.804 1174.01 273.385 1172.78 273.188C1170.51 272.824 1168.19 272.776 1165.88 272.875Z" fill="#000000" stroke="none"/>
</g>
<g opacity="1" vectornatorLayerName="Curve 5">
<path d="M521.156 559.875C520.38 559.931 519.368 560.181 518.906 560.875C518.516 561.462 516.781 564.156 516.781 564.156C516.781 564.156 518.196 563.889 518.625 563.281C519.437 562.13 518.483 561.059 520.281 560.656C520.559 560.594 520.874 560.583 521.156 560.594C522.953 560.66 524.82 561.595 526.469 562.219C529.188 563.248 531.872 564.348 534.5 565.594C536.235 566.416 537.937 567.311 539.594 568.281C541.122 569.176 542.608 570.133 544.031 571.188C550.223 575.775 556.589 582.852 555.812 591.125C555.642 592.94 555.17 594.837 554.5 596.531C553.458 599.164 551.78 601.35 549.969 603.5C547.913 605.939 545.688 608.321 543.062 610.156C539.694 612.512 535.663 613.802 531.656 614.562C526.947 615.456 521.909 615.653 517.219 614.531C514.586 613.901 511.999 612.812 509.531 611.719C506.629 610.433 503.657 608.875 501.375 606.625C499.873 605.144 498.855 603.298 497.688 601.562C496.93 600.436 496.073 599.349 495.594 598.062C495.124 596.8 495.608 595.397 495.844 594.125C496.282 591.765 496.892 589.432 497.656 587.156C498.895 583.469 500.5 579.876 502.312 576.438C503.129 574.888 503.903 573.258 505.031 571.906C506.763 569.832 509.063 568.342 511.281 566.844C511.899 566.426 512.67 565.897 513.281 565.469C513.714 565.165 516.781 564.156 516.781 564.156C516.781 564.156 515.214 564.01 514.469 564.188C513.925 564.317 513.415 564.612 512.906 564.844C511.807 565.345 510.698 565.823 509.594 566.312C507.327 567.318 505.079 568.408 503.156 570C501.077 571.722 499.419 574.036 497.812 576.188C495.074 579.855 492.674 583.749 490.75 587.906C489.936 589.665 489.187 591.446 488.562 593.281C487.631 596.02 487.222 598.236 488 601.062C488.682 603.54 490.046 605.713 491.438 607.844C492.21 609.027 492.992 610.163 493.938 611.219C498.373 616.171 504.501 619.088 510.625 621.375C514.496 622.821 518.394 623.699 522.531 623.875C526.101 624.027 529.704 623.762 533.219 623.125C538.923 622.092 544.522 620.102 549.188 616.594C552.006 614.474 554.477 611.904 556.75 609.219C560.149 605.203 563.302 600.58 563.969 595.219C564.322 592.38 563.866 589.417 562.969 586.719C560.237 578.503 553.386 572.252 546 568.125C544.351 567.204 542.641 566.4 540.906 565.656C538.627 564.68 536.323 563.809 533.969 563.031C531.165 562.105 528.298 561.323 525.438 560.594C524.046 560.239 522.611 559.77 521.156 559.875Z" fill="#000000" stroke="none"/>
</g>
<g opacity="1" vectornatorLayerName="Curve 6">
<path d="M709.188 554.312C706.534 554.694 703.719 562.187 703.719 562.188C703.719 562.188 705.875 561.521 706.219 559.844C706.581 558.076 707.038 555.374 709.281 555.25C710.778 555.167 712.281 555.769 713.719 556.094C715.749 556.552 717.795 556.885 719.812 557.406C727.423 559.371 734.462 562.847 741.125 566.969C745.2 569.49 749.21 572.269 752.531 575.75C755.069 578.41 757.166 581.554 757.938 585.188C758.197 586.41 758.207 587.631 758.25 588.875C758.289 589.998 758.347 591.172 758.125 592.281C758.089 592.463 758.041 592.745 757.938 592.906C756.89 594.54 755.882 596.237 754.75 597.812C753.891 599.009 752.914 600.126 752 601.281C750.763 602.846 749.435 604.339 748.125 605.844C746.95 607.194 745.801 608.506 744.188 609.344C742.954 609.984 741.599 610.448 740.312 610.969C738.037 611.89 735.704 612.744 733.281 613.188C730.917 613.621 728.459 613.652 726.062 613.656C720.622 613.667 715.18 613.095 709.875 611.875C701.141 609.867 692.865 606.107 685.969 600.344C682.841 597.729 680.211 595.243 678.625 591.406C676.294 585.767 677.06 579.451 679.75 574.094C680.775 572.052 682.247 570.263 683.719 568.531C685.386 566.57 703.719 562.187 703.719 562.188C703.719 562.188 693.714 559.861 688.781 561.406C685.616 562.398 682.963 564.535 680.531 566.719C678.418 568.617 676.48 570.632 674.938 573.031C670.897 579.318 669.629 587.318 671.75 594.5C673.74 601.239 678.722 606.143 684.406 610C691.548 614.846 699.535 618.268 707.938 620.219C713.869 621.596 719.944 622.284 726.031 622.312C728.948 622.326 731.932 622.284 734.812 621.781C737.828 621.255 740.756 620.251 743.594 619.125C745.59 618.333 747.637 617.572 749.469 616.438C751.992 614.876 753.845 612.705 755.781 610.5C756.853 609.279 757.926 608.084 758.938 606.812C759.94 605.552 760.996 604.306 761.938 603C762.876 601.698 763.718 600.283 764.594 598.938C765.28 597.884 765.947 596.904 766.375 595.719C767.074 593.78 767.158 591.727 767.094 589.688C766.918 584.12 764.741 579.505 761.031 575.375C756.772 570.634 751.155 567.301 745.531 564.438C737.9 560.551 729.809 557.26 721.344 555.75C718.894 555.313 716.43 555.114 713.969 554.781C712.407 554.57 710.774 554.085 709.188 554.312Z" fill="#000000" stroke="none"/>
</g>
<g opacity="1" vectornatorLayerName="Curve 7">
<path d="M909.656 552.031C913.413 552.84 917.121 553.823 920.719 555.188C931.316 559.205 940.955 566.237 946.344 576.406C947.571 578.721 948.588 581.137 949.312 583.656C950.13 586.496 949.097 589.157 948.125 591.812C947.593 593.265 947.053 594.684 946.344 596.062C940.774 606.888 927.592 615.24 915.219 613.469C910.737 612.827 906.108 612.127 901.938 610.281C898.966 608.966 896.358 607.046 893.906 604.938C891.876 603.191 889.766 601.313 888.156 599.156C886.046 596.329 884.782 592.969 884.094 589.531C882.872 583.428 883.227 576.168 885.969 570.5C887.025 568.317 888.592 566.427 890.125 564.562C891.528 562.856 893.09 561.194 895.031 560.094C895.52 559.817 896.074 559.493 896.656 559.469C898.313 559.4 900.11 560.765 901.688 561.25C900.047 560.408 898.614 558.717 896.719 558.469C895.629 558.326 894.501 558.816 893.531 559.25C891.29 560.253 889.356 561.822 887.531 563.438C885.768 564.998 884.016 566.554 882.625 568.469C878.692 573.885 876.987 580.858 876.75 587.469C876.538 593.395 877.625 599.516 881.25 604.344C882.38 605.849 883.732 607.146 885.094 608.438C886.156 609.446 887.236 610.417 888.344 611.375C891.424 614.039 894.734 616.429 898.469 618.094C902.512 619.896 906.876 620.821 911.219 621.562C913.778 622 916.334 622.382 918.938 622.375C924.347 622.361 929.711 621.01 934.594 618.719C939.511 616.412 943.986 613.164 947.719 609.219C950.565 606.21 953.017 602.786 954.781 599.031C955.656 597.169 956.405 595.183 956.781 593.156C957.184 590.986 957.413 588.73 957.125 586.531C956.704 583.315 955.267 580.508 953.625 577.75C952.557 575.955 951.373 574.214 950.094 572.562C942.853 563.219 932.406 557.045 921.062 554.031C917.311 553.035 913.51 552.454 909.656 552.031Z" fill="#000000" stroke="none"/>
</g>
<g opacity="1" vectornatorLayerName="Curve 8">
<path d="M1085.22 557.875C1084.11 557.892 1083 558.025 1081.94 558.344C1081.49 558.477 1081.07 558.615 1080.69 558.875C1078.92 560.061 1074.53 562.781 1074.53 562.781C1074.53 562.781 1075.44 563.129 1075.94 563.188C1078.38 563.476 1079.18 560.866 1080.88 559.719C1081.83 559.074 1083.24 559.071 1084.34 559.094C1088.01 559.17 1091.49 560.738 1094.91 561.906C1100.07 563.673 1105.11 565.89 1109.66 568.938C1112.9 571.11 1115.93 573.805 1118.03 577.125C1119.66 579.692 1120.6 582.638 1120.59 585.688C1120.59 586.292 1120.43 586.851 1120.31 587.438C1120.07 588.61 1119.74 589.732 1119.28 590.844C1117.75 594.599 1115.29 597.723 1112.34 600.469C1108.76 603.808 1104.81 606.836 1100.56 609.281C1098.29 610.593 1095.89 611.744 1093.34 612.438C1089.67 613.44 1085.57 613.375 1081.81 612.969C1079.4 612.708 1076.94 612.237 1074.69 611.312C1072.46 610.399 1070.49 608.81 1068.72 607.219C1065.73 604.543 1063.47 601.377 1061.5 597.906C1060.11 595.464 1058.96 592.813 1058.47 590.031C1058.17 588.36 1058.15 586.595 1058.16 584.906C1058.17 582.676 1058.28 580.466 1058.53 578.25C1058.77 576.174 1059.03 574.005 1059.75 572.031C1060.58 569.766 1061.95 567.528 1063.38 565.594C1064.5 564.071 1065.88 562.376 1067.59 561.5C1069.55 560.504 1071.67 560.626 1073.78 560.656C1073.8 560.667 1073.8 560.68 1073.81 560.688C1073.85 560.709 1073.91 560.717 1073.94 560.75C1073.99 560.802 1074.01 560.871 1074.03 560.938C1074.04 560.981 1074.06 561.108 1074.06 561.062C1074.05 560.903 1074.08 561.404 1074.09 561.562C1074.1 561.651 1074.53 562.781 1074.53 562.781C1074.53 562.781 1074.97 560.668 1073.97 560.25C1073.14 559.905 1072.1 559.785 1071.22 559.688C1069.82 559.532 1068.36 559.586 1067 560C1064.51 560.759 1062.31 562.705 1060.53 564.531C1058.87 566.234 1057.27 568.165 1056.06 570.219C1053.93 573.849 1052.91 578.248 1052.12 582.344C1051.48 585.73 1050.94 589.202 1051.28 592.656C1051.83 598.148 1054.12 603.272 1057.5 607.594C1060.71 611.701 1064.69 615.636 1069.28 618.188C1073.15 620.339 1077.7 621.205 1082.06 621.594C1086.51 621.99 1091.22 621.955 1095.56 620.812C1101.79 619.174 1107.5 615.601 1112.59 611.75C1115.9 609.249 1119.17 606.532 1121.88 603.375C1124.01 600.888 1125.79 598.052 1127.12 595.062C1128.03 593.037 1128.79 590.817 1129 588.594C1129.32 585.222 1128.25 581.837 1126.72 578.875C1123.25 572.15 1116.93 567.555 1110.19 564.438C1108.56 563.683 1106.91 563.009 1105.22 562.406C1102.56 561.458 1099.81 560.69 1097.06 560.031C1094.23 559.353 1091.41 558.562 1088.53 558.125C1087.44 557.96 1086.32 557.858 1085.22 557.875Z" fill="#000000" stroke="none"/>
</g>
<g opacity="1" vectornatorLayerName="Curve 9">
<path d="M1272.66 557.062C1271.87 557.107 1270.81 557.221 1270.16 557.719C1269.75 558.03 1268.03 559.625 1268.03 559.625C1268.03 559.625 1269.43 559.524 1269.91 559.094C1270.25 558.786 1269.97 558.196 1270.34 557.969C1270.97 557.588 1271.95 557.594 1272.66 557.625C1274.4 557.7 1276.05 558.361 1277.66 558.969C1279.61 559.705 1281.53 560.451 1283.41 561.375C1287.48 563.385 1291.55 565.629 1295.06 568.531C1296.92 570.065 1298.44 571.934 1299.94 573.812C1301.9 576.282 1303.71 578.941 1304.84 581.906C1305.92 584.729 1306.29 587.751 1305.91 590.75C1305.61 593.084 1304.52 595.198 1303.44 597.25C1300.83 602.205 1297.07 606.141 1292.47 609.312C1291.34 610.094 1290.13 610.778 1288.91 611.406C1286.66 612.559 1284.27 613.504 1281.78 613.969C1280.51 614.207 1279.3 614.206 1278 614.188C1277.37 614.178 1276.72 614.209 1276.09 614.156C1275.1 614.073 1274.11 613.841 1273.12 613.688C1270.39 613.263 1267.64 612.573 1264.97 611.875C1262.91 611.337 1260.89 610.728 1258.88 610.031C1251.49 607.474 1243.85 603.517 1240.06 596.344C1239.47 595.229 1238.92 594.037 1238.59 592.812C1238.17 591.202 1238.08 589.501 1238.09 587.844C1238.1 586.126 1238.28 584.375 1238.75 582.719C1239.19 581.152 1240.04 579.716 1240.84 578.312C1241.41 577.326 1242.11 576.221 1242.75 575.281C1244.67 572.454 1268.03 559.625 1268.03 559.625C1268.03 559.625 1255.51 561.02 1249.75 563.656C1245.47 565.615 1241.77 568.475 1238.56 571.906C1236.06 574.58 1233.54 577.531 1232.09 580.938C1231.04 583.431 1230.41 586.121 1230.16 588.812C1229.93 591.175 1229.97 593.595 1230.56 595.906C1231.36 599.028 1233.13 602.004 1235.12 604.5C1239.68 610.198 1245.92 614.101 1252.62 616.844C1254.85 617.755 1257.14 618.516 1259.44 619.219C1261.98 619.995 1264.54 620.684 1267.12 621.281C1272.09 622.428 1277.26 623.446 1282.38 622.719C1287.76 621.953 1293 619.66 1297.47 616.594C1304.78 611.575 1311.9 604.141 1312.97 594.938C1313.62 589.303 1312.14 583.439 1309.19 578.625C1307.29 575.523 1304.84 572.791 1302.22 570.281C1300.79 568.915 1299.35 567.559 1297.72 566.438C1294.11 563.953 1289.98 562.062 1285.91 560.469C1283.3 559.45 1280.7 558.627 1278 557.906C1276.26 557.441 1274.47 556.959 1272.66 557.062Z" fill="#000000" stroke="none"/>
</g>
<g opacity="1" vectornatorLayerName="Curve 10">
<path d="M1436.84 550.594C1432.4 550.373 1427.96 550.961 1423.69 552.75C1435.21 549.205 1446.9 553.98 1456.88 559.656C1460.74 561.856 1464.48 564.328 1467.84 567.25C1472.38 571.193 1476.01 575.711 1476.94 581.781C1477.19 583.43 1477.26 585.032 1476.97 586.688C1476.08 591.771 1472.57 596.217 1468.97 599.719C1464.31 604.252 1458.25 607.082 1451.78 607.844C1441.8 609.02 1431.23 605.337 1424.19 598.156C1422.26 596.193 1420.72 593.926 1419.34 591.562C1418.05 589.344 1416.95 587.075 1416.16 584.625C1414.9 580.745 1414.04 575.85 1415 571.812C1415.34 570.38 1416.02 569.259 1416.78 568C1417.44 566.922 1418.06 565.932 1418.75 564.875C1420.89 561.588 1423.25 558.402 1426.12 555.719C1427 554.906 1427.91 554.135 1428.88 553.438C1429.21 553.197 1429.73 552.729 1430.22 552.75C1430.88 552.778 1431.45 553.336 1431.91 553.75C1432.9 554.661 1433.74 555.719 1434.88 556.469C1433.71 555.383 1433.04 553.917 1431.97 552.75C1431.54 552.281 1431.01 551.834 1430.38 551.688C1429.3 551.439 1428.21 552.209 1427.31 552.688C1425.92 553.435 1424.59 554.31 1423.31 555.25C1419.96 557.724 1417.04 560.706 1414.28 563.812C1413.24 564.988 1412.11 566.171 1411.22 567.469C1410.3 568.798 1409.67 570.3 1409.22 571.844C1408.41 574.584 1408.16 577.497 1408.16 580.344C1408.16 585.628 1409.27 591.052 1411.75 595.75C1413.39 598.864 1415.66 601.639 1418.12 604.125C1422.59 608.616 1428.04 612.057 1434 614.188C1440.58 616.539 1447.75 617.286 1454.66 616.188C1462.33 614.968 1469.49 611.428 1475.09 606.062C1481.93 599.523 1488.07 589.768 1485.5 579.906C1483.72 573.078 1477.8 567.605 1472.19 563.75C1467.91 560.814 1463.24 558.426 1458.47 556.406C1451.7 553.539 1444.25 550.961 1436.84 550.594Z" fill="#000000" stroke="none"/>
</g>
<g opacity="1" vectornatorLayerName="Curve 11">
<path d="M396.693 855.456C390.996 855.755 384.637 855.543 379.89 858.708C372.648 863.535 367.431 871.02 362.544 878.222C352.301 893.317 362.32 914.809 377.721 921.586C387.447 925.865 401.41 925.645 411.329 922.67C419.492 920.221 432.668 911.91 438.431 905.324C442.721 900.421 447.278 895.265 449.272 889.063C450.714 884.577 449.972 879.33 448.188 874.969C445.464 868.31 433.356 860.381 427.59 857.624C423.466 855.652 419.152 853.287 414.581 853.287C406.145 853.287 398.148 855.379 396.693 855.456Z" fill="#000000" fill-rule="nonzero" stroke="none"/>
<path d="M414.969 852.594C413.143 852.574 411.291 852.753 409.375 853C406.959 853.312 396.687 855.469 396.688 855.469C396.688 855.469 399.905 855.029 401.5 854.812C404.144 854.453 406.803 854.184 409.469 854.062C413.093 853.897 416.41 853.912 419.844 855.25C421.97 856.079 423.996 857.166 426 858.25C430.936 860.92 435.559 864.221 439.656 868.062C441.931 870.196 444.458 872.691 445.562 875.688C446.093 877.126 446.434 878.637 446.625 880.156C446.877 882.161 446.829 884.257 446.312 886.219C445.557 889.086 443.726 891.558 442 893.906C440.789 895.554 439.563 897.149 438.25 898.719C436.796 900.457 435.333 902.25 433.719 903.844C430.624 906.899 427.059 909.47 423.406 911.812C419.505 914.315 415.366 916.67 410.969 918.188C407.461 919.398 403.721 920.035 400.031 920.344C393.899 920.857 387.487 920.489 381.625 918.5C375.567 916.445 370.376 912.042 367.062 906.594C365.572 904.143 364.497 901.516 363.656 898.781C362.485 894.971 361.946 891 362.562 887.031C363.245 882.638 365.555 879 367.844 875.281C370.453 871.042 373.225 866.852 376.688 863.25C378.178 861.699 396.688 855.469 396.688 855.469C396.688 855.469 385.618 854.735 380.594 856.969C376.794 858.658 373.24 861.685 370.281 864.562C367.576 867.194 365.105 870.086 362.75 873.031C361.303 874.841 359.793 876.627 358.562 878.594C356.593 881.74 355.295 885.303 354.719 888.969C354.09 892.97 354.306 897.171 355.312 901.094C356.226 904.652 357.875 908.038 359.844 911.125C363.773 917.287 369.249 922.552 376 925.5C383.203 928.645 391.367 929.509 399.156 929.094C403.694 928.852 408.234 928.143 412.594 926.844C417.131 925.492 421.43 923.293 425.5 920.906C430.283 918.101 434.899 914.873 438.969 911.094C442.014 908.266 444.737 905.011 447.219 901.688C447.894 900.783 448.723 899.712 449.312 898.75C451.042 895.925 452.32 892.74 453 889.5C453.822 885.587 453.354 881.44 452.156 877.656C451.26 874.824 450.04 872.277 448.094 870.031C444.978 866.437 440.955 863.589 436.938 861.094C433.445 858.925 429.804 857.117 426.031 855.5C424.21 854.719 422.371 853.94 420.469 853.375C418.588 852.816 416.795 852.614 414.969 852.594Z" fill="#000000" stroke="none"/>
</g>
<g opacity="1" vectornatorLayerName="Curve 12">
<path d="M603.756 863.586C598.656 862.372 593.152 861.896 588.037 863.044C573.697 866.263 568.523 883.05 568.523 895.567C568.523 900.037 569.333 904.832 571.775 908.576C578.662 919.136 592.972 923.706 605.382 925.922C608.584 926.494 611.977 926.681 615.139 925.922C633.517 921.511 646.538 910.309 656.335 894.483C658.208 891.457 661.668 888.143 660.671 884.726C658.789 878.273 653.995 872.664 648.746 868.465C644.551 865.109 638.8 864.265 633.569 863.044C627.894 861.72 621.999 860.106 616.223 860.876C610.767 861.603 606.535 864.248 603.756 863.586Z" fill="#000000" fill-rule="nonzero" stroke="none"/>
<path d="M617.625 860.125C614.972 860.419 603.75 863.594 603.75 863.594C603.75 863.594 608.1 863.212 610.125 862.656C612.613 861.974 615.128 861.412 617.719 861.344C622.543 861.216 627.28 862.61 631.875 863.906C636.47 865.203 641.477 866.09 645.562 868.688C647.131 869.685 648.496 871.012 649.781 872.344C650.907 873.511 651.973 874.758 652.938 876.062C654.625 878.344 656.062 880.855 656.938 883.562C657.139 884.187 657.533 885.117 657.469 885.781C657.397 886.525 656.768 887.258 656.344 887.812C655.619 888.759 654.789 889.643 654.031 890.562C651.96 893.074 650.225 895.829 648.281 898.438C641.762 907.186 633.32 914.419 623.219 918.688C620.947 919.648 618.625 920.49 616.25 921.156C614.738 921.58 613.228 921.963 611.656 922.062C608.78 922.244 605.928 921.7 603.125 921.125C596.168 919.698 589.113 917.558 583.094 913.688C579.842 911.597 576.868 908.908 574.969 905.5C572.827 901.658 572.384 896.935 572.375 892.625C572.355 882.939 603.75 863.594 603.75 863.594C603.75 863.594 589.818 860.582 583.219 863.156C571.777 867.619 566.344 880.775 564.875 892.094C564.226 897.098 564.308 902.478 566.219 907.219C568.091 911.865 571.656 915.734 575.562 918.781C583.423 924.915 593.344 927.954 603 929.844C606.023 930.435 609.068 930.894 612.156 930.719C614.753 930.572 617.264 929.916 619.75 929.188C622.078 928.505 624.353 927.711 626.594 926.781C638.191 921.969 647.929 913.766 655.406 903.75C656.592 902.162 657.751 900.539 658.781 898.844C659.476 897.701 660.031 896.491 660.719 895.344C662.419 892.507 664.417 889.484 664.281 886.031C664.213 884.291 663.5 882.7 662.75 881.156C661.655 878.902 660.268 876.786 658.688 874.844C656.575 872.247 654.107 869.93 651.469 867.875C649.811 866.584 648.085 865.439 646.125 864.656C641.742 862.906 637.041 862.412 632.438 861.531C627.584 860.602 622.588 859.575 617.625 860.125Z" fill="#000000" stroke="none"/>
</g>
<g opacity="1" vectornatorLayerName="Curve 13">
<path d="M801.604 867.381C795.496 866.403 788.669 866.707 783.175 869.549C777.496 872.486 772.811 877.822 770.165 883.642C767.141 890.295 766.692 898.019 766.913 905.324C767.147 913.038 772.187 924.499 779.922 928.09C791.428 933.432 808.591 935.374 821.118 932.427C827.261 930.981 832.997 927.992 838.464 924.838C844.348 921.443 854.984 911.61 857.977 905.324C859.714 901.676 861.081 897.329 860.146 893.399C858.233 885.366 845.291 876.297 839.548 872.801C835.818 870.531 831.984 867.583 827.623 867.381C816.021 866.841 805.172 867.952 801.604 867.381Z" fill="#ff3636" fill-rule="nonzero" stroke="none"/>
<path d="M828.875 866.375C826.599 866.129 824.19 866.331 821.906 866.406C817.718 866.544 801.594 867.375 801.594 867.375C801.594 867.375 806.824 867.752 809.406 867.781C814.049 867.835 818.676 867.892 823.312 868.156C825.04 868.255 826.828 868.268 828.531 868.594C832.01 869.259 834.919 871.622 837.75 873.594C842.32 876.777 846.779 880.133 850.656 884.156C852.501 886.07 854.231 888.139 855.531 890.469C856.115 891.515 856.668 892.624 856.875 893.812C857.314 896.332 856.393 898.842 855.344 901.094C853.563 904.913 850.868 908.195 847.969 911.219C844.82 914.503 841.35 917.651 837.562 920.188C835.447 921.605 833.168 922.805 830.906 923.969C827.47 925.738 823.893 927.285 820.125 928.188C812.678 929.972 804.686 929.814 797.156 928.656C792.824 927.99 788.535 926.945 784.438 925.375C781.863 924.389 779.664 923.261 777.781 921.219C774.988 918.189 773.337 914.358 772.125 910.469C771.75 909.266 771.408 908.054 771.188 906.812C770.886 905.119 770.809 903.402 770.719 901.688C770.492 897.368 770.526 892.996 771.438 888.75C772.893 881.974 801.594 867.375 801.594 867.375C801.594 867.375 789.148 865.773 783.312 868.062C775.992 870.936 770.036 877.262 766.844 884.344C764.668 889.171 763.642 894.41 763.156 899.656C762.907 902.35 762.735 905.141 762.969 907.844C763.308 911.759 764.417 915.544 766.156 919.062C768.163 923.122 770.941 927.011 774.562 929.781C777.095 931.719 780.076 932.919 783.062 933.969C787.813 935.638 792.762 936.74 797.75 937.406C805.793 938.481 814.189 938.538 822.125 936.688C826.584 935.648 830.831 933.877 834.906 931.812C837.482 930.508 840.064 929.134 842.469 927.531C847.17 924.398 851.447 920.511 855.281 916.375C857.562 913.915 859.91 911.25 861.406 908.219C863.469 904.04 864.619 898.513 863.688 893.906C863.281 891.895 862.431 890.022 861.312 888.312C859.094 884.923 856.023 882.131 852.875 879.625C848.679 876.284 844.138 873.461 839.469 870.844C836.144 868.98 832.755 866.795 828.875 866.375Z" fill="#ff3636" stroke="none"/>
</g>
<g opacity="1" vectornatorLayerName="Curve 14">
<path d="M994.032 877.138C988.852 876.066 982.993 876.842 978.312 879.306C972.203 882.521 967.356 887.936 963.135 893.399C958.628 899.231 957.419 907.841 958.799 915.081C962.8 936.09 993.336 943.599 1010.84 941.099C1016.95 940.226 1022.66 937.356 1028.18 934.595C1032.13 932.622 1036.06 930.277 1039.02 927.006C1043.06 922.546 1048.01 917.794 1048.78 911.829C1049.6 905.478 1046.86 898.763 1043.36 893.399C1041.06 889.869 1036.34 888.669 1032.52 886.894C1026.19 883.955 1019.89 880.423 1013 879.306C1006.22 878.205 999.892 878.35 994.032 877.138Z" fill="#000000" fill-rule="nonzero" stroke="none"/>
<path d="M987.312 876.25C979.438 876.327 972.979 880.181 967.281 885.312C965.491 886.925 963.779 888.626 962.156 890.406C960.797 891.897 959.563 893.418 958.531 895.156C954.42 902.08 953.246 911.147 955.344 918.906C956.779 924.213 960.222 928.761 964.25 932.406C971.972 939.395 982.336 943.144 992.469 944.875C999.783 946.124 1007.64 946.521 1014.91 944.75C1019.76 943.567 1024.29 941.449 1028.75 939.25C1032.51 937.393 1036.24 935.399 1039.47 932.688C1041.65 930.854 1043.54 928.684 1045.44 926.562C1047.99 923.706 1050.4 920.685 1051.69 917.031C1054.32 909.559 1051.39 901.313 1047.38 894.906C1046.53 893.564 1045.68 892.167 1044.59 891C1041.26 887.407 1036 886.392 1031.66 884.594C1026.2 882.337 1020.76 879.777 1014.91 878.75C1010.02 877.892 994.031 877.125 994.031 877.125C994.031 877.125 998.014 877.961 1000.03 878.25C1004.86 878.942 1009.8 879.244 1014.53 880.5C1020.13 881.985 1025.13 884.961 1030.19 887.688C1032.31 888.832 1034.52 889.795 1036.66 890.906C1038.11 891.663 1039.6 892.555 1040.66 893.844C1041.21 894.518 1041.61 895.333 1042 896.094C1042.59 897.231 1043.13 898.398 1043.59 899.594C1044.22 901.221 1044.74 902.903 1045.03 904.625C1045.41 906.833 1045.47 909.129 1044.91 911.312C1044.53 912.769 1043.8 914.027 1043 915.281C1041.22 918.06 1039 920.447 1036.78 922.875C1035.6 924.163 1034.44 925.425 1033.06 926.5C1030.15 928.769 1026.77 930.374 1023.47 932C1020.04 933.69 1016.53 935.344 1012.81 936.281C1006.41 937.895 999.058 937.376 992.625 936.188C984.025 934.599 974.425 931.089 968.344 924.531C966.168 922.185 964.6 919.366 963.5 916.375C961.423 910.731 961.432 903.428 963.781 897.875C964.644 895.834 965.942 894.05 967.219 892.25C968.202 890.865 969.199 889.498 970.281 888.188C975.137 882.307 994.031 877.125 994.031 877.125C994.031 877.125 989.61 876.228 987.312 876.25Z" fill="#000000" stroke="none"/>
</g>
<g opacity="1" vectornatorLayerName="Curve 15">
<path d="M1178.87 880.39C1174.3 879.152 1165.95 877.899 1161.53 880.39C1158.18 882.273 1156.24 885.989 1153.94 889.063C1151.89 891.79 1149.47 894.463 1148.52 897.735C1144.85 910.32 1144.02 926.066 1157.19 933.511C1162.16 936.322 1167.78 938.264 1173.45 938.931C1192.32 941.151 1209.78 934.822 1222.23 920.501C1225.53 916.713 1229.66 912.51 1229.82 907.492C1230.05 900.64 1227.36 893.514 1223.32 887.978C1220.06 883.525 1214.26 881.562 1209.23 879.306C1203.7 876.828 1197.73 872.31 1191.88 873.885C1186.43 875.353 1184.83 882.006 1178.87 880.39Z" fill="#000000" fill-rule="nonzero" stroke="none"/>
<path d="M1196.28 872.812C1195.03 872.679 1193.74 872.739 1192.47 873.031C1190.34 873.52 1188.66 874.743 1187.12 876.25C1185.6 877.748 1178.88 880.375 1178.88 880.375C1178.88 880.375 1181.04 880.853 1182.16 880.594C1184.18 880.125 1185.69 878.612 1187.22 877.312C1188.85 875.929 1190.58 874.705 1192.75 874.406C1197.92 873.695 1202.93 877.612 1207.19 879.969C1211.55 882.385 1216.99 884.176 1220.34 888.062C1221.41 889.3 1222.21 890.766 1222.94 892.219C1224.82 895.978 1226.06 900.207 1226.03 904.438C1226.02 905.765 1225.99 907.176 1225.53 908.438C1224.68 910.778 1222.99 912.843 1221.41 914.719C1219.89 916.519 1218.34 918.315 1216.69 920C1207.4 929.482 1194.78 934.811 1181.53 935.031C1177.73 935.095 1173.87 934.874 1170.16 934.031C1166.77 933.264 1163.51 932.016 1160.44 930.406C1158.01 929.132 1155.73 927.555 1154.09 925.312C1152.7 923.397 1151.82 921.183 1151.22 918.906C1149.87 913.793 1149.82 908.472 1150.53 903.25C1150.8 901.282 1151.06 899.197 1151.72 897.312C1152.72 894.469 1154.7 892.073 1156.25 889.531C1158.02 886.638 1159.58 883.052 1162.66 881.281C1164.87 880.006 1178.88 880.375 1178.88 880.375C1178.88 880.375 1170.97 878.111 1166.91 878.094C1165.1 878.086 1163.26 878.255 1161.56 878.906C1157.71 880.385 1155.3 884.004 1152.75 887.031C1150.79 889.356 1148.57 891.465 1147 894.094C1145.29 896.967 1144.4 900.406 1143.59 903.625C1142.13 909.487 1141.38 915.965 1143.03 921.875C1143.54 923.709 1144.25 925.481 1145.16 927.156C1149.54 935.25 1158.09 939.717 1166.72 942C1170.79 943.077 1174.99 943.516 1179.19 943.625C1194.83 944.032 1209.77 938.678 1221.22 927.938C1223.38 925.913 1225.34 923.729 1227.28 921.5C1229.57 918.872 1231.8 916.098 1233 912.781C1234.18 909.503 1233.91 906.065 1233.19 902.719C1232.17 898.014 1230.18 893.523 1227.5 889.531C1226.37 887.846 1225.13 886.156 1223.62 884.781C1218.99 880.551 1212.64 879.238 1207.06 876.719C1203.7 875.201 1200.05 873.212 1196.28 872.812Z" fill="#000000" stroke="none"/>
</g>
<g opacity="1" vectornatorLayerName="Curve 16">
<path d="M1370.21 871.717C1366.06 870.624 1361.94 867.516 1357.75 868.465C1351.58 869.861 1346.3 874.128 1341.49 878.222C1338.89 880.43 1336.96 883.605 1336.07 886.894C1333.66 895.721 1331.99 904.852 1331.73 913.997C1331.62 917.768 1332.44 922.052 1334.98 924.838C1340.39 930.763 1347.02 936.023 1354.49 938.931C1360.57 941.292 1367.49 940.015 1374.01 940.015C1393.37 940.015 1417.37 929.229 1419.54 907.492C1419.87 904.236 1419.67 900.774 1418.46 897.735C1416.71 893.361 1414.2 889.142 1410.87 885.81C1407.18 882.125 1402.48 879.542 1397.86 877.138C1393.39 874.815 1388.75 872.429 1383.77 871.717C1378.39 870.949 1372.93 872.431 1370.21 871.717Z" fill="#000000" fill-rule="nonzero" stroke="none"/>
<path d="M1358.12 867.5C1354.1 867.847 1350.18 869.76 1346.78 871.812C1344.89 872.952 1343.1 874.237 1341.31 875.531C1339.79 876.633 1338.36 877.762 1337.12 879.188C1334.54 882.182 1333.27 885.723 1332.09 889.438C1330.79 893.569 1329.62 897.779 1328.78 902.031C1327.51 908.463 1326.42 915.749 1328.59 922.094C1329.95 926.054 1332.62 928.726 1335.59 931.531C1339.31 935.042 1343.4 938.163 1347.91 940.594C1350.11 941.784 1352.43 942.86 1354.84 943.562C1360.08 945.086 1365.54 944.648 1370.91 944.438C1374.63 944.291 1378.33 944.33 1382.03 943.844C1392.12 942.519 1402.16 938.835 1410.16 932.438C1413.77 929.543 1417.15 925.993 1419.34 921.875C1421.63 917.579 1422.68 912.674 1422.88 907.844C1423 904.712 1422.66 901.511 1421.66 898.531C1421.05 896.73 1420.16 895.023 1419.22 893.375C1417.76 890.81 1416.04 888.382 1414.03 886.219C1409.42 881.262 1403.29 878.371 1397.25 875.562C1392.96 873.57 1388.58 871.693 1383.84 871.156C1381.23 870.859 1370.22 871.719 1370.22 871.719C1370.22 871.719 1374.09 872.004 1376 871.938C1378.55 871.849 1381.17 871.783 1383.69 872.281C1388.62 873.258 1393 875.714 1397.31 878.188C1402.66 881.252 1407.96 884.659 1411.56 889.781C1413.06 891.911 1414.26 894.237 1415.22 896.656C1415.74 897.978 1416.19 899.31 1416.41 900.719C1417.31 906.638 1415.04 912.589 1411.81 917.438C1409.78 920.485 1407.46 923.2 1404.59 925.5C1397.87 930.897 1389.33 933.988 1380.84 935.156C1377.41 935.629 1373.99 935.593 1370.53 935.75C1366.34 935.94 1361.98 936.461 1357.84 935.469C1355.79 934.977 1353.82 934.025 1351.97 933.031C1348.12 930.962 1344.62 928.336 1341.44 925.344C1339.78 923.782 1337.81 922.15 1336.91 920C1335.7 917.126 1336.07 913.865 1336.22 910.844C1336.33 908.646 1336.42 906.475 1336.59 904.281C1336.94 899.831 1337.52 895.394 1338.31 891C1338.87 887.913 1339.39 884.925 1341.12 882.25C1342.24 880.528 1343.77 879.18 1345.25 877.781C1346.78 876.341 1348.34 874.942 1350 873.656C1352.45 871.759 1355.36 869.964 1358.41 869.25C1360.95 868.655 1370.22 871.719 1370.22 871.719C1370.22 871.719 1362.49 867.124 1358.12 867.5Z" fill="#000000" stroke="none"/>
</g>
<g opacity="1" vectornatorLayerName="Curve 17">
<path d="M1591.37 869.549C1587.15 867.774 1582.31 866.505 1577.82 867.381C1574.27 868.073 1571.79 871.426 1569.15 873.885C1564.59 878.113 1557.74 887.19 1557.22 893.399C1556.82 898.204 1557.85 903.45 1560.47 907.492C1562.88 911.191 1567.64 912.634 1571.31 915.081C1574.15 916.972 1576.79 919.317 1579.99 920.501C1586.65 922.967 1593.51 925.348 1600.59 925.922C1617.07 927.259 1639.97 921.405 1642.87 902.072C1643.4 898.48 1643.94 894.149 1641.78 891.231C1636.3 883.828 1629.06 877.576 1621.18 872.801C1616.76 870.119 1611.18 869.549 1606.01 869.549C1599.77 869.549 1594.32 870.789 1591.37 869.549Z" fill="#000000" fill-rule="nonzero" stroke="none"/>
<path d="M1577.09 866.375C1573.35 867.084 1570.61 870.169 1567.78 872.469C1564.02 875.53 1560.71 879.187 1557.97 883.188C1556.32 885.592 1554.81 888.183 1554 891C1553.15 893.942 1553.11 897.166 1553.47 900.188C1553.7 902.121 1554.14 904.049 1554.81 905.875C1556.05 909.222 1558.11 911.997 1561.03 914.031C1563.29 915.602 1565.81 916.706 1568.16 918.125C1569.88 919.166 1571.46 920.464 1573.12 921.594C1574.81 922.742 1576.51 923.705 1578.41 924.469C1580.12 925.159 1581.88 925.743 1583.62 926.344C1587.79 927.776 1592.03 929.036 1596.38 929.75C1601.12 930.528 1605.97 930.624 1610.75 930.219C1619.32 929.492 1628.04 927.103 1635.12 922.062C1639.95 918.628 1644.06 913.806 1645.88 908.094C1646.74 905.382 1646.95 902.454 1646.97 899.625C1646.99 896.492 1646.69 893.192 1645 890.469C1644.14 889.074 1642.93 887.904 1641.81 886.719C1640.16 884.966 1638.41 883.301 1636.59 881.719C1632.99 878.582 1629.11 875.781 1625 873.344C1622.99 872.151 1620.94 870.968 1618.72 870.219C1616.34 869.418 1613.84 869.025 1611.34 868.875C1607.57 868.649 1591.37 869.562 1591.38 869.562C1591.38 869.562 1597.28 870.297 1600.12 870.219C1603.81 870.117 1607.5 870.161 1611.16 870.719C1613.63 871.096 1616.12 871.707 1618.38 872.812C1619.77 873.497 1621.06 874.399 1622.31 875.312C1623.84 876.426 1625.31 877.62 1626.75 878.844C1631.59 882.946 1635.96 887.675 1639.34 893.062C1640.45 894.833 1639.74 897.902 1639.31 899.75C1637.97 905.562 1635.53 910.609 1630.72 914.312C1627.33 916.919 1623.34 918.646 1619.25 919.812C1612.37 921.775 1604.83 922.333 1597.75 921.219C1592.23 920.349 1586.76 918.568 1581.56 916.531C1578.23 915.226 1575.62 912.676 1572.59 910.844C1569.9 909.212 1566.51 908.086 1564.44 905.594C1563.52 904.493 1562.91 903.065 1562.38 901.75C1562 900.811 1561.71 899.828 1561.47 898.844C1560.99 896.864 1560.67 894.63 1560.94 892.594C1561.27 890.053 1562.38 887.591 1563.56 885.344C1565.62 881.428 1568.22 877.907 1571.12 874.594C1573.03 872.424 1574.82 869.604 1577.66 868.562C1578.78 868.15 1591.37 869.562 1591.38 869.562C1591.38 869.562 1581.99 865.446 1577.09 866.375Z" fill="#000000" stroke="none"/>
</g>
<g fill="#000000" opacity="1" stroke="none" vectornatorLayerName="Text 7">
<path d="M350.764 1024.01L367.713 1024.01L367.713 1018.26L350.764 1018.26L350.764 1024.01Z"/>
<path d="M389.835 1025.19C389.725 1029.24 387.845 1031.29 384.195 1031.32C380.526 1031.29 378.655 1029.24 378.582 1025.19L378.582 1008.18C378.655 1004.17 380.526 1002.12 384.195 1002.05C387.845 1002.12 389.725 1004.17 389.835 1008.18L389.835 1025.19ZM372.831 1025.52C372.868 1029.21 374.051 1032.05 376.38 1034.05C378.563 1036.03 381.168 1037.04 384.195 1037.08C387.313 1037.04 389.963 1036.03 392.146 1034.05C394.366 1032.05 395.512 1029.21 395.586 1025.52L395.586 1007.83C395.512 1004.12 394.366 1001.27 392.146 999.27C389.963 997.289 387.313 996.298 384.195 996.298C381.168 996.298 378.563 997.289 376.38 999.27C374.051 1001.27 372.868 1004.12 372.831 1007.83L372.831 1025.52Z"/>
<path d="M401.611 1036.74L407.362 1036.74L407.362 1030.99L401.611 1030.99L401.611 1036.74Z"/>
<path d="M421.147 1018.61L423.568 1018.61C425.347 1018.61 426.815 1019.15 427.97 1020.24C429.144 1021.36 429.749 1022.93 429.786 1024.97C429.749 1026.97 429.144 1028.51 427.97 1029.59C426.815 1030.75 425.393 1031.32 423.705 1031.32C422.128 1031.32 420.862 1030.89 419.908 1030.03C418.973 1029.21 418.248 1028.12 417.735 1026.78L411.984 1026.78C412.608 1030.12 413.974 1032.67 416.084 1034.43C418.193 1036.19 420.615 1037.08 423.348 1037.08C426.888 1037.04 429.786 1035.91 432.042 1033.69C434.335 1031.53 435.5 1028.56 435.537 1024.8C435.537 1023.12 435.179 1021.5 434.464 1019.96C433.712 1018.42 432.492 1017.1 430.804 1016C432.455 1014.88 433.602 1013.61 434.244 1012.17C434.794 1010.74 435.069 1009.26 435.069 1007.72C435.032 1004.67 433.987 1002.03 431.932 999.793C429.786 997.5 426.888 996.335 423.238 996.298C420.358 996.335 417.882 997.362 415.809 999.38C413.699 1001.42 412.498 1003.92 412.204 1006.89L417.955 1006.89C418.322 1005.24 419.037 1004.02 420.101 1003.23C421.11 1002.44 422.229 1002.05 423.458 1002.05C425.164 1002.09 426.558 1002.63 427.64 1003.67C428.722 1004.75 429.282 1006.14 429.318 1007.83C429.318 1009.5 428.777 1010.85 427.695 1011.9C426.613 1012.98 425.09 1013.52 423.128 1013.52L421.147 1013.52L421.147 1018.61Z"/>
</g>
<g fill="#000000" opacity="1" stroke="none" vectornatorLayerName="Text 6">
<path d="M1564.54 1020.3L1552.5 1020.3L1552.5 1024.7L1564.54 1024.7L1564.54 1036.74L1568.95 1036.74L1568.95 1024.7L1580.99 1024.7L1580.99 1020.3L1568.95 1020.3L1568.95 1008.25L1564.54 1008.25L1564.54 1020.3Z"/>
<path d="M1602.8 1025.19C1602.69 1029.25 1600.81 1031.29 1597.16 1031.33C1593.5 1031.29 1591.63 1029.25 1591.55 1025.19L1591.55 1008.2C1591.63 1004.18 1593.5 1002.14 1597.16 1002.06C1600.81 1002.14 1602.69 1004.18 1602.8 1008.2L1602.8 1025.19ZM1585.8 1025.52C1585.84 1029.21 1587.02 1032.05 1589.35 1034.05C1591.53 1036.03 1594.14 1037.04 1597.16 1037.07C1600.28 1037.04 1602.93 1036.03 1605.11 1034.05C1607.33 1032.05 1608.48 1029.21 1608.55 1025.52L1608.55 1007.84C1608.48 1004.13 1607.33 1001.28 1605.11 999.285C1602.93 997.305 1600.28 996.315 1597.16 996.315C1594.14 996.315 1591.53 997.305 1589.35 999.285C1587.02 1001.28 1585.84 1004.13 1585.8 1007.84L1585.8 1025.52Z"/>
<path d="M1614.57 1036.74L1620.32 1036.74L1620.32 1031L1614.57 1031L1614.57 1036.74Z"/>
<path d="M1626.01 1036.74L1648.87 1036.74L1648.87 1031L1633.55 1031L1646.45 1014.82C1648.06 1012.77 1648.87 1010.42 1648.87 1007.78C1648.83 1004.48 1647.72 1001.76 1645.54 999.615C1643.4 997.452 1640.6 996.351 1637.15 996.315C1634.07 996.351 1631.48 997.433 1629.37 999.56C1627.28 1001.74 1626.16 1004.5 1626.01 1007.84L1631.74 1007.84C1631.94 1006.01 1632.58 1004.58 1633.66 1003.58C1634.71 1002.57 1636.02 1002.06 1637.59 1002.06C1639.37 1002.1 1640.75 1002.68 1641.72 1003.8C1642.65 1004.91 1643.12 1006.23 1643.12 1007.73C1643.12 1008.3 1643.05 1008.9 1642.9 1009.54C1642.68 1010.22 1642.27 1010.96 1641.66 1011.74L1626.01 1031.33L1626.01 1036.74Z"/>
</g>
<g fill="#000000" opacity="1" stroke="none" vectornatorLayerName="Text 5">
<path d="M1328.32 1024.01L1345.26 1024.01L1345.26 1018.26L1328.32 1018.26L1328.32 1024.01Z"/>
<path d="M1359.16 1002.71L1359.16 1036.74L1364.91 1036.74L1364.91 996.629L1359.16 996.629L1353.46 1000.78L1353.46 1006.89L1353.46 1006.89L1359.16 1002.71Z"/>
<path d="M1379.16 1036.74L1384.91 1036.74L1384.91 1030.99L1379.16 1030.99L1379.16 1036.74Z"/>
<path d="M1394.74 1036.74C1394.72 1036.74 1394.87 1036.41 1395.2 1035.74C1395.53 1035.07 1395.96 1034.2 1396.5 1033.14C1397.03 1032.08 1397.62 1030.89 1398.28 1029.59C1398.94 1028.29 1399.6 1027 1400.24 1025.74C1400.88 1024.47 1401.48 1023.31 1402.04 1022.24C1402.6 1021.18 1403.05 1020.35 1403.4 1019.74C1402.87 1020.05 1402.27 1020.24 1401.6 1020.3C1400.93 1020.37 1400.16 1020.38 1399.28 1020.35C1398.06 1020.31 1397.01 1020.09 1396.1 1019.69C1395.19 1019.28 1394.41 1018.78 1393.74 1018.17C1393.08 1017.57 1392.53 1016.89 1392.09 1016.15C1391.65 1015.41 1391.3 1014.68 1391.03 1013.98C1390.77 1013.27 1390.58 1012.61 1390.46 1012C1390.34 1011.38 1390.28 1010.9 1390.28 1010.55C1390.28 1010.44 1390.27 1010.24 1390.26 1009.95C1390.25 1009.65 1390.25 1009.33 1390.25 1008.97C1390.25 1008.61 1390.25 1008.25 1390.26 1007.88C1390.27 1007.52 1390.3 1007.2 1390.33 1006.95C1390.35 1006.82 1390.41 1006.49 1390.51 1005.97C1390.61 1005.45 1390.8 1004.82 1391.08 1004.09C1391.35 1003.35 1391.74 1002.57 1392.23 1001.73C1392.73 1000.9 1393.37 1000.11 1394.17 999.38C1394.97 998.646 1395.95 998.014 1397.12 997.482C1398.28 996.95 1399.66 996.61 1401.26 996.464C1402.93 996.317 1404.4 996.418 1405.67 996.766C1406.95 997.115 1408.04 997.619 1408.96 998.28C1409.88 998.94 1410.64 999.71 1411.24 1000.59C1411.85 1001.47 1412.32 1002.37 1412.66 1003.27C1413 1004.18 1413.22 1005.06 1413.34 1005.91C1413.45 1006.77 1413.46 1007.5 1413.39 1008.1C1413.28 1009 1413.16 1009.8 1413.03 1010.51C1412.9 1011.22 1412.75 1011.89 1412.58 1012.53C1412.4 1013.17 1412.21 1013.81 1411.99 1014.43C1411.77 1015.05 1411.51 1015.73 1411.22 1016.47C1411.14 1016.67 1410.95 1017.11 1410.62 1017.79C1410.3 1018.47 1409.9 1019.3 1409.41 1020.28C1408.93 1021.26 1408.4 1022.35 1407.82 1023.55C1407.24 1024.75 1406.65 1025.96 1406.04 1027.17C1404.63 1030.03 1403.05 1033.22 1401.31 1036.74L1394.74 1036.74ZM1395.97 1007.69C1395.97 1008.4 1396.01 1009.19 1396.08 1010.06C1396.16 1010.92 1396.37 1011.73 1396.73 1012.49C1397.09 1013.25 1397.65 1013.9 1398.42 1014.44C1399.19 1014.99 1400.27 1015.29 1401.67 1015.37C1402.37 1015.4 1403 1015.32 1403.57 1015.1C1404.14 1014.89 1404.64 1014.61 1405.08 1014.27C1405.52 1013.92 1405.9 1013.52 1406.22 1013.08C1406.54 1012.64 1406.81 1012.21 1407.02 1011.78C1407.23 1011.34 1407.38 1010.95 1407.47 1010.58C1407.57 1010.21 1407.61 1009.92 1407.61 1009.7C1407.59 1009.24 1407.58 1008.73 1407.57 1008.16C1407.56 1007.59 1407.51 1007.01 1407.41 1006.42C1407.3 1005.84 1407.14 1005.27 1406.9 1004.73C1406.66 1004.19 1406.32 1003.72 1405.88 1003.31C1405.44 1002.91 1404.87 1002.59 1404.19 1002.37C1403.5 1002.14 1402.64 1002.05 1401.61 1002.1C1400.48 1002.16 1399.55 1002.44 1398.82 1002.96C1398.1 1003.47 1397.52 1004.04 1397.1 1004.66C1396.68 1005.29 1396.39 1005.89 1396.22 1006.48C1396.06 1007.07 1395.97 1007.47 1395.97 1007.69Z"/>
</g>
<g fill="#000000" opacity="1" stroke="none" vectornatorLayerName="Text 4">
<path d="M1134.84 1024.01L1151.79 1024.01L1151.79 1018.26L1134.84 1018.26L1134.84 1024.01Z"/>
<path d="M1173.91 1025.19C1173.8 1029.24 1171.92 1031.29 1168.27 1031.32C1164.6 1031.29 1162.73 1029.24 1162.65 1025.19L1162.65 1008.18C1162.73 1004.17 1164.6 1002.12 1168.27 1002.05C1171.92 1002.12 1173.8 1004.17 1173.91 1008.18L1173.91 1025.19ZM1156.9 1025.52C1156.94 1029.21 1158.12 1032.05 1160.45 1034.05C1162.64 1036.03 1165.24 1037.04 1168.27 1037.08C1171.39 1037.04 1174.04 1036.03 1176.22 1034.05C1178.44 1032.05 1179.58 1029.21 1179.66 1025.52L1179.66 1007.83C1179.58 1004.12 1178.44 1001.27 1176.22 999.27C1174.04 997.289 1171.39 996.298 1168.27 996.298C1165.24 996.298 1162.64 997.289 1160.45 999.27C1158.12 1001.27 1156.94 1004.12 1156.9 1007.83L1156.9 1025.52Z"/>
<path d="M1185.68 1036.74L1191.43 1036.74L1191.43 1030.99L1185.68 1030.99L1185.68 1036.74Z"/>
<path d="M1206.24 1002.71L1206.24 1036.74L1211.99 1036.74L1211.99 996.629L1206.24 996.629L1200.54 1000.78L1200.54 1006.89L1200.54 1006.89L1206.24 1002.71Z"/>
</g>
<g fill="#000000" opacity="1" stroke="none" vectornatorLayerName="Text 3">
<path d="M961.345 1020.3L949.297 1020.3L949.297 1024.7L961.345 1024.7L961.345 1036.74L965.745 1036.74L965.745 1024.7L977.793 1024.7L977.793 1020.3L965.745 1020.3L965.745 1008.25L961.345 1008.25L961.345 1020.3Z"/>
<path d="M999.605 1025.19C999.495 1029.24 997.615 1031.29 993.966 1031.33C990.299 1031.29 988.428 1029.24 988.355 1025.19L988.355 1008.19C988.428 1004.18 990.299 1002.13 993.966 1002.06C997.615 1002.13 999.495 1004.18 999.605 1008.19L999.605 1025.19ZM982.606 1025.52C982.643 1029.21 983.826 1032.05 986.155 1034.05C988.337 1036.03 990.941 1037.04 993.966 1037.07C997.083 1037.04 999.733 1036.03 1001.92 1034.05C1004.13 1032.05 1005.28 1029.21 1005.35 1025.52L1005.35 1007.84C1005.28 1004.13 1004.13 1001.28 1001.92 999.282C999.733 997.302 997.083 996.312 993.966 996.312C990.941 996.312 988.337 997.302 986.155 999.282C983.826 1001.28 982.643 1004.13 982.606 1007.84L982.606 1025.52Z"/>
<path d="M1011.38 1036.74L1017.13 1036.74L1017.13 1031L1011.38 1031L1011.38 1036.74Z"/>
<path d="M1023.86 1008.19L1029.61 1008.19L1029.61 1002.39L1040.26 1002.39L1026.7 1036.74L1033.11 1036.74L1046.69 1002.39L1046.69 996.642L1023.86 996.642L1023.86 1008.19Z"/>
</g>
<g fill="#ff3636" opacity="1" stroke="none" vectornatorLayerName="Text 2">
<path d="M772.865 1020.3L760.821 1020.3L760.821 1024.7L772.865 1024.7L772.865 1036.74L777.265 1036.74L777.265 1024.7L789.309 1024.7L789.309 1020.3L777.265 1020.3L777.265 1008.26L772.865 1008.26L772.865 1020.3Z"/>
<path d="M802.893 1002.73L802.893 1036.74L808.64 1036.74L808.64 996.653L802.893 996.653L797.201 1000.81L797.201 1006.91L797.201 1006.91L802.893 1002.73Z"/>
<path d="M822.884 1036.74L828.631 1036.74L828.631 1031L822.884 1031L822.884 1036.74Z"/>
<path d="M834.323 1036.74L857.174 1036.74L857.174 1031L841.857 1031L854.754 1014.83C856.367 1012.78 857.174 1010.43 857.174 1007.79C857.137 1004.49 856.028 1001.77 853.846 999.623C851.701 997.46 848.906 996.36 845.459 996.323C842.38 996.36 839.786 997.441 837.678 999.568C835.588 1001.75 834.469 1004.51 834.323 1007.84L840.042 1007.84C840.244 1006.01 840.886 1004.59 841.967 1003.58C843.012 1002.57 844.323 1002.07 845.899 1002.07C847.678 1002.11 849.053 1002.68 850.024 1003.8C850.959 1004.92 851.426 1006.23 851.426 1007.73C851.426 1008.3 851.353 1008.91 851.207 1009.55C850.987 1010.23 850.574 1010.96 849.969 1011.75L834.323 1031.33L834.323 1036.74Z"/>
</g>
<g fill="#000000" opacity="1" stroke="none" vectornatorLayerName="Text 1">
<path d="M561.579 1024.01L578.528 1024.01L578.528 1018.26L561.579 1018.26L561.579 1024.01Z"/>
<path d="M583.315 1036.74L606.18 1036.74L606.18 1030.99L590.854 1030.99L603.759 1014.82C605.373 1012.76 606.18 1010.41 606.18 1007.77C606.143 1004.47 605.034 1001.75 602.851 999.6C600.705 997.436 597.907 996.335 594.459 996.298C591.377 996.335 588.782 997.417 586.672 999.545C584.581 1001.73 583.462 1004.49 583.315 1007.83L589.038 1007.83C589.24 1005.99 589.882 1004.57 590.964 1003.56C592.01 1002.55 593.322 1002.05 594.899 1002.05C596.678 1002.09 598.054 1002.66 599.026 1003.78C599.962 1004.9 600.429 1006.21 600.429 1007.72C600.429 1008.29 600.356 1008.89 600.209 1009.53C599.989 1010.21 599.577 1010.95 598.971 1011.73L583.315 1031.32L583.315 1036.74Z"/>
<path d="M612.426 1036.74L618.176 1036.74L618.176 1030.99L612.426 1030.99L612.426 1036.74Z"/>
<path d="M624.862 1018.31L630.283 1018.31C630.961 1017.08 631.732 1016.22 632.594 1015.72C633.456 1015.25 634.41 1015.01 635.455 1015.01C636.629 1015.01 637.611 1015.17 638.4 1015.5C639.188 1015.91 639.784 1016.45 640.188 1017.13C640.94 1018.56 641.298 1020.42 641.261 1022.71C641.261 1023.65 641.243 1024.61 641.206 1025.6C641.133 1026.61 640.931 1027.55 640.601 1028.41C640.289 1029.27 639.739 1029.97 638.95 1030.5C638.124 1031.05 637.024 1031.32 635.648 1031.32C632.438 1031.29 630.521 1029.73 629.898 1026.65L624.147 1026.65C624.697 1030.33 626.119 1033 628.412 1034.65C630.668 1036.27 633.153 1037.08 635.868 1037.08C637.886 1037.04 639.629 1036.57 641.096 1035.67C642.6 1034.81 643.747 1033.86 644.535 1032.81C645.434 1031.75 646.076 1030.53 646.461 1029.15C646.828 1027.76 647.012 1025.76 647.012 1023.15C647.012 1021.47 646.957 1020.04 646.847 1018.89C646.736 1017.75 646.553 1016.79 646.296 1016C645.801 1014.55 644.994 1013.27 643.875 1012.17C643.123 1011.35 642.142 1010.65 640.931 1010.08C639.647 1009.57 638.234 1009.29 636.694 1009.26C634.291 1009.26 632.154 1009.99 630.283 1011.46L630.283 1011.46L630.283 1002.38L646.241 1002.38L646.241 996.629L624.862 996.629L624.862 1018.31Z"/>
</g>
<g opacity="1" vectornatorLayerName="Curve 18">
<path d="M926.625 92.0312C924.787 94.5833 922.934 97.1368 920.969 99.5938C918.031 103.266 914.95 106.801 911.969 110.438C905.378 118.477 898.936 126.623 892 134.375C889.805 136.828 887.597 139.286 885.312 141.656C883.027 144.027 880.615 146.31 878.438 148.781C876.751 150.695 875.174 152.706 873.531 154.656C869.994 158.857 866.486 163.058 862.938 167.25C855.35 176.211 847.588 185.035 839.969 193.969C834.014 200.951 828.176 208.01 822.344 215.094C820.184 217.717 817.917 220.275 815.844 222.969C811.703 228.35 807.914 234.007 803.969 239.531C796.282 250.296 788.569 261.033 780.438 271.469C790.084 262.359 799.41 252.916 808.531 243.281C813.206 238.344 817.949 233.445 822.375 228.281C824.798 225.455 827.041 222.468 829.406 219.594C834.981 212.817 840.607 206.079 846.344 199.438C855.708 188.596 865.221 177.88 874.469 166.938C878.024 162.73 881.66 158.577 885.031 154.219C886.387 152.467 887.617 150.593 888.844 148.75C890.482 146.289 892.114 143.817 893.781 141.375C899.612 132.837 905.396 124.293 911.031 115.625C914.452 110.364 918.187 105.322 921.656 100.094C923.401 97.4651 925.016 94.7436 926.625 92.0312Z" fill="#000000" stroke="none"/>
</g>
<g opacity="1" vectornatorLayerName="Curve 19">
<path d="M956.125 96.625C954.225 107.83 953.283 119.149 952.375 130.469C951.924 136.089 951.266 141.711 951 147.344C950.88 149.894 950.917 152.448 950.875 155C950.784 160.623 950.599 166.253 950.469 171.875C950.161 185.19 949.78 198.493 949.75 211.812C949.737 217.44 949.572 223.097 949.875 228.719C950.014 231.291 950.452 233.854 950.781 236.406C951.242 239.978 951.638 243.577 952.031 247.156C953.654 261.946 955.445 276.711 957.781 291.406C957.033 277.116 956.669 262.807 957.156 248.5C957.295 244.418 957.501 240.32 957.844 236.25C958.057 233.71 958.364 231.175 958.438 228.625C958.54 225.069 958.388 221.495 958.375 217.938C958.345 209.784 958.356 201.622 958.438 193.469C958.55 182.239 958.804 171.008 959.062 159.781C959.157 155.7 959.43 151.613 959.438 147.531C959.447 141.827 958.851 136.115 958.375 130.438C957.43 119.167 956.266 107.945 956.125 96.625Z" fill="#000000" stroke="none"/>
</g>
<g opacity="1" vectornatorLayerName="Curve 20">
<path d="M744.781 339.531C730.281 355.237 715.695 370.84 700.75 386.125C696.074 390.907 691.377 395.669 686.594 400.344C683.484 403.382 680.232 406.302 677.219 409.438C673.747 413.049 670.458 416.851 667.094 420.562C661.707 426.505 656.323 432.431 650.938 438.375C632.456 458.77 614.035 479.244 595.469 499.562C588.836 506.821 582.694 514.507 576.406 522.062C571.777 527.625 566.976 533.056 562.469 538.719C555.588 547.364 550.082 557.03 541.906 564.594C550.948 557.997 557.481 549.096 565.344 541.281C567.887 538.754 570.537 536.357 573.125 533.875C580.244 527.047 587.384 520.209 594.281 513.156C598.271 509.076 602.051 504.825 605.844 500.562C609.976 495.918 614.17 491.326 618.344 486.719C632.374 471.231 646.545 455.852 660.656 440.438C665.625 435.01 670.555 429.574 675.5 424.125C678.194 421.157 680.958 418.235 683.562 415.188C686.173 412.133 688.549 408.877 691.031 405.719C694.756 400.98 698.568 396.297 702.375 391.625C716.521 374.265 730.74 356.976 744.781 339.531Z" fill="#000000" stroke="none"/>
</g>
<g opacity="1" vectornatorLayerName="Curve 21">
<path d="M758.656 338.125C755.892 346.244 754.684 354.751 752.656 363.062C750.985 369.912 749.04 376.703 747.281 383.531C746.352 387.14 745.378 390.768 744.719 394.438C744.122 397.758 743.679 401.101 743.188 404.438C742.348 410.134 741.574 415.854 741.094 421.594C740.562 427.945 740.338 434.312 739.719 440.656C739.3 444.949 738.691 449.229 738.094 453.5C737.133 460.366 736.092 467.207 735.062 474.062C734.512 477.73 733.887 481.408 733.469 485.094C733.153 487.875 733.089 490.675 732.969 493.469C732.828 496.735 732.617 500.017 732.438 503.281C732.147 508.555 731.762 513.816 731.531 519.094C730.989 531.483 730.693 543.867 730 556.25C732.208 541.565 733.75 526.777 736.375 512.156C737.356 506.689 738.459 501.254 739.719 495.844C740.454 492.685 741.355 489.535 741.938 486.344C742.851 481.332 743.476 476.258 744.219 471.219C745.44 462.934 746.631 454.632 747.594 446.312C748.697 436.774 748.8 427.167 749.844 417.625C750.321 413.261 750.897 408.902 751.562 404.562C752.064 401.29 752.761 398.029 753.219 394.75C753.783 390.709 754.212 386.65 754.656 382.594C755.182 377.79 755.749 372.994 756.25 368.188C756.523 365.569 756.799 362.94 756.969 360.312C757.451 352.86 757.4 345.519 758.656 338.125Z" fill="#000000" stroke="none"/>
</g>
<g opacity="1" vectornatorLayerName="Curve 22">
<path d="M790.531 332.125C794.853 345.463 799.908 358.511 805.406 371.406C808.01 377.513 810.57 383.667 813.438 389.656C815.149 393.231 817.097 396.678 818.875 400.219C822.716 407.868 826.473 415.577 829.938 423.406C835.801 436.658 840.862 450.254 846.125 463.75C849.267 471.807 852.251 479.96 856.344 487.594C861.137 496.533 865.914 505.553 871.5 514.031C876.046 520.932 881.06 527.509 885.656 534.375C887.168 536.633 888.696 538.92 890.094 541.25C891.493 543.583 892.741 546.028 894.062 548.406C892.946 545.917 891.886 543.388 890.688 540.938C889.487 538.483 888.164 536.049 886.844 533.656C884.186 528.841 881.299 524.132 878.594 519.344C875.261 513.446 872.196 507.464 869.562 501.219C867.772 496.974 866.096 492.668 864.594 488.312C863.521 485.202 862.619 482.02 861.469 478.938C860.551 476.479 859.513 474.059 858.531 471.625C856.805 467.345 855.114 463.049 853.438 458.75C846.903 441.997 840.273 425.288 832.5 409.062C830.193 404.248 827.775 399.502 825.406 394.719C823.932 391.741 822.481 388.722 820.875 385.812C817.352 379.43 813.491 373.243 809.781 366.969C803.019 355.533 796.43 344.034 790.531 332.125Z" fill="#000000" stroke="none"/>
</g>
<g opacity="1" vectornatorLayerName="Curve 23">
<path d="M944.469 331.656C942.269 333.826 940.102 336.023 938.094 338.375C935.149 341.824 932.437 345.456 929.531 348.938C927.241 351.682 924.813 354.291 922.344 356.875C913.703 365.916 904.44 374.355 896.031 383.625C893.057 386.904 890.179 390.27 887.219 393.562C884.659 396.409 882.017 399.179 879.5 402.062C873.65 408.765 867.79 415.472 862.062 422.281C854.381 431.413 846.913 440.718 839.375 449.969C829.422 462.183 819.271 474.269 809.531 486.656C806.354 490.697 803.107 494.677 800.094 498.844C796.612 503.658 793.477 508.734 790.25 513.719C788.285 516.754 786.27 519.751 784.25 522.75C775.095 536.343 765.789 549.83 757.906 564.219C769.532 547.909 783.212 533.282 795.812 517.75C799.529 513.169 803.236 508.542 806.844 503.875C809.326 500.663 811.703 497.367 814.188 494.156C816.674 490.944 819.201 487.787 821.75 484.625C829.45 475.075 837.342 465.675 845.156 456.219C852.981 446.75 860.736 437.233 868.656 427.844C873.333 422.299 878.214 416.905 882.906 411.375C889.356 403.773 894.375 395.108 900.281 387.094C908.881 375.426 918.946 364.954 927.969 353.625C931.769 348.854 934.965 343.646 938.594 338.75C940.429 336.274 942.431 333.964 944.469 331.656Z" fill="#000000" stroke="none"/>
</g>
<g opacity="1" vectornatorLayerName="Curve 24">
<path d="M956.281 341.656C953.694 352.614 950.596 363.42 947.312 374.188C945.265 380.903 943.054 387.583 941.156 394.344C940.303 397.383 939.734 400.487 939.031 403.562C937.538 410.101 935.959 416.645 934.625 423.219C931.719 437.543 929.509 451.969 927.688 466.469C927.212 470.252 926.747 474.06 926.281 477.844C926.024 479.937 925.709 482.021 925.562 484.125C925.356 487.081 925.394 490.071 925.281 493.031C925.075 498.448 924.756 503.848 924.312 509.25C923.135 523.608 921.576 537.946 920.5 552.312C923.318 535.978 926.652 519.758 930.031 503.531C930.699 500.325 931.377 497.102 932.094 493.906C932.746 491 933.512 488.122 934.031 485.188C934.547 482.276 934.801 479.278 935.156 476.344C935.766 471.314 936.392 466.307 937.031 461.281C937.879 454.621 938.72 447.938 939.812 441.312C940.666 436.135 941.689 430.976 942.625 425.812C943.179 422.756 943.898 419.722 944.562 416.688C945.383 412.938 946.188 409.199 947.094 405.469C947.838 402.403 948.688 399.351 949.281 396.25C950.274 391.064 951.103 385.843 951.906 380.625C953.896 367.695 955.401 354.71 956.281 341.656Z" fill="#000000" stroke="none"/>
</g>
<g opacity="1" vectornatorLayerName="Curve 25">
<path d="M980.812 338.094C983.404 343.616 986.789 348.716 988.812 354.5C990.761 360.07 991.819 365.908 993.469 371.562C994.892 376.442 996.745 381.172 998.812 385.812C1000.25 389.038 1001.78 392.225 1003.44 395.344C1005.05 398.386 1006.8 401.387 1008.34 404.469C1012.16 412.095 1015.65 419.871 1019.12 427.656C1021.47 432.899 1023.79 438.174 1026.16 443.406C1027.72 446.864 1029.38 450.277 1030.84 453.781C1032.72 458.284 1034.22 462.939 1036.03 467.469C1037.74 471.741 1039.64 475.946 1041.62 480.094C1042.41 481.725 1043.18 483.359 1044.06 484.938C1046.81 489.85 1049.96 494.559 1052.31 499.688C1055.26 506.108 1057.18 512.949 1059.81 519.5C1064.27 530.615 1069.46 541.437 1074.19 552.438C1070.45 541.106 1066.17 529.949 1062.91 518.469C1060.61 510.398 1059.23 502.04 1056.41 494.125C1054.73 489.422 1053.16 484.628 1051.12 480.062C1048.78 474.786 1046.18 469.614 1044.03 464.25C1042.2 459.677 1040.65 455.005 1038.72 450.469C1037.34 447.22 1035.77 444.043 1034.28 440.844C1032.62 437.284 1031.03 433.701 1029.41 430.125C1024.22 418.673 1019.08 407.161 1013.34 395.969C1009.77 388.993 1005.22 382.609 1001.5 375.719C997.606 368.511 995.205 360.642 991.375 353.406C988.457 347.893 984.261 343.256 980.812 338.094Z" fill="#000000" stroke="none"/>
</g>
<g opacity="1" vectornatorLayerName="Curve 26">
<path d="M1192.56 336.156C1192.84 340.697 1193.4 345.191 1194.28 349.656C1196.01 358.447 1198.72 366.972 1201.22 375.562C1203.61 383.797 1205.47 392.149 1207.53 400.469C1210.79 413.646 1212.66 427.164 1216.19 440.281C1218.08 447.331 1220.65 454.168 1222.84 461.125C1224.65 466.848 1226.21 472.648 1227.78 478.438C1228.6 481.437 1229.32 484.481 1230.28 487.438C1231.11 489.991 1232.1 492.481 1233.03 495C1234.12 497.944 1235.19 500.911 1236.22 503.875C1239.45 513.17 1242.61 522.524 1246.28 531.656C1249.56 539.792 1253.19 547.758 1256.44 555.906C1253.94 547.51 1251.03 539.261 1248.5 530.875C1246.97 525.8 1245.73 520.624 1244.5 515.469C1242.95 508.959 1241.6 502.389 1240.38 495.812C1239.72 492.297 1239.24 488.75 1238.5 485.25C1238.13 483.505 1237.65 481.754 1237.19 480.031C1235.27 472.824 1233.29 465.6 1231 458.5C1228.56 450.938 1225.67 443.526 1223.72 435.812C1221.05 425.238 1219.11 414.502 1216.81 403.844C1215.98 399.992 1215.23 396.114 1214.19 392.312C1212.91 387.642 1211.1 383.112 1209.22 378.656C1206.47 372.127 1203.32 365.786 1200.44 359.312C1197.11 351.821 1194.31 344.178 1192.56 336.156Z" fill="#000000" stroke="none"/>
</g>
<g opacity="1" vectornatorLayerName="Curve 27">
<path d="M1197.16 334.625C1203.15 339.059 1207.96 344.674 1213.16 349.969C1215.24 352.088 1217.36 354.189 1219.41 356.344C1223.04 360.171 1226.51 364.113 1229.97 368.094C1237.55 376.815 1244.81 385.845 1252.81 394.188C1255.94 397.448 1259.24 400.554 1262.44 403.75C1268.82 410.137 1275.2 416.529 1281.53 422.969C1287.23 428.76 1292.85 434.637 1298.5 440.469C1302.89 444.997 1307.35 449.455 1311.69 454.031C1315.72 458.281 1319.63 462.65 1323.62 466.938C1329.46 473.208 1335.34 479.431 1341.16 485.719C1345.22 490.109 1349.2 494.636 1352.97 499.281C1359.49 507.323 1365.59 515.685 1372.72 523.219C1385.72 536.95 1400.65 548.703 1415.38 560.5C1404.34 550.405 1393.15 540.402 1383.09 529.312C1379.43 525.278 1375.84 521.133 1372.59 516.75C1367.87 510.368 1363.69 503.644 1359.5 496.906C1356.53 492.125 1353.64 487.202 1350.06 482.844C1347.8 480.092 1345.3 477.539 1342.88 474.938C1340.1 471.966 1337.34 468.972 1334.56 466C1329 460.046 1323.48 454.039 1317.84 448.156C1313.77 443.906 1309.62 439.737 1305.5 435.531C1294.43 424.22 1283.3 412.958 1272.12 401.75C1267.66 397.272 1263.33 392.649 1258.78 388.25C1257.05 386.573 1255.26 384.933 1253.5 383.281C1245.76 376.01 1238.26 368.492 1230.41 361.344C1225.36 356.754 1220.13 352.426 1214.84 348.125C1209.07 343.428 1203.63 338.374 1197.16 334.625Z" fill="#000000" stroke="none"/>
</g>
<g opacity="1" vectornatorLayerName="Curve 28">
<path d="M497.031 621.875C496.658 626.416 495.887 630.862 494.656 635.25C492.782 641.93 490.028 648.318 487.312 654.688C485.333 659.332 483.391 664.014 481.406 668.656C478.929 674.452 476.481 680.244 474.375 686.188C466.274 709.052 457.705 731.737 449.156 754.438C446.042 762.707 442.577 770.858 439.625 779.188C438.716 781.753 438.049 784.422 437.281 787.031C436.157 790.852 434.892 794.631 433.625 798.406C429.817 809.757 425.732 821.021 422.312 832.5C420.036 840.141 418.126 847.851 416.656 855.688C421.405 838.417 428.564 822.06 436.219 805.906C438.359 801.389 440.544 796.892 442.75 792.406C444.399 789.054 446.149 785.73 447.594 782.281C449.173 778.513 450.593 774.656 452.062 770.844C454.887 763.515 457.684 756.18 460.406 748.812C466.549 732.19 472.589 715.557 478.656 698.906C480.501 693.843 482.53 688.795 484.156 683.656C486.826 675.221 489.108 666.651 491.469 658.125C493.758 649.855 496.037 641.503 496.875 632.938C497.236 629.252 497.254 625.569 497.031 621.875Z" fill="#000000" stroke="none"/>
</g>
<g opacity="1" vectornatorLayerName="Curve 29">
<path d="M539.312 626.562C543.036 639.778 546.069 653.174 549.094 666.562C550.823 674.216 552.383 681.932 554.469 689.5C555.829 694.435 557.514 699.298 559.031 704.188C562.256 714.577 565.496 724.953 568.719 735.344C572.665 748.068 576.563 760.817 580.438 773.562C582.065 778.916 583.493 784.343 585.25 789.656C586.315 792.877 587.65 796.002 588.812 799.188C590.485 803.769 592.036 808.389 593.531 813.031C599.19 830.6 604.093 848.405 609.25 866.125C605.563 848.018 602 829.9 598.375 811.781C597.413 806.972 596.418 802.161 595.5 797.344C594.857 793.97 594.305 790.544 593.438 787.219C592.73 784.506 591.89 781.844 591.094 779.156C589.695 774.436 588.283 769.708 586.844 765C582.326 750.225 577.591 735.514 572.938 720.781C570.509 713.094 568.097 705.422 565.719 697.719C564.628 694.185 563.651 690.578 562.5 687.062C560.214 680.085 557.604 673.211 555.094 666.312C550.218 652.912 545.072 639.61 539.312 626.562Z" fill="#000000" stroke="none"/>
</g>
<g opacity="1" vectornatorLayerName="Curve 30">
<path d="M700.062 622.938C696.159 632.32 692.205 641.662 688.344 651.062C684.515 660.384 680.767 669.775 677.781 679.406C675.733 686.012 674.301 692.787 672.656 699.5C670.655 707.668 668.723 715.86 666.375 723.938C665.208 727.951 663.919 731.963 662.625 735.938C658.969 747.164 654.368 758.083 649.969 769.031C648.103 773.673 646.078 778.302 644.531 783.062C640.732 794.754 639.007 806.985 635.719 818.812C634.886 821.809 634.009 824.821 632.875 827.719C631.353 831.609 629.452 835.386 628.188 839.375C626.975 843.2 626.401 847.188 625.375 851.062C624.614 853.936 623.596 856.665 622.312 859.344C624.069 856.341 625.431 853.237 626.531 849.938C627.637 846.621 628.483 843.208 629.812 839.969C631.794 835.141 634.696 830.747 636.781 825.969C640.64 817.128 643.341 807.875 646.781 798.875C647.712 796.44 648.714 794.02 649.812 791.656C650.836 789.453 651.956 787.281 652.875 785.031C655.485 778.646 658.001 772.218 660.562 765.812C664.162 756.813 667.742 747.77 670.688 738.531C671.984 734.464 673.241 730.357 674.406 726.25C677.168 716.518 679.469 706.644 681.844 696.812C682.711 693.223 683.741 689.656 684.594 686.062C686.048 679.932 687.146 673.727 688.594 667.594C692.124 652.636 696.217 637.817 700.062 622.938Z" fill="#000000" stroke="none"/>
</g>
<g opacity="1" vectornatorLayerName="Curve 31">
<path d="M741.312 623.562C743.235 637.858 747.936 651.475 751.469 665.406C753 671.446 754.088 677.583 755.469 683.656C756.274 687.2 757.298 690.704 758.219 694.219C759.301 698.352 760.317 702.479 761.469 706.594C765.064 719.436 769.719 731.952 773.844 744.625C776.286 752.129 778.46 759.689 780.5 767.312C781.744 771.961 782.785 776.709 784.188 781.312C785.602 785.955 787.378 790.487 788.906 795.094C791.697 803.51 794.276 812.021 797.25 820.375C801.257 831.63 805.866 842.646 810.188 853.781C806.541 841.324 802.435 828.972 799.531 816.312C797.802 808.774 796.207 801.207 794.844 793.594C793.988 788.816 793.404 783.975 792.438 779.219C791.665 775.416 790.591 771.655 789.594 767.906C788.088 762.248 786.523 756.6 784.812 751C780.73 737.637 775.545 724.654 771.5 711.281C769.586 704.952 767.873 698.566 766.25 692.156C765.358 688.633 764.602 685.056 763.594 681.562C762.407 677.451 761.04 673.402 759.594 669.375C754.03 653.882 745.877 639.428 741.312 623.562Z" fill="#000000" stroke="none"/>
</g>
<g opacity="1" vectornatorLayerName="Curve 32">
<path d="M750.562 623.062C759.303 631.604 765.918 641.886 773.156 651.656C778.265 658.552 783.53 665.328 788.688 672.188C794.387 679.768 799.999 687.397 806.031 694.719C812.809 702.946 819.339 711.42 826.438 719.375C832.073 725.69 837.997 731.727 843.812 737.875C850.191 744.618 856.461 751.463 862.656 758.375C868.404 764.788 874.076 771.254 879.656 777.812C883.466 782.29 887.116 786.936 890.969 791.375C893.821 794.661 896.811 797.832 899.656 801.125C907.781 810.53 915.388 820.348 923.094 830.094C933.99 843.875 945.013 857.538 957.156 870.25C942.571 852.89 929.882 834.112 917.344 815.25C913.279 809.135 909.217 803.034 905.125 796.938C902.464 792.973 899.894 788.911 896.938 785.156C891.864 778.714 886.505 772.498 881.125 766.312C872.58 756.486 863.818 746.839 854.906 737.344C845.094 726.89 834.799 716.866 825.719 705.75C822.56 701.883 819.439 697.986 816.312 694.094C813.494 690.585 810.74 687.013 807.812 683.594C797.668 671.745 786.811 660.535 776.219 649.094C767.93 640.14 760.215 630.626 750.562 623.062Z" fill="#000000" stroke="none"/>
</g>
<g opacity="1" vectornatorLayerName="Curve 33">
<path d="M896.25 622.406C892.256 632.189 889.036 642.266 885.688 652.281C884.269 656.524 882.884 660.78 881.312 664.969C879.1 670.865 876.503 676.604 874.375 682.531C873.024 686.294 871.897 690.148 870.625 693.938C866.597 705.934 862.707 717.992 858.906 730.062C855.51 740.849 852.211 751.647 849.031 762.5C847.349 768.242 845.607 773.984 844.125 779.781C843.134 783.657 842.526 787.635 841.781 791.562C840.911 796.148 839.989 800.707 839.062 805.281C835.492 822.912 831.847 840.544 828.5 858.219C833.308 840.907 838.285 823.651 843.844 806.562C845.488 801.508 847.198 796.458 849.031 791.469C850.175 788.354 851.406 785.269 852.375 782.094C854.692 774.498 856.742 766.811 858.969 759.188C862.683 746.472 866.514 733.789 870.5 721.156C873.294 712.302 876.135 703.477 879.125 694.688C880.195 691.544 881.364 688.413 882.375 685.25C883.39 682.076 884.307 678.87 885.188 675.656C889.985 658.148 891.865 640.008 896.25 622.406Z" fill="#000000" stroke="none"/>
</g>
<g opacity="1" vectornatorLayerName="Curve 34">
<path d="M934.188 624.031C937.06 638.573 940.002 653.115 943.031 667.625C944.618 675.228 946.049 682.887 947.875 690.438C948.829 694.38 950.032 698.256 951.031 702.188C953.821 713.17 956.458 724.172 958.844 735.25C961.874 749.319 964.537 763.48 967.344 777.594C968.202 781.908 969.079 786.224 969.969 790.531C970.475 792.984 970.934 795.45 971.562 797.875C972.357 800.937 973.357 803.945 974.281 806.969C975.357 810.487 976.366 814.033 977.406 817.562C980.571 828.302 983.637 839.055 987.438 849.594C988.293 851.965 989.168 854.337 990.156 856.656C991.844 860.618 993.757 864.477 995.375 868.469C996.461 871.149 997.314 873.893 998.156 876.656C997.532 873.823 996.875 871.019 996 868.25C994.485 863.458 992.603 858.794 991.094 854C989.297 848.292 987.917 842.441 986.656 836.594C984.831 828.132 983.244 819.588 981.938 811.031C981.37 807.311 980.855 803.603 980.344 799.875C980.089 798.015 979.876 796.159 979.531 794.312C977.923 785.699 976.073 777.121 974.344 768.531C971.988 756.831 969.615 745.121 967.031 733.469C963.916 719.419 960.506 705.425 956.875 691.5C954.536 682.529 951.371 673.767 948.375 665C943.702 651.327 938.871 637.701 934.188 624.031Z" fill="#000000" stroke="none"/>
</g>
<g opacity="1" vectornatorLayerName="Curve 35">
<path d="M1074.41 627.25C1068.8 641.687 1064.33 656.464 1060.06 671.344C1058.18 677.917 1056.16 684.467 1054.47 691.094C1053.77 693.832 1053.16 696.595 1052.5 699.344C1051.58 703.196 1050.53 707.038 1049.44 710.844C1046.1 722.422 1042.16 733.797 1038.53 745.281C1035.13 756.042 1032.17 766.904 1029.41 777.844C1027.96 783.561 1026.38 789.286 1025.19 795.062C1024.47 798.545 1024.02 802.083 1023.47 805.594C1022.73 810.279 1021.93 814.952 1021.12 819.625C1017.84 838.647 1014.64 857.68 1011.84 876.781C1016.06 858.383 1020.53 840.05 1025.75 821.906C1027.17 816.982 1028.62 812.097 1030.19 807.219C1031.27 803.846 1032.51 800.506 1033.47 797.094C1034.53 793.319 1035.4 789.46 1036.34 785.656C1038.68 776.287 1040.96 766.907 1043.62 757.625C1046.95 746.045 1050.87 734.63 1054.44 723.125C1057.01 714.832 1059.35 706.483 1061.47 698.062C1063.99 688.059 1065.31 677.773 1066.91 667.594C1069.03 654.058 1071.23 640.587 1074.41 627.25Z" fill="#000000" stroke="none"/>
</g>
<g opacity="1" vectornatorLayerName="Curve 36">
<path d="M1107.19 624.875C1107.73 637.862 1111.21 650.453 1113.81 663.125C1115.74 672.506 1117.42 681.932 1119.5 691.281C1120.38 695.222 1121.54 699.089 1122.53 703C1124.89 712.289 1127.18 721.615 1129.53 730.906C1133.29 745.767 1136.72 760.674 1140.09 775.625C1141.15 780.28 1142.2 784.937 1143.25 789.594C1143.95 792.699 1144.59 795.828 1145.41 798.906C1146.36 802.509 1147.6 806.042 1148.72 809.594C1150.32 814.669 1151.84 819.78 1153.38 824.875C1158.9 843.232 1164.65 861.489 1171.31 879.469C1166.53 862.619 1162.34 845.612 1159.03 828.406C1157.73 821.632 1156.5 814.848 1155.44 808.031C1154.87 804.364 1154.46 800.645 1153.75 797C1153.15 793.883 1152.39 790.815 1151.69 787.719C1150.75 783.578 1149.82 779.421 1148.88 775.281C1145.92 762.314 1142.87 749.358 1139.59 736.469C1136.96 726.105 1134.28 715.774 1131.66 705.406C1130.42 700.509 1129.32 695.571 1128.03 690.688C1126.87 686.288 1125.47 681.92 1124.06 677.594C1121.54 669.833 1119.02 662.073 1116.22 654.406C1112.68 644.709 1109 635.077 1107.19 624.875Z" fill="#000000" stroke="none"/>
</g>
<g opacity="1" vectornatorLayerName="Curve 37">
<path d="M1245.03 616C1233.14 630.546 1220.55 644.457 1207.56 658.031C1199.61 666.342 1191.35 674.369 1183.47 682.75C1179.53 686.943 1175.75 691.277 1171.84 695.5C1162.26 705.856 1152.62 716.159 1143.19 726.656C1135.89 734.771 1129.59 743.691 1122.53 752C1119.17 755.962 1115.71 759.852 1112.34 763.812C1107.08 769.997 1101.94 776.276 1096.84 782.594C1093.75 786.43 1090.53 790.236 1087.62 794.219C1083.68 799.629 1079.97 805.205 1076.12 810.688C1070.47 818.744 1064.73 826.725 1058.91 834.656C1046.72 851.245 1033.15 866.856 1022.59 884.594C1032.48 870.007 1044.42 857.101 1056 843.875C1062.85 836.052 1069.47 828.029 1076.22 820.125C1081.02 814.506 1085.93 808.988 1090.81 803.438C1097.76 795.534 1104.17 787.193 1110.84 779.062C1114.39 774.74 1118 770.446 1121.62 766.188C1124.74 762.527 1127.92 758.908 1130.97 755.188C1136.58 748.332 1141.75 741.125 1147.53 734.406C1151.88 729.353 1156.43 724.475 1160.94 719.562C1167.29 712.631 1173.66 705.701 1180.06 698.812C1183.27 695.357 1186.54 691.955 1189.69 688.438C1196.69 680.609 1203.29 672.388 1209.84 664.188C1222.28 648.637 1234.05 632.606 1245.03 616Z" fill="#000000" stroke="none"/>
</g>
<g opacity="1" vectornatorLayerName="Curve 38">
<path d="M1264.25 628.188C1260.45 642.051 1256.55 655.877 1252.56 669.688C1250.32 677.442 1247.85 685.126 1245.81 692.938C1245.13 695.539 1244.57 698.193 1243.97 700.812C1243.17 704.302 1242.29 707.78 1241.41 711.25C1238.32 723.383 1235.05 735.444 1231.56 747.469C1228.73 757.237 1225.44 766.849 1222.06 776.438C1219.69 783.163 1217.16 789.865 1215.28 796.75C1214.57 799.343 1214.08 802.026 1213.53 804.656C1212.96 807.395 1212.37 810.116 1211.75 812.844C1209.54 822.593 1207.14 832.304 1204.84 842.031C1203.53 847.564 1202.33 853.138 1200.84 858.625C1199.13 864.94 1197.13 871.151 1195.66 877.531C1196.45 875.031 1197.25 872.554 1198.16 870.094C1199.74 865.799 1201.52 861.553 1203 857.219C1204.24 853.577 1205.34 849.899 1206.56 846.25C1209.6 837.16 1212.69 828.078 1215.94 819.062C1217.16 815.681 1218.4 812.324 1219.69 808.969C1220.92 805.751 1222.26 802.563 1223.41 799.312C1224.07 797.421 1224.63 795.47 1225.25 793.562C1226.08 791.017 1226.97 788.499 1227.84 785.969C1230.94 776.977 1234.25 768.036 1237.03 758.938C1240.99 746.011 1244.39 732.904 1247.75 719.812C1248.98 715.017 1250.16 710.206 1251.38 705.406C1252.26 701.914 1253.22 698.456 1254 694.938C1255.55 687.898 1256.6 680.737 1257.75 673.625C1260.2 658.521 1262.24 643.355 1264.25 628.188Z" fill="#000000" stroke="none"/>
</g>
<g opacity="1" vectornatorLayerName="Curve 39">
<path d="M1293.75 631.375C1298.08 647.688 1305.03 663.025 1311.19 678.688C1313.13 683.629 1314.84 688.65 1316.69 693.625C1317.73 696.418 1318.82 699.191 1319.81 702C1322.11 708.496 1324.09 715.119 1326.06 721.719C1330.09 735.149 1334.27 748.515 1338 762.031C1339.9 768.913 1341.73 775.827 1343.47 782.75C1344.45 786.635 1345.28 790.583 1346.38 794.438C1347.74 799.257 1349.49 803.953 1350.94 808.75C1354.47 820.477 1357.57 832.361 1362.38 843.656C1366.26 852.797 1371.57 861.211 1376.44 869.844C1371.78 859.756 1366.62 849.898 1363.5 839.188C1360.47 828.793 1358.69 818.058 1357.03 807.375C1356.26 802.4 1355.67 797.377 1354.69 792.438C1353.64 787.161 1352.15 781.929 1350.81 776.719C1348.46 767.553 1345.96 758.44 1343.25 749.375C1341.73 744.302 1340.1 739.245 1338.53 734.188C1336.74 728.405 1335.01 722.606 1333.25 716.812C1331.6 711.364 1329.91 705.926 1328.09 700.531C1326.54 695.941 1324.99 691.391 1323 686.969C1319.71 679.67 1315.68 672.731 1311.72 665.781C1305.3 654.522 1298.79 643.34 1293.75 631.375Z" fill="#000000" stroke="none"/>
</g>
<g opacity="1" vectornatorLayerName="Curve 40">
<path d="M1430.91 618.562C1423.42 626.378 1416.9 635.036 1409.38 642.812C1404.15 648.214 1398.65 653.337 1393.34 658.656C1385.67 666.343 1378.12 674.266 1371.03 682.5C1367.84 686.207 1364.82 690.06 1361.69 693.812C1352.86 704.374 1344.03 714.932 1334.78 725.125C1322.74 738.386 1310.01 751.003 1297.56 763.875C1290.59 771.086 1283.62 778.361 1277.16 786.031C1272.51 791.547 1268.38 797.49 1264.22 803.375C1257.48 812.897 1250.89 822.521 1244.31 832.156C1241.28 836.6 1238.25 841.036 1235.16 845.438C1230.52 852.032 1225.79 858.555 1221.34 865.281C1219.11 868.665 1217 872.123 1214.91 875.594C1217.21 872.263 1219.5 868.954 1221.94 865.719C1228.13 857.49 1234.71 849.554 1241.12 841.5C1249.76 830.664 1258.26 819.709 1267.31 809.219C1269.64 806.518 1272 803.858 1274.44 801.25C1277 798.503 1279.67 795.853 1282.25 793.125C1284.52 790.732 1286.64 788.167 1288.84 785.719C1292.37 781.8 1296 777.953 1299.62 774.125C1313.37 759.619 1327.6 745.613 1340.97 730.75C1349.88 720.838 1358.46 710.607 1367 700.375C1370.48 696.205 1374.07 692.12 1377.5 687.906C1382.97 681.184 1388.12 674.209 1393.53 667.438C1400.24 659.044 1407.44 651.031 1413.94 642.469C1419.85 634.674 1424.91 626.302 1430.91 618.562Z" fill="#000000" stroke="none"/>
</g>
<g opacity="1" vectornatorLayerName="Curve 41">
<path d="M1441.16 630.75C1436.18 643.762 1431.1 656.729 1426.06 669.719C1423.37 676.663 1420.54 683.548 1418.12 690.594C1416.84 694.35 1415.79 698.184 1414.59 701.969C1412.04 710.017 1409.48 718.066 1406.97 726.125C1400.77 745.982 1394.56 765.85 1389.03 785.906C1388.65 787.3 1388.22 788.721 1387.88 790.125C1387.01 793.65 1386.5 797.257 1385.78 800.812C1384.71 806.146 1383.55 811.445 1382.34 816.75C1378.48 833.71 1374.1 850.543 1369.38 867.281C1375.86 849.95 1381.83 832.435 1387.94 814.969C1389.5 810.514 1391.06 806.045 1392.72 801.625C1393.86 798.57 1395.09 795.543 1396.09 792.438C1397.76 787.284 1399.1 782.018 1400.59 776.812C1403.57 766.417 1406.61 756.013 1409.72 745.656C1413.57 732.839 1417.58 720.078 1421.59 707.312C1423.08 702.584 1424.77 697.915 1426.16 693.156C1428.24 686 1429.88 678.706 1431.66 671.469C1434.98 657.928 1438.08 644.347 1441.16 630.75Z" fill="#000000" stroke="none"/>
</g>
<g opacity="1" vectornatorLayerName="Curve 42">
<path d="M1464.88 624.312C1467.71 628.725 1470.3 633.28 1472.59 638C1476.53 646.091 1479.66 654.537 1482.59 663.031C1485.77 672.215 1488.51 681.601 1492.12 690.625C1494.82 697.346 1498.15 703.933 1501.62 710.281C1505.3 716.991 1509.09 723.668 1512.88 730.312C1516.75 737.101 1520.7 743.889 1524.97 750.438C1531.34 760.203 1538.59 769.341 1544.97 779.094C1547.43 782.862 1549.68 786.775 1552.06 790.594C1554.16 793.963 1556.49 797.197 1558.69 800.5C1561.83 805.208 1564.86 809.987 1567.81 814.812C1578.42 832.129 1588.21 849.902 1597.59 867.906C1589.55 849.216 1580.99 830.767 1572.16 812.438C1569.69 807.312 1567.16 802.203 1564.72 797.062C1562.42 792.225 1560.13 787.444 1557.44 782.812C1550.22 770.394 1541.13 759.237 1533.12 747.344C1530.76 743.838 1528.57 740.233 1526.38 736.625C1521.52 728.655 1516.9 720.583 1512.34 712.438C1509.96 708.17 1507.52 703.912 1505.34 699.531C1503.36 695.533 1501.68 691.38 1499.84 687.312C1496.93 680.851 1493.9 674.454 1490.91 668.031C1485.95 657.406 1480.77 646.863 1474.34 637.031C1471.45 632.605 1468.27 628.362 1464.88 624.312Z" fill="#000000" stroke="none"/>
</g>
<g opacity="1" vectornatorLayerName="Curve 43">
<path d="M983.844 87.25C991.138 99.1621 998.299 111.142 1005.78 122.938C1009.68 129.081 1013.53 135.281 1017.78 141.188C1022.17 147.286 1027.16 152.974 1031.69 158.969C1036.38 165.178 1040.78 171.619 1045.53 177.781C1049.05 182.335 1052.75 186.72 1056.38 191.188C1062.2 198.367 1068.04 205.569 1074.16 212.5C1076.22 214.843 1078.48 216.979 1080.69 219.188C1082.99 221.497 1085.22 223.914 1087.47 226.281C1093.98 233.134 1099.94 240.474 1106.47 247.312C1112.24 253.357 1118.5 258.908 1124.28 264.938C1126 266.724 1127.69 268.541 1129.28 270.438C1131.89 273.543 1134.34 276.698 1137.19 279.594C1134.59 276.475 1132.43 273.121 1130.09 269.812C1128.65 267.768 1127.08 265.788 1125.5 263.844C1119.08 255.928 1112.09 248.517 1106.06 240.281C1102.46 235.355 1099.13 230.229 1095.78 225.125C1093.94 222.316 1092.14 219.449 1090.09 216.781C1088.4 214.575 1086.35 212.637 1084.38 210.688C1082.71 209.04 1081.1 207.362 1079.56 205.594C1071.43 196.26 1063.58 186.645 1055.75 177.062C1050.25 170.339 1045.28 163.276 1040.09 156.312C1037 152.153 1033.7 148.165 1030.53 144.062C1028.5 141.43 1026.55 138.717 1024.47 136.125C1019.59 130.06 1014.47 124.21 1009.5 118.219C1000.95 107.905 992.398 97.5629 983.844 87.25Z" fill="#ff3636" stroke="none"/>
</g>
<g opacity="1" vectornatorLayerName="Curve 44">
<path d="M1154.97 338.438C1152.66 345.867 1150.06 353.25 1148.59 360.906C1147.4 367.097 1147.36 373.47 1145.81 379.594C1144.39 385.206 1142.57 390.717 1141.09 396.312C1139.87 400.921 1138.85 405.578 1137.62 410.188C1134.34 422.569 1130.77 434.869 1127.59 447.281C1125.17 456.756 1123.03 466.288 1120.81 475.812C1119.75 480.363 1118.58 484.895 1117.62 489.469C1115.64 499.001 1115.39 508.817 1114.34 518.469C1114.03 521.416 1113.67 524.348 1113.06 527.25C1112.16 531.56 1110.97 535.807 1110.44 540.188C1109.81 545.319 1109.76 550.508 1109.34 555.656C1109.14 558.235 1108.78 560.786 1108.41 563.344C1109.01 560.82 1109.59 558.309 1110.03 555.75C1110.89 550.691 1111.4 545.554 1112.47 540.531C1113.69 534.809 1116.16 529.453 1117.56 523.781C1119.26 516.911 1120.41 509.929 1122.25 503.094C1123.61 498.036 1125.54 493.158 1126.78 488.062C1129.92 475.187 1132.62 462.207 1135.81 449.344C1138.76 437.464 1142.07 425.67 1145.22 413.844C1147.02 407.104 1148.97 400.405 1150.19 393.531C1150.75 390.351 1151.2 387.139 1151.62 383.938C1151.9 381.862 1152.19 379.78 1152.31 377.688C1152.66 371.542 1151.83 365.4 1152.22 359.25C1152.67 352.26 1153.93 345.356 1154.97 338.438Z" fill="#ff3636" stroke="none"/>
</g>
<g opacity="1" vectornatorLayerName="Curve 45">
<path d="M1055.81 618.938C1043.19 634.392 1029.61 648.973 1015.81 663.375C1008.9 670.586 1001.78 677.646 995.125 685.094C989.273 691.644 983.719 698.454 977.969 705.094C966.544 718.286 954.968 731.327 943.344 744.344C933.968 754.842 924.499 765.272 915.031 775.688C912.001 779.021 908.976 782.361 905.938 785.688C903.661 788.18 901.351 790.622 899.156 793.188C896.224 796.614 893.444 800.193 890.594 803.688C886.341 808.901 882.014 814.088 877.625 819.188C866.779 831.789 855.161 843.681 844.312 856.281C838.537 862.989 833.058 869.927 827.906 877.125C840.118 862.05 854.095 848.633 868.125 835.281C875.796 827.981 883.28 820.535 890.844 813.125C895.681 808.386 900.706 803.782 905.438 798.938C908.586 795.714 911.563 792.334 914.594 789C918.767 784.411 922.933 779.819 927.094 775.219C941.854 758.899 956.421 742.407 970.906 725.844C977.962 717.776 984.963 709.642 991.969 701.531C995.124 697.878 998.368 694.298 1001.5 690.625C1007.52 683.571 1013.22 676.248 1019 669C1031.92 652.793 1044.41 636.253 1055.81 618.938Z" fill="#ff3636" stroke="none"/>
</g>
</g>
</svg>
