<?xml version="1.0" encoding="UTF-8" standalone="no"?>
<!DOCTYPE svg PUBLIC "-//W3C//DTD SVG 1.1//EN" "http://www.w3.org/Graphics/SVG/1.1/DTD/svg11.dtd">
<!-- Created with Vectornator (http://vectornator.io/) -->
<svg height="100%" stroke-miterlimit="10" style="fill-rule:nonzero;clip-rule:evenodd;stroke-linecap:round;stroke-linejoin:round;" version="1.1" viewBox="0 0 1920 1080" width="100%" xml:space="preserve" xmlns="http://www.w3.org/2000/svg" xmlns:vectornator="http://vectornator.io" xmlns:xlink="http://www.w3.org/1999/xlink">
<defs/>
<g id="Layer-1" vectornator:layerName="Layer 1">
<g opacity="1" vectornator:layerName="Curve 1">
<path d="M360.469 254.5C358.503 254.494 356.469 254.897 354.625 255.562C350.605 257.014 347.537 259.87 344.719 263C342.304 265.682 340.166 268.611 338.281 271.688C328.694 287.339 325.913 306.009 325.156 324.062C324.57 338.06 325.759 352.175 327.938 366C329.601 376.559 331.909 387.02 334.281 397.438C336.997 409.365 339.809 421.287 342.219 433.281C343.756 440.934 345.093 448.624 346.031 456.375C347.295 466.816 347.922 477.296 347.906 487.812C347.888 499.905 347.23 511.985 345.562 523.969C344.352 532.669 342.698 541.298 340.281 549.75C338.599 555.633 336.609 561.375 333.906 566.875C331.205 572.373 327.851 577.554 323.469 581.875C322.083 583.241 320.623 584.515 319 585.594C315.829 587.701 311.755 589.234 307.969 587.938C303.401 586.373 299.636 583.182 296.281 579.812C293.491 577.01 291.771 573.363 290.688 569.594C289.401 565.119 288.732 560.472 288.875 555.812C289.252 543.535 295.117 532.201 300.344 521.375C301.026 520.095 300.561 518.495 299.281 517.812C298.001 517.13 296.401 517.595 295.719 518.875C291.389 526.263 286.819 533.721 283.906 541.812C281.79 547.69 280.577 553.864 280.625 560.125C280.659 564.534 281.288 568.875 282.312 573.156C282.78 575.109 283.323 577.055 284.031 578.938C285.916 583.947 288.869 587.763 292.781 591.375C295.601 593.979 298.751 596.243 302.219 597.906C304.555 599.027 306.991 599.886 309.562 600.25C317.467 601.368 324.982 597.983 331.031 593.125C339.232 586.539 344.998 577.418 349.219 567.906C352.476 560.566 354.796 552.869 356.625 545.062C358.457 537.244 359.813 529.326 360.688 521.344C364.011 490.989 361.116 460.445 354.688 430.688C347.638 398.054 336.915 365.769 336.344 332.094C336.137 319.877 336.841 307.458 339.781 295.562C341.28 289.5 343.244 283.402 346.188 277.875C346.999 276.351 347.91 274.868 348.875 273.438C349.594 272.373 350.354 271.347 351.156 270.344C354.115 266.643 357.858 262.198 363.156 263.875C364.044 264.156 364.919 264.567 365.688 265.094C366.714 265.797 367.577 266.687 368.312 267.688C369.323 269.063 370.121 270.624 370.531 272.281C371.483 276.127 370.743 280.393 369.75 284.156C369.434 285.352 369.023 286.531 368.688 287.719C368.346 288.928 368.166 290.179 367.906 291.406C367.575 292.969 367.211 294.508 366.844 296.062C366.626 296.498 366.783 297.032 367.219 297.25C367.654 297.468 368.189 297.279 368.406 296.844C369.72 295.268 371.055 293.716 372.312 292.094C372.909 291.324 373.357 290.754 373.844 289.906C374.744 288.341 375.454 286.611 376.125 284.938C377.549 281.383 378.504 277.666 378.469 273.812C378.378 263.8 370.928 254.533 360.469 254.5Z" fill="#000000" stroke="none"/>
</g>
<g opacity="1" vectornator:layerName="Curve 2">
<path d="M420.25 257.594C419.803 261.708 419.464 265.885 418.781 269.969C417.695 276.469 416.246 282.917 415.094 289.406C413.742 297.018 412.549 304.64 411.188 312.25C409.492 321.728 407.625 331.187 406.062 340.688C404.96 347.39 404.006 354.124 403.25 360.875C402.806 364.842 402.465 368.81 402.062 372.781C401.531 378.023 400.889 383.252 400.156 388.469C399.731 391.499 399.149 394.507 398.688 397.531C397.79 403.408 397.146 409.336 396.281 415.219C394.038 430.476 391.638 445.713 389.844 461.031C389.187 466.641 388.737 472.285 388.188 477.906C387.453 485.42 386.963 492.947 386.312 500.469C385.501 509.851 384.592 519.246 383.75 528.625C383.455 531.917 383.179 535.206 382.906 538.5C382.135 542.192 380.949 545.759 380.375 549.5C379.266 556.736 377.059 563.922 377.344 571.312C377.421 573.315 377.691 575.336 378.406 577.219C378.589 577.699 378.781 578.355 379.125 578.75C379.866 579.599 380.544 580.533 381.438 581.219C383.671 582.933 386.078 584.42 388.469 585.906C388.581 585.976 388.722 585.895 388.844 585.844C389.022 585.768 389.086 585.169 389.094 585.094C389.224 583.894 389.137 582.673 389.156 581.469C389.199 578.824 389.881 576.235 390.25 573.625C391.428 565.303 392.201 556.925 393.031 548.562C393.909 539.721 394.854 530.899 395.781 522.062C399.638 510.077 404.689 498.43 411.469 487.812C412.965 485.469 414.561 483.169 416.219 480.938C417.236 479.569 418.242 478.25 419.438 477.031C424.477 471.892 431.344 468.92 438.562 469.062C440.666 469.104 442.749 469.435 444.688 470.25C450.449 477.537 450.937 488.33 450.875 497.188C450.84 502.091 450.515 507.002 449.969 511.875C449.585 515.292 449.044 518.69 448.562 522.094C447.936 526.521 447.407 530.952 446.75 535.375C445.962 540.681 445.169 545.996 444.719 551.344C444.484 554.133 444.298 556.919 444.406 559.719C444.595 564.599 445.351 569.908 448.219 574C450.446 577.178 453.665 579.724 456.844 581.875C459.581 583.728 462.55 585.073 465.906 584.594C475.647 583.202 482.166 573.747 486.188 565.625C488.39 561.176 490.141 556.526 491.688 551.812C494.872 542.107 496.898 532.123 498.375 522.031C499.095 517.108 499.798 512.174 500.25 507.219C500.612 503.252 500.797 499.258 501 495.281C501.071 493.884 501.259 492.399 501.219 491C501.176 489.531 500.544 488.163 500.344 486.719C500.276 486.229 500.213 485.596 500.562 485.188C501.07 484.595 502.286 484.625 502.969 484.938C502.987 484.946 503.014 484.96 503.031 484.969C503.039 484.973 503.055 484.965 503.062 484.969C504.878 486.239 506.712 487.524 508.75 488.406C510.443 489.139 512.35 489.494 514.156 489.812C517.459 490.395 520.838 490.589 524.188 490.656C529.886 490.77 535.556 490.377 541.25 490.25C544.787 490.171 548.338 490.188 551.875 490.094C554.712 490.018 557.538 489.871 560.375 489.75C557.225 492.846 554.085 496.037 551.531 499.625C550.018 501.75 548.785 504.029 547.531 506.312C545.29 510.393 543.231 514.583 541.5 518.906C538.08 527.45 536.07 536.994 538.156 546.125C540.371 555.818 547.481 563.186 555.25 568.938C559.567 572.133 564.231 574.954 569.375 576.594C573.3 577.845 577.524 578.419 581.625 578.625C583.489 578.719 585.395 578.733 587.25 578.5C588.953 578.286 590.624 577.864 592.281 577.375C594.069 579.061 595.985 580.636 597.969 582.062C600.8 584.098 603.844 585.957 607.156 587.094C619.937 591.481 631.888 583.583 642.406 577.25C647.798 574.003 653.143 570.817 658.25 567.125C669.596 558.921 679.997 549.386 688.938 538.625C688.557 544.766 689.279 551.137 692.5 556.469C694.636 560.005 697.693 562.92 700.906 565.469C702.547 566.77 704.022 567.805 705.781 568.906C709.45 571.202 713.491 572.823 717.719 573.719C720.916 574.396 724.207 574.647 727.469 574.406C731.916 574.079 736.176 572.69 740.125 570.656C746.145 567.555 751.115 562.933 755.406 557.719C754.989 566.35 754.884 574.995 755.188 583.625C755.193 583.792 755.213 583.958 755.219 584.125C753.277 588.178 751.348 592.255 749.312 596.25C737.718 619.004 725.134 641.909 718.5 666.719C717.246 671.407 716.201 676.164 715.5 680.969C714.873 685.268 714.529 689.625 714.469 693.969C714.375 700.803 714.924 707.627 716 714.375C717.056 720.994 718.333 727.835 722.312 733.406C724.263 736.136 726.761 738.426 729.406 740.469C731.888 742.386 734.762 744.458 737.875 745.219C742.204 746.277 746.042 743.794 749.531 741.594C759.379 735.384 763.546 723.406 766.062 712.625C768.103 703.882 769.597 695.069 770.062 686.094C771.038 667.27 768.453 648.471 766.344 629.812C765.017 618.076 764.256 606.303 763.844 594.5C763.799 593.221 763.841 591.936 763.812 590.656C769.261 579.105 774.659 567.5 781.438 556.656C785.481 550.188 790.067 544.126 795.219 538.5C802.673 530.359 810.994 523.18 820.094 516.938C821.715 515.825 823.458 514.888 825.125 513.844C820.821 519.587 817.182 525.845 814.438 532.375C811.479 539.415 809.377 546.922 809.25 554.594C809.196 557.864 809.397 561.373 810.906 564.344C811.997 566.491 813.818 568.182 815.656 569.688C818.074 571.668 820.81 573.414 823.688 574.656C825.164 575.293 826.689 575.792 828.281 576.031C838.013 577.493 845.322 568.836 849.938 561.469C850.816 560.067 851.62 558.642 852.406 557.188C853.357 555.43 854.25 553.624 855.094 551.812C855.932 553.978 857.278 555.819 858.719 557.625C859.815 558.998 860.937 560.362 862.125 561.656C864.27 563.994 866.582 566.097 869.125 568C871.076 569.46 873.105 570.777 875.312 571.812C880.736 574.357 886.856 573.959 892.375 571.906C900.311 568.954 907.544 563.316 913.469 557.344C917.665 553.113 921.468 548.546 925 543.75C929.748 537.304 934.006 530.475 937.531 523.281C939.811 518.629 941.294 513.733 942.656 508.75C943.289 506.434 943.939 504.108 944.531 501.781C945.066 499.681 944.097 495.104 947.25 494.875C947.559 494.853 947.853 494.904 948.156 494.969C949.116 495.173 950.01 495.759 950.875 496.188C951.901 496.695 952.945 497.087 954 497.531C958.929 499.608 963.647 502.195 968.438 504.562C978.975 509.769 988.783 516.209 997.625 523.969C1002.92 528.615 1007.85 533.699 1012.03 539.375C1012.2 539.601 1012.34 539.836 1012.5 540.062C1010.33 540.468 1008.13 540.709 1005.97 541.188C998.812 542.775 991.73 544.836 985.125 548.062C981.892 549.642 978.675 551.516 975.844 553.75C974.422 554.872 973.135 556.173 971.906 557.5C970.981 558.499 970.08 559.529 969.312 560.656C967.616 563.15 966.377 565.986 965.438 568.844C964.924 570.408 964.557 571.978 964.25 573.594C963.689 576.547 963.342 579.599 964.219 582.531C964.823 584.552 966.029 586.39 967.281 588.062C968.338 589.474 969.497 590.791 970.75 592.031C972.745 594.006 974.911 595.816 977.156 597.5C980.91 600.314 984.996 602.759 989.5 604.156C1000.68 607.624 1014.61 604.764 1023.06 596.5C1026.25 593.385 1028.45 589.323 1030 585.188C1030.51 583.816 1030.91 582.424 1031.34 581.031C1031.75 579.737 1032.22 578.471 1032.44 577.125C1032.69 575.579 1032.73 574.031 1032.66 572.469C1032.39 566.491 1030.63 560.422 1027.94 555.094C1026.82 552.874 1025.52 550.76 1024.12 548.688C1025.25 548.454 1026.37 548.189 1027.5 547.969C1036.24 546.263 1045.1 545.298 1053.97 544.531C1061.3 543.897 1068.65 543.395 1076 543.031C1104 541.646 1132 540.701 1160.03 540.281C1166.33 540.187 1172.6 540.085 1178.91 540.031C1181.28 540.011 1183.69 539.929 1186.06 539.969C1190.54 540.044 1195.02 540.386 1199.5 540.469C1203.27 540.539 1207.04 540.523 1210.81 540.531C1226.53 540.564 1242.23 540.439 1257.94 540.5C1265.95 540.531 1273.96 540.711 1281.97 540.75C1292.63 540.802 1303.28 540.765 1313.94 540.75C1325.22 540.735 1336.5 540.573 1347.78 540.562C1361.74 540.55 1375.73 540.676 1389.69 540.5C1392.68 540.462 1395.66 540.345 1398.66 540.312C1405.62 540.238 1412.57 540.402 1419.53 540.281C1421.8 540.242 1424.07 540.093 1426.34 540.062C1431.85 539.989 1437.37 540.08 1442.88 540.062C1455.34 540.023 1467.81 540.099 1480.28 540.406C1491.85 540.692 1503.43 541.296 1514.97 542.156C1517.66 542.357 1520.37 542.637 1523.06 542.812C1526.86 543.06 1530.66 543.028 1534.47 543.188C1541.32 543.474 1548.2 543.835 1555.06 544.031C1560.5 544.187 1565.94 544.189 1571.38 544.344C1575.63 544.465 1579.9 544.529 1584.16 544.719C1587.64 544.874 1591.11 545.129 1594.59 545.219C1597.93 545.304 1601.26 545.26 1604.59 545.344C1608.47 545.441 1612.35 545.67 1616.22 545.781C1620.91 545.916 1625.6 545.971 1630.28 546.188C1632.93 546.31 1635.57 546.518 1638.22 546.625C1644.99 546.898 1651.79 546.937 1658.56 547.094C1667.49 547.3 1676.41 547.581 1685.34 547.812C1691.68 547.977 1698.04 548.042 1704.38 548.25C1716.08 548.634 1727.76 549.422 1739.47 549.875C1746.57 550.15 1753.68 550.181 1760.78 550.375C1768.79 550.594 1776.8 550.891 1784.81 551.125C1786.16 549.534 1779.32 541.562 1769.56 533.312C1759.8 525.063 1750.81 519.691 1749.47 521.281C1741.96 521.435 1734.47 521.644 1726.97 521.781C1720.17 521.905 1713.36 521.855 1706.56 522.062C1696.01 522.384 1685.46 523.094 1674.91 523.344C1668.82 523.488 1662.74 523.468 1656.66 523.562C1647.78 523.7 1638.88 523.89 1630 524C1623.91 524.075 1617.83 524.024 1611.75 524.219C1609.42 524.293 1607.08 524.503 1604.75 524.594C1600.32 524.767 1595.87 524.729 1591.44 524.812C1587.85 524.88 1584.27 525.072 1580.69 525.125C1577.4 525.174 1574.1 525.074 1570.81 525.125C1567.68 525.174 1564.54 525.412 1561.41 525.531C1557.41 525.683 1553.43 525.704 1549.44 525.781C1544.17 525.883 1538.89 525.802 1533.62 525.906C1526.96 526.038 1520.29 526.406 1513.62 526.594C1510.47 526.683 1507.3 526.636 1504.16 526.844C1501.58 527.014 1499.02 527.329 1496.44 527.5C1486.52 528.158 1476.56 528.728 1466.62 528.906C1453.92 529.133 1441.23 529.037 1428.53 528.969C1423.39 528.941 1418.26 528.997 1413.12 528.906C1410.69 528.863 1408.25 528.706 1405.81 528.656C1398.79 528.512 1391.75 528.624 1384.72 528.531C1381.56 528.49 1378.41 528.358 1375.25 528.312C1361.63 528.118 1348 528.273 1334.38 528.281C1322.61 528.289 1310.83 528.141 1299.06 528.188C1288.52 528.229 1277.98 528.304 1267.44 528.469C1259.73 528.589 1252.05 528.858 1244.34 529C1228.95 529.284 1213.54 529.453 1198.16 529.875C1194.54 529.974 1190.93 530.041 1187.31 530.219C1183.38 530.412 1179.44 530.892 1175.5 531.094C1172.6 531.243 1169.71 531.242 1166.81 531.312C1138.95 531.995 1111.07 532.678 1083.22 533.906C1074.9 534.273 1066.62 534.759 1058.31 535.25C1046.49 535.949 1034.63 536.779 1022.88 538.25C1020.77 538.514 1018.69 539.002 1016.59 539.344C1014.79 537.316 1013.05 535.215 1011.16 533.312C1002.31 524.405 992.448 516.419 982.062 509.375C977.6 506.349 973.021 503.509 968.281 500.938C963.634 498.417 958.809 496.171 954.094 493.781C952.004 492.722 949.919 491.679 947.781 490.719C946.601 490.188 945.393 489.73 944.219 489.188C942.542 488.412 940.947 487.396 939.125 486.969C938.641 486.855 938.124 486.782 937.625 486.812C934.006 487.033 934.881 491.32 934.094 493.75C931.786 500.875 930.241 508.256 926.969 515.031C920.332 528.771 912.161 542.31 900.844 552.719C896.008 557.166 890.493 561.261 884.438 563.875C880.451 565.595 876.006 566.724 871.656 566C870.644 565.832 869.743 565.469 868.812 565.125C868.766 565.075 868.733 565.02 868.688 564.969C868.011 564.195 867.361 563.365 866.719 562.562C865.023 560.445 863.704 558.306 863.219 555.594C862.619 552.241 862.99 548.67 863.094 545.281C863.261 539.833 863.581 534.393 864.125 528.969C864.36 526.621 864.74 524.276 865.062 521.938C865.225 521.015 865.477 520.108 865.625 519.188C865.85 517.79 866.035 516.376 866.188 514.969C866.227 514.603 866.255 514.355 866.281 514C866.282 513.996 866.297 513.731 866.281 513.719C863.512 511.561 860.747 509.417 857.938 507.312C857.871 507.263 857.861 507.481 857.844 507.562C857.829 507.633 857.825 507.71 857.812 507.781C857.733 508.226 857.672 508.649 857.594 509.094C857.515 509.539 857.419 509.992 857.344 510.438C856.968 512.667 856.642 514.915 856.344 517.156C856.138 518.704 856.082 520.261 855.906 521.812C855.88 521.926 855.871 522.043 855.844 522.156C855.054 525.472 853.89 528.718 852.781 531.938C851.781 534.841 850.701 537.754 849.531 540.594C848.481 543.143 847.38 545.654 846.156 548.125C845.173 550.111 844.099 552.063 842.969 553.969C842.144 555.359 841.271 556.706 840.344 558.031C835.739 564.61 828.621 571.617 819.844 569.531C819.245 569.389 818.718 569.094 818.156 568.875C818.034 568.575 817.911 568.278 817.812 567.969C817.216 566.091 817.003 564.115 816.906 562.156C816.638 556.724 817.516 551.243 819 546.031C822.361 534.226 828.954 522.754 837.125 513.625C840.751 509.574 844.847 505.674 849.562 502.906C852.054 501.443 854.9 500.784 857.781 500.75C860.567 500.718 863.312 501.275 866.062 501.625C868.234 501.902 870.458 502.064 872.625 501.656C873.146 501.558 874.062 501.481 874.469 501.094C874.622 500.948 874.64 500.704 874.469 500.531C873.166 499.213 871.851 497.911 870.406 496.75C869.633 496.128 868.714 495.695 867.844 495.219C867.641 495.108 867.409 495.065 867.188 495C865.942 494.638 864.597 494.515 863.312 494.375C861.61 494.19 859.895 494.054 858.188 493.938C854.941 493.717 851.7 493.641 848.469 494.094C841.483 495.073 834.744 498.004 828.469 501.094C819.495 505.513 811.085 511.023 803.312 517.312C793.141 525.542 783.739 534.752 776.219 545.5C771.589 552.117 767.708 559.152 764.031 566.312C764.474 557.212 765.449 548.165 767.156 539.219C767.335 538.86 767.543 538.517 767.719 538.156C769.075 535.369 770.267 532.512 771.469 529.656C774.344 522.823 776.902 515.88 778.719 508.688C779.068 507.304 779.739 506.026 780.219 504.688C780.401 504.18 780.789 503.315 780.594 502.75C780.53 502.566 780.521 502.348 780.375 502.219C778.383 500.457 776.374 498.694 774.25 497.094C773.862 496.802 773.339 496.705 772.875 496.562C772.747 496.523 772.456 496.635 772.344 496.688C772.124 496.79 771.896 496.908 771.688 497.031C771.476 497.156 771.291 497.29 771.094 497.438C770.894 497.587 770.685 497.739 770.5 497.906C768.87 499.382 767.763 501.39 766.875 503.375C766.392 504.455 766.006 505.593 765.562 506.688C764.738 508.72 763.722 510.708 763 512.781C761.504 517.075 760.542 521.574 759.531 526C758.817 529.126 758.208 532.252 757.656 535.406C749.944 549.788 737.92 565.379 720.594 567.25C718.566 567.469 716.502 567.503 714.469 567.344C710.351 567.02 706.107 565.965 702.406 564.031C698.402 559.041 697.353 552.37 697.562 546.125C697.817 538.549 699.685 531.066 701.875 523.844C702.691 521.151 703.539 518.446 704.469 515.781C705.482 513.909 706.492 512.044 707.406 510.125C708.962 506.86 710.356 503.501 711.875 500.219C712.209 499.497 712.492 498.812 712.938 498.156C713.601 497.18 714.446 496.311 715.031 495.281C715.439 494.564 715.818 493.695 715.688 492.844C715.671 492.737 715.671 492.606 715.594 492.531C713.821 490.807 712.117 488.976 710.156 487.469C709.233 486.759 708.098 486.404 707.031 485.938C706.85 485.858 706.499 486.406 706.438 486.5C706.052 487.09 705.75 487.745 705.438 488.375C705.313 488.626 705.184 488.873 705.062 489.125C704.941 489.376 704.808 489.623 704.688 489.875C702.539 494.345 700.059 498.631 698.219 503.25C697.477 505.112 696.889 507.033 696.25 508.938C696.214 509.008 696.193 509.086 696.156 509.156C687.149 526.482 675.123 542.342 659.938 554.719C652.686 560.629 644.731 565.574 636.781 570.469C634.601 571.811 632.46 573.217 630.281 574.562C621.757 579.828 611.025 585.735 600.812 581.719C599.594 581.239 598.427 580.611 597.344 579.875C596.208 579.103 595.178 577.967 594.219 576.75C594.61 576.615 595.021 576.519 595.406 576.375C609.639 571.057 619.48 558.715 626.531 545.75C627.924 543.189 629.203 540.544 630.375 537.875C631.889 534.43 633.216 530.913 634.406 527.344C636.902 519.86 638.985 510.987 635.281 503.531C634.305 501.566 632.986 499.828 631.469 498.25C629.568 496.272 627.432 494.481 625.188 492.906C622.884 491.29 620.17 489.548 617.25 489.406C608.644 488.99 602.154 496.222 597.719 502.688C596.907 503.87 596.129 505.061 595.375 506.281C594.468 507.75 593.592 509.229 592.719 510.719C590.898 513.825 589.222 517.026 587.75 520.312C586.637 522.796 585.657 525.33 584.781 527.906C580.288 541.135 578.483 556.827 585.844 569.312C582.813 570.225 579.729 570.83 576.562 571.219C570.377 571.979 564.457 571.418 558.781 568.781C557.326 568.105 556.001 567.278 554.688 566.375C554.697 566.383 554.674 566.359 554.656 566.344C554.637 566.33 554.613 566.326 554.594 566.312C552.832 564.837 551.369 563.012 550.156 561.062C542.848 549.312 546.425 534.751 551.469 522.875C552.682 520.018 554.023 517.214 555.469 514.469C557.164 511.251 558.906 508.017 561.125 505.125C563.408 502.15 566.07 499.489 568.719 496.844C570.03 495.535 571.273 494.253 572.812 493.219C574.391 492.157 577.788 490.461 576.188 488.062C575.97 487.737 575.743 487.404 575.469 487.125C574.541 486.179 573.624 485.207 572.594 484.375C571.374 483.39 570.066 482.54 568.75 481.688C568.2 481.331 567.398 480.974 566.719 480.812C564.952 480.393 563.025 481.33 561.375 481.844C559.924 482.295 558.67 482.318 557.125 482.375C549.369 482.661 541.635 482.821 533.875 482.875C526.296 482.928 518.699 483.57 511.125 483.031C508.859 482.87 506.573 482.597 504.344 482.156C503.511 481.992 502.694 481.816 501.875 481.594C501.764 481.563 501.64 481.507 501.531 481.469C501.506 481.467 501.413 481.429 501.438 481.438C501.237 481.299 501.045 481.137 500.844 481C500.163 480.536 499.598 480.186 498.906 479.75C498.355 479.403 497.793 479.059 497.219 478.75C495.901 478.039 493.169 476.763 491.719 477.875C490.914 478.491 491.17 479.762 491.344 480.594C491.572 481.684 491.956 482.761 492.062 483.875C492.203 485.342 491.981 486.909 491.906 488.375C491.872 489.037 491.816 489.713 491.781 490.375C491.746 491.036 491.728 491.683 491.688 492.344C491.608 493.661 491.504 494.997 491.406 496.312C491.161 499.603 490.858 502.892 490.375 506.156C489.567 511.617 488.209 517.009 486.938 522.375C485.245 529.52 483.441 536.652 481.125 543.625C479.381 548.873 477.314 554.017 474.719 558.906C472.442 563.196 469.704 567.367 466.156 570.719C463.638 573.098 460.64 575.111 457.281 576.062C456.76 576.21 456.221 576.201 455.688 576.281C454.742 573.619 454.204 570.804 453.938 568C453.584 564.28 453.749 560.536 453.969 556.812C454.233 552.33 454.638 547.869 455.125 543.406C455.719 537.958 456.628 532.538 457.25 527.094C458.428 516.78 459.462 506.323 458.812 495.938C458.389 489.167 457.115 482.461 453.344 476.688C450.806 472.802 447.261 469.631 443.469 467C439.196 464.035 435.162 462.598 429.938 462.781C423.503 463.007 417.228 465.651 412.625 470.156C410.728 472.013 409.203 474.174 407.688 476.344C406.086 478.636 404.574 480.984 403.125 483.375C401.597 485.896 400.185 488.487 398.812 491.094C399.257 486.117 399.714 481.13 400.188 476.156C401.862 458.548 404.674 441.062 407.219 423.562C408.071 417.703 409.079 411.853 409.75 405.969C410.066 403.203 410.271 400.396 410.531 397.625C411.07 391.887 411.688 386.185 412.125 380.438C412.621 373.912 413.048 367.38 413.781 360.875C415.52 345.457 417.771 330.096 419.594 314.688C420.39 307.958 421.212 301.225 421.75 294.469C422.318 287.33 422.436 280.179 422.812 273.031C423.035 268.819 423.571 264.608 423.938 260.406C424.064 260.24 423.33 259.462 422.312 258.688C421.295 257.913 420.376 257.428 420.25 257.594ZM624.25 495.531C624.958 495.563 625.633 495.757 626.281 496C626.414 496.18 626.539 496.354 626.656 496.531C627.106 497.212 627.519 497.94 627.844 498.688C629 501.349 629.353 504.273 629.25 507.156C629.114 510.964 628.188 514.702 627.125 518.344C625.967 522.31 624.586 526.248 623 530.062C616.571 545.527 605.484 561.207 589.594 567.969C588.641 565.008 588.066 561.907 587.875 558.812C587.447 551.874 588.617 544.894 590.562 538.25C593.411 528.522 598.027 519.372 603.562 510.906C604.628 509.277 605.743 507.694 606.938 506.156C607.85 504.982 608.791 503.831 609.812 502.75C613.003 499.375 617.003 496.371 621.719 495.688C622.526 495.571 623.39 495.493 624.25 495.531ZM1018.28 549.969C1019.69 553.064 1020.81 556.288 1021.59 559.719C1022.2 562.361 1022.67 565.064 1022.66 567.781C1022.63 572.459 1020.69 576.629 1018.41 580.625C1016.96 583.157 1015.34 585.633 1013.25 587.688C1009.02 591.851 1002.8 594.602 997.062 595.875C992.413 596.907 987.533 597.124 982.844 596.219C981.241 595.909 979.673 595.447 978.156 594.844C977.854 594.724 977.576 594.572 977.281 594.438C977.088 594.184 976.893 593.943 976.719 593.688C975.825 592.379 975.04 591.004 974.719 589.438C973.787 584.889 974.901 580.348 976.844 576.219C978.049 573.657 979.61 571.188 981.562 569.125C983.547 567.029 985.88 565.316 988.156 563.562C994.105 558.979 1000.67 555.535 1007.75 553.031C1011.21 551.809 1014.73 550.826 1018.28 549.969ZM756.531 605.656C757.173 613.611 757.955 621.534 758.812 629.469C759.622 636.956 760.619 644.432 761.25 651.938C762.433 666.001 762.813 680.117 760.781 694.125C760.313 697.354 759.76 700.581 759.125 703.781C758.654 706.158 758.079 708.538 757.438 710.875C756.879 712.909 756.253 714.924 755.531 716.906C753.218 723.261 749.825 729.487 744.5 733.812C743.471 734.648 742.369 735.516 741.188 736.125C739.9 736.789 738.453 737.208 737.062 737.594C735.907 737.914 734.699 738.133 733.5 738.188C732.422 738.237 731.366 738.111 730.312 737.875C727.453 733.492 726.353 728.042 725.469 723C723.114 709.576 722.798 695.835 725.469 682.438C728.643 666.514 734.373 651.167 741.188 636.469C746.016 626.053 751.365 615.904 756.531 605.656Z" fill="#000000" stroke="none"/>
</g>
</g>
<g id="Layer-2" vectornator:layerName="Layer 2" visibility="hidden">
<g opacity="1" vectornator:layerName="Curve 3">
<path d="M293.906 136.781C264.858 136.328 236.726 146.49 211.969 161.094C198.621 168.967 186.159 178.3 174.75 188.781C164.794 197.927 155.639 207.889 147.344 218.562C140.567 227.281 134.356 236.43 128.688 245.906C117.939 263.874 109.074 283.095 102.219 302.875C94.2417 325.891 88.5665 349.735 84.4062 373.719C81.3587 391.288 79.3048 409.035 77.625 426.781C76.5221 438.433 75.5632 450.102 74.8125 461.781C71.3313 515.94 72.7916 571.562 89.9375 623.531C92.4397 631.115 95.2569 638.598 98.4062 645.938C102.202 654.782 106.434 663.431 110.688 672.062C115.409 681.644 119.899 691.428 125.406 700.594C133.597 714.225 143.463 726.819 154.438 738.312C163.592 747.9 173.506 756.755 183.906 764.969C200.306 777.921 217.996 789.215 236.656 798.625C265.418 813.129 296.397 823.317 328.094 829C350.52 833.021 373.394 834.702 396.156 835.094C424.311 835.578 452.51 833.697 480.344 829.406C495.605 827.054 510.697 823.708 525.688 820.031C539.812 816.568 553.849 812.797 567.844 808.844C579.238 805.625 590.595 802.209 601.938 798.812C631.136 790.069 660.298 781.119 689.781 773.375C698.136 771.18 706.44 768.837 714.781 766.594C720.755 764.987 726.734 763.388 732.812 762.219C739.275 760.976 745.842 760.262 752.375 759.5C764.434 758.093 776.546 757.152 788.688 756.938C808.217 756.592 828.105 757.843 846.844 763.719C867.158 770.089 886.035 780.625 906.844 785.5C912.739 786.881 918.731 787.981 924.688 789.062C936.589 791.224 948.538 792.968 960.562 794.281C1001.69 798.775 1043.79 797.863 1084.19 788.375C1096.78 785.418 1109.28 781.676 1121.22 776.688C1130.38 772.859 1139.16 768.153 1147.88 763.406C1155.07 759.488 1162.42 755.812 1169.22 751.219C1179.01 744.603 1187.99 736.766 1196.56 728.656C1203.67 721.929 1210.36 714.813 1216.72 707.375C1221.24 702.088 1225.62 696.674 1229.56 690.938C1232.51 686.659 1235.09 682.104 1237.66 677.594C1240.16 673.191 1242.61 668.767 1244.97 664.281C1246.15 662.029 1247.35 659.754 1248.41 657.438C1250.48 652.884 1252.14 648.065 1253.69 643.312C1254.66 640.321 1255.69 637.324 1256.38 634.25C1257.73 628.197 1258.42 622.102 1259 615.938C1259.35 612.255 1259.87 608.515 1259.91 604.812C1259.94 601.472 1259.82 598.121 1259.75 594.781C1259.78 594.737 1259.58 594.551 1259.31 594.344C1259.04 594.136 1258.81 593.987 1258.78 594.031C1257.77 595.744 1256.76 597.459 1255.72 599.156C1255.21 599.981 1254.66 600.797 1254.22 601.656C1252.62 604.74 1251.22 607.896 1249.53 610.938C1246.91 615.649 1244.12 620.28 1241.69 625.094C1239.8 628.829 1237.92 632.579 1235.91 636.25C1234.44 638.917 1232.86 641.504 1231.38 644.156C1229.02 648.364 1226.74 652.601 1224.22 656.719C1220.89 662.154 1217.29 667.403 1213.69 672.656C1212.49 674.404 1211.33 676.186 1210.09 677.906C1202.66 688.22 1193.96 697.43 1184.94 706.344C1173.65 717.493 1161.51 728.04 1148.06 736.531C1144.45 738.816 1140.67 740.761 1136.88 742.719C1132.72 744.862 1128.54 747.035 1124.38 749.156C1115.46 753.693 1106.43 758.036 1097.03 761.5C1083.44 766.512 1069.48 770.537 1055.28 773.438C1017.39 781.18 978.124 781.408 939.781 777.219C928.302 775.965 916.871 774.321 905.5 772.312C899.685 771.286 893.847 770.276 888.094 768.938C866.69 763.957 847.288 753.064 826.312 746.75C806.545 740.8 785.26 739.825 764.75 740.688C754.835 741.104 744.924 741.971 735.062 743.062C727.136 743.94 719.21 744.956 711.406 746.625C701.337 748.778 691.516 751.881 681.656 754.812C676.465 756.356 671.247 757.762 666.031 759.219C652.987 762.861 639.939 766.518 626.938 770.312C612.274 774.592 597.658 778.981 583 783.281C575.807 785.391 568.587 787.428 561.375 789.469C543.105 794.639 524.819 799.697 506.344 804.094C489.341 808.14 472.263 811.821 454.969 814.406C427.27 818.546 399.169 819.945 371.188 819.094C352.988 818.54 334.745 817.139 316.75 814.312C287.011 809.641 257.804 801.209 230.5 788.469C213.511 780.542 197.04 770.925 182.625 758.875C166.708 745.57 153.42 729.366 142.688 711.656C140.251 707.635 137.919 703.549 135.812 699.344C126.594 680.938 117.104 662.515 109.781 643.25C105.101 630.938 101.527 618.167 98.6875 605.312C87.8861 556.41 88.4495 505.811 92.5312 456.156C94.3796 433.67 96.9437 411.233 100.812 389C103.179 375.397 105.957 361.857 109.469 348.5C118.463 314.285 131.74 280.901 151 251.125C158.568 239.424 167.056 228.321 176.312 217.906C183.258 210.091 190.775 202.826 198.719 196.031C204.432 191.145 210.373 186.501 216.531 182.188C221.724 178.55 227.068 175.102 232.562 171.938C262.162 154.89 298.276 144.414 332.312 152.406C338.045 153.752 343.679 155.592 349.094 157.906C355.879 160.806 362.164 164.489 368.062 168.906C371.83 171.728 375.56 174.619 378.938 177.906C384.244 183.071 388.701 189.099 392.031 195.719C393.547 198.732 394.85 201.836 396.094 204.969C398.426 210.841 400.414 216.869 402.062 222.969C406.196 238.268 408.188 253.972 408.906 269.781C409.319 278.871 409.443 287.938 409.062 297.031C408.863 301.797 408.459 306.558 408.094 311.312C407.805 315.068 407.695 318.84 407.375 322.594C407.015 326.817 406.436 331.027 406.094 335.25C405.743 339.582 405.724 343.924 405.281 348.25C404.925 351.732 404.165 355.19 403.969 358.688C403.813 361.465 403.824 364.252 403.688 367.031C403.512 370.619 403.206 374.277 402.781 377.844C402.424 380.843 401.613 383.756 401.25 386.75C401.08 388.15 401.163 389.593 401.125 391C401.048 393.842 400.999 396.727 400.781 399.562C400.645 401.333 400.264 403.101 399.938 404.844C399.451 407.443 398.933 410.009 398.375 412.594C398.174 412.855 399.302 414.078 400.906 415.312C402.511 416.546 403.955 417.324 404.156 417.062C404.837 414.571 405.515 412.073 406.125 409.562C406.527 407.906 406.834 406.212 407.375 404.594C408.277 401.891 409.336 399.231 410.25 396.531C410.477 395.86 410.825 394.882 410.969 394.188C411.148 393.32 411.201 392.441 411.312 391.562C411.59 389.375 411.796 387.144 412.156 384.969C412.64 382.043 413.271 379.129 413.844 376.219C414.485 372.957 415.542 369.753 416.062 366.469C416.539 363.457 416.75 360.414 417.25 357.406C417.909 353.444 419.006 349.558 419.656 345.594C420.333 341.468 420.729 337.276 421.219 333.125C421.646 329.496 422.149 325.859 422.469 322.219C422.981 316.383 423.217 310.509 423.438 304.656C423.756 296.21 423.983 287.729 423.594 279.281C422.715 260.207 419.709 241.105 413.531 223C410.551 214.266 407.023 205.517 401.875 197.812C393.291 184.964 381.108 174.825 368.906 165.562C360.622 159.274 352.045 153.398 342.719 148.75C327.574 141.202 310.835 137.045 293.906 136.781Z" fill="#000000" stroke="none"/>
</g>
</g>
<g id="Layer-3" vectornator:layerName="Layer 3">
<g opacity="1" vectornator:layerName="Curve 1">
<path d="M275.594 69.2812C263.635 68.8178 251.591 69.9043 239.938 72.5C227.117 75.3556 214.723 80.0361 203.062 86.0625C149.626 113.68 115.317 166.756 94.9688 221.844C91.6647 230.789 88.6901 239.852 86 249C76.5137 281.259 70.6833 314.7 66.9375 348.094C65.6475 359.594 64.592 371.132 63.9375 382.688C63.1802 396.057 62.988 409.457 63.25 422.844C63.7726 449.545 66.2985 476.222 71.4688 502.438C76.0626 525.73 82.5207 548.841 91.8125 570.719C101.986 594.673 115.665 617.018 131.344 637.75C139.941 649.118 148.947 660.165 158.906 670.375C170.462 682.222 183.191 692.946 196.812 702.344C204.209 707.447 211.89 712.178 219.625 716.75C235.273 725.999 251.648 734.109 269.094 739.375C277.911 742.036 286.93 744.064 296.031 745.469C312.006 747.935 328.283 748.502 344.406 747.438C357.453 746.576 370.426 744.668 383.25 742.156C393.977 740.055 404.62 737.459 415.125 734.438C433.94 729.027 452.396 722.426 470.688 715.469C507.144 701.602 543.096 686.38 579.844 673.281C586.416 670.939 593.058 668.769 599.688 666.594C621.63 659.396 643.894 653.069 666.562 648.594C680.994 645.745 695.592 643.681 710.25 642.438C721.362 641.494 732.599 640.907 743.75 641.375C752.851 641.757 761.949 642.894 770.906 644.531C808.43 651.389 843.522 666.947 880.125 677.156C894.919 681.283 910.043 684.265 925.25 686.375C946.506 689.325 967.988 690.493 989.438 689.75C1000.3 689.374 1011.15 688.467 1021.91 686.906C1042.23 683.956 1062.07 678.497 1080.91 670.281C1087.74 667.301 1094.35 663.914 1100.75 660.094C1109.19 655.057 1117.2 649.156 1123.97 642C1128.9 636.786 1132.99 630.915 1136.69 624.781C1141.28 617.167 1145.09 609.069 1147.31 600.438C1147.81 598.506 1148.25 596.552 1148.62 594.594C1148.72 594.086 1148.86 593.578 1148.91 593.062C1149.05 591.324 1148.92 589.492 1148.88 587.75C1148.8 584.584 1148.52 581.443 1148.41 578.281C1148.29 575.045 1148.53 571.764 1148.28 568.531C1147.99 564.656 1147.19 560.773 1146.56 556.938C1146.63 556.853 1146.27 556.485 1145.75 556.094C1145.23 555.702 1144.75 555.447 1144.69 555.531C1144.11 557.171 1143.52 558.81 1142.91 560.438C1142.51 561.482 1142.06 562.491 1141.75 563.562C1140.98 566.222 1140.66 569.032 1139.75 571.656C1139.42 572.609 1138.94 573.515 1138.53 574.438C1137.75 576.214 1136.93 577.984 1136.06 579.719C1135.64 580.557 1135.13 581.348 1134.78 582.219C1134.42 583.127 1134.22 584.093 1133.94 585.031C1133.68 585.908 1133.38 586.912 1133.09 587.781C1131.94 591.303 1130.63 594.804 1129.19 598.219C1126.48 604.645 1123.09 610.77 1119.31 616.625C1117.21 619.882 1115.02 623.084 1112.53 626.062C1099.45 641.74 1080.96 651.845 1062.28 659.344C1050.14 664.219 1037.62 668.286 1024.81 671C998.454 676.584 971.283 677.683 944.438 676.25C917.518 674.813 890.636 670.691 864.688 663.312C825.935 652.293 788.636 635.515 748.594 629.375C736.716 627.554 724.784 627.017 712.781 627.344C676.025 628.344 639.85 636.141 604.75 646.719C591.034 650.852 577.492 655.513 564.031 660.406C541.88 668.458 519.963 677.074 498.062 685.781C476.063 694.528 454.076 703.361 431.75 711.25C405.774 720.429 379.094 728.537 351.812 732.719C317.09 738.041 280.759 736.602 247.5 724.625C234.023 719.771 221.311 713.133 209.062 705.75C202.448 701.763 195.864 697.684 189.625 693.125C177.715 684.423 167.419 673.777 157.969 662.5C151.308 654.552 144.987 646.318 138.969 637.875C126.531 620.424 115.91 601.634 107.531 581.906C102.808 570.784 98.8854 559.346 95.5 547.75C79.2595 492.125 76.593 433.798 81.4688 376.312C82.9704 358.608 85.2514 340.965 88.1562 323.438C91.0072 306.234 94.4859 289.169 98.9688 272.312C106.462 244.135 116.556 216.483 130.156 190.656C137.457 176.792 145.718 163.431 155.312 151.031C179.314 120.01 211.831 94.9213 250.281 85.0625C257.155 83.2999 264.185 81.9768 271.25 81.2812C285.015 79.9262 299.002 80.7213 312.531 83.5938C320.517 85.2893 328.235 87.8717 335.875 90.7188C341.514 92.82 347.094 95.0685 352.5 97.7188C356.159 99.5127 359.802 101.458 363.094 103.875C365.667 105.764 367.844 108.131 370 110.469C372.242 112.899 374.44 115.366 376.594 117.875C383.046 125.39 389.133 133.34 393.875 142.062C395.881 145.753 397.582 149.614 399.094 153.531C404.982 168.785 408.369 184.904 410.812 201.031C413.222 216.929 414.937 233.035 415.062 249.125C415.11 255.236 414.993 261.367 414.656 267.469C414.386 272.36 413.943 277.244 413.531 282.125C413.11 287.117 412.775 292.108 412.281 297.094C411.538 304.598 410.606 312.082 409.656 319.562C408.547 328.302 407.095 336.982 405.969 345.719C405.56 348.889 405.273 352.083 404.844 355.25C404.096 360.769 402.814 366.228 402.094 371.75C401.835 373.732 401.871 375.725 401.844 377.719C401.817 379.745 401.795 381.755 401.781 383.781C401.774 384.921 401.81 386.608 401.688 387.75C401.559 388.954 401.261 390.15 401.062 391.344C400.666 393.724 400.307 396.115 399.938 398.5C399.846 399.094 399.694 399.681 399.656 400.281C399.571 401.621 399.687 402.97 399.719 404.312C399.766 406.324 399.845 408.332 399.906 410.344C399.735 410.569 400.712 411.603 402.094 412.656C403.476 413.71 404.735 414.381 404.906 414.156C405.541 412.017 406.188 409.883 406.844 407.75C407.009 407.213 407.233 406.675 407.344 406.125C407.588 404.915 407.611 403.695 407.75 402.469C408.028 400.009 408.32 397.55 408.625 395.094C408.701 394.479 408.725 393.859 408.844 393.25C409.039 392.247 409.519 390.904 409.844 389.938C410.748 387.245 411.81 384.573 412.594 381.844C413.266 379.503 413.511 376.991 413.906 374.594C414.509 370.938 415.023 367.252 415.781 363.625C416.399 360.67 417.177 357.764 417.812 354.812C419.236 348.204 420.391 341.526 421.594 334.875C423.011 327.033 424.439 319.194 425.625 311.312C426.532 305.286 427.48 299.256 428.062 293.188C428.594 287.654 428.886 282.084 429.125 276.531C429.521 267.336 429.56 258.131 429.062 248.938C428.519 238.894 427.412 228.871 426.062 218.906C423.674 201.265 420.195 183.544 414.188 166.75C412.314 161.511 410.128 156.36 407.469 151.469C402.244 141.858 395.514 133.125 388.406 124.844C383.813 119.492 379.086 114.139 373.938 109.312C369.279 104.945 364.278 100.92 359.031 97.2812C348.644 90.0772 337.227 84.798 325.438 80.3438C320.402 78.4412 315.35 76.5938 310.188 75.0625C302.776 72.8643 295.17 71.2277 287.5 70.25C283.552 69.7467 279.58 69.4357 275.594 69.2812Z" fill="#000000" stroke="none"/>
</g>
</g>
</svg>
