<?xml version="1.0" encoding="UTF-8" standalone="no"?>
<!DOCTYPE svg PUBLIC "-//W3C//DTD SVG 1.1//EN" "http://www.w3.org/Graphics/SVG/1.1/DTD/svg11.dtd">
<!-- Created with Vectornator (http://vectornator.io/) -->
<svg height="100%" stroke-miterlimit="10" style="fill-rule:nonzero;clip-rule:evenodd;stroke-linecap:round;stroke-linejoin:round;" version="1.1" viewBox="0 0 1194 834" width="100%" xmlSpace="preserve" xmlns="http://www.w3.org/2000/svg" xmlnsVectornator="http://vectornator.io" xmlnsXlink="http://www.w3.org/1999/xlink">
<defs/>
<clipPath id="ArtboardFrame">
<rect height="834" width="1194" x="0" y="0"/>
</clipPath>
<g clip-path="url(#ArtboardFrame)" id="Layer-2" vectornatorLayerName="Layer 2">
<g opacity="1" vectornatorLayerName="Curve 1">
<path d="M838.406 398.656C841.349 404.673 844.475 410.584 848 416.281C849.647 418.943 851.272 421.721 853.25 424.156C854.477 425.667 855.908 427.002 857.219 428.438C860.903 432.475 864.688 436.426 868.531 440.312C869.958 441.756 871.41 443.158 872.812 444.625C876.976 448.981 880.405 454.124 884.906 458.156C886.513 459.596 888.339 460.693 890.094 461.938C891.837 463.174 893.558 464.477 895.25 465.781C901.547 470.635 907.531 475.82 913.188 481.406C908.245 474.446 902.74 467.938 897.406 461.281C896.071 459.615 894.742 457.956 893.5 456.219C892.783 455.215 892.413 454.567 891.656 453.594C890.147 451.653 888.309 450.003 886.688 448.156C884.359 445.504 882.132 442.735 879.719 440.156C877.937 438.252 876.014 436.485 874.156 434.656C871.974 432.508 869.839 430.334 867.719 428.125C865.87 426.198 863.999 424.272 862.219 422.281C861.207 421.149 860.308 419.934 859.25 418.844C856.857 416.378 854.167 414.157 851.656 411.812C847.102 407.559 842.665 403.206 838.406 398.656Z" fill="#ff3636" stroke="none"/>
</g>
<g opacity="1" vectornatorLayerName="Curve 2">
<path d="M855.938 349.5C860.271 357.648 865.049 365.523 870.375 373.062C872.699 376.352 875.049 379.644 877.656 382.719C879.877 385.338 882.354 387.762 884.719 390.25C889.039 394.795 893.426 399.271 897.75 403.812C904.13 410.514 910.367 417.358 916.906 423.906C918.821 425.823 920.664 427.822 922.688 429.625C924.134 430.914 925.744 432.065 927.25 433.281C929.128 434.798 930.942 436.37 932.75 437.969C938.173 442.762 943.43 447.75 948.75 452.656C952.307 455.937 955.942 459.138 959.594 462.312C952.366 454.206 945.453 445.859 938.75 437.312C936.498 434.441 934.248 431.579 932.062 428.656C930.88 427.074 929.747 425.388 928.438 423.906C926.892 422.158 925.184 420.583 923.531 418.938C920.523 415.944 917.498 412.941 914.562 409.875C906.934 401.908 899.262 393.99 891.625 386.031C888.883 383.174 886.273 380.137 883.469 377.344C879.861 373.75 875.999 370.421 872.344 366.875C866.611 361.312 861.123 355.579 855.938 349.5Z" fill="#ff3636" stroke="none"/>
</g>
<g opacity="1" vectornatorLayerName="Curve 3">
<path d="M886.125 314.031C890.326 320.2 895.367 325.678 900.344 331.219C902.526 333.648 904.685 336.081 906.844 338.531C908.69 340.626 910.541 342.758 912.531 344.719C913.863 346.03 915.274 347.244 916.656 348.5C919.355 350.953 922.084 353.415 924.719 355.938C927.324 358.432 929.595 361.25 932.062 363.875C936.236 368.315 940.637 372.525 944.875 376.906C947.61 379.734 950.341 382.565 953.062 385.406C954.421 386.825 955.764 388.302 957.188 389.656C960.06 392.39 963.308 394.724 966.312 397.312C972.902 402.99 979.637 408.543 986.062 414.406C989.026 417.11 991.84 419.926 994.656 422.781C992.214 419.58 989.765 416.413 987.156 413.344C982.938 408.379 978.527 403.589 974.344 398.594C972.107 395.923 969.964 393.163 967.875 390.375C966.288 388.257 964.798 386.065 963.062 384.062C960.48 381.082 957.587 378.3 954.844 375.469C949.792 370.255 944.651 365.177 939.5 360.062C936.605 357.189 933.98 354.038 931.094 351.156C928.836 348.902 926.4 346.826 924.062 344.656C922.019 342.759 920.077 340.734 918 338.875C915.563 336.693 912.943 334.732 910.344 332.75C907.603 330.66 904.857 328.58 902.062 326.562C896.571 322.599 891.063 318.687 886.125 314.031Z" fill="#ff3636" stroke="none"/>
</g>
<g opacity="1" vectornatorLayerName="Curve 4">
<path d="M929.312 281.188C933.348 288.978 938.808 295.736 944.562 302.312C946.814 304.885 949.016 307.524 951.375 310C953.166 311.88 955.136 313.57 956.875 315.5C959.512 318.427 961.96 321.536 964.625 324.438C966.742 326.741 968.963 328.926 971.156 331.156C974.397 334.453 977.629 337.771 980.844 341.094C983.183 343.512 985.544 345.918 987.875 348.344C989.327 349.855 990.704 351.459 992.25 352.875C993.492 354.013 994.905 355.009 996.219 356.062C997.545 357.126 998.834 358.207 1000.12 359.312C1004.56 363.11 1008.7 367.219 1013.09 371.062C1017.51 374.927 1022.08 378.587 1026.25 382.719C1024.82 380.849 1023.38 378.998 1021.84 377.219C1019.17 374.129 1016.31 371.223 1013.75 368.031C1010.21 363.613 1006.78 359.08 1003.41 354.531C1001.63 352.138 1000.04 349.566 998.125 347.281C997.046 345.993 995.819 344.806 994.656 343.594C993.189 342.064 991.697 340.55 990.219 339.031C984.339 332.993 978.312 327.105 972.406 321.094C967.464 316.063 963.243 310.365 958.156 305.469C954.826 302.263 950.945 299.662 947.25 296.906C940.84 292.126 934.576 287.248 929.312 281.188Z" fill="#ff3636" stroke="none"/>
</g>
<g opacity="1" vectornatorLayerName="Curve 5">
<path d="M980.469 264.656C983.257 270.263 986.682 275.399 990.156 280.594C991.375 282.417 992.432 284.348 993.719 286.125C994.701 287.481 995.861 288.725 996.906 290.031C998.713 292.289 1000.5 294.544 1002.41 296.719C1005.35 300.068 1008.42 303.317 1011.47 306.562C1013.6 308.827 1015.73 311.095 1017.81 313.406C1018.79 314.49 1019.7 315.671 1020.75 316.688C1021.83 317.734 1023.08 318.593 1024.25 319.531C1025.82 320.79 1027.31 322.135 1028.78 323.5C1033.94 328.273 1038.83 333.328 1043.81 338.281C1039.91 332.429 1036.04 326.582 1032.34 320.594C1031.28 318.863 1030.21 317.119 1029.22 315.344C1028.47 314.008 1027.78 312.584 1026.88 311.344C1026.28 310.527 1025.58 309.819 1024.91 309.062C1023.72 307.728 1022.53 306.399 1021.31 305.094C1017.45 300.964 1013.39 297.002 1009.56 292.844C1007.29 290.371 1005.13 287.801 1003.06 285.156C1002.01 283.814 1001.05 282.359 999.906 281.094C999.122 280.227 998.248 279.433 997.375 278.656C994.95 276.5 992.316 274.576 989.75 272.594C986.511 270.092 983.413 267.501 980.469 264.656Z" fill="#ff3636" stroke="none"/>
</g>
<g opacity="1" vectornatorLayerName="Curve 6">
<path d="M1007.78 232.875C1010.05 237.477 1012.34 242.065 1014.81 246.562C1015.63 248.048 1016.41 249.57 1017.38 250.969C1018.32 252.352 1019.51 253.54 1020.59 254.812C1022.77 257.363 1024.94 259.922 1027.12 262.469C1030.02 265.853 1032.89 269.26 1035.84 272.594C1036.94 273.836 1038.02 275.135 1039.19 276.312C1040.41 277.544 1041.85 278.406 1043.25 279.406C1044.63 280.391 1045.96 281.434 1047.28 282.5C1051.64 286.028 1055.83 289.752 1060.06 293.438C1056.52 288.386 1052.9 283.387 1049.62 278.156C1049.01 277.176 1048.47 276.228 1047.91 275.219C1047.07 273.718 1046.36 272.224 1045.28 270.875C1043.9 269.155 1042.35 267.55 1040.88 265.906C1037.92 262.61 1034.95 259.323 1032.03 256C1030.21 253.929 1028.39 251.868 1026.62 249.75C1025.56 248.471 1024.57 247.108 1023.38 245.938C1021.78 244.369 1019.96 242.997 1018.25 241.562C1014.77 238.65 1011.25 235.802 1007.78 232.875Z" fill="#ff3636" stroke="none"/>
</g>
<g opacity="1" vectornatorLayerName="Curve 7">
<path d="M1017.31 189.062C1021.66 194.614 1025.49 200.468 1029.28 206.406C1031.45 209.8 1033.47 213.372 1035.94 216.562C1037.49 218.576 1039.26 220.406 1040.91 222.344C1045.91 228.22 1051.08 233.958 1056.25 239.688C1059.68 243.49 1063.12 247.278 1066.56 251.062C1068.27 252.936 1069.91 254.939 1071.78 256.656C1073.3 258.054 1074.99 259.286 1076.56 260.625C1078.9 262.619 1081.16 264.679 1083.38 266.812C1085.56 268.918 1087.78 271.022 1089.91 273.188C1093.58 276.925 1097.09 280.778 1100.84 284.438C1097.41 279.865 1094.22 275.115 1090.94 270.438C1087.97 266.215 1084.93 262.031 1082 257.781C1080.54 255.657 1079.25 253.421 1077.72 251.344C1076.8 250.096 1075.73 248.953 1074.69 247.812C1073.3 246.303 1071.91 244.791 1070.53 243.281C1065.7 238.007 1060.81 232.795 1056 227.5C1052.58 223.739 1049.2 219.933 1045.91 216.062C1044.61 214.541 1043.42 212.93 1042.09 211.438C1039.76 208.812 1037.12 206.436 1034.59 204C1029.1 198.698 1023.42 193.652 1017.31 189.062Z" fill="#ff3636" stroke="none"/>
</g>
<g opacity="1" vectornatorLayerName="Curve 8">
<path d="M1045.53 151.375C1049.97 157.723 1054.35 164.095 1058.84 170.406C1061.36 173.936 1063.79 177.603 1066.56 180.938C1068.71 183.52 1071.09 185.952 1073.31 188.469C1078.09 193.871 1082.84 199.264 1087.59 204.688C1091.4 209.027 1095.21 213.364 1099.03 217.688C1100.94 219.843 1102.75 222.117 1104.78 224.156C1106.15 225.529 1107.71 226.714 1109.19 227.969C1111.4 229.851 1113.53 231.807 1115.66 233.781C1123.08 240.67 1130.33 247.79 1137.59 254.844C1131.39 246.844 1125.13 238.865 1119.16 230.688C1117.44 228.343 1115.74 225.978 1114.12 223.562C1113.05 221.953 1112.08 220.3 1110.88 218.781C1109.09 216.529 1107.06 214.429 1105.16 212.281C1101.32 207.969 1097.47 203.673 1093.62 199.375C1088.49 193.643 1083.37 187.901 1078.25 182.156C1076.33 180.006 1074.51 177.715 1072.53 175.625C1069.55 172.476 1066.19 169.653 1062.97 166.75C1057.21 161.56 1051.36 156.484 1045.53 151.375Z" fill="#ff3636" stroke="none"/>
</g>
<g opacity="1" vectornatorLayerName="Curve 9">
<path d="M728.031 509.031C730.797 513.969 734.438 518.265 737.688 522.875C740.073 526.259 742.363 529.7 744.688 533.125C746.379 535.617 748.097 538.149 750.062 540.438C751.748 542.399 753.686 544.16 755.5 546C760.857 551.432 766.43 556.656 771.719 562.156C776.782 567.422 781.635 572.882 786.625 578.219C788.433 580.153 790.212 582.136 792.094 584C794.518 586.401 797.351 588.401 799.938 590.625C805.099 595.062 810.141 599.702 815 604.469C819 608.393 822.494 612.764 826.562 616.625C823.324 612.605 820.616 608.224 817.531 604.094C813.377 598.533 809 593.161 804.812 587.625C802.054 583.979 799.614 580.109 796.5 576.75C793.675 573.703 790.784 570.683 787.938 567.656C784.451 563.949 781.034 560.195 777.469 556.562C772.46 551.459 767.215 546.585 762.156 541.531C760.036 539.413 758.065 537.171 755.969 535.031C754.752 533.79 753.47 532.581 752.219 531.375C748.361 527.656 744.561 523.88 740.562 520.312C736.359 516.563 731.838 513.21 728.031 509.031Z" fill="#ff3636" stroke="none"/>
</g>
<g opacity="1" vectornatorLayerName="Curve 10">
<path d="M764.25 481.906C767.956 488.913 772.532 495.344 777.469 501.531C779.748 504.388 782.013 507.26 784.469 509.969C786.056 511.719 787.829 513.303 789.5 514.969C792.816 518.274 796.004 521.69 799.219 525.094C804.861 531.068 810.405 537.14 815.969 543.188C817.743 545.116 819.507 547.039 821.281 548.969C822.289 550.064 823.29 551.231 824.375 552.25C825.876 553.66 827.56 554.89 829.156 556.188C831.723 558.274 834.285 560.373 836.844 562.469C842.311 566.946 847.859 571.389 852.938 576.312C854.488 577.815 855.959 579.425 857.469 580.969C856.19 579.219 854.95 577.433 853.625 575.719C848.616 569.235 842.963 563.25 837.781 556.906C836.077 554.82 834.435 552.687 832.906 550.469C832.056 549.235 831.277 547.924 830.344 546.75C828.489 544.418 826.273 542.311 824.25 540.125C820.684 536.271 817.104 532.443 813.5 528.625C808.341 523.159 803.149 517.698 797.906 512.312C795.715 510.061 793.601 507.746 791.312 505.594C787.793 502.282 783.787 499.439 780.031 496.406C774.447 491.896 769.051 487.258 764.25 481.906Z" fill="#ff3636" stroke="none"/>
</g>
<g opacity="1" vectornatorLayerName="Curve 11">
<path d="M809.406 461.625C812.511 467.085 815.751 472.47 819.25 477.688C820.99 480.282 822.687 482.938 824.688 485.344C826.227 487.195 828.014 488.864 829.656 490.625C833.196 494.421 836.746 498.236 840.219 502.094C843.68 505.939 847.107 509.805 850.562 513.656C852.146 515.422 853.649 517.341 855.406 518.938C857.246 520.609 859.402 521.924 861.25 523.594C863.949 526.032 866.296 528.817 868.875 531.375C872.698 535.166 876.925 538.519 880.688 542.375C877.705 537.944 874.093 533.979 871.188 529.5C869.707 527.218 868.385 524.84 867 522.5C865.824 520.513 864.561 518.555 863.344 516.594C862.709 515.571 862.122 514.5 861.406 513.531C859.998 511.625 858.244 509.913 856.656 508.156C854.247 505.491 851.805 502.865 849.375 500.219C844.992 495.446 840.566 490.719 836.125 486C834.251 484.009 832.49 481.844 830.531 479.938C827.821 477.3 824.756 475.007 821.875 472.562C817.655 468.981 813.474 465.38 809.406 461.625Z" fill="#ff3636" stroke="none"/>
</g>
<g opacity="1" vectornatorLayerName="Curve 12">
<path d="M49.2812 66.0312C48.0105 80.5382 47.9842 95.0788 48.4688 109.625C48.8443 120.898 49.6251 132.134 50 143.406C50.3884 155.083 49.8669 166.788 49.9688 178.469C50.1244 196.326 50.7948 214.174 50.9688 232.031C51.1874 254.477 51.725 276.901 52.1562 299.344C52.9552 340.918 53.7873 382.515 54.3125 424.094C54.512 439.886 54.6945 455.674 54.625 471.469C54.5492 488.701 54.3048 505.924 54.5625 523.156C54.6322 527.817 54.8096 532.498 54.9688 537.156C55.4307 550.677 56.0461 564.168 56.5625 577.688C57.3269 597.698 57.9882 617.732 58.5312 637.75C59.0883 658.285 59.5679 678.836 58.9375 699.375C58.5294 712.669 57.5595 725.935 56.125 739.156C57.823 725.956 59.0464 712.7 59.7188 699.406C60.4801 684.355 60.5052 669.316 60.5938 654.25C60.8028 618.693 59.9435 583.119 60.0312 547.562C60.0712 531.383 60.0131 515.21 60.0625 499.031C60.1116 482.948 60.3288 466.864 60.2188 450.781C60.0947 432.652 59.7588 414.532 59.4375 396.406C58.9613 369.541 58.4128 342.676 57.875 315.812C57.5509 299.625 57.1931 283.439 56.9375 267.25C56.7002 252.222 56.5773 237.176 55.9688 222.156C55.377 207.553 54.3287 192.979 53.75 178.375C53.2867 166.683 53.4122 154.959 52.625 143.281C51.8662 132.024 50.697 120.79 49.9375 109.531C48.9596 95.0357 48.5065 80.5473 49.2812 66.0312Z" fill="#000000" fill-opacity="0.24395" stroke="none"/>
</g>
<g opacity="1" vectornatorLayerName="Curve 13">
<path d="M133.188 71.4375C132.365 79.3475 132.845 87.2854 132.844 95.2188C132.842 105.459 132.409 115.668 132.844 125.906C133.28 136.177 134.629 146.394 135.219 156.656C136.122 172.379 136.937 188.106 137.531 203.844C138.065 217.972 138.43 232.118 138.844 246.25C139.134 256.161 139.514 266.054 139.656 275.969C140.138 309.482 138.374 342.985 138.969 376.5C139.482 405.426 140.408 434.361 141.156 463.281C141.337 470.277 140.943 477.255 141.156 484.25C141.491 495.251 142.537 506.239 143.25 517.219C143.833 526.207 144.231 535.214 144.406 544.219C144.926 570.98 143.268 597.712 143.188 624.469C143.143 639.3 143.534 654.146 144 668.969C144.258 677.171 144.645 685.356 144.75 693.562C144.959 709.94 144.49 726.34 144.531 742.719C144.817 726.337 145.602 709.947 145.719 693.562C145.793 683.106 145.488 672.644 145.406 662.188C145.308 649.628 145.351 637.056 145.688 624.5C146.468 595.328 149.323 566.222 149.469 537.031C149.489 533.068 149.481 529.117 149.312 525.156C148.731 511.458 147.171 497.799 146.75 484.094C146.535 477.107 146.933 470.112 146.75 463.125C145.993 434.218 144.996 405.318 144.438 376.406C143.931 350.205 144.815 324.01 145.062 297.812C145.172 286.216 145.009 274.625 144.781 263.031C144.368 241.985 143.184 220.963 141.688 199.969C140.624 185.043 139.488 170.112 138.031 155.219C137.07 145.397 135.442 135.654 134.688 125.812C133.906 115.622 134.003 105.396 133.656 95.1875C133.387 87.2627 132.635 79.367 133.188 71.4375Z" fill="#000000" fill-opacity="0.24395" stroke="none"/>
</g>
<g opacity="1" vectornatorLayerName="Curve 14">
<path d="M233.531 79.375C231.935 98.8006 232.014 118.283 231.312 137.75C230.088 171.724 228.644 205.718 229.688 239.719C229.959 248.576 230.395 257.429 230.781 266.281C231.865 291.111 233.125 315.963 233.656 340.812C234.05 359.221 233.465 377.622 233.5 396.031C233.529 411.005 233.876 425.964 234 440.938C234.156 459.739 234.039 478.543 234.219 497.344C234.352 511.317 234.8 525.309 235.031 539.281C235.226 551.019 235.457 562.761 235.469 574.5C235.481 587.17 235.302 599.831 235.344 612.5C235.37 620.419 235.524 628.334 235.719 636.25C236.042 649.388 237.689 662.458 238.062 675.594C238.242 681.918 238.069 688.23 237.5 694.531C238.207 688.236 238.511 681.928 238.469 675.594C238.395 664.575 237.433 653.572 237.094 642.562C236.59 626.229 237.181 609.858 237.688 593.531C238.299 573.837 238.581 554.136 238.969 534.438C239.212 522.076 239.638 509.707 239.75 497.344C240.048 464.478 239.386 431.613 239.062 398.75C238.926 384.939 239.248 371.124 239.25 357.312C239.252 345.008 238.918 332.703 238.5 320.406C237.869 301.859 236.937 283.321 236.125 264.781C235.757 256.367 235.48 247.947 235.156 239.531C234.897 232.807 234.546 226.102 234.344 219.375C234.071 210.322 233.807 201.243 233.656 192.188C233.355 174.054 233.523 155.917 233.5 137.781C233.476 118.303 232.66 98.8451 233.531 79.375Z" fill="#000000" fill-opacity="0.24395" stroke="none"/>
</g>
<g opacity="1" vectornatorLayerName="Curve 15">
<path d="M315.406 83.5938C315.212 89.976 314.608 96.2951 313.781 102.625C313.057 108.171 312.095 113.712 311.562 119.281C310.93 125.893 311.156 132.527 310.906 139.156C310.581 147.774 309.852 156.371 309.844 165C309.832 177.325 310.131 189.649 310.469 201.969C310.825 214.987 311.249 228.025 311.938 241.031C312.979 260.704 314.37 280.365 315.531 300.031C316.857 322.487 318.102 344.928 318.969 367.406C320.072 396.014 320.249 424.656 320.312 453.281C320.351 470.597 320.231 487.938 320.625 505.25C321.069 524.768 321.626 544.279 322.531 563.781C323.385 582.17 324.549 600.537 325.125 618.938C325.848 642.043 325.552 665.199 325.719 688.312C326.063 665.189 326.869 642.034 326.656 618.906C326.412 592.345 325.187 565.816 325.312 539.25C325.383 524.324 325.8 509.393 325.938 494.469C326.081 478.947 325.963 463.428 325.906 447.906C325.808 421.004 325.52 394.071 324.438 367.188C323.163 335.533 321.199 303.931 319.25 272.312C318.601 261.783 318.056 251.248 317.406 240.719C316.258 222.126 314.871 203.54 313.875 184.938C313.443 176.859 312.951 168.777 312.812 160.688C312.69 153.528 313.033 146.347 313.031 139.188C313.03 132.579 312.558 125.98 312.938 119.375C313.258 113.806 313.988 108.241 314.5 102.688C315.087 96.3202 315.454 89.9895 315.406 83.5938Z" fill="#000000" fill-opacity="0.24395" stroke="none"/>
</g>
<g opacity="1" vectornatorLayerName="Curve 16">
<path d="M408.25 88.1562C407.23 91.2501 406.573 94.4058 406.312 97.6562C405.765 104.484 406.767 111.28 407.062 118.094C407.384 125.524 406.991 132.977 406.812 140.406C406.482 154.151 406.081 167.946 406.688 181.688C407.364 197.015 409.326 212.264 410 227.594C410.532 239.677 410.609 251.783 410.781 263.875C410.876 270.563 411.028 277.251 411.188 283.938C412.244 328.195 413.261 372.439 414.688 416.688C415.592 444.759 417.249 472.825 417.812 500.906C418.005 510.487 418.153 520.074 418.25 529.656C418.322 536.791 418.329 543.929 418.469 551.062C418.774 566.643 419.266 582.202 419.656 597.781C420.257 621.802 420.863 645.84 421.969 669.844C422.532 682.08 423.299 694.303 424 706.531C424.747 719.574 425.202 732.616 426 745.656C426.456 753.105 427.089 760.536 427.75 767.969C427.235 760.527 426.747 753.11 426.438 745.656C425.954 734 425.748 722.315 425.344 710.656C424.961 699.617 424.458 688.605 424.156 677.562C423.66 659.407 423.44 641.224 423.406 623.062C423.378 608.133 423.485 593.209 423.656 578.281C423.76 569.193 423.948 560.089 424 551C424.063 539.967 423.852 528.939 423.719 517.906C423.343 486.788 421.628 455.718 420.469 424.625C419.684 403.572 419.086 382.528 418.5 361.469C417.733 333.923 417.058 306.365 416.562 278.812C416.254 261.647 415.841 244.438 414.562 227.312C413.419 211.995 411.034 196.811 409.844 181.5C408.682 166.552 408.666 151.485 408.562 136.5C408.514 129.419 408.498 122.335 407.812 115.281C407.243 109.426 406.383 103.555 406.656 97.6562C406.806 94.4121 407.338 91.27 408.25 88.1562Z" fill="#000000" fill-opacity="0.24395" stroke="none"/>
</g>
<g opacity="1" vectornatorLayerName="Curve 17">
<path d="M506.281 90.4688C504.378 107.811 506.002 125.207 505.312 142.594C504.731 157.244 503.225 171.825 502.094 186.438C501.358 195.944 500.794 205.467 500.531 215C499.794 241.743 501.067 268.506 500.594 295.25C500.023 327.487 498.33 359.668 497.812 391.906C497.352 420.567 498.119 449.245 497.75 477.906C497.578 491.283 496.681 504.653 496.625 518.031C496.584 527.736 496.961 537.429 497.312 547.125C497.897 563.236 498.683 579.353 499.125 595.469C499.948 625.455 499.289 655.447 499.625 685.438C499.709 692.965 500.31 700.455 500.719 707.969C500.923 711.726 501.031 715.489 501.125 719.25C501.111 715.486 501.062 711.731 500.938 707.969C500.689 700.458 500.268 692.956 500.344 685.438C500.621 657.932 501.799 630.445 501.938 602.938C502.047 581.094 501.458 559.25 501.75 537.406C501.895 526.531 502.201 515.652 502.562 504.781C502.86 495.848 503.233 486.907 503.344 477.969C503.7 449.311 502.868 420.657 503.281 392C503.772 357.93 505.588 323.882 506.062 289.812C506.229 277.86 506.161 265.919 505.875 253.969C505.513 238.848 504.808 223.723 504.938 208.594C505.125 186.592 507.149 164.629 507.219 142.625C507.274 125.212 505.011 107.882 506.281 90.4688Z" fill="#000000" fill-opacity="0.24395" stroke="none"/>
</g>
<g opacity="1" vectornatorLayerName="Curve 18">
<path d="M594.688 90.7188C594.887 103.91 595.847 117.088 595.25 130.281C594.193 153.636 591.495 176.918 590.531 200.281C589.267 230.931 590.476 261.593 591.781 292.219C593.004 320.921 594.42 349.643 596.25 378.312C598.402 412.029 601.107 445.721 603.688 479.406C605.164 498.675 607.342 517.877 608.688 537.156C610.024 556.302 610.321 575.499 611.438 594.656C612.61 614.759 614.844 634.76 616.25 654.844C616.804 662.762 617.186 670.691 617.406 678.625C617.366 670.684 617.187 662.745 616.812 654.812C615.939 636.309 614.342 617.854 613.594 599.344C612.926 582.831 612.965 566.302 612.625 549.781C612.388 538.263 611.849 526.757 611.312 515.25C610.926 506.966 610.646 498.683 610.125 490.406C609.485 480.229 608.633 470.073 607.844 459.906C606.512 442.755 605.142 425.593 603.875 408.438C601.558 377.047 599.752 345.625 598.219 314.188C597.497 299.387 596.834 284.591 596.312 269.781C596.003 260.997 595.837 252.224 595.594 243.438C595.196 229.088 594.634 214.732 594.719 200.375C594.856 177.018 596.634 153.7 596.781 130.344C596.864 117.106 595.402 103.923 594.688 90.7188Z" fill="#000000" fill-opacity="0.24395" stroke="none"/>
</g>
<g opacity="1" vectornatorLayerName="Curve 19">
<path d="M342.594 140.031C327.661 139.89 312.71 140.183 297.781 140.5C268.914 141.113 240.08 142.231 211.219 143.031C199.818 143.347 188.403 143.487 177 143.719C155.886 144.148 134.774 144.744 113.656 144.938C79.8513 145.248 46.0692 144.911 12.2812 143.781C49.0479 146.347 85.8398 147.983 122.688 148.75C140.81 149.127 158.967 149.434 177.094 149.219C201.115 148.934 225.115 148.042 249.125 147.281C278.471 146.352 307.825 145.526 337.188 145.531C358.652 145.535 380.098 146.802 401.562 146.969C415.092 147.074 428.627 147.178 442.156 147.125C452.981 147.082 463.801 146.808 474.625 146.656C493.962 146.385 513.318 146.149 532.656 145.969C557.484 145.738 582.348 145.962 607.156 144.812C619.764 144.229 632.34 143.253 644.875 141.781C632.321 142.987 619.733 143.714 607.125 144.031C580.563 144.7 553.966 143.801 527.406 143.406C509.818 143.145 492.241 142.832 474.656 142.406C463.835 142.144 453.011 141.715 442.188 141.562C425.093 141.322 408 141.551 390.906 141.25C374.798 140.966 358.704 140.183 342.594 140.031Z" fill="#000000" fill-opacity="0.24395" stroke="none"/>
</g>
<g opacity="1" vectornatorLayerName="Curve 20">
<path d="M282.188 228.781C277.406 228.779 272.594 228.919 267.812 229C253.492 229.242 239.19 229.7 224.875 230.156C203.35 230.843 181.836 231.394 160.312 232.094C132.943 232.983 105.511 233.891 78.125 233.25C67.8829 233.01 57.6516 232.525 47.4062 232.406C43.996 232.367 40.597 232.384 37.1875 232.469C34.1167 232.545 31.0422 232.646 28 233.094C24.9428 233.544 21.9284 234.214 18.875 234.688C17.1771 234.951 15.4853 235.056 13.7812 235.25C12.4352 235.403 10.0781 236.116 8.84375 235.188C7.01143 233.809 9.734 231.676 10.5938 230.656C10.9419 230.243 10.9021 230.254 11.1875 229.812C10.8805 230.252 10.5632 230.648 10.1875 231.031C9.16729 232.073 6.89487 233.923 8.6875 235.375C10.0625 236.488 12.7748 235.699 14.3438 235.625C19.4952 235.38 24.525 234.25 29.6562 233.844C32.1635 233.645 34.6746 233.692 37.1875 233.719C40.5806 233.755 43.9855 233.841 47.375 234C57.9851 234.498 68.5499 235.455 79.1562 236C95.6924 236.849 112.256 237.235 128.812 237.406C142.703 237.55 156.58 237.537 170.469 237.25C189.258 236.862 208.06 236.078 226.844 235.5C241.133 235.06 255.424 234.631 269.719 234.406C273.873 234.341 278.033 234.21 282.188 234.219C286.342 234.227 290.502 234.388 294.656 234.469C300.01 234.573 305.367 234.622 310.719 234.781C316.922 234.966 323.117 235.345 329.312 235.688C340.879 236.326 352.427 237.052 364 237.562C376.244 238.103 388.5 238.423 400.75 238.812C414.643 239.254 428.541 239.764 442.438 240.062C451.705 240.262 460.981 240.217 470.25 240.281C487.052 240.398 503.853 240.487 520.656 240.5C533.063 240.509 545.468 240.479 557.875 240.406C570.633 240.332 583.411 240.184 596.156 239.562C602.237 239.266 608.314 238.86 614.375 238.281C621.684 237.584 628.974 236.679 636.281 235.969C641.154 235.495 646.021 235.175 650.906 234.875C646.014 235.075 641.133 235.283 636.25 235.656C627.712 236.309 619.203 237.232 610.656 237.781C600.372 238.442 590.053 238.639 579.75 238.656C567.921 238.676 556.076 238.399 544.25 238.156C524.82 237.758 505.388 237.218 485.969 236.469C472.082 235.933 458.227 235.172 444.344 234.562C437.405 234.258 430.442 234.121 423.5 233.906C403.749 233.296 383.993 232.84 364.25 232C352.252 231.49 340.272 230.737 328.281 230.094C322.483 229.783 316.68 229.445 310.875 229.281C305.504 229.129 300.123 229.096 294.75 229C290.564 228.925 286.374 228.783 282.188 228.781Z" fill="#000000" fill-opacity="0.24395" stroke="none"/>
</g>
<g opacity="1" vectornatorLayerName="Curve 21">
<path d="M652.219 318.312C647.528 319.01 642.827 319.582 638.094 319.906C627.149 320.656 616.182 320.475 605.219 320.594C594.617 320.708 584.007 320.999 573.406 321.156C565.425 321.274 557.45 321.24 549.469 321.312C532.929 321.463 516.417 322.802 499.875 322.938C481.784 323.086 463.712 322.615 445.625 322.375C434.953 322.233 424.267 322.211 413.594 322.125C397.811 321.998 382.033 321.84 366.25 321.781C323.31 321.621 280.375 322.115 237.438 322.469C216.22 322.643 194.996 322.71 173.781 323.062C150.244 323.454 126.711 324.513 103.188 325.344C94.5797 325.648 85.9795 325.56 77.375 325.969C72.6497 326.193 67.9087 326.545 63.1875 326.844C54.4313 327.397 45.6756 328.025 36.9688 329.125C26.5389 330.443 16.2803 332.958 5.75 333.406C16.2861 333.332 26.6273 331.197 37.0938 330.25C50.1618 329.068 63.3236 328.789 76.4375 328.531C85.3758 328.356 94.3425 328.809 103.281 328.781C114.359 328.747 125.422 328.648 136.5 328.625C148.95 328.599 161.394 328.63 173.844 328.531C182.606 328.462 191.363 328.282 200.125 328.188C222.514 327.947 244.923 327.799 267.312 327.625C295.768 327.403 324.231 327.213 352.688 327.312C371.588 327.379 390.475 327.545 409.375 327.719C424.707 327.859 440.044 328.041 455.375 327.75C464.667 327.574 473.961 327.287 483.25 327C490.363 326.78 497.485 326.59 504.594 326.25C518.432 325.588 532.222 324.275 546.062 323.656C553.674 323.316 561.292 323.208 568.906 322.938C581.393 322.494 593.887 321.924 606.375 321.531C616.964 321.198 627.566 321.13 638.125 320.188C642.854 319.765 647.539 319.107 652.219 318.312Z" fill="#000000" fill-opacity="0.24395" stroke="none"/>
</g>
<g opacity="1" vectornatorLayerName="Curve 22">
<path d="M665.5 409.25C658.684 410.053 651.954 411.407 645.125 412.094C619.893 414.63 594.543 415.466 569.25 417.156C552.209 418.295 535.196 420.091 518.125 420.75C493.031 421.719 467.909 420.928 442.812 421.719C425.994 422.248 409.189 422.944 392.375 423.594C337.631 425.71 282.909 428.309 228.188 430.938C211.691 431.73 195.181 432.315 178.688 433.156C143.831 434.934 108.979 436.991 74.0938 438.156C66.1483 438.422 58.1935 438.649 50.25 438.969C46.0773 439.137 41.9131 439.284 37.75 439.625C28.2737 440.401 18.8774 442.461 9.375 440.781C18.8272 442.795 28.3007 441.039 37.8125 440.594C41.9696 440.399 46.1205 440.428 50.2812 440.406C58.2276 440.364 66.1786 440.425 74.125 440.438C94.1857 440.468 114.256 440.14 134.312 439.75C149.732 439.45 165.151 439.167 180.562 438.562C197.074 437.915 213.588 437.034 230.094 436.25C284.922 433.644 339.744 431.192 394.594 429.094C434.478 427.568 474.396 426.57 514.25 424.344C532.69 423.314 551.022 420.833 569.406 419.156C590.073 417.271 610.789 416.156 631.438 414.062C637.144 413.484 642.893 412.934 648.562 412.062C654.221 411.192 659.828 410.036 665.5 409.25Z" fill="#000000" fill-opacity="0.24395" stroke="none"/>
</g>
<g opacity="1" vectornatorLayerName="Curve 23">
<path d="M374 522.469C330.347 522.993 286.818 526.746 243.219 528.594C226.595 529.298 209.971 529.748 193.344 530.344C169.097 531.213 144.858 532.498 120.625 533.688C102.378 534.583 84.1163 535.274 65.9062 536.781C59.986 537.271 54.0669 537.793 48.1875 538.656C37.8019 540.18 27.5769 542.621 17.0938 543.469C27.597 542.976 37.8839 540.891 48.3125 539.719C54.1909 539.058 60.1248 538.726 66.0312 538.438C82.3443 537.641 98.6727 537.544 115 537.281C127.862 537.075 140.7 536.805 153.562 536.594C171.042 536.307 188.529 536.031 206 535.406C229.394 534.57 252.785 533.637 276.156 532.312C305.144 530.67 334.121 528.737 363.156 528.156C375.156 527.916 387.185 527.912 399.188 527.906C425.125 527.895 451.064 528.235 477 528.5C484.983 528.582 492.955 528.451 500.938 528.406C511.32 528.348 521.711 528.343 532.094 528.344C558.592 528.346 585.098 528.627 611.594 528.219C639.473 527.789 667.31 525.931 695.156 524.625C667.31 525.381 639.456 526.763 611.594 526.562C599.481 526.475 587.36 526.155 575.25 525.875C555.29 525.414 535.329 524.886 515.375 524.219C503.002 523.805 490.625 523.284 478.25 522.969C465.077 522.634 451.896 522.581 438.719 522.469C417.141 522.285 395.577 522.21 374 522.469Z" fill="#000000" fill-opacity="0.24395" stroke="none"/>
</g>
<g opacity="1" vectornatorLayerName="Curve 24">
<path d="M692.438 609.688C677.364 610.897 662.277 611.498 647.156 611.625C624.448 611.816 601.735 611.075 579.031 610.781C566.037 610.613 553.056 610.661 540.062 610.875C528.186 611.071 516.311 611.398 504.438 611.719C495.285 611.966 486.118 612.139 476.969 612.469C465.891 612.868 454.83 613.355 443.75 613.719C428.785 614.21 413.814 614.588 398.844 614.875C368.896 615.449 338.921 615.614 308.969 615.656C294.664 615.676 280.367 615.52 266.062 615.719C245.613 616.002 225.163 617.014 204.719 617.531C181.222 618.125 157.742 618.919 134.25 619.688C116.052 620.282 97.8402 620.753 79.6562 621.688C59.6861 622.713 39.8678 626.008 19.8438 626C39.8425 626.689 59.7388 624.094 79.7188 623.75C91.14 623.553 102.577 623.624 114 623.594C140.672 623.522 167.33 623.612 194 623.25C204.62 623.106 215.261 622.677 225.875 622.312C242.52 621.741 259.157 621.19 275.812 621.094C296.866 620.971 317.915 621.156 338.969 621.062C373.96 620.907 408.963 620.477 443.938 619.344C455.037 618.984 466.129 618.602 477.219 618C487.378 617.449 497.534 616.667 507.688 616.031C523.916 615.015 540.154 614.125 556.406 613.594C586.654 612.604 616.907 613.387 647.156 612.531C662.282 612.103 677.381 611.197 692.438 609.688Z" fill="#000000" fill-opacity="0.24395" stroke="none"/>
</g>
<g opacity="1" vectornatorLayerName="Curve 25">
<path d="M716.969 679.625C690.481 682.819 663.889 684.612 637.219 685.281C616.775 685.794 596.322 685.472 575.875 685.344C559.027 685.238 542.191 685.228 525.344 685.062C516.041 684.971 506.74 684.763 497.438 684.656C483.263 684.494 469.078 684.579 454.906 684.156C430.446 683.426 406.03 681.711 381.562 681.156C349.547 680.43 317.521 680.408 285.5 680.75C264.198 680.978 242.855 681.277 221.562 681.969C203.558 682.554 185.633 684.311 167.625 684.812C145.222 685.437 122.808 683.906 100.406 684.719C76.7255 685.578 53.1765 688.455 29.5625 690.281C53.1908 689.244 76.8061 687.163 100.469 687.094C124.586 687.023 148.627 689.537 172.75 689.25C193.854 688.999 214.903 687.539 236 687C284.451 685.762 332.983 685.516 381.438 686.688C410.798 687.397 440.101 689.594 469.469 690.094C478.786 690.252 488.12 690.298 497.438 690.188C508.084 690.062 518.701 689.714 529.344 689.438C544.855 689.034 560.393 688.614 575.906 688.312C598.037 687.882 620.138 687.687 642.25 686.594C667.254 685.357 692.176 683.105 716.969 679.625Z" fill="#000000" fill-opacity="0.24395" stroke="none"/>
</g>
<g opacity="1" vectornatorLayerName="Curve 26">
<path d="M89.0273 171.709C79.7732 171.705 72.3153 183.803 70.8602 192.1C68.1291 207.673 78.562 221.052 95.0571 220.057C108.599 219.241 116.57 213.562 122.227 201.053C126.196 192.28 122.467 177.983 113.423 173.776C107.147 170.856 97.7562 169.412 91.0077 171.15C86.2819 172.367 82.1997 175.27 77.7043 177.047" fill="#ff3636" fill-rule="nonzero" stroke="none"/>
<path d="M99.0938 169.5C95.8735 169.497 92.6572 169.935 89.6875 171C89.0697 171.222 88.507 171.58 87.9062 171.844C83.3061 172.099 79.3154 174.836 76.2812 178.219C70.75 184.386 67.6323 192.57 68.3125 200.875C68.5492 203.765 69.2814 206.659 70.5312 209.281C73.2874 215.065 78.709 219.524 84.75 221.5C88.7064 222.794 92.8449 223 96.9688 222.625C102.718 222.102 108.413 220.523 113.188 217.188C117.031 214.503 120.058 210.876 122.406 206.844C123.511 204.947 124.563 202.943 125.312 200.875C126.639 197.212 126.95 193.149 126.344 189.312C125.879 186.371 124.706 183.537 123.219 180.969C121.556 178.096 119.348 175.455 116.531 173.656C114.133 172.125 111.313 171.292 108.562 170.656C105.532 169.956 102.314 169.503 99.0938 169.5ZM94.4375 171.219C98.9634 170.886 103.647 171.735 107.875 173.125C110.218 173.895 112.652 174.844 114.594 176.406C118.015 179.159 119.79 183.423 120.5 187.656C121.021 190.762 121.194 193.895 120.594 197C120.11 199.502 118.821 201.855 117.562 204.031C113.723 210.671 108.372 214.944 100.812 216.562C97.1666 217.343 93.296 217.689 89.5938 217.094C81.3028 215.761 75.5226 209.786 73.375 201.812C71.1979 193.729 73.4748 184.952 78.4688 178.344C79.2346 177.33 80.1401 176.419 81.0625 175.562C83.9969 174.221 86.9276 172.814 90 171.969C91.4517 171.569 92.9289 171.33 94.4375 171.219ZM87.375 172.094C85.5929 172.911 83.8147 173.728 82.0938 174.688C83.6594 173.442 85.4127 172.562 87.375 172.094Z" fill="#ff3636" stroke="none"/>
</g>
<g opacity="1" vectornatorLayerName="Curve 27">
<path d="M180.348 368.272C178.417 369.391 176.463 370.479 174.606 371.717C168.141 376.027 164.465 383.139 163.45 390.748C160.93 409.649 183.021 418.377 198.558 413.716C202.322 412.586 205.982 409.127 208.402 406.169C215.069 398.02 215.332 385.658 208.73 377.295C204.112 371.446 195.862 367.09 188.387 366.467C186.765 366.332 182.189 366.327 180.84 367.452C180.309 367.894 181.944 367.347 180.348 368.272Z" fill="#c12b2b" fill-rule="nonzero" stroke="none"/>
<path d="M190.344 366.219C188.155 365.956 185.926 366.018 183.75 366.375C182.718 366.544 181.663 366.77 180.812 367.406C180.71 367.483 180.762 367.535 180.781 367.594C180.794 367.619 180.853 367.514 180.875 367.5C181.95 366.835 183.297 366.766 184.531 366.719C186.432 366.646 188.325 366.8 190.188 367.188C197.5 368.709 205.27 373.596 208.781 380.344C210.844 384.309 211.233 388.531 210.719 392.906C210.451 395.184 210.039 397.402 209.156 399.531C207.376 403.826 203.874 407.688 199.906 410.094C198.433 410.987 196.74 411.402 195.062 411.719C193.184 412.073 191.286 412.24 189.375 412.219C182.65 412.145 175.335 409.909 170.562 404.969C169 403.352 167.827 401.4 166.938 399.344C166.348 397.981 165.939 396.53 165.719 395.062C164.667 388.065 180.344 368.281 180.344 368.281C180.344 368.281 173.258 371.565 170.312 374.156C165.794 378.13 162.888 383.642 161.562 389.469C160.85 392.6 160.666 395.839 161.312 399C163.584 410.11 175.479 416.307 185.875 417.469C187.768 417.68 189.66 417.745 191.562 417.656C195.362 417.479 199.463 416.823 202.781 414.844C210.205 410.416 216.008 402.087 216.25 393.281C216.366 389.076 215.129 384.687 213.156 381C208.782 372.822 199.434 367.308 190.344 366.219ZM180.344 368.281C180.344 368.281 181.077 368.017 181.094 367.75C181.101 367.637 180.992 367.746 181.031 367.75C181 367.89 180.344 368.281 180.344 368.281ZM181.031 367.75C181.113 367.758 180.923 367.614 180.844 367.594C180.823 367.589 180.772 367.575 180.781 367.594C180.821 367.713 180.952 367.78 181.031 367.75Z" fill="#c12b2b" stroke="none"/>
</g>
<g opacity="1" vectornatorLayerName="Curve 28">
<path d="M360.975 169.107C354.964 169.633 350.836 174.17 346.866 178.458C340.235 185.62 338.675 193.862 339.975 203.395C340.979 210.758 345.349 216.633 352.444 218.816C358.812 220.776 366.581 217.241 372.13 214.551C381.851 209.838 394.429 197.044 387.88 185.349C384.19 178.759 377.88 171.313 370.818 168.287C369.778 167.841 366.202 166.496 364.912 167.302C363.78 168.01 363.402 168.895 360.975 169.107Z" fill="#ff6868" fill-rule="nonzero" stroke="none"/>
<path d="M366.812 166.844C366.29 166.801 365.723 166.767 365.219 166.938C364.395 167.216 360.969 169.094 360.969 169.094C360.969 169.094 362.485 168.951 363.188 168.625C363.926 168.282 364.547 167.54 365.344 167.344C365.798 167.232 366.297 167.299 366.75 167.375C369.316 167.808 371.849 169.182 373.938 170.656C378.362 173.779 381.904 178.156 384.656 182.781C386.591 186.033 388.148 189.388 387.438 193.25C387.082 195.181 386.202 196.945 385.219 198.625C384.257 200.268 383.261 201.848 382.031 203.312C379.536 206.282 376.507 208.811 373.188 210.812C371.073 212.087 368.793 213.114 366.531 214.094C363.833 215.263 360.939 216.252 358 216.562C352.022 217.193 346.636 213.648 344.156 208.281C343.059 205.907 342.676 203.396 342.438 200.812C341.89 194.886 342.008 189.355 344.781 183.938C346.287 180.996 360.969 169.094 360.969 169.094C360.969 169.094 351.899 172.19 348.125 175.594C345.871 177.626 343.674 179.713 341.938 182.219C337.595 188.484 336.163 196.305 337.25 203.781C338.519 212.516 344.584 220.354 353.625 221.875C355.256 222.149 356.919 222.162 358.562 222C362.662 221.596 366.576 220.135 370.312 218.469C375.964 215.948 380.954 212.792 385.188 208.219C387.954 205.23 390.287 201.834 391.281 197.844C392.254 193.939 391.964 189.762 390.188 186.125C389.031 183.759 387.368 181.602 385.719 179.562C383.461 176.771 380.901 174.203 378.062 172C374.899 169.545 370.931 167.181 366.812 166.844Z" fill="#ff6868" stroke="none"/>
</g>
<g opacity="1" vectornatorLayerName="Curve 29">
<path d="M367.537 449.808C362.956 449.35 359.681 451.627 356.053 454.402C346.715 461.543 341.895 467.084 343.256 479.338C344.899 494.125 358.331 503.812 372.13 506.572C374.48 507.042 377.246 507.575 379.677 507.228C384.53 506.535 390.462 503.319 394.442 500.666C401.276 496.11 408.754 488.744 410.192 480.323C412.958 464.122 394.403 443.246 378.036 443.246C368.07 443.246 361.834 447.308 355.069 454.073" fill="#c12b2b" fill-rule="nonzero" stroke="none"/>
<path d="M376.594 442.469C371.914 442.775 367.274 444.315 363.375 446.844C360.272 448.856 357.603 451.395 355.062 454.062C357.739 451.579 360.526 449.207 363.719 447.406C369.131 444.354 375.88 443.144 381.969 444.594C385.794 445.505 389.359 447.416 392.5 449.75C398.804 454.434 403.781 461.138 406.125 468.656C407.254 472.278 408.089 476.045 407.438 479.844C406.597 484.744 403.487 489.036 400.062 492.5C395.215 497.404 389.066 501.421 382.562 503.719C381.214 504.195 379.778 504.567 378.344 504.625C376.835 504.686 375.321 504.429 373.844 504.156C371.816 503.782 369.803 503.301 367.844 502.656C357.409 499.223 347.829 491.106 345.594 479.938C345.195 477.943 344.979 475.878 345 473.844C345.015 472.381 345.19 470.924 345.531 469.5C347.007 463.345 351.839 458.896 356.469 454.938C359.842 452.053 362.954 449.701 367.531 449.812C362.381 449.136 358.5 451.835 354.438 454.688C349.34 458.267 344.348 462.458 342.25 468.531C341.529 470.619 341.163 472.799 341.031 475C340.842 478.157 341.057 481.392 341.812 484.469C344.682 496.157 355.158 504.143 366.156 507.781C368.346 508.506 370.578 509.045 372.844 509.469C374.719 509.82 376.617 510.127 378.531 510.062C381.509 509.963 384.478 508.945 387.188 507.781C393.762 504.958 399.95 500.735 404.875 495.531C409.311 490.844 412.808 485.01 413.219 478.438C413.666 471.27 410.919 464.953 406.75 459.281C403.082 454.292 398.4 449.935 393.062 446.781C389.451 444.647 385.437 443.05 381.25 442.562C379.706 442.383 378.154 442.367 376.594 442.469Z" fill="#c12b2b" stroke="none"/>
</g>
<g opacity="1" vectornatorLayerName="Curve 30">
<path d="M547.685 265.122C544.744 265.028 541.071 264.673 538.319 266.068C535.037 267.731 531.583 269.213 528.734 271.541C526.408 273.44 524.422 278.683 523.658 281.515C521.298 290.267 524.279 299.591 531.463 305.282C537.235 309.853 545.157 310.963 552.276 310.615C554.674 310.498 559.779 309.031 561.931 308.064C576.889 301.342 582.731 284.003 575.834 269.49C574.055 265.746 570.822 262.225 567.039 260.466C556.878 255.741 545.158 260.668 536.244 265.601" fill="#ff6868" fill-rule="nonzero" stroke="none"/>
<path d="M559.531 257.625C551.36 257.487 543.042 261.552 536.25 265.594C544.367 261.54 553.765 257.728 562.938 260.188C564.161 260.516 565.386 260.991 566.5 261.594C573.832 265.562 576.173 273.883 575.938 281.688C575.827 285.36 575.3 288.913 573.844 292.312C571.367 298.097 566.642 303.016 560.844 305.531C558.541 306.53 556.063 307.228 553.594 307.688C551.429 308.09 549.185 307.999 547 307.875C542.14 307.6 537.021 306.264 533.156 303.188C528.104 299.165 525.114 292.498 525.156 286.062C525.173 283.553 525.672 281.131 526.438 278.75C527.042 276.871 527.773 274.895 528.938 273.281C529.807 272.077 531.106 271.204 532.312 270.375C533.819 269.34 535.419 268.443 537 267.531C537.944 266.987 538.872 266.374 539.906 266C542.376 265.108 545.101 265.193 547.688 265.125C545.03 264.858 542.269 264.437 539.625 265.031C538.482 265.288 537.418 265.8 536.344 266.25C535.092 266.775 534.141 267.151 532.906 267.719C531.052 268.571 529.101 269.516 527.531 270.844C525.513 272.55 524.228 275.079 523.156 277.438C520.266 283.797 519.488 291.122 522.25 297.688C523.042 299.569 524.117 301.333 525.375 302.938C530.451 309.413 537.621 312.439 545.656 313.188C548.019 313.408 550.444 313.506 552.812 313.312C555.185 313.119 557.585 312.451 559.844 311.75C562.357 310.97 564.703 309.921 566.938 308.531C574.332 303.934 579.496 296.284 581.031 287.719C581.39 285.716 581.586 283.63 581.469 281.594C581.229 277.447 579.921 273.318 578.062 269.625C575.817 265.164 572.222 261.315 567.594 259.312C564.966 258.176 562.255 257.671 559.531 257.625Z" fill="#ff6868" stroke="none"/>
</g>
<g opacity="1" vectornatorLayerName="Curve 31">
<path d="M461.734 549.921C452.102 550.609 443.664 553.147 437.394 560.985C435.265 563.646 434.05 567.725 433.285 570.784C428.962 588.076 441.733 596.814 457.308 597.968C458.599 598.063 463.798 598.576 465.211 598.284C482.181 594.773 491.28 569.111 478.171 556.875C471.253 550.419 461.873 551.818 453.199 551.818" fill="#ff3636" fill-rule="nonzero" stroke="none"/>
<path d="M461.719 549.906C461.719 549.906 458.09 550.696 460.531 550.094C460.896 550.004 459.879 550.201 459.438 550.281C460.052 550.131 460.187 550.103 460.531 549.938C460.89 549.764 459.742 549.953 459.344 549.969C458.949 549.985 458.551 550.007 458.156 550.031C456.987 550.102 455.817 550.219 454.656 550.375C451.235 550.834 447.873 551.697 444.75 553.188C441.168 554.897 437.723 557.439 435.281 560.594C433.654 562.695 432.561 565.175 431.656 567.656C430.829 569.925 430.164 572.258 429.844 574.656C429.524 577.049 429.672 579.518 430.188 581.875C430.594 583.734 431.205 585.565 432.094 587.25C436.979 596.516 447.703 599.91 457.469 600.75C460.12 600.978 463.041 601.445 465.656 601.031C470.021 600.341 474.19 597.821 477.375 594.844C480.832 591.612 483.731 587.37 485.188 582.844C487.145 576.761 486.953 569.264 484.344 563.406C482.289 558.794 478.61 554.952 473.906 553.031C471.174 551.916 468.248 551.455 465.312 551.344C462.735 551.246 460.134 551.404 457.562 551.562C456.83 551.608 456.108 551.677 455.375 551.719C455.126 551.733 454.855 551.741 454.625 551.75C454.474 551.803 454.388 551.792 454.281 551.844C453.954 552.003 455.011 551.867 455.375 551.875C456.109 551.892 456.86 551.893 457.594 551.906C459.787 551.947 461.971 551.988 464.156 552.188C471.057 552.818 477.058 555.361 480.406 561.781C482.549 565.89 482.935 570.726 481.969 575.219C481.543 577.197 480.827 579.084 480.031 580.938C478.586 584.305 476.836 587.456 474.25 590.094C471.732 592.662 468.351 594.888 464.75 595.531C463.668 595.725 462.456 595.558 461.375 595.5C460.095 595.431 458.809 595.32 457.531 595.219C449.017 594.542 438.58 591.327 435.812 582.188C435.128 579.926 435.114 577.527 435.25 575.188C435.372 573.099 435.754 571.067 436.219 569.031C436.709 566.887 437.347 564.69 438.469 562.781C440.595 559.163 444.07 556.158 447.719 554.156C449.605 553.121 451.605 552.357 453.656 551.719C453.707 551.703 453.762 551.703 453.812 551.688C454.522 551.47 455.218 551.211 455.938 551.031C457.068 550.749 458.228 550.487 459.375 550.281C458.309 550.538 456.804 550.895 457.469 550.875C459.285 550.821 461.719 549.906 461.719 549.906ZM457.469 550.875C455.884 550.976 454.359 551.509 453.812 551.688C454.662 551.515 456.218 551.206 454.281 551.75C454.171 551.781 454.52 551.754 454.625 551.75C455.884 551.309 458.456 550.812 457.469 550.875Z" fill="#ff3636" stroke="none"/>
</g>
<g opacity="1" vectornatorLayerName="Curve 32">
<path d="M549.924 346.041C546.325 346.041 542.325 344.992 538.861 346.357C536.449 347.307 534.112 348.472 531.907 349.834C523.962 354.741 522.044 364.651 521.792 373.225C521.261 391.262 539.951 405.403 557.194 402.622C563.031 401.68 569.335 398.953 574.263 395.667C577.193 393.714 580.266 391.767 582.482 389.03C588.958 381.029 591.7 368.147 585.01 359.317C582.179 355.579 577.645 352.71 573.947 349.834C572.325 348.573 569.668 346.146 567.625 345.409C558.467 342.101 550.537 343.519 541.706 346.673" fill="#ff6868" fill-rule="nonzero" stroke="none"/>
<path d="M559.938 343.062C555.954 342.814 551.987 343.394 548.156 344.469C547.083 344.77 546.022 345.137 544.969 345.5C544.131 345.397 543.281 345.261 542.438 345.25C539.761 345.215 537.364 346.135 534.938 347.188C533.719 347.716 532.505 348.291 531.344 348.938C523.377 353.371 520.527 362.379 519.562 370.906C519.114 374.87 519.236 378.882 520.438 382.719C521.377 385.72 522.894 388.481 524.719 391.031C531.997 401.203 545.163 407.356 557.656 405.312C564.802 404.144 571.311 400.998 577.281 397C579.395 395.584 581.52 394.134 583.312 392.312C585.13 390.466 586.612 388.272 587.844 386C591.655 378.974 592.733 370.788 589.5 363.312C586.891 357.281 581.842 353.877 576.594 350.281C574.13 348.593 571.802 346.433 569.125 345.094C568.009 344.536 566.767 344.237 565.562 343.938C563.711 343.478 561.841 343.181 559.938 343.062ZM554 344.094C555.935 343.97 557.88 344.004 559.812 344.25C562 344.529 564.177 345.028 566.25 345.781C566.991 346.05 567.574 346.282 568.25 346.688C569.75 347.586 571.037 348.817 572.344 349.969C573.241 350.759 574.162 351.532 575.094 352.281C578.152 354.741 581.352 357.158 583.625 360.406C586.694 364.792 586.845 370.276 585.75 375.344C585.148 378.13 584.267 380.798 582.906 383.312C581.926 385.125 580.759 386.899 579.312 388.375C577.792 389.926 575.978 391.164 574.188 392.375C570.857 394.627 567.394 396.603 563.625 398.031C559.229 399.697 554.606 400.59 549.906 400.094C536.692 398.699 525.055 387.839 524.25 374.312C523.84 367.424 524.738 359.031 529.344 353.562C530.813 351.818 532.659 350.527 534.594 349.344C536.486 348.187 538.542 346.902 540.719 346.375C541.507 346.184 542.316 346.17 543.125 346.125C543.022 346.166 542.661 346.246 542.781 346.25C542.914 346.254 542.871 346.275 542.969 346.281C542.966 346.221 543.307 346.142 543.688 346.062C543.898 346.056 544.103 346.002 544.312 346C545.567 345.989 546.84 346.048 548.094 346.062C546.843 346.233 545.061 346.477 545.812 346.344C547.535 346.039 549.938 346.031 549.938 346.031C549.938 346.031 546.566 346.292 549 346.062C549.265 346.037 548.601 346.059 548.219 346.062C548.656 346.001 548.766 346.025 549.031 345.969C549.332 345.905 548.399 345.912 548.094 345.875C547.51 345.803 546.833 345.705 546.25 345.625C546.024 345.594 545.789 345.593 545.562 345.562C546.45 345.327 547.351 345.097 548.25 344.906C550.149 344.503 552.065 344.217 554 344.094ZM545.812 346.344C546.6 346.195 544.645 346.329 543.406 346.312C543.842 346.438 541.719 346.687 541.719 346.688C541.719 346.688 544.165 346.655 545.812 346.344ZM543.406 346.312C543.337 346.293 543.195 346.295 542.969 346.281C542.969 346.294 542.76 346.302 542.812 346.312C543.007 346.35 543.101 346.308 543.406 346.312Z" fill="#ff6868" stroke="none"/>
</g>
<g opacity="1" vectornatorLayerName="Curve 33">
<path d="M454.889 454.159C451.251 455.385 447.65 456.872 444.399 458.915C436.351 463.975 432.365 473.387 432.718 482.697C432.862 486.486 433.209 490.458 434.869 493.868C436.411 497.033 439.296 499.396 441.968 501.689C446.527 505.604 453.451 506.551 458.913 507.535C460.933 507.899 463.004 508.256 465.049 508.072C468.383 507.772 472.073 507.897 474.895 506.096C478.621 503.718 481.151 499.79 483.691 496.173C491.369 485.242 490.743 469.967 481.612 460.06C476.924 454.974 469.771 451.921 462.905 451.078C459.998 450.721 456.323 448.962 454.12 450.892C452.316 452.472 459.063 452.753 454.889 454.159Z" fill="#ff3636" fill-rule="nonzero" stroke="none"/>
<path d="M458.375 449.75C457.312 449.612 456.245 449.61 455.25 449.969C454.902 450.094 454.577 450.276 454.281 450.5C454.131 450.614 453.897 450.807 453.781 450.969C453.025 452.029 455.183 452.553 455.781 452.875C456.399 453.207 456.238 453.531 455.719 453.812C455.604 453.875 454.875 454.156 454.875 454.156C454.875 454.156 455.41 453.984 455.719 453.844C456.372 453.548 456.596 453.214 455.875 452.75C455.176 452.3 453.103 451.772 454.531 450.844C454.623 450.784 454.715 450.737 454.812 450.688C454.995 450.595 455.209 450.493 455.406 450.438C457.326 449.9 459.471 450.812 461.312 451.281C462.935 451.695 464.567 451.879 466.188 452.312C470.604 453.494 474.853 455.605 478.281 458.656C482.914 462.779 485.825 468.739 486.344 474.906C486.509 476.87 486.392 478.826 486.188 480.781C485.906 483.466 485.444 486.119 484.5 488.656C483.58 491.129 482.253 493.312 480.75 495.469C478.984 498.002 477.244 500.636 474.875 502.656C474.128 503.293 473.324 503.915 472.406 504.281C470.831 504.91 469.08 505.035 467.406 505.156C465.992 505.259 464.544 505.437 463.125 505.375C461.409 505.301 459.686 504.919 458 504.625C453.859 503.903 449.485 503.188 445.781 501.062C444.059 500.074 442.551 498.709 441.094 497.375C439.602 496.009 438.235 494.492 437.344 492.656C436.375 490.661 435.84 488.427 435.5 486.25C435.091 483.634 434.852 480.962 435 478.312C435.181 475.072 435.934 471.843 437.25 468.875C438.585 465.864 454.875 454.156 454.875 454.156C454.875 454.156 443.501 457.748 439.125 461.844C435.863 464.896 433.47 468.783 432.031 473C430.96 476.14 430.391 479.465 430.344 482.781C430.295 486.199 430.416 489.771 431.562 493.031C432.952 496.982 435.744 499.868 438.844 502.562C440.863 504.317 442.909 505.83 445.375 506.906C449.078 508.523 453.078 509.257 457.031 509.969C458.952 510.314 460.921 510.748 462.875 510.844C464.797 510.938 466.771 510.715 468.688 510.562C470.642 510.407 472.604 510.135 474.438 509.406C479.277 507.482 482.476 502.789 485.344 498.688C488.968 493.504 491.574 487.529 491.688 481.094C491.739 478.189 491.24 475.283 490.438 472.5C488.661 466.337 485.019 460.576 479.844 456.719C476.413 454.162 472.393 452.454 468.25 451.438C466.012 450.889 463.757 450.749 461.5 450.344C460.506 450.165 459.438 449.888 458.375 449.75Z" fill="#ff3636" stroke="none"/>
</g>
<g opacity="1" vectornatorLayerName="Curve 34">
<path d="M544.304 98.3373C542.36 98.2961 540.567 96.1779 538.7 96.7198C535.16 97.7471 531.974 100.052 529.378 102.669C524.951 107.131 524.939 112.976 525.431 118.689C526.04 125.749 529.767 129.676 534.993 134.945C541.357 141.362 554.834 145.479 563.81 143.939C567.167 143.363 570.779 142.713 573.481 140.639C577.844 137.29 579.834 131.077 580.252 125.593C581.299 111.853 578.568 99.5844 562.892 96.217C559.348 95.4557 555.604 95.0127 552.033 95.631C549.872 96.0051 548.313 98.4224 544.304 98.3373Z" fill="#ff3636" fill-rule="nonzero" stroke="none"/>
<path d="M555.656 94.8438C554.413 94.8853 553.173 95.0392 551.969 95.3125C550.551 95.6342 544.312 98.3437 544.312 98.3438C544.312 98.3438 547.03 98.1952 548.344 97.625C549.585 97.0862 550.726 96.1636 552.094 95.9688C555.043 95.5486 558.113 95.9046 561 96.5312C565.727 97.5574 570.373 99.4739 573.594 103.219C576.609 106.725 577.799 111.392 577.938 115.938C578 118.009 577.836 120.063 577.688 122.125C577.549 124.056 577.486 125.995 577.156 127.906C576.436 132.085 574.65 136.948 570.719 139.125C568.956 140.101 566.959 140.559 565 140.938C563.03 141.318 561.072 141.542 559.062 141.5C552.304 141.359 544.771 139.045 539.281 135.062C537.068 133.457 535.209 131.383 533.406 129.344C531.902 127.642 530.433 125.799 529.375 123.781C528.061 121.277 527.592 118.541 527.312 115.75C526.974 112.371 527.031 108.792 528.656 105.719C529.908 103.351 532.019 101.361 534.125 99.75C535.488 98.7076 544.312 98.3437 544.312 98.3438C544.312 98.3438 540.807 96.0248 538.625 96.3125C536.553 96.5856 534.16 97.8455 532.406 98.9375C529.911 100.491 527.5 102.435 525.906 104.938C523.548 108.641 523.129 113.119 523.156 117.406C523.175 120.353 523.525 123.224 524.656 125.969C526.215 129.751 528.958 132.651 531.781 135.531C533.15 136.927 534.511 138.252 536.094 139.406C542.761 144.267 552.074 147.128 560.312 147C562.848 146.961 565.376 146.568 567.844 146C570.747 145.332 573.551 144.266 575.844 142.312C581.823 137.217 583.624 127.93 583.094 120.5C582.972 118.787 582.755 117.125 582.438 115.438C582.133 113.82 581.735 112.22 581.219 110.656C580.065 107.165 578.257 103.874 575.594 101.312C571.255 97.1395 565.238 95.477 559.375 94.9688C558.151 94.8627 556.899 94.8022 555.656 94.8438Z" fill="#ff3636" stroke="none"/>
</g>
<g opacity="1" vectornatorLayerName="Curve 35">
<path d="M115.75 225.5C115.813 234.462 115.398 243.417 115.188 252.375C115.082 256.869 114.908 261.421 115.281 265.906C116.521 280.808 119.561 295.649 124.25 309.844C125.695 314.217 127.334 318.507 129.125 322.75C129.791 324.327 130.432 325.946 131.219 327.469C133.037 330.988 135.304 334.344 137.469 337.656C140.198 341.833 142.994 346.072 146.312 349.812C151.242 355.368 157.411 359.576 163.25 364.094C157.917 359.159 152.134 354.512 147.875 348.562C146.309 346.375 144.957 344.039 143.656 341.688C141.802 338.335 140.119 334.886 138.656 331.344C137.811 329.298 137.086 327.205 136.25 325.156C134.57 321.04 132.751 316.992 131.219 312.812C127.774 303.415 125.076 293.743 123.219 283.906C122.416 279.653 121.693 275.338 121.25 271.031C120.929 267.908 120.667 264.777 120.312 261.656C119.953 258.496 119.547 255.348 119.188 252.188C118.172 243.272 117.161 234.363 115.75 225.5Z" fill="#000000" stroke="none"/>
</g>
<g opacity="1" vectornatorLayerName="Curve 36">
<path d="M233.156 178.125C227.933 178.026 222.714 178.106 217.5 178.406C215.139 178.542 212.785 178.704 210.438 179C206.218 179.531 202.051 180.453 197.812 180.844C193.916 181.203 189.999 181.066 186.094 181.188C182.476 181.3 178.848 181.68 175.312 182.469C161.429 185.564 148.245 191.115 134.969 196.094C148.56 192.705 162.142 188.722 176.094 187.094C179.458 186.701 182.838 186.699 186.219 186.656C190.238 186.606 194.276 186.58 198.281 186.219C204.152 185.69 209.922 184.325 215.812 183.938C230.035 183.003 244.35 183.873 258.5 185.406C262.054 185.791 265.581 186.325 269.125 186.781C272.509 187.217 275.885 187.58 279.25 188.156C286.036 189.317 292.729 190.968 299.375 192.75C302.535 193.597 305.665 194.507 308.781 195.5C313.241 196.921 317.833 198.348 322.562 198.312C325.578 198.29 328.413 197.638 331.25 196.656C328.389 197.437 325.536 197.895 322.562 197.719C315.789 197.317 309.551 194.031 303.281 191.75C296.215 189.179 289.104 186.77 281.906 184.594C276.297 182.898 270.696 181.274 264.875 180.5C259.545 179.791 254.173 179.286 248.812 178.875C243.608 178.476 238.379 178.224 233.156 178.125Z" fill="#000000" stroke="none"/>
</g>
<g opacity="1" vectornatorLayerName="Curve 37">
<path d="M534.906 144.625C532.588 148.371 530.823 152.627 527.562 155.688C523.938 159.09 519.259 161.184 514.719 163.062C510.629 164.755 506.519 166.414 502.375 167.969C500.493 168.675 498.566 169.284 496.688 170C493.726 171.129 490.835 172.426 487.875 173.562C482.726 175.539 477.481 177.326 472.188 178.875C467.62 180.211 463.024 181.391 458.375 182.406C453.576 183.454 448.734 184.285 443.938 185.344C441.177 185.953 438.364 186.486 435.625 187.188C431.089 188.349 426.576 189.588 421.938 190.281C414.012 191.466 405.996 191.539 398 191.562C407.655 193.013 417.371 194.384 427.156 193.688C430.727 193.433 434.335 193.002 437.844 192.281C440.27 191.783 442.674 191.122 445.094 190.594C448.684 189.809 452.27 189.149 455.875 188.438C465.453 186.548 474.927 184.096 484.156 180.906C487.227 179.845 490.268 178.685 493.281 177.469C495.168 176.707 497.085 175.975 498.906 175.062C500.747 174.14 502.506 173.04 504.281 172C508.112 169.755 512.007 167.621 515.906 165.5C520.39 163.061 525.005 160.381 528.438 156.531C531.482 153.117 532.884 148.652 534.906 144.625Z" fill="#000000" stroke="none"/>
</g>
<g opacity="1" vectornatorLayerName="Curve 38">
<path d="M390.094 214.75C394.619 216.357 398.646 218.908 402.625 221.562C405.4 223.413 408.124 225.426 411.156 226.844C415.983 229.1 421.346 230.03 426.562 230.875C429.672 231.379 432.801 231.878 435.938 232.188C440.427 232.63 444.961 232.756 449.469 232.875C455.514 233.035 461.62 233.061 467.656 232.656C473.418 232.27 479.099 231.08 484.844 230.531C494.673 229.592 504.526 229.21 514.375 228.562C516.94 228.394 519.516 228.065 522.062 227.719C524.734 227.356 527.364 226.941 530.062 227.281C531.962 227.521 533.867 227.93 535.719 228.406C544.233 230.596 551.836 235.097 555.719 243.281C557.554 247.15 558.063 251.299 558.656 255.5C558.338 250.924 558.057 246.486 556.25 242.219C552.421 233.179 544.141 228.044 535.156 225.062C533.12 224.387 531.032 223.701 528.906 223.375C526.541 223.012 524.132 223.115 521.75 223.094C519.702 223.076 517.673 222.971 515.625 222.969C512.642 222.966 509.633 223.168 506.656 223.344C499.196 223.784 491.718 224.28 484.281 225.031C479.086 225.556 473.977 226.585 468.781 227.094C463.902 227.572 458.93 227.56 454.031 227.531C446.171 227.484 438.375 226.851 430.531 226.406C424.696 226.075 418.717 226.001 413.062 224.344C409.702 223.359 406.611 221.631 403.5 220.062C399.183 217.886 394.831 215.809 390.094 214.75Z" fill="#000000" stroke="none"/>
</g>
<g opacity="1" vectornatorLayerName="Curve 39">
<path d="M513.406 307.531C512.085 309.719 510.759 311.911 509.594 314.188C509.114 315.125 508.556 316.075 508.188 317.062C507.465 318.997 507.236 320.958 507 323C506.521 327.137 506.53 331.415 507.719 335.438C508.072 336.634 508.481 337.97 509.156 339.031C510.026 340.399 511.473 341.543 512.688 342.594C515.446 344.981 518.569 346.798 521.906 348.25C519.743 346.43 517.708 344.497 516.188 342.094C515.563 341.108 515.038 340.053 514.688 338.938C514.445 338.165 514.403 337.361 514.156 336.594C513.856 335.658 513.38 334.791 513.094 333.844C512.344 331.36 512.071 328.743 512.156 326.156C512.246 323.438 512.948 320.828 513.094 318.125C513.148 317.123 513.099 316.097 513.125 315.094C513.19 312.569 513.27 310.053 513.406 307.531Z" fill="#000000" stroke="none"/>
</g>
<g opacity="1" vectornatorLayerName="Curve 40">
<path d="M191.531 424.062C194.273 436.082 199.182 446.993 206.438 456.969C208.659 460.023 211.033 462.998 213.656 465.719C215.925 468.072 218.44 470.234 220.906 472.375C226.757 477.453 232.94 482.117 239.281 486.562C250.012 494.086 261.288 500.502 274.219 503.281C276.248 503.717 278.309 504.126 280.375 504.344C284.537 504.782 288.759 504.737 292.938 504.656C302.231 504.477 311.508 503.47 320.625 501.656C324.528 500.88 328.322 499.714 332.188 498.781C334.128 498.313 336.098 497.941 338.062 497.594C336.072 497.796 334.069 498.019 332.094 498.344C328.189 498.986 324.337 499.86 320.406 500.344C310.386 501.578 300.086 501.828 290.062 500.5C287.071 500.104 284.146 499.486 281.188 498.906C278.94 498.466 276.673 498.098 274.438 497.594C271.46 496.922 268.541 496.055 265.688 494.969C256.378 491.425 247.932 486.02 239.844 480.281C232.821 475.299 225.997 469.999 219.781 464.031C215.3 459.729 210.763 455.469 206.781 450.688C200.153 442.726 195.086 433.784 191.531 424.062Z" fill="#000000" stroke="none"/>
</g>
<g opacity="1" vectornatorLayerName="Curve 41">
<path d="M508.875 374.844C503.729 375.33 498.56 375.409 493.438 376.125C490.724 376.504 488.025 377.017 485.469 378.031C483.368 378.865 481.466 380.144 479.625 381.438C477.562 382.887 475.611 384.493 473.719 386.156C471.108 388.451 468.518 390.793 466.219 393.406C462.578 397.544 459.521 402.462 457.875 407.75C457.351 409.434 457.188 411.187 457.031 412.938C456.877 414.664 456.754 416.394 456.688 418.125C456.422 425.012 456.913 431.915 457.406 438.781C457.918 431.707 458.306 424.482 460.125 417.594C460.788 415.081 461.807 412.785 462.812 410.406C463.916 407.797 464.841 405.209 466.281 402.75C468.844 398.373 472.287 394.789 476 391.375C478.542 389.038 481.186 386.737 484.125 384.906C486.878 383.191 489.823 381.597 492.812 380.344C498.032 378.157 503.546 376.73 508.875 374.844Z" fill="#000000" stroke="none"/>
</g>
<g opacity="1" vectornatorLayerName="Curve 42">
<path d="M400.844 507.781C403.444 510.054 406.089 512.464 409.062 514.25C410.174 514.917 411.342 515.258 412.562 515.656C413.758 516.047 414.946 516.407 416.156 516.75C419.035 517.565 421.973 518.245 424.938 518.656C425.813 518.778 426.679 518.943 427.562 518.938C428.617 518.931 429.626 518.607 430.656 518.438C431.637 518.276 432.641 518.176 433.594 517.875C436.425 516.982 438.688 514.613 441 512.875C438.739 513.655 436.356 514.956 433.906 515.031C431.807 515.095 430.086 513.788 428.094 513.375C427.3 513.211 426.491 513.2 425.688 513.094C423.733 512.835 421.801 512.52 419.875 512.094C417.98 511.675 416.091 511.146 414.25 510.531C413.51 510.284 412.809 509.944 412.062 509.719C410.908 509.37 409.655 509.273 408.469 509.094C405.918 508.709 403.377 508.27 400.844 507.781Z" fill="#000000" stroke="none"/>
</g>
<g opacity="1" vectornatorLayerName="Curve 43">
<path d="M375.938 520.812C376.342 526.925 376.245 533.105 377.531 539.125C378.048 541.542 379.285 543.587 380.469 545.719C381.532 547.632 382.511 549.579 383.5 551.531C385.817 556.102 388.351 560.628 391.406 564.75C392.875 566.732 394.444 568.841 396.344 570.438C397.959 571.795 399.964 572.873 401.812 573.875C407.77 577.105 413.898 578.408 420.656 577.938C414.449 577.312 408.515 575.239 403.906 570.906C402.506 569.59 401.444 568.051 400.25 566.562C399.655 565.821 398.969 565.154 398.344 564.438C393.824 559.265 390.468 553.206 387.344 547.125C385.254 543.059 382.912 539.107 381.094 534.906C379.108 530.317 377.681 525.495 375.938 520.812Z" fill="#000000" stroke="none"/>
</g>
<g opacity="1" vectornatorLayerName="Curve 44">
<path d="M364.188 94.5938C360.215 94.5977 356.244 94.6935 352.281 94.7812C335.654 95.1492 319.067 96.2957 302.5 97.7188C294.227 98.4293 285.962 99.2771 277.688 99.9688C262.661 101.225 247.6 101.839 232.531 102.312C224.035 102.58 215.532 102.936 207.031 103C196.932 103.076 186.792 103.067 176.812 104.844C171.757 105.744 166.789 107.108 161.906 108.688C150.203 112.473 139.062 117.952 128.938 124.938C118.963 131.82 109.699 140.887 106.969 153.094C106.301 156.078 106.082 159.104 106.125 162.156C106.255 158.807 106.694 155.49 107.688 152.281C111.495 139.982 122.053 131.656 132.781 125.406C146.472 117.43 161.867 111.828 177.594 109.688C187.892 108.286 198.382 108.617 208.75 108.406C219.664 108.184 230.56 107.808 241.469 107.406C253.699 106.956 265.956 106.428 278.156 105.438C295.862 104 313.507 102.188 331.25 101.219C340.647 100.706 350.058 100.358 359.469 100.281C364.964 100.236 370.474 100.33 375.969 100.375C384.541 100.445 393.105 100.548 401.656 101.219C411.924 102.024 422.107 103.549 432.344 104.656C440.029 105.487 447.743 105.993 455.438 106.719C461.642 107.304 467.815 108.154 474 108.906C479.106 109.527 484.22 110.048 489.344 110.5C491.633 110.702 493.933 110.791 496.219 111.031C499.762 111.403 503.001 112.286 506.625 111.906C508.971 111.661 511.243 110.35 513.406 109.531C511.237 110.276 508.958 111.516 506.625 111.688C502.425 111.997 498.313 110.688 494.156 110.25C486.297 109.421 478.458 108.389 470.656 107.125C465.663 106.316 460.672 105.559 455.656 104.906C448.006 103.91 440.323 103.11 432.688 102C423.935 100.727 415.251 99.0907 406.5 97.8125C401.962 97.1497 397.406 96.6174 392.844 96.1562C387.281 95.5939 381.68 95.1099 376.094 94.8438C372.133 94.655 368.16 94.5898 364.188 94.5938Z" fill="#000000" stroke="none"/>
</g>
<g opacity="1" vectornatorLayerName="Curve 45">
<path d="M278.467 631.541C274.372 630.631 269.527 630.917 265.988 633.169C259.701 637.169 255.653 648.998 255.138 655.955C254.924 658.84 254.392 661.839 255.138 664.635C258.874 678.647 276.981 682.985 289.317 680.368C292.175 679.762 294.901 678.532 297.455 677.113C301.847 674.673 305.661 671.077 308.306 666.805C320.407 647.258 302.909 633.13 284.434 630.998C277.513 630.2 272.512 630.718 267.073 634.796" fill="#c12b2b" fill-rule="nonzero" stroke="none"/>
<path d="M278.938 630.219C277.539 630.305 276.167 630.571 274.812 630.906C271.641 630.579 268.409 630.928 265.562 632.5C262.649 634.11 260.461 636.851 258.719 639.625C255.362 644.968 253.478 650.981 252.594 657.188C252.208 659.897 251.903 662.538 252.469 665.25C253.075 668.154 254.683 670.905 256.531 673.188C261.56 679.4 269.453 682.589 277.219 683.531C279.068 683.756 280.95 683.839 282.812 683.812C289.156 683.722 294.595 682.132 300 678.844C303.926 676.455 307.347 673.235 309.938 669.438C313.386 664.382 315.813 658.156 314.75 651.969C313.798 646.432 310.382 641.642 306.031 638.219C300.255 633.674 292.94 631.206 285.688 630.438C283.47 630.203 281.185 630.08 278.938 630.219ZM278.688 631.156C280.301 631.164 281.906 631.31 283.5 631.531C288.948 632.287 294.301 634.047 299 636.938C303.541 639.731 307.76 643.824 309.156 649.125C309.68 651.115 309.704 653.153 309.5 655.188C309.336 656.827 309.03 658.405 308.5 659.969C307.625 662.552 306.288 665.037 304.656 667.219C302.602 669.964 300.014 672.327 297.094 674.125C292.532 676.934 288.091 678.237 282.719 678.344C273.4 678.53 261.802 674.96 258.25 665.375C257.951 664.568 257.684 663.721 257.531 662.875C257.136 660.686 257.402 658.361 257.469 656.156C257.637 650.612 259.104 644.911 261.625 639.969C262.795 637.676 264.297 635.38 266.406 633.844C268.245 632.504 270.382 631.862 272.594 631.562C272.522 631.59 272.446 631.596 272.375 631.625C270.438 632.403 268.699 633.498 267.062 634.781C269.166 633.367 271.395 632.24 273.875 631.656C274.213 631.577 274.566 631.622 274.906 631.562C276.1 631.546 277.305 631.377 278.469 631.531C278.081 631.43 277.676 631.397 277.281 631.312C277.752 631.287 278.216 631.154 278.688 631.156Z" fill="#c12b2b" stroke="none"/>
</g>
<g opacity="1" vectornatorLayerName="Curve 46">
<path d="M552.438 409.656C550.731 412.47 549.279 415.384 548.125 418.469C545.161 426.389 544.19 434.832 543.656 443.219C543.402 447.213 543.165 451.217 543.062 455.219C542.95 459.628 542.941 464.016 542.438 468.406C541.38 477.633 538.827 486.591 536.531 495.562C534.615 503.05 533.105 510.798 530.062 517.938C527.99 522.801 525.145 527.297 522.688 531.969C517.584 541.673 513.12 552.261 505.156 560.062C500.724 564.405 495.28 567.502 490.062 570.781C495.575 567.862 501.295 565.145 506.094 561.094C513.487 554.853 518.218 546.687 523.594 538.812C525.614 535.854 527.914 533.07 529.906 530.094C531.998 526.969 533.75 523.582 535.219 520.125C538.71 511.904 540.345 502.963 542.531 494.344C544.872 485.116 547.392 475.811 548.094 466.281C548.363 462.619 548.605 458.893 548.531 455.219C548.349 446.149 547.22 437.109 547.906 428.031C548.389 421.65 549.837 415.51 552.438 409.656Z" fill="#000000" stroke="none"/>
</g>
<g opacity="1" vectornatorLayerName="Curve 47">
<path d="M345.75 512.188C343.267 519.671 340.589 527.103 337.312 534.281C335.924 537.324 334.347 540.28 332.812 543.25C332.09 544.649 331.427 546.063 330.656 547.438C329.626 549.274 328.43 551.06 327.219 552.781C321.775 560.513 315.121 567.268 308.812 574.281C306.558 576.788 304.412 579.395 302.312 582.031C301.252 583.362 300.183 584.71 299.281 586.156C297.925 588.332 296.839 590.701 295.781 593.031C293.782 597.437 292.255 601.958 291.5 606.75C290.434 613.517 290.613 620.37 290.938 627.188C291.437 618.056 292.126 608.659 296.219 600.312C297.292 598.124 298.603 596.005 300.031 594.031C301.212 592.399 302.564 590.92 303.812 589.344C304.555 588.406 305.239 587.417 305.969 586.469C307.954 583.89 310.022 581.394 312.156 578.938C319.311 570.704 327.094 562.913 333.094 553.75C334.793 551.156 336.466 548.452 337.75 545.625C339.441 541.903 340.565 537.914 341.594 533.969C343.46 526.812 344.679 519.5 345.75 512.188Z" fill="#000000" stroke="none"/>
</g>
</g>
<g clip-path="url(#ArtboardFrame)" id="Layer-1" vectornatorLayerName="Layer 1">
<g opacity="1" vectornatorLayerName="Curve 1">
<path d="M992.281 1349.91C991.83 1350 991.462 1350.3 991.062 1350.53C990.636 1350.78 990.194 1351.04 989.781 1351.31C988.926 1351.87 988.095 1352.46 987.25 1353.03C988.044 1354.31 988.803 1355.65 989.688 1356.88C989.958 1357.25 990.156 1357.67 990.531 1357.94C990.819 1358.14 991.218 1358.11 991.562 1358.19C992.596 1358.43 993.629 1358.7 994.656 1358.97C995.34 1359.15 996.018 1359.37 996.719 1359.47C997.074 1359.52 997.478 1359.66 997.812 1359.53C998.311 1359.34 998.643 1358.85 999.094 1358.56C999.482 1358.32 999.898 1358.14 1000.31 1357.94C1001.45 1357.39 1002.65 1357.01 1003.84 1356.59C1002.6 1355.42 1001.26 1354.28 1000.31 1352.84C1000.02 1352.4 999.907 1351.82 999.531 1351.44C999.278 1351.18 998.875 1351.13 998.531 1351.03C997.853 1350.83 997.135 1350.77 996.438 1350.66C995.39 1350.48 994.356 1350.29 993.312 1350.09C992.965 1350.03 992.628 1349.84 992.281 1349.91Z" fill="#000000" stroke="none"/>
</g>
<g opacity="1" vectornatorLayerName="Curve 45">
<path d="M1082.5 110.812C1081.75 112.511 1080.22 113.929 1078.97 115.25C1076.9 117.426 1074.7 119.484 1072.56 121.594C1070.66 123.472 1068.85 125.415 1066.97 127.312C1063.12 131.192 1059.15 134.928 1055.16 138.656C1049.93 143.538 1044.61 148.366 1039.53 153.406C1031.16 161.715 1023.24 170.559 1016.28 180.094C1008.69 190.494 1002.37 201.975 999.875 214.719C999.33 217.505 999.07 220.286 999.25 223.125C999.65 229.456 1001.9 235.53 1004.66 241.188C1008.24 248.557 1012.77 255.399 1016.84 262.5C1018.67 265.688 1020.44 268.943 1021.84 272.344C1022.64 274.271 1023.32 276.241 1024.06 278.188C1025.16 281.059 1026.32 283.908 1027.5 286.75C1032.25 298.249 1037.38 309.832 1039.16 322.25C1040.68 332.894 1039.53 343.724 1036.12 353.906C1034.43 358.99 1032.15 363.799 1029.72 368.562C1026.01 375.826 1021.72 382.738 1016.84 389.281C1004.41 405.964 989.017 420.023 974.812 435.125C967.013 443.417 960 452.386 952.281 460.75C948.183 465.191 943.895 469.408 939.281 473.312C944.077 469.608 948.572 465.578 952.875 461.312C961.476 452.787 969.303 443.494 978.125 435.188C993.143 421.048 1008.85 407.641 1022.38 392C1027.66 385.884 1032.74 379.44 1036.81 372.438C1042.89 361.985 1046.8 349.961 1047.78 337.906C1048.24 332.303 1048.03 326.656 1047.22 321.094C1045.3 307.993 1039.97 295.81 1034.91 283.688C1033.58 280.518 1032.28 277.336 1031.06 274.125C1030.45 272.512 1029.85 270.874 1029.19 269.281C1027.64 265.571 1025.72 262.01 1023.72 258.531C1019.12 250.549 1013.79 242.889 1010.19 234.375C1007.96 229.122 1006.4 223.357 1007.34 217.625C1008.33 211.633 1010.55 205.88 1013.12 200.406C1014.79 196.86 1016.59 193.402 1018.53 190C1025.66 177.531 1034.52 166.129 1043.97 155.344C1048.63 150.022 1053.5 144.895 1058.28 139.688C1061.66 136.011 1065.01 132.304 1068.25 128.5C1070.3 126.088 1072.28 123.622 1074.38 121.25C1076.4 118.966 1078.45 116.665 1080.31 114.25C1081.13 113.196 1082.05 112.087 1082.5 110.812Z" fill="#000000" stroke="none"/>
</g>
<g opacity="1" vectornatorLayerName="Curve 18">
<path d="M1186.19 208.625C1183.83 211.052 1181.46 213.459 1179 215.781C1175.39 219.181 1171.69 222.461 1168.09 225.875C1166.28 227.601 1164.49 229.352 1162.75 231.156C1161.38 232.576 1160.02 233.99 1158.53 235.281C1156.56 236.984 1154.41 238.499 1152.38 240.125C1149.78 242.204 1147.23 244.32 1144.69 246.469C1135.33 254.383 1126.18 262.699 1116 269.562C1112.82 271.705 1109.49 273.5 1106.16 275.375C1096.51 280.799 1087.09 287.814 1075.84 289.312C1065.07 290.749 1054.49 287.563 1044.66 283.438C1032.38 278.29 1020.86 271.551 1008.78 265.969C1002.81 263.207 996.668 260.307 990.156 259.094C984.899 258.114 979.51 258.279 974.188 258.312C971.247 258.331 968.28 258.268 965.344 258.438C962.442 258.605 959.561 258.99 956.719 259.594C944.728 262.141 933.485 267.923 923.312 274.625C913.275 281.238 904.318 289.385 895.938 297.969C884.883 309.291 874.829 321.584 865.781 334.562C859.937 342.946 854.511 351.614 849.688 360.625C859.043 346.103 870.019 332.644 881.906 320.125C893.417 308.003 905.837 296.773 919.438 287.031C931.27 278.556 943.926 270.366 958.375 267.312C964.304 266.059 970.288 266.233 976.312 266.219C980.442 266.209 984.613 266.163 988.688 266.938C992.651 267.691 996.414 269.23 1000.09 270.844C1003.13 272.177 1006.16 273.565 1009.16 275C1022.48 281.383 1035.24 289.191 1049.28 293.969C1058.67 297.163 1068.76 298.931 1078.62 297.156C1080.73 296.778 1082.83 296.288 1084.84 295.562C1088.74 294.16 1092.36 291.854 1095.78 289.562C1100.29 286.539 1104.61 283.227 1109.12 280.219C1112.42 278.028 1115.72 275.899 1118.84 273.469C1128.66 265.842 1137.47 257.017 1146.5 248.5C1149.18 245.969 1151.87 243.453 1154.66 241.031C1156.57 239.364 1158.6 237.787 1160.41 236C1161.63 234.791 1162.74 233.48 1163.88 232.188C1165.51 230.319 1167.19 228.483 1168.91 226.688C1172.33 223.11 1175.9 219.657 1179.34 216.094C1181.7 213.655 1183.94 211.164 1186.19 208.625Z" fill="#000000" stroke="none"/>
</g>
<g opacity="1" vectornatorLayerName="Curve 52">
<path d="M876.688 322.281C861.317 338.079 845.807 355.121 837.844 376.031C834.859 383.869 832.98 392.146 832.25 400.5C831.649 407.376 831.925 414.265 832.906 421.094C834.1 429.402 836.109 437.598 839.125 445.438C841.3 451.092 843.882 456.587 846.469 462.062C851.551 472.823 857.1 483.373 862.75 493.844C866.537 500.862 870.45 507.898 872.875 515.531C874.163 519.584 875.031 523.824 874.938 528.094C874.741 537.095 871.32 545.601 867.531 553.625C865.445 558.044 863.299 562.423 860.906 566.688C854.556 578.004 846.698 588.403 838.469 598.406C834.76 602.914 831.074 607.452 827.156 611.781C822.886 616.5 818.053 620.686 813.688 625.312C809.773 629.462 806.308 634.005 802.688 638.406C799.953 641.73 797.115 644.906 794.156 648.031C797.278 645.058 800.279 642.027 803.188 638.844C807.009 634.66 810.711 630.325 814.812 626.406C819.428 621.997 824.441 618.034 829 613.562C833.201 609.442 837.207 605.116 841.219 600.812C849.581 591.842 857.662 582.545 864.844 572.594C868.405 567.659 871.954 562.652 874.781 557.25C879.378 548.465 882.921 538.268 883.125 528.281C883.408 514.427 876.234 501.789 869.812 490C864.19 479.678 858.678 469.303 853.625 458.688C851.107 453.399 848.611 448.06 846.5 442.594C844.057 436.269 842.233 429.633 841.156 422.938C840.378 418.094 840.048 413.18 839.906 408.281C839.544 395.782 840.978 383.382 845.406 371.625C852.325 353.254 864.414 337.374 876.688 322.281Z" fill="#000000" stroke="none"/>
</g>
<g opacity="1" vectornatorLayerName="Curve 58">
<path d="M979.281 435.281C972.768 440.942 967.184 447.59 960.531 453.094C955.533 457.228 950.144 460.931 944.594 464.281C932.156 471.789 918.152 477.35 903.531 478.312C891.182 479.126 879.519 474.297 868.594 469.094C856.094 463.141 843.661 456.527 829.719 454.812C816.073 453.134 802.178 455.158 789.406 460.156C785.511 461.681 781.631 463.42 778.031 465.562C775.607 467.005 773.268 468.605 771 470.281C766.816 473.373 762.871 476.767 759.125 480.375C754.111 485.204 749.328 490.313 743.844 494.625C732.954 503.187 719.396 509.428 711.781 521.5C710.498 523.534 709.418 525.697 708.625 527.969C707.522 531.13 706.851 534.462 705.969 537.688C707.038 534.534 707.902 531.264 709.188 528.188C710.092 526.024 711.258 523.998 712.625 522.094C720.872 510.609 734.715 505.333 746.062 497.656C753.873 492.372 760.518 485.583 768.312 480.281C772.982 477.105 778.003 474.605 783.031 472.062C787.226 469.942 791.513 467.981 795.969 466.469C806.942 462.744 818.843 461.373 830.344 463.031C843.335 464.905 855.02 471.495 866.75 476.969C879.118 482.74 891.963 487.36 905.844 486.156C914.601 485.397 923.015 482.356 930.812 478.406C942.484 472.494 953.184 464.387 962.344 455.062C968.438 448.859 973.343 441.626 979.281 435.281Z" fill="#000000" stroke="none"/>
</g>
<g opacity="1" vectornatorLayerName="Curve 42">
<path d="M1075.59 101.656C1066.32 113.037 1052.77 119.729 1039.97 126.312C1035.04 128.847 1029.89 131.172 1025.31 134.312C1019.54 138.267 1013.98 142.62 1008.66 147.156C1002.26 152.6 996.108 158.539 991.312 165.469C987.074 171.594 983.959 178.454 981.688 185.531C980.652 188.756 979.65 192.04 979.031 195.375C978.196 199.879 977.985 204.523 978.031 209.094C978.085 214.422 978.606 219.756 979.875 224.938C981.444 231.345 984.305 237.226 987.312 243.062C985.982 238.676 984.615 234.257 983.906 229.719C983.141 224.82 983.111 219.839 983.531 214.906C984.049 208.828 985.441 202.953 986.844 197.031C987.42 194.601 987.923 192.15 988.625 189.75C990.658 182.797 993.663 175.938 997.844 170C1006.26 158.039 1018.62 149.66 1030.09 140.938C1032.25 139.297 1034.2 137.422 1036.28 135.688C1039.59 132.935 1043.1 130.433 1046.59 127.938C1057.2 120.369 1068.36 112.753 1075.59 101.656Z" fill="#000000" stroke="none"/>
</g>
<g opacity="1" vectornatorLayerName="Curve 46">
<path d="M1041.81 301.906C1041.51 301.814 1041.17 301.829 1041.16 302.031C1041.04 303.595 1038.25 304.969 1038.25 304.969C1038.25 304.969 1038.48 305.173 1040.12 305.812C1038.92 305.195 1041.98 303.716 1042.34 302.406C1042.4 302.21 1042.11 301.999 1041.81 301.906ZM1040.12 305.812C1041.39 306.302 1038.13 307.839 1037.81 309.156C1037.69 309.653 1039.1 310.414 1039.16 309.906C1039.33 308.246 1042 306.656 1042 306.656C1042 306.656 1041.68 306.605 1040.12 305.812ZM1194 218.562C1189.89 221.784 1185.67 224.795 1181.41 227.812C1177.77 230.385 1174.06 232.96 1170.69 235.875C1166.65 239.362 1163.34 243.535 1159.53 247.25C1156.96 249.757 1154.07 251.908 1151.41 254.312C1149.81 255.755 1148.38 257.369 1146.91 258.938C1145.43 260.514 1143.94 262.1 1142.47 263.688C1139.75 266.631 1136.89 269.511 1134.41 272.656C1132.84 274.636 1131.53 276.816 1130.03 278.844C1125.83 284.528 1121.67 290.272 1116.97 295.562C1114.31 298.557 1111.45 301.448 1108.28 303.906C1106.44 305.336 1104.46 306.528 1102.41 307.625C1099.66 309.093 1096.85 310.41 1093.91 311.438C1088.83 313.209 1083.45 314.114 1078.09 314.406C1071.82 314.748 1065.61 314.183 1059.44 313.094C1065.43 315.383 1071.57 317.162 1077.94 318.031C1083.11 318.738 1088.38 318.816 1093.56 318.156C1097.8 317.617 1102.13 316.644 1106 314.781C1110.78 312.477 1115.13 308.73 1118.88 305.031C1125.44 298.542 1130.97 291.018 1136.5 283.656C1138.22 281.362 1139.69 278.876 1141.59 276.719C1144.97 272.894 1148.51 269.189 1152 265.469C1153.76 263.596 1155.58 261.783 1157.19 259.781C1158.54 258.102 1159.79 256.339 1161.09 254.625C1162.35 252.968 1163.6 251.309 1164.78 249.594C1167.44 245.738 1169.95 241.793 1173.06 238.281C1176.49 234.414 1180.43 231.02 1184.28 227.594C1187.59 224.651 1190.84 221.665 1194 218.562Z" fill="#000000" stroke="none"/>
</g>
<g opacity="1" vectornatorLayerName="Curve 56">
<path d="M1010.34 246.688C1010.63 246.762 1010.91 246.832 1011.19 246.906C1010.91 246.832 1010.63 246.762 1010.34 246.688ZM973.469 240.594C968.761 240.464 964.047 240.608 959.375 240.906C952.174 241.366 944.971 242.352 938.031 244.375C931.238 246.355 924.777 249.297 918.469 252.469C912.621 255.409 907.002 258.638 901.562 262.281C894.839 266.784 888.312 271.602 882.438 277.188C875.569 283.719 869.645 291.134 863.75 298.531C858.593 305.003 853.462 311.479 848.656 318.219C843.983 324.773 839.681 331.566 835.344 338.344C832.427 342.901 829.39 347.453 826.875 352.25C825.002 355.823 823.395 359.535 821.906 363.281C819.338 369.743 817.265 376.391 816.062 383.25C814.492 392.205 814.34 401.288 814.906 410.344C815.053 412.683 815.26 415.038 815.438 417.375C815.724 421.136 816.03 424.849 817.031 428.5C817.758 431.152 819.281 433.475 820.562 435.875C822.307 439.142 823.871 442.478 825.938 445.562C824.076 442.355 822.747 438.932 821.219 435.562C820.218 433.356 819.001 431.231 818.375 428.875C817.058 423.914 817.403 418.522 817.344 413.438C817.198 400.888 818.474 388.125 823.031 376.344C825.797 369.194 829.75 362.726 833.844 356.281C835.736 353.302 837.529 350.239 839.406 347.25C844.556 339.052 849.699 330.849 855.281 322.938C859.97 316.291 864.996 309.884 870.031 303.5C875.37 296.732 880.712 289.923 886.875 283.875C892.269 278.582 898.299 273.89 904.594 269.719C908.047 267.431 911.624 265.378 915.156 263.219C922.654 258.635 930.036 253.66 938.125 250.156C946.998 246.313 956.6 244.235 966.156 243C973.244 242.084 980.353 241.509 987.5 241.875C982.873 241.118 978.177 240.723 973.469 240.594Z" fill="#000000" stroke="none"/>
</g>
<g opacity="1" vectornatorLayerName="Curve 62">
<path d="M1056.97 293.25C1056.96 293.352 1056.95 293.429 1056.94 293.531C1056.95 293.429 1056.96 293.352 1056.97 293.25ZM1059.19 313.5C1059.35 316.639 1059.19 319.766 1059.12 322.906C1059.02 328.37 1058.81 333.766 1058.06 339.188C1056.43 351.05 1052.89 362.508 1048.28 373.531C1047.08 376.403 1045.73 379.198 1044.38 382C1041.86 387.21 1039.12 392.218 1035.62 396.844C1027.7 407.319 1017.79 416.081 1008 424.75C1002.43 429.683 996.989 434.769 991.406 439.688C985.793 444.633 980.076 449.436 974.625 454.562C971.303 457.686 968.07 461.012 965.094 464.469C960.934 469.3 956.999 474.258 952.062 478.344C946.652 482.822 940.181 485.361 933.906 488.344C925.843 492.176 917.875 496.303 909 497.906C902.519 499.077 895.914 498.815 889.406 498.031C895.922 499.288 902.559 500 909.188 499.281C918.297 498.293 926.783 494.725 935.281 491.531C939.485 489.952 943.797 488.635 947.906 486.812C950.957 485.46 953.817 483.801 956.562 481.906C961.663 478.387 966.443 474.263 970.906 469.969C973.06 467.896 975.09 465.691 977.188 463.562C979.334 461.384 981.549 459.275 983.812 457.219C988.084 453.34 992.504 449.619 996.812 445.781C999.819 443.103 1002.75 440.345 1005.72 437.625C1009.37 434.276 1013.07 430.977 1016.75 427.656C1026.93 418.47 1037.26 408.974 1044.88 397.469C1047.42 393.625 1049.77 389.585 1051.66 385.375C1054.48 379.067 1056.36 372.318 1057.91 365.594C1060.04 356.316 1061.24 346.838 1061.22 337.312C1061.21 332.457 1060.74 327.668 1060.25 322.844C1059.93 319.714 1059.73 316.602 1059.19 313.5Z" fill="#000000" stroke="none"/>
</g>
<g opacity="1" vectornatorLayerName="Curve 57">
<path d="M806.781 441.094C804.685 441.164 802.594 441.273 800.5 441.281C796.005 441.299 791.454 440.901 787.031 441.938C783.243 442.826 779.724 444.552 776.156 446.062C770.587 448.421 765.202 451.189 759.969 454.219C756.064 456.48 752.272 458.917 748.469 461.344C743.719 464.374 739.035 467.508 734.406 470.719C730.876 473.167 727.344 475.626 724.344 478.719C722.101 481.03 719.932 483.416 717.781 485.812C715.874 487.937 713.918 490.061 712.281 492.406C709.402 496.533 707.42 501.188 704.531 505.312C701.864 509.121 698.352 512.336 695.156 515.688C698.805 512.715 702.731 509.904 705.906 506.406C709.886 502.021 712.889 496.796 717.375 492.875C720.192 490.413 723.231 488.15 726.375 486.125C728.097 485.016 729.929 484.024 731.625 482.875C732.753 482.111 733.808 481.244 734.906 480.438C736.853 479.009 738.831 477.6 740.812 476.219C745.349 473.056 749.96 470.019 754.594 467C759.614 463.729 764.625 460.503 769.938 457.719C773.307 455.952 776.756 454.311 780.281 452.875C781.492 452.382 782.755 451.955 783.969 451.469C786.134 450.602 788.215 449.439 790.438 448.719C794.301 447.466 798.328 447.054 802.281 446.188C805.906 445.393 809.443 444.216 813.125 443.688C816.988 443.133 820.95 443.115 824.844 443.188C820.975 442.267 817.037 441.445 813.062 441.156C810.969 441.004 808.877 441.024 806.781 441.094Z" fill="#000000" stroke="none"/>
</g>
<g opacity="1" vectornatorLayerName="Curve 61">
<path d="M890.781 497.531C891.882 500.603 892.948 503.692 894 506.781C895.125 510.085 896.157 513.485 896.281 517C896.393 520.138 895.492 523.124 894.812 526.156C894.348 528.227 893.959 530.303 893.5 532.375C892.971 534.76 892.384 537.11 891.75 539.469C891.258 541.297 890.751 543.14 890.062 544.906C889.246 547.001 888.222 549.007 887.188 551C884.309 556.545 880.879 561.774 877.469 567C873.968 572.364 870.538 577.789 866.594 582.844C864.245 585.854 861.804 588.764 859.312 591.656C857.638 593.6 855.895 595.485 854.344 597.531C853.164 599.087 852.099 600.721 850.969 602.312C849.457 604.44 847.9 606.561 846.344 608.656C843.053 613.088 839.575 617.455 836.719 622.188C832.666 628.902 829.595 636.152 825.906 643.062C830.752 636.059 834.841 628.424 840.438 621.969C841.785 620.414 843.258 618.979 844.688 617.5C847.383 614.712 850.156 611.98 853 609.344C855.39 607.129 857.901 605.07 860.25 602.812C862.604 600.551 864.702 597.985 866.812 595.5C869.74 592.054 872.592 588.534 875.25 584.875C879.74 578.695 883.76 572.161 887.812 565.688C891.202 560.274 894.436 554.732 896.938 548.844C897.964 546.427 898.9 543.97 899.5 541.406C900.482 537.207 900.55 532.85 900.656 528.562C900.757 524.477 901.273 520.432 900.312 516.406C899.314 512.219 897.211 508.467 895.062 504.781C893.648 502.355 892.227 499.938 890.781 497.531Z" fill="#000000" stroke="none"/>
</g>
</g>
</svg>
