<?xml version="1.0" encoding="UTF-8" standalone="no"?>
<!DOCTYPE svg PUBLIC "-//W3C//DTD SVG 1.1//EN" "http://www.w3.org/Graphics/SVG/1.1/DTD/svg11.dtd">
<!-- Created with Vectornator (http://vectornator.io/) -->
<svg height="100%" stroke-miterlimit="10" style="fill-rule:nonzero;clip-rule:evenodd;stroke-linecap:round;stroke-linejoin:round;" version="1.1" viewBox="0 0 1194 834" width="100%" xmlSpace="preserve" xmlns="http://www.w3.org/2000/svg" xmlnsVectornator="http://vectornator.io" xmlnsXlink="http://www.w3.org/1999/xlink">
<defs/>
<g id="Layer-2" vectornatorLayerName="Layer 2">
<g opacity="1" vectornatorLayerName="Curve 1">
<path d="M385.688 77.0312C384.797 88.266 383.475 99.5284 383.531 110.812C383.58 120.617 384.598 130.387 384.75 140.188C384.832 145.482 384.63 150.775 384.375 156.062C383.535 173.513 382.014 190.912 381.375 208.375C380.41 234.748 380.35 261.154 379.562 287.531C379.003 306.27 377.981 325.001 377.75 343.75C377.496 364.398 379.074 385.013 379.25 405.656C379.415 424.993 378.471 444.322 378.469 463.656C378.467 475.801 379.22 487.928 379.625 500.062C380.023 511.977 380.176 523.897 380.562 535.812C381 549.294 381.6 562.766 382.594 576.219C383.388 586.968 384.266 597.694 385.125 608.438C385.446 612.453 385.877 616.479 386.125 620.5C386.518 626.868 386.197 633.257 386.625 639.625C387.696 655.577 390.554 671.342 391.031 687.344C391.162 691.728 391.059 696.098 390.688 700.469C390.038 708.103 388.86 715.699 388.812 723.375C388.755 732.579 390.022 741.742 390.094 750.938C390.144 757.397 389.255 763.805 388.594 770.219C389.401 763.809 390.435 757.41 390.531 750.938C390.68 740.9 389.402 730.886 389.969 720.844C390.519 711.084 392.703 701.476 392.906 691.688C393.157 679.648 392.006 667.639 391 655.656C390.547 650.261 390.05 644.849 389.844 639.438C389.6 633.06 390.116 626.689 389.938 620.312C389.835 616.647 389.604 612.976 389.438 609.312C389.159 603.172 388.897 597.05 388.688 590.906C388.36 581.308 388.247 571.693 387.938 562.094C387.491 548.267 386.894 534.455 386.531 520.625C386.35 513.7 386.262 506.767 386.031 499.844C385.63 487.781 384.904 475.729 384.906 463.656C384.911 444.303 385.819 424.95 385.656 405.594C385.483 384.996 383.932 364.415 384.188 343.812C384.539 315.484 386.564 287.208 386.656 258.875C386.719 239.681 386.159 220.507 386.344 201.312C386.467 188.523 387.057 175.724 387.312 162.938C387.418 157.657 387.525 152.375 387.406 147.094C387.302 142.45 387.043 137.816 386.656 133.188C386.033 125.721 385.138 118.271 384.812 110.781C384.324 99.538 385.231 88.2617 385.688 77.0312Z" fill="#000000" fill-opacity="0.297882" stroke="none"/>
</g>
<g opacity="1" vectornatorLayerName="Curve 2">
<path d="M487.562 96.0625C488.469 107.703 487.77 119.343 488.031 131C488.161 136.814 488.7 142.597 488.938 148.406C489.111 152.639 489.096 156.893 488.906 161.125C488.238 176.055 486.23 190.887 486.062 205.844C485.832 226.386 487.083 246.908 487.594 267.438C487.726 272.761 487.832 278.113 487.812 283.438C487.793 288.552 487.605 293.667 487.656 298.781C487.722 305.377 488.056 311.971 488.281 318.562C488.643 329.152 489.02 339.754 489.375 350.344C490.405 381.038 491.257 411.729 491.719 442.438C491.892 453.991 491.981 465.54 491.781 477.094C491.479 494.558 490.767 512.066 491.344 529.531C491.883 545.865 493.423 562.116 494.188 578.438C495.081 597.512 495.998 616.604 496.688 635.688C496.933 642.497 497.164 649.313 497.344 656.125C497.48 661.315 497.541 666.5 497.75 671.688C498.237 683.783 499.951 695.781 500.5 707.875C500.785 714.148 500.782 720.441 500.812 726.719C500.843 733.012 500.939 739.303 501.125 745.594C501.09 739.302 501.13 733.009 501.25 726.719C501.371 720.431 501.54 714.132 501.406 707.844C501.148 695.753 499.717 683.717 499.531 671.625C499.42 664.395 499.593 657.168 499.562 649.938C499.477 629.815 499.235 609.716 499.125 589.594C499.075 580.378 499.227 571.152 499.062 561.938C498.844 549.705 497.917 537.481 497.656 525.25C497.157 501.857 498.542 478.458 498.312 455.062C497.98 421.131 497 387.226 495.906 353.312C495.36 336.376 494.599 319.44 494.188 302.5C494.018 295.517 494.372 288.544 494.406 281.562C494.429 276.795 494.247 272.014 494.062 267.25C493.465 251.855 492.056 236.474 491.188 221.094C490.882 215.675 490.555 210.241 490.5 204.812C490.449 199.752 490.467 194.715 490.625 189.656C490.921 180.162 491.528 170.69 491.562 161.188C491.578 156.883 491.446 152.572 491.094 148.281C490.619 142.493 489.837 136.735 489.469 130.938C488.73 119.305 488.946 107.652 487.562 96.0625Z" fill="#000000" fill-opacity="0.297882" stroke="none"/>
</g>
<g opacity="1" vectornatorLayerName="Curve 3">
<path d="M595.625 80C596.753 93.5731 595.443 107.093 594.844 120.656C594.374 131.288 594.204 141.924 593.938 152.562C593.746 160.196 593.43 167.834 593.312 175.469C593.032 193.708 593.804 211.95 593.25 230.188C592.889 242.082 592.118 253.958 591.562 265.844C591.254 272.457 591.035 279.072 590.781 285.688C590.476 293.652 590.169 301.624 590.062 309.594C589.882 323.165 590.179 336.743 590.344 350.312C590.557 367.886 590.727 385.458 590.906 403.031C591.114 423.361 591.345 443.704 591.75 464.031C591.946 473.857 591.993 483.716 592.5 493.531C593.101 505.167 594.257 516.746 595.344 528.344C596.642 542.19 597.911 556.058 598.812 569.938C600.157 590.633 600.545 611.375 602.031 632.062C603.784 656.465 606.831 680.742 608.812 705.125C609.869 718.128 610.587 731.143 610.812 744.188C610.893 731.133 610.47 718.096 609.719 705.062C608.312 680.656 605.926 656.335 604.875 631.906C603.727 605.206 604.547 578.45 603.5 551.75C602.733 532.179 599.915 512.748 598.906 493.188C598.573 486.727 598.472 480.248 598.344 473.781C598.191 466.101 598.051 458.431 597.938 450.75C597.605 428.237 597.353 405.733 597.125 383.219C596.986 369.487 596.853 355.731 596.688 342C596.558 331.228 596.356 320.46 596.5 309.688C596.695 295.161 597.541 280.666 598.188 266.156C598.72 254.209 599.088 242.241 599.062 230.281C599.021 210.697 597.251 191.172 597.062 171.594C597.002 165.264 596.97 158.923 596.875 152.594C596.715 141.965 596.457 131.318 596.5 120.688C596.555 107.098 597.298 93.5306 595.625 80Z" fill="#000000" fill-opacity="0.297882" stroke="none"/>
</g>
<g opacity="1" vectornatorLayerName="Curve 4">
<path d="M716.938 104.25C715.211 120.211 713.321 136.19 712.844 152.25C712.691 157.4 712.724 162.569 712.875 167.719C713.124 176.217 713.613 184.717 713.281 193.219C712.857 204.105 711.656 214.937 710.656 225.781C709.736 235.767 708.935 245.756 708.625 255.781C708.06 274.057 708.222 292.345 708.312 310.625C708.419 332.116 708.485 353.605 708.156 375.094C707.856 394.699 707.21 414.312 706.5 433.906C705.931 449.611 705.409 465.293 704.25 480.969C702.715 501.741 700.496 522.457 698.844 543.219C697.858 555.607 696.979 568.005 696.875 580.438C696.654 606.843 698.295 633.338 700.312 659.656C701.283 672.32 702.546 684.983 703.375 697.656C704.937 721.54 705.014 745.483 705.281 769.406C705.562 746.601 705.995 723.769 705.188 700.969C704.698 687.132 703.694 673.329 703.031 659.5C702.031 638.617 701.428 617.687 702 596.781C702.246 587.778 702.835 578.827 703.438 569.844C703.743 565.286 703.908 560.713 704.219 556.156C704.671 549.528 705.247 542.901 705.812 536.281C707.375 518.002 709.302 499.735 710.656 481.438C711.847 465.345 712.383 449.248 712.969 433.125C713.72 412.471 714.387 391.792 714.656 371.125C714.891 353.097 714.81 335.06 714.781 317.031C714.767 308.081 714.848 299.137 714.812 290.188C714.777 281.242 714.655 272.289 714.562 263.344C714.503 257.545 714.413 251.768 714.531 245.969C714.87 229.362 716.677 212.798 716.875 196.188C717.031 183.108 715.264 170.122 714.875 157.062C714.35 139.441 715.747 121.817 716.938 104.25Z" fill="#000000" fill-opacity="0.297882" stroke="none"/>
</g>
<g opacity="1" vectornatorLayerName="Curve 5">
<path d="M297.969 157.906C294.018 157.766 290.043 157.9 286.094 158.031C261.772 158.839 237.66 162.644 213.344 163.594C237.631 163.733 261.839 161 286.125 161.281C290.434 161.331 294.772 161.384 299.062 161.812C302.691 162.174 306.283 162.817 309.906 163.219C315.324 163.819 320.806 164.046 326.25 164.25C339.767 164.757 353.29 164.617 366.812 164.688C375.209 164.731 383.605 164.776 392 164.938C399.599 165.084 407.187 165.536 414.781 165.844C425.413 166.274 436.046 166.664 446.688 166.719C451.647 166.744 456.638 166.738 461.594 166.5C468.463 166.171 475.311 165.454 482.188 165.25C500.575 164.705 518.981 164.562 537.375 164.781C551.745 164.953 566.107 165.531 580.469 166C592.085 166.38 603.704 166.575 615.312 167.156C626.692 167.726 638.043 168.822 649.438 169.125C658.912 169.377 668.4 169.239 677.875 169.094C697.949 168.786 718.018 167.944 738.094 167.781C746.359 167.714 754.613 167.749 762.875 168C774.839 168.364 786.808 169.012 798.781 169C802.204 168.997 805.609 168.867 809.031 168.812C802.186 168.743 795.369 168.646 788.531 168.312C774.855 167.645 761.192 166.441 747.5 166.094C731.191 165.68 714.876 165.635 698.562 165.5C684.793 165.386 671 165.204 657.25 164.406C644.619 163.674 632.093 161.831 619.469 161C609.146 160.321 598.776 160.168 588.438 159.844C576.064 159.456 563.688 158.902 551.312 158.594C528.215 158.018 505.095 158.129 482 158.812C475.084 159.017 468.19 159.763 461.281 160.094C455.123 160.388 448.945 160.314 442.781 160.25C429.564 160.114 416.36 159.485 403.156 158.906C395.554 158.573 387.922 158.2 380.312 158.125C377.488 158.097 374.668 158.156 371.844 158.188C355.557 158.366 339.292 159.366 323 159.281C318.775 159.259 314.529 159.265 310.312 158.969C306.194 158.679 302.098 158.053 297.969 157.906Z" fill="#000000" fill-opacity="0.297882" stroke="none"/>
</g>
<g opacity="1" vectornatorLayerName="Curve 6">
<path d="M543.875 260.969C537.31 260.897 530.753 260.905 524.188 261.031C519.062 261.13 513.936 261.346 508.812 261.5C504.821 261.62 500.833 261.665 496.844 261.844C491.719 262.073 486.589 262.476 481.469 262.781C459.32 264.1 437.223 265.967 415.094 267.562C399.27 268.703 383.411 269.586 367.562 270.312C356.507 270.819 345.441 270.998 334.375 270.906C316.625 270.759 298.877 269.916 281.125 270.094C253.744 270.367 226.43 272.74 199.062 273.438C226.403 273.826 253.757 272.531 281.094 273.344C298.825 273.871 316.499 275.346 334.219 276.125C347.67 276.716 361.166 276.873 374.625 276.438C397.382 275.701 420.083 273.661 442.781 271.938C456.938 270.863 471.078 269.845 485.25 269C489.204 268.764 493.168 268.459 497.125 268.281C501.65 268.078 506.191 268.011 510.719 267.875C515.251 267.739 519.779 267.556 524.312 267.469C550.527 266.964 576.756 268.469 602.969 268.531C615.652 268.561 628.32 268.24 641 267.969C650.712 267.761 660.449 267.65 670.156 267.281C678.936 266.948 687.719 266.503 696.5 266.188C709.902 265.705 723.309 265.436 736.719 265.344C768.282 265.127 799.795 266.561 831.344 267.219C844.572 267.495 857.801 267.523 871.031 267.5C857.809 267.215 844.589 266.864 831.375 266.281C801.214 264.95 771.088 262.881 740.906 262.031C726.08 261.614 711.268 261.394 696.438 261.219C687.178 261.11 677.886 260.894 668.625 261C646.737 261.251 624.861 262.148 602.969 262.094C583.274 262.045 563.571 261.185 543.875 260.969Z" fill="#000000" fill-opacity="0.297882" stroke="none"/>
</g>
<g opacity="1" vectornatorLayerName="Curve 7">
<path d="M559.156 357.25C547.21 357.324 535.251 357.508 523.312 357.969C507.779 358.568 492.278 359.596 476.75 360.312C467.097 360.758 457.44 360.993 447.781 361.281C439.835 361.518 431.883 361.818 423.938 362.094C415.62 362.383 407.286 362.602 398.969 362.906C388.028 363.306 377.101 363.761 366.156 364.031C356.208 364.277 346.262 364.268 336.312 364.438C325.99 364.614 315.668 364.86 305.344 364.906C290.889 364.971 276.425 364.56 261.969 364.719C245.704 364.898 229.489 365.72 213.344 367.75C229.524 366.371 245.743 366.185 261.969 366.656C274.994 367.035 287.983 367.878 301 368.438C313.826 368.989 326.668 369.019 339.5 369.312C346.886 369.482 354.269 369.751 361.656 369.844C374.545 370.005 387.461 369.936 400.344 369.5C413.206 369.064 426.044 368.437 438.906 368C451.616 367.568 464.327 367.306 477.031 366.719C492.543 366.001 508.046 365.007 523.562 364.406C532.946 364.043 542.329 363.826 551.719 363.719C579.107 363.407 606.494 363.937 633.875 364.5C653.829 364.91 673.792 365.467 693.75 365.125C708.045 364.88 722.329 364.507 736.625 364.281C753.435 364.016 770.261 363.908 787.062 363.281C817.756 362.136 848.429 359.968 879.156 361.125C867.877 360.435 856.613 360.129 845.312 360.125C829.762 360.119 814.203 360.65 798.656 360.906C783.097 361.163 767.528 361.057 751.969 360.812C736.307 360.566 720.658 360.297 705 359.875C696.291 359.64 687.584 359.188 678.875 358.969C664.55 358.608 650.233 358.421 635.906 358.125C610.33 357.596 584.74 357.092 559.156 357.25Z" fill="#000000" fill-opacity="0.297882" stroke="none"/>
</g>
<g opacity="1" vectornatorLayerName="Curve 8">
<path d="M681.719 446.438C665.405 446.352 649.093 446.706 632.781 446.875C621.761 446.989 610.739 447.124 599.719 447.156C593.556 447.174 587.412 447.09 581.25 447.188C571.968 447.334 562.682 447.81 553.406 448.156C545.472 448.452 537.532 448.668 529.594 448.844C508.44 449.312 487.281 449.461 466.125 449.812C453.489 450.023 440.855 450.384 428.219 450.594C415.034 450.813 401.841 450.877 388.656 451.062C364.303 451.405 339.946 451.881 315.594 452.25C302.86 452.443 290.159 452.643 277.438 453.281C256.075 454.353 234.742 455.887 213.344 454.969C241.81 457.327 270.331 455.359 298.844 455.906C320.666 456.325 342.489 456.907 364.312 457.25C376.503 457.442 388.714 457.597 400.906 457.5C421.278 457.338 441.632 456.712 462 456.344C484.577 455.936 507.175 455.783 529.75 455.281C537.721 455.104 545.689 454.892 553.656 454.594C562.886 454.249 572.108 453.772 581.344 453.625C591.317 453.466 601.276 453.569 611.25 453.5C630.913 453.364 650.587 453.133 670.25 452.906C691.124 452.665 711.998 451.95 732.875 451.969C765.712 451.999 798.553 452.605 831.375 451.281C848.887 450.575 866.343 449.194 883.75 447.156C866.316 448.786 848.852 449.765 831.344 450.062C788.656 450.788 745.996 448.275 703.344 446.938C696.151 446.712 688.915 446.475 681.719 446.438Z" fill="#000000" fill-opacity="0.297882" stroke="none"/>
</g>
<g opacity="1" vectornatorLayerName="Curve 9">
<path d="M666.312 535.125C656.837 535.132 647.345 535.44 637.875 535.719C624.614 536.108 611.349 536.572 598.094 537.125C556.812 538.846 515.574 541.235 474.281 542.719C458.705 543.279 443.115 543.719 427.531 543.969C417.698 544.126 407.863 544.083 398.031 544.281C382.377 544.596 366.753 545.969 351.094 546.125C339.948 546.236 328.802 545.938 317.656 546.094C301.228 546.324 284.859 547.624 268.469 548.656C260.26 549.173 252.032 549.574 243.812 549.875C235.952 550.163 228.089 550.762 220.219 550.562C215.971 550.455 211.789 550.073 207.594 549.406C211.77 550.245 215.968 550.812 220.219 551.094C228.088 551.615 235.965 551.311 243.844 551.344C267.444 551.44 291.025 550.176 314.625 550.438C329.942 550.607 345.24 551.908 360.562 551.875C375.071 551.844 389.561 551.005 404.062 550.719C414.157 550.519 424.248 550.478 434.344 550.281C447.737 550.021 461.113 549.639 474.5 549.156C510.762 547.849 547.003 545.837 583.25 544.188C598.367 543.5 613.5 542.896 628.625 542.406C641.221 541.999 653.81 541.798 666.406 541.406C675.224 541.132 684.024 540.754 692.844 540.531C709.855 540.101 726.893 539.997 743.906 540.344C753.706 540.543 763.491 540.915 773.281 541.375C785.154 541.933 797.054 542.617 808.938 542.906C813.301 543.012 817.667 543.134 822.031 543.062C825.733 543.002 829.423 542.643 833.125 542.594C837.69 542.533 842.278 542.805 846.844 542.812C852.095 542.821 857.313 542.585 862.531 542C857.307 542.46 852.086 542.571 846.844 542.438C842.274 542.321 837.695 541.954 833.125 541.906C829.424 541.867 825.732 542.121 822.031 542.094C817.681 542.061 813.314 541.834 808.969 541.625C789.187 540.672 769.463 538.644 749.688 537.594C730.751 536.588 711.801 535.994 692.844 535.562C683.998 535.361 675.161 535.119 666.312 535.125Z" fill="#000000" fill-opacity="0.297882" stroke="none"/>
</g>
</g>
<g id="Layer-1" vectornatorLayerName="Layer 1">
<g opacity="1" vectornatorLayerName="Curve 1">
<path d="M291.125 62.5C290.703 77.7393 289.939 92.9701 290.062 108.219C290.116 114.814 290.77 121.392 291.188 127.969C291.485 132.665 291.619 137.357 291.594 142.062C291.523 155.146 290.728 168.202 290.5 181.281C290.294 193.119 290.529 204.977 290.781 216.812C291.052 229.516 291.44 242.212 292 254.906C292.508 266.439 293.19 277.984 293.219 289.531C293.278 313.821 290.718 337.992 289.344 362.219C288.271 381.123 288.136 400.101 288.281 419.031C288.377 431.498 288.595 443.949 289.094 456.406C289.821 474.547 291.059 492.669 292.281 510.781C293.18 524.095 293.962 537.407 294.875 550.719C295.46 559.244 296.078 567.782 296.594 576.312C297.64 593.617 298.022 610.956 298.562 628.281C298.917 639.662 299.436 651.027 299.812 662.406C300.48 682.608 298.591 702.763 297.938 722.938C297.31 742.31 297.516 761.716 297.75 781.094C298.042 761.732 298.379 742.333 299.531 723C300.505 706.654 302.313 690.366 302.969 674C303.279 666.252 303.187 658.533 303.125 650.781C303.079 645.001 303.056 639.218 303.062 633.438C303.084 614.327 303.433 595.204 303.375 576.094C303.359 570.841 303.266 565.596 303.188 560.344C303.145 557.458 303.144 554.572 303.031 551.688C302.638 541.671 301.93 531.656 301.25 521.656C300.279 507.391 299.265 493.116 298.406 478.844C296.928 454.284 296.267 429.697 296.25 405.094C296.238 388.242 296.675 371.411 297.75 354.594C299.223 331.545 301.43 308.528 301.062 285.406C300.99 280.851 300.792 276.273 300.656 271.719C300.429 264.085 300.172 256.47 299.75 248.844C298.699 229.835 297.238 210.83 296.344 191.812C295.495 173.751 296.178 155.645 295.094 137.594C294.502 127.741 292.726 118.011 292.188 108.156C291.357 92.9519 291.412 77.7203 291.125 62.5Z" fill="#000000" fill-opacity="0.297882" stroke="none"/>
</g>
<g opacity="1" vectornatorLayerName="Curve 2">
<path d="M489.406 624.312C471.204 624.129 453 624.393 434.812 625.156C421.32 625.723 407.804 626.355 394.344 627.469C383.592 628.359 372.873 629.506 362.156 630.75C345.379 632.697 328.715 635.776 311.875 637.156C282.962 639.526 253.934 638.173 224.969 639.031C219.326 639.198 213.662 639.452 208.031 639.875C193.705 640.951 179.472 642.931 165.094 643.281C179.473 643.474 193.77 642.034 208.125 641.5C213.738 641.291 219.352 641.267 224.969 641.312C255.44 641.561 285.94 644.244 316.406 642.375C329.279 641.585 342.071 639.83 354.906 638.625C368.573 637.342 382.246 636.348 395.938 635.375C414.33 634.068 432.721 632.956 451.156 632.469C494.372 631.326 537.591 633.541 580.781 634.719C616.237 635.686 651.722 635.576 687.188 635.562C713.597 635.553 740.028 635.69 766.438 635.531C779.361 635.453 792.264 635.026 805.188 634.875C826.719 634.623 848.249 634.572 869.781 634.781C895.627 635.033 921.489 635.626 947.312 636.75C962.033 637.391 976.758 638.305 991.469 639.125C1003.95 639.821 1016.45 640.193 1028.94 640.906C1036.07 641.314 1043.17 641.912 1050.28 642.531C1043.18 641.755 1036.09 641.002 1028.97 640.438C1016.51 639.45 1004 638.814 991.531 637.844C981.139 637.035 970.773 636.121 960.375 635.375C947.46 634.449 934.521 633.634 921.594 632.906C887.683 630.999 853.728 629.857 819.781 628.844C802.003 628.313 784.223 627.59 766.438 627.406C751.883 627.256 737.336 627.326 722.781 627.344C696.097 627.377 669.403 627.491 642.719 627.406C618.954 627.331 595.195 627.118 571.438 626.469C544.091 625.722 516.764 624.589 489.406 624.312Z" fill="#000000" fill-opacity="0.297882" stroke="none"/>
</g>
<g opacity="1" vectornatorLayerName="Curve 3">
<path d="M334.688 153.75C327.26 153.697 319.846 154.7 312.469 155.438C305.607 156.124 298.766 156.559 291.875 156.094C298.76 156.845 305.627 156.685 312.531 156.281C319.876 155.851 327.293 155.175 334.656 155.531C342.246 155.898 349.613 157.834 356.969 159.594C362.269 160.861 367.569 161.935 372.969 162.688C387.278 164.682 401.803 165.439 415.875 168.906C438.495 174.48 459.066 186.974 475.719 203.094C497.262 223.947 514.215 249.118 526.625 276.344C529.31 282.235 531.763 288.218 534.031 294.281C535.085 297.098 536.166 299.91 537.062 302.781C538.526 307.468 539.426 312.316 540.375 317.125C541.037 320.478 541.773 323.824 542.531 327.156C545.742 341.258 549.275 355.268 552.969 369.25C565.409 416.338 579.315 463.396 601.25 507.062C608.39 521.276 616.487 534.95 625.812 547.844C632.252 556.747 639.254 565.315 647.25 572.875C659.395 584.357 674.008 592.525 688.5 600.625C694.037 603.72 699.519 606.889 704.938 610.188C712.551 614.823 720.291 619.5 728.812 622.281C736.038 624.639 743.686 625.641 751.156 626.906C778.86 631.6 807.095 630.396 835.062 630C807.184 629.725 779.025 630.248 751.531 624.906C744.213 623.484 736.7 622.36 729.656 619.844C723.246 617.554 717.299 614.086 711.562 610.469C706.509 607.282 701.548 603.971 696.438 600.875C680.624 591.296 664.154 582.295 651.094 568.969C636.008 553.575 625.203 534.449 614.969 515.656C589.629 469.122 574.287 418.163 560.719 367.188C556.895 352.822 553.263 338.427 549.938 323.938C548.144 316.122 547.021 308.101 544.625 300.438C543.189 295.845 541.423 291.317 539.656 286.844C536.75 279.483 533.572 272.25 530.062 265.156C517.72 240.21 501.488 216.468 480.969 197.531C463.137 181.075 440.844 168.844 417 163.906C401.986 160.797 386.634 160.737 371.438 159.125C367.786 158.738 364.171 158.177 360.562 157.5C352.007 155.895 343.441 153.812 334.688 153.75Z" fill="#000000" stroke="none"/>
</g>
<g opacity="1" vectornatorLayerName="Curve 25">
<path d="M303.938 151C297.593 151.952 291.253 152.947 284.875 153.656C283.495 153.808 282.505 155.058 282.656 156.438C282.808 157.817 284.026 158.808 285.406 158.656C291.848 157.96 298.274 157.172 304.688 156.25C306.138 156.037 307.151 154.669 306.938 153.219C306.724 151.768 305.388 150.787 303.938 151Z" fill="#000000" stroke="none"/>
</g>
<g opacity="1" vectornatorLayerName="Curve 32">
<path d="M314 259.594C303.096 259.749 292.217 260.606 281.312 260.688C279.924 260.697 278.803 261.831 278.812 263.219C278.822 264.607 279.956 265.728 281.344 265.719C292.255 265.657 303.152 265.022 314.062 264.906C315.529 264.888 316.706 263.685 316.688 262.219C316.669 260.753 315.466 259.576 314 259.594Z" fill="#ff3636" stroke="none"/>
</g>
<g opacity="1" vectornatorLayerName="Curve 37">
<path d="M327.969 153.062C325.159 152.995 322.329 153.202 319.531 153.438C312.774 154.006 306.11 155.196 299.438 156.375C306.148 155.684 312.874 154.984 319.625 154.906C322.368 154.875 325.141 154.896 327.875 155.156C330.13 155.371 332.233 156.185 334.469 156.5C336.898 156.842 339.393 156.461 341.812 156.875C345.022 157.424 348.141 158.55 351.312 159.281C354.155 159.936 357.015 160.247 359.906 160.594C365.366 161.249 370.84 161.859 376.281 162.656C380.01 163.203 383.725 163.882 387.469 164.312C392.809 164.926 398.166 165.541 403.469 166.438C407.944 167.194 412.334 168.217 416.75 169.25C420.152 170.046 423.625 170.583 426.938 171.719C429.698 172.665 432.287 174.132 434.781 175.625C438.637 177.933 442.363 180.454 446.188 182.812C455.542 188.581 465.318 193.9 473.594 201.219C478.904 205.915 483.326 211.515 488.219 216.625C489.384 217.842 490.533 219.084 491.781 220.219C493.053 221.375 494.669 222.296 495.812 223.594C496.51 224.386 497.225 225.199 497.875 226.031C501.332 230.459 503.745 235.597 507.062 240.125C510.479 244.787 514.428 248.993 518 253.531C518.891 254.663 519.778 255.822 520.562 257.031C523.143 261.005 525.086 265.32 528.531 268.656C524.936 264.187 523.489 258.543 520.719 253.594C517.667 248.141 513.826 243.18 510.781 237.719C508.002 232.734 506.112 227.281 503.125 222.406C502.251 220.98 501.295 219.54 500.188 218.281C498.955 216.881 497.533 215.657 496.344 214.219C494.413 211.883 492.568 209.488 490.594 207.188C487.74 203.862 484.689 200.693 481.562 197.625C472.471 188.704 461.216 182.598 450.5 175.906C446.657 173.507 442.907 170.941 439.031 168.594C435.654 166.548 432.159 164.646 428.375 163.469C424.82 162.363 421.144 161.757 417.531 160.875C410.404 159.134 403.218 157.794 395.938 156.875C392.976 156.501 389.983 156.111 387 155.969C383.17 155.786 379.332 155.847 375.5 155.844C369.159 155.839 362.808 155.839 356.469 155.656C351.886 155.524 347.433 154.359 342.906 153.75C340.37 153.409 337.82 153.934 335.281 153.938C332.823 153.941 330.429 153.122 327.969 153.062Z" fill="#ff3636" stroke="none"/>
</g>
<g opacity="1" vectornatorLayerName="Curve 38">
<path d="M487.812 211.219C490.279 215.542 492.683 219.896 495.094 224.25C496.282 226.396 497.391 228.622 498.719 230.688C499.703 232.22 500.9 233.584 502 235.031C503.824 237.431 505.564 239.898 507.281 242.375C510.018 246.322 512.648 250.341 515.156 254.438C516.405 256.477 517.553 258.613 518.844 260.625C519.847 262.188 521.087 263.433 522.281 264.844C523.466 266.243 524.599 267.721 525.656 269.219C529.206 274.248 532.204 279.589 535.062 285.031C533.314 278.409 531.194 271.913 529.062 265.406C528.671 264.211 528.298 263.017 527.938 261.812C527.387 259.974 526.945 258.157 526.062 256.438C524.653 253.69 522.916 251.066 521.25 248.469C518.568 244.288 515.749 240.216 512.844 236.188C511.393 234.176 509.887 232.177 508.406 230.188C507.296 228.695 506.271 227.147 505 225.781C503.299 223.954 501.349 222.355 499.469 220.719C495.691 217.431 491.74 214.323 487.812 211.219Z" fill="#ff3636" stroke="none"/>
</g>
<g fill="#ff3636" opacity="1" stroke="none" vectornatorLayerName="Text 2">
<path d="M211.73 267.131C211.66 269.684 210.476 270.972 208.177 270.995C205.866 270.972 204.688 269.684 204.642 267.131L204.642 256.421C204.688 253.89 205.866 252.602 208.177 252.556C210.476 252.602 211.66 253.89 211.73 256.421L211.73 267.131ZM201.02 267.339C201.043 269.661 201.788 271.452 203.255 272.711C204.63 273.959 206.271 274.594 208.177 274.617C210.141 274.594 211.811 273.959 213.185 272.711C214.583 271.452 215.305 269.661 215.352 267.339L215.352 256.195C215.305 253.862 214.583 252.065 213.185 250.806C211.811 249.558 210.141 248.934 208.177 248.934C206.271 248.934 204.63 249.558 203.255 250.806C201.788 252.065 201.043 253.862 201.02 256.195L201.02 267.339Z"/>
<path d="M219.147 274.409L222.769 274.409L222.769 270.787L219.147 270.787L219.147 274.409Z"/>
<path d="M230.117 256.161C230.14 254.959 230.515 254.052 231.243 253.44C231.96 252.851 232.786 252.556 233.722 252.556C234.692 252.556 235.535 252.851 236.252 253.44C236.957 254.052 237.32 254.959 237.344 256.161C237.32 257.328 236.957 258.217 236.252 258.829C235.535 259.465 234.692 259.783 233.722 259.783C232.786 259.783 231.96 259.465 231.243 258.829C230.515 258.217 230.14 257.328 230.117 256.161ZM226.027 267.027C226.05 269.303 226.818 271.122 228.332 272.486C229.776 273.884 231.573 274.594 233.722 274.617C235.882 274.594 237.707 273.884 239.198 272.486C240.665 271.122 241.41 269.303 241.433 267.027C241.41 264.589 240.417 262.694 238.453 261.342C239.204 260.684 239.816 259.927 240.29 259.072C240.74 258.275 240.966 257.328 240.966 256.23C240.942 254.127 240.255 252.388 238.903 251.014C237.563 249.65 235.836 248.957 233.722 248.934C231.642 248.957 229.944 249.65 228.627 251.014C227.229 252.388 226.518 254.127 226.495 256.23C226.495 257.328 226.743 258.275 227.24 259.072C227.668 259.927 228.257 260.684 229.008 261.342C227.044 262.694 226.05 264.589 226.027 267.027ZM229.649 266.992C229.672 265.814 230.088 264.855 230.897 264.115C231.671 263.387 232.612 263.012 233.722 262.989C234.865 263.012 235.824 263.387 236.598 264.115C237.384 264.855 237.788 265.814 237.811 266.992C237.788 268.147 237.384 269.095 236.598 269.834C235.824 270.608 234.865 270.995 233.722 270.995C232.612 270.995 231.671 270.608 230.897 269.834C230.088 269.095 229.672 268.147 229.649 266.992Z"/>
<path d="M244.016 262.798L247.43 262.798C247.857 262.024 248.342 261.481 248.885 261.169C249.428 260.869 250.029 260.718 250.688 260.718C251.427 260.718 252.045 260.822 252.542 261.03C253.039 261.285 253.414 261.625 253.669 262.053C254.142 262.954 254.368 264.127 254.344 265.571C254.344 266.16 254.333 266.767 254.31 267.391C254.264 268.026 254.136 268.615 253.928 269.158C253.732 269.701 253.385 270.14 252.889 270.475C252.369 270.822 251.676 270.995 250.809 270.995C248.787 270.972 247.58 269.99 247.187 268.049L243.565 268.049C243.912 270.371 244.807 272.052 246.251 273.092C247.672 274.109 249.238 274.617 250.948 274.617C252.219 274.594 253.316 274.299 254.24 273.733C255.188 273.19 255.91 272.59 256.407 271.931C256.973 271.261 257.377 270.493 257.62 269.626C257.851 268.748 257.966 267.489 257.966 265.848C257.966 264.785 257.932 263.89 257.862 263.162C257.793 262.446 257.678 261.839 257.516 261.342C257.204 260.43 256.696 259.627 255.991 258.933C255.517 258.414 254.899 257.975 254.136 257.616C253.328 257.293 252.438 257.12 251.468 257.096C249.954 257.096 248.608 257.559 247.43 258.483L247.43 258.483L247.43 252.764L257.481 252.764L257.481 249.142L244.016 249.142L244.016 262.798Z"/>
</g>
<g fill="#000000" opacity="1" stroke="none" vectornatorLayerName="Text 3">
<path d="M225.714 151.556L225.714 172.993L229.336 172.993L229.336 147.726L225.714 147.726L222.127 150.343L222.127 154.19L222.127 154.19L225.714 151.556Z"/>
<path d="M238.313 172.993L241.935 172.993L241.935 169.371L238.313 169.371L238.313 172.993Z"/>
<path d="M256.44 165.715C256.371 168.268 255.187 169.556 252.887 169.579C250.577 169.556 249.398 168.268 249.352 165.715L249.352 155.005C249.398 152.474 250.577 151.186 252.887 151.14C255.187 151.186 256.371 152.474 256.44 155.005L256.44 165.715ZM245.73 165.923C245.753 168.245 246.498 170.036 247.966 171.295C249.341 172.543 250.981 173.178 252.887 173.201C254.852 173.178 256.521 172.543 257.896 171.295C259.294 170.036 260.016 168.245 260.062 165.923L260.062 154.779C260.016 152.446 259.294 150.649 257.896 149.39C256.521 148.142 254.852 147.518 252.887 147.518C250.981 147.518 249.341 148.142 247.966 149.39C246.498 150.649 245.753 152.446 245.73 154.779L245.73 165.923Z"/>
</g>
<g fill="#000000" opacity="1" stroke="none" vectornatorLayerName="Text 1">
<path d="M251.396 668.992C251.326 671.545 250.142 672.833 247.843 672.856C245.532 672.833 244.354 671.545 244.308 668.992L244.308 658.282C244.354 655.752 245.532 654.463 247.843 654.417C250.142 654.463 251.326 655.752 251.396 658.282L251.396 668.992ZM240.686 669.2C240.709 671.522 241.454 673.313 242.921 674.572C244.296 675.82 245.937 676.455 247.843 676.478C249.807 676.455 251.476 675.82 252.851 674.572C254.249 673.313 254.971 671.522 255.018 669.2L255.018 658.056C254.971 655.723 254.249 653.926 252.851 652.667C251.476 651.419 249.807 650.795 247.843 650.795C245.937 650.795 244.296 651.419 242.921 652.667C241.454 653.926 240.709 655.723 240.686 658.056L240.686 669.2Z"/>
<path d="M258.813 676.27L262.435 676.27L262.435 672.648L258.813 672.648L258.813 676.27Z"/>
<path d="M276.94 668.992C276.871 671.545 275.687 672.833 273.387 672.856C271.077 672.833 269.898 671.545 269.852 668.992L269.852 658.282C269.898 655.752 271.077 654.463 273.387 654.417C275.687 654.463 276.871 655.752 276.94 658.282L276.94 668.992ZM266.23 669.2C266.253 671.522 266.998 673.313 268.466 674.572C269.841 675.82 271.481 676.455 273.387 676.478C275.352 676.455 277.021 675.82 278.396 674.572C279.794 673.313 280.516 671.522 280.562 669.2L280.562 658.056C280.516 655.723 279.794 653.926 278.396 652.667C277.021 651.419 275.352 650.795 273.387 650.795C271.481 650.795 269.841 651.419 268.466 652.667C266.998 653.926 266.253 655.723 266.23 658.056L266.23 669.2Z"/>
</g>
</g>
</svg>
